<svg width="472" height="311" viewBox="0 0 472 311" fill="none" xmlns="http://www.w3.org/2000/svg">
<path d="M33.6956 136.839L94.8954 62.5736L113.118 64.9803L141.655 76.3264L155.408 81.4837L172.599 79.7646L184.288 72.5444H203.886L212.482 64.9803H222.796H233.455L245.832 59.1354H268.18L301.531 51.5714L345.196 45.0388L368.919 36.4434L376.139 47.1018L394.018 61.886L422.899 79.0769L420.148 92.8297L414.303 107.614L420.148 122.742L408.115 147.841H420.148L446.279 144.746L449.029 160.562L435.276 188.068H399.519L403.301 224.856L394.018 249.955L359.292 241.703L322.848 244.798L303.25 247.204L280.558 235.171L259.585 238.609L263.367 268.177L254.427 275.054L230.704 278.492L215.92 264.395L208.7 249.267L203.886 227.951L206.98 199.414L184.288 187.724L71.5157 233.796L33.6956 227.951L22.6934 188.411L33.6956 136.839Z" fill="url(#paint0_linear_144_7233)"/>
<path d="M148.746 78.6955C150.504 80.2192 152.661 77.9509 154.595 77.2743C159.009 75.7335 162.286 76.7824 166.412 78.4524C168.548 75.4066 171.7 71.7821 174.922 69.852C177.705 68.1828 182.026 67.7092 185.153 68.4601C188.279 69.2111 190.942 71.2926 194.395 70.9243C194.915 70.869 196.861 70.4379 197.339 70.2673C197.937 70.0533 200.717 66.1591 201.543 65.3071C207.877 58.7641 217.71 54.6335 225.33 61.5566C226.753 62.8509 226.345 63.8319 228.538 61.8004C232.639 58.0069 236.489 54.1218 242.331 53.0607C244.41 52.6828 246.176 52.9285 248.161 53.5925C252.048 54.8917 251.634 56.3506 256.464 56.0475C264.822 55.5209 275.186 55.9165 282.974 53.1361C284.765 52.4975 286.308 51.1329 288.156 50.4251C293.154 48.5094 301.041 45.8651 306.179 45.4638C306.346 45.4509 306.373 45.9525 306.593 45.9778C307.946 46.1332 310.388 45.5881 311.825 45.5952C319.432 45.6248 326.298 46.4759 333.793 44.1624C335.653 43.5879 337.469 42.2079 339.41 41.5389C344.79 39.6781 350.774 39.5027 355.959 37.9138C359.213 36.9169 359.599 35.2399 362.072 33.6834C367.519 30.2593 374.347 32.1004 378.324 36.8259C380.409 39.3041 381.312 43.2719 383.233 45.9225C389.294 54.277 409.295 62.7129 418.646 68.9883C423.008 71.9163 426.387 74.3974 428.47 79.452C432.614 89.5023 428.915 97.6478 422.375 105.407C424.786 108.705 429.237 108.796 432.178 111.338C435.504 114.216 435.145 117.694 433.132 121.221C432.332 122.623 429.934 124.961 429.532 126.166C429.131 127.371 429.365 129.207 429.132 130.584C428.833 132.334 427.823 136.131 427.24 137.83C427.062 138.35 425.306 141.451 425.556 141.626C426.811 141.194 428.075 140.695 429.296 140.166C436.114 137.215 440.652 133.239 448.71 136.298C458.945 140.185 460.024 152.21 456.645 161.316C453.121 170.811 445.996 185.698 439.936 193.682C435.737 199.214 422.048 198.359 415.689 199.565C411.203 200.416 406.814 202.543 402.245 202.979C402.385 203.834 402.4 204.724 402.607 205.57C404.513 213.392 412.138 215.415 411.829 225.445C411.617 232.35 404.402 242.581 400.301 248.132C393.89 256.815 389.08 262.61 377.086 259.802C372.324 258.687 367.197 256.012 362.588 255.06C356.642 253.833 353.333 254.009 348.055 250.042C347.388 249.541 345.626 247.546 345.235 247.585C344.312 247.675 342.174 250.971 341.382 251.827C332.536 261.416 326.332 269.831 312.055 263.453C307.533 261.432 302.337 258.675 297.851 256.4C293.824 254.358 286.181 251.145 283.842 247.487C282.951 246.097 282.729 244.557 281.802 243.364C276.467 245.845 270.41 245.952 264.632 246.106C265.125 247.809 265.669 249.451 266.385 251.077C267.252 253.054 273.2 262.24 272.86 263.313C272.798 263.509 271.496 264.674 271.136 265.195C269.976 266.881 269.277 268.766 267.864 270.378C266.451 271.99 259.261 278.951 257.7 279.936C254.335 282.064 245.743 282.643 241.663 282.716C238.832 282.766 234.697 280.755 231.794 280.677C230.143 280.633 228.08 281.194 226.402 280.892C225.259 280.685 220.602 278.572 219.218 277.954C218.293 277.542 214.049 275.649 213.616 275.224C211.842 273.486 210.146 268.34 208.38 266.228C207.883 265.635 206.565 265.158 206.435 264.863C206.115 264.138 207.426 260.019 207.066 259.262C206.813 258.731 204.796 258.13 204.23 257.759C194.631 251.431 194.344 239.541 195.514 229.111C196.178 223.197 198.85 219.553 197.263 213.354C196.629 210.873 196.345 212.338 194.579 211.677C193.998 211.459 192.576 210.274 191.773 209.835C189.435 208.557 190.226 209.388 188.227 207.342C186.228 205.296 183.812 203.674 182.805 200.994C181.229 201.989 179.182 202.969 177.355 203.369C173.807 204.148 169.13 203.918 165.783 204.87C164.001 205.379 162.438 207.31 160.747 208.065L163.062 222.727C163.46 229.818 164.202 243.946 154.023 244.161C146.953 244.313 144.469 237.943 143.812 231.923L143.103 210.738C141.11 210.056 138.969 209.201 137.505 207.606C137.094 207.159 136.333 205.615 136.236 205.543C135.665 205.116 135.802 205.77 135.739 206.022C134.482 210.922 134.508 214.368 129.79 217.598C125.024 220.859 119.569 219.988 114.936 223.28C112.821 224.782 110.848 227.509 108.761 229.205C104.328 232.811 97.9767 235.18 92.3754 233.14C91.4657 232.807 88.6011 231.013 88.061 231.112C87.3784 231.239 84.9283 233.455 84.0932 234.013C60.153 249.983 29.7247 240.859 19.8258 213.693C13.7436 197.001 17.3408 174.646 21.9627 157.848C30.1232 128.183 51.8478 101.049 71.6861 78.1056C75.9883 73.1441 88.5104 57.7754 94.1249 56.1429C101.125 54.106 105.792 58.6535 111.827 61.2778C115.812 63.008 120.961 64.9373 125.088 66.3321C131.332 68.4414 140.261 67.6004 144.967 72.1598C146.866 73.9994 147.399 77.5346 148.744 78.6986L148.746 78.6955ZM103.766 149.57C107.384 134.999 112.916 122.026 120.439 109.089C125.586 100.24 131.737 91.7639 136.848 82.961C137.452 81.9183 139.187 79.415 137.422 78.6976C132.99 77.7656 128.367 77.3209 124.002 76.1024C119.613 74.8785 100.929 68.0983 98.4435 65.3824C98.1955 65.111 98.0502 64.5233 98.0077 64.4979C97.7763 64.3563 95.581 66.085 95.198 66.4258C91.8436 69.4056 87.6916 74.4012 84.564 77.8599C68.5889 95.525 50.2474 118.322 39.2783 139.386C27.8913 161.241 16.7316 200.969 40.1162 218.679C51.5756 227.36 63.2272 228.41 75.6807 220.54C86.5111 213.695 87.7931 205.721 93.3154 195.111C94.0994 193.605 99.4118 184.734 99.2763 184.047C97.5474 183.892 88.635 177.903 88.0229 178.077C85.4226 178.811 82.6086 189.641 78.634 191.72C72.258 195.058 65.6417 188.832 63.1799 183.382C57.6723 171.185 63.7916 152.468 70.5595 141.679C71.6179 139.992 75.6794 134.135 77.1336 133.326C78.5877 132.517 81.3539 132.335 82.0865 134.158C83.3048 137.19 81.3597 150.604 81.2744 154.942C81.2569 155.859 80.9957 160.139 81.6371 160.48C82.5525 160.967 87.8223 158.284 89.0219 157.701C94.0665 155.255 98.8448 152.239 103.765 149.567L103.766 149.57ZM385.116 61.9897C384.91 61.7213 385.068 61.0921 384.761 60.6824C384.66 60.5494 382.506 59.2447 381.988 58.7945C376.093 53.6883 373.063 46.8857 367.955 41.2215L366.308 42.6752C362.963 47.6827 358.677 52.3756 355.431 57.4098C354.504 58.8474 351.147 64.6619 351.111 66.0303C351.076 67.3988 354.569 69.3292 355.68 70.2874C359.13 73.2589 360.689 74.3954 359.539 79.2487C357.69 87.0455 352.291 97.3474 348.214 104.332C346.118 107.919 343.306 111.164 341.288 114.652C340.46 116.085 339.103 118.069 340.109 119.705C340.857 120.923 344.368 120.615 344.517 122.858L340.009 135.434C341.215 135.709 343.439 136.247 344.228 137.221C345.864 139.24 347.647 145.523 347.505 148.075C347.428 149.472 344.877 152.284 344.525 153.858L334.057 161.317C335.708 161.92 337.397 163.366 339.054 163.861C341.299 164.534 348.288 164.457 350.529 163.854C352.184 163.406 353.316 160.848 356.246 160.3C358.178 159.94 361.977 161.509 363.008 161.083C363.211 160.998 364.926 158.851 364.995 158.62C365.205 157.939 364.919 156.494 364.711 155.783C363.751 152.512 361 148.685 359.86 145.323C358.635 141.713 358.277 136.803 358.565 132.995C358.737 130.719 359.822 128.231 359.837 125.889C362.703 127.277 366.141 130.371 366.178 133.781L366.689 133.432C368.343 136.451 366.545 139.964 367.313 142.768C367.587 143.771 368.332 143.962 368.616 144.619C368.787 145.018 368.808 146.017 368.865 146.066C369.038 146.21 372.06 145.616 372.629 145.366C374.39 144.591 383.515 138.098 385.155 136.64C386.053 135.843 386.486 134.758 387.513 133.984C389.22 132.696 391.874 131.743 393.741 130.589C396.995 128.576 400.016 126.173 403.422 124.39C403.976 123.912 402.086 123.096 402.053 122.463C403.871 122.629 405.61 124.231 406.282 121.628C406.799 119.631 405.356 118.752 403.673 118.271C401.867 117.755 392.45 117.699 390.856 118.405C389.263 119.111 387.6 121.672 385.26 122.308C382.792 122.977 377.027 121.219 374.914 119.747C373.256 118.592 372.443 117.04 371.154 115.667C370.91 115.406 370.028 115.617 370.795 114.835C374.321 111.227 385.351 107.633 390.35 106.318C392.945 105.633 398.764 104.923 400.726 103.892C402.344 103.042 406.481 98.6575 408.052 97.1152C410.59 94.6243 419.077 86.1503 419.333 82.9295C419.416 81.9086 416.515 79.9586 415.629 79.3282C412.878 77.3729 409.513 75.44 406.609 73.6167C401.687 70.5301 393.78 65.0694 388.804 62.8541C387.965 62.4814 385.278 62.202 385.116 61.9925L385.116 61.9897ZM357.821 46.4485C355.734 47.7256 352.452 48.9673 350.634 50.4851C350.083 50.9427 350.796 51.4438 350.24 51.9049C349.818 50.6006 349.781 50.3949 348.459 50.0277C349.428 49.8562 349.341 49.2387 349.367 48.371C346.157 48.5035 343.507 50.3211 340.618 51.4313C335.399 53.4343 326.826 54.9987 321.217 55.334C314.636 55.7262 308.168 54.0889 301.549 55.3251C299.85 55.6433 299.51 55.7092 298.269 57.0015C295.608 59.7805 286.281 72.6639 285.112 75.9397C283.282 81.0763 286.498 80.1068 290.346 80.9283L290.714 84.0047L286.652 97.7841C285.098 99.5403 282.489 99.2648 280.575 100.427C280.3 103.215 281.335 106.684 280.769 109.411C280.682 109.829 279.678 111.153 279.246 111.219C278.687 110.558 278.903 109.98 277.951 109.67C276.832 109.305 268.155 108.674 266.764 108.762C261.959 109.07 253.417 111.975 248.585 113.384C248.012 113.553 244.8 114.463 244.566 114.456C244.133 114.447 244.136 114.009 244.116 113.678C244.037 112.209 245.016 107.88 245.333 106.144C245.698 104.141 248.618 90.7437 249.34 90.0847C249.558 89.8828 249.855 89.769 250.139 89.6823C252.251 89.9146 254.348 89.1527 256.459 89.5142C257.877 89.7568 265.645 92.1932 266.844 92.8173C267.713 93.2675 270.062 95.4228 270.681 96.2222C271.195 96.8861 272.688 100.007 272.898 100.112C273.207 100.266 277.104 99.7987 277.3 99.639C277.691 99.3195 277.149 97.5114 277.551 96.9689L285.729 85.1387C285.788 84.9431 284.447 81.7609 284.199 81.3155C283.561 80.1651 281.878 78.963 281.882 77.6996C281.884 77.0594 282.923 73.5002 283.211 72.7308C284.542 69.1959 287.202 65.5948 288.639 61.9986C288.791 61.6228 289.097 61.3199 288.944 60.868C286.71 61.3948 284.556 62.3296 282.317 62.832C277.603 63.892 271.736 64.9365 266.924 65.0493C265.234 65.0885 262.115 65.1252 260.932 64.4541L251.381 68.7535C250.892 68.7683 247.289 66.5768 246.679 66.1327C245.776 65.4737 243.114 62.4996 242.441 62.5912C241.9 62.6631 237.999 67.3349 237.39 68.1508C235.016 71.3336 232.938 75.1015 230.591 78.3454C230.506 78.9989 232.967 80.6629 233.427 81.9819C235.118 86.8229 233.731 91.2491 231.768 95.6562C228.563 102.852 223.413 108.954 219.173 115.527C218.529 116.524 214.7 122.464 214.69 123.024C214.682 123.51 215.739 123.83 216.109 124.004C217.964 124.881 224.818 126.576 225.183 128.645C225.491 130.396 222 137.813 221.38 140.124C220.203 144.506 221.575 144.331 222.33 147.821C222.501 148.61 222.297 149.408 222.43 150.005C223.402 154.45 224.802 158.75 225.279 163.314C225.545 163.664 226.816 162.955 227.195 162.785C229.718 161.663 234.276 158.263 236.381 157.696C239.04 156.981 242.65 157.01 245.478 156.52C253.726 155.095 260.834 151.512 268.733 149.371C269.622 149.131 271.4 148.264 271.747 149.222C279.523 143.906 288.375 139.539 296.076 134.188C305.886 127.374 314.671 118.947 324.49 112.118C330.2 110.372 334.88 105.994 340.966 105.575C340.666 103.441 340.763 101.327 339.206 99.6429C337.842 98.1671 337.584 98.8512 336.216 98.7117C326.227 97.6873 316.087 97.7486 306.032 97.8187C304.514 96.8986 304.412 97.0856 304.273 95.237C303.954 90.9112 304.154 83.8752 309.278 82.6871C315.893 81.1512 319.962 84.8575 321.991 90.8536C327.802 90.3858 332.049 89.9946 336.166 85.5646C338.991 82.5235 346.007 71.215 346.334 67.3004C346.642 63.6071 346.706 62.945 348.609 59.6037C351.221 55.0152 355.361 51.1943 357.825 46.4536L357.821 46.4485ZM220.036 151.897L216.171 152.391L215.924 150.461C216.899 150.317 217.507 151.235 218.306 151.557C217.314 148.56 215.721 146.154 215.856 142.817C215.991 139.479 218.896 135.221 219.515 131.963C219.602 131.505 219.782 130.803 219.479 130.412C219.295 130.175 214.6 128.185 214.002 128.006C210.219 126.887 207.717 128.428 204.554 130.342C203.593 130.925 200.974 133.112 200.339 133.325C199.704 133.538 197.966 133.246 198.175 132.378C198.195 132.294 199.249 131.777 199.572 131.45C204.992 125.95 210.238 120.158 214.919 113.969C219.737 107.597 230.398 93.6059 229.231 85.4678C228.99 83.7756 223.052 75.2875 221.656 73.3837C220.721 72.1084 218.153 68.5498 217.011 67.8034C215.569 66.8623 211.885 68.6746 210.665 69.622C209.151 70.7977 207.203 74.4845 205.45 76.2886C200.669 81.2131 197.75 82.1784 190.779 81.1273C188.439 80.7754 182.781 77.9626 181.561 78.082C180.175 78.2198 178.658 80.179 177.743 81.236C174.05 85.4967 170.796 91.082 167.541 95.7413C166.493 97.2447 162.559 101.575 162.48 103.045C162.429 104.003 163.889 105.637 164.587 106.309C166.004 107.668 167.681 108.248 168.116 110.601C167.257 119.514 164.097 128.385 162.787 137.103C162.61 138.288 161.829 141.727 162.857 142.331C163.74 142.849 168.437 143.784 168.54 144.066C168.976 145.256 167.47 148.69 167.125 150.162C166.292 153.723 165.675 157.389 165.774 161.064C169.602 163.524 173.868 165.218 177.928 167.253C178.697 167.34 184.621 164.593 185.23 163.917C186.552 162.446 185.132 161.915 184.535 160.63C182.219 155.642 182.381 151.417 183.382 146.123C184.534 144.881 186.243 145.227 187.6 145.087C190.852 144.753 199.753 143.609 200.249 148.384C200.65 152.25 200.315 156.716 200.678 160.68C200.768 161.67 201.029 164.94 201.351 165.595C201.674 166.25 206.654 167.931 207.498 167.975C208.453 168.024 210.219 165.94 210.934 165.125C213.001 162.77 215.648 159.305 217.433 156.714C217.791 156.194 220.463 152.182 220.041 151.888L220.036 151.897ZM143.529 191.943C145.282 191.741 151.118 194.147 152.227 193.907C153.136 193.709 155.667 190.787 156.796 189.958C160.789 187.031 165.262 186.328 170.071 185.772C171.85 185.567 174.134 186.024 175.883 185.063C177.501 184.174 179.498 179.364 178.924 177.568C178.349 175.773 174.066 172.764 172.467 171.734C170.106 170.209 162.165 166.84 161.099 165.197C159.753 163.119 159.604 161.21 160.02 158.864C160.683 155.117 162.366 151.29 163.057 147.514C162.854 146.28 157.869 146.162 157.788 143.467C157.726 141.396 158.66 136.497 159.045 134.219C160.246 127.1 162.134 120.051 163.417 112.938C163.378 111.669 160.407 110.073 159.406 108.826C158.938 108.246 158.227 107.357 158.1 106.627C157.944 105.735 158.951 102.309 159.352 101.362C160.471 98.7161 163.333 96.717 162.894 93.7225C162.576 91.5433 161.807 89.3011 160.401 87.5921C158.474 85.2509 158.146 86.3005 156.208 87.9849C149.243 94.0418 142.564 102.369 134.93 107.61C134.491 107.911 133.875 107.79 133.483 108.233C132.852 108.942 130.642 116.965 129.963 118.699C123.867 134.287 109.053 150.519 99.4219 164.505C97.85 166.785 93.3197 172.904 95.3525 175.568C96.896 177.588 102.942 179.159 105.262 180.448C106.882 181.748 105.635 183.512 104.93 184.941C101.862 191.17 97.5661 197.234 94.4313 203.447C93.6096 205.076 89.9059 213.205 89.9991 214.461C90.0541 215.221 93.081 215.805 93.7846 215.886C96.6427 216.225 97.3164 215.743 99.5383 214.112C105.08 210.045 111.9 202.494 119.049 201.56C121.133 201.288 124.043 202.519 125.448 200.683C125.909 200.08 125.3 199.414 125.35 199.368C125.43 199.296 125.924 199.405 126.099 199.214C126.219 199.081 126.158 198.488 126.43 198.091C126.872 197.448 128.587 195.955 128.517 195.45C126.513 193.343 123.04 193.153 121.923 190.102L123.573 174.537C123.874 173.834 132.485 169.823 133.849 169.239C134.871 168.8 137.135 167.649 138.037 167.488C138.375 167.428 138.536 167.526 138.678 167.822C139.506 171.625 140.027 175.46 140.475 179.334L143.528 191.957L143.529 191.943ZM340.488 108.44C333.499 110.06 327.185 114.341 321.368 118.41C302.151 131.854 284.671 148.103 262.849 157.51C254.897 160.94 246.029 163.639 237.647 165.889C230.894 167.704 221.987 168.893 215.791 171.879C214.094 172.697 213.598 176.439 213.38 178.227C212.574 184.891 213.467 192.034 216.998 197.816C218.603 200.442 220.958 198.272 222.822 197.273C222.962 197.2 222.917 196.826 223.17 196.696C223.462 196.546 225.844 195.579 226.108 195.512C226.747 195.355 228.325 195.335 228.503 196.132C228.525 197.667 229.179 199.029 229.356 200.524C229.5 201.738 229.658 208.111 229.314 208.957C228.566 210.79 228.225 209.551 227.949 209.41C226.391 208.613 223.812 209.231 222.205 209.456C221.7 209.526 221.142 209.289 220.766 209.354C219.583 209.561 218.412 213.682 217.915 214.826C216.836 217.316 216.181 219.238 215.262 221.732C214.139 224.783 212.96 227.805 212.028 230.926C211.491 231.775 210.619 229.886 210.864 229.285L212.43 223.026C208.931 227.158 207.111 234.103 209.859 239.067C213.756 238.252 218.79 235.434 222.695 235.49C223.125 235.497 224.12 235.572 224.306 235.994L223.404 246.939L220.458 264.075L221.943 265.744L246.744 273.92C249.093 273.897 254.444 269.989 256.229 268.343C256.661 267.946 258.74 265.831 258.974 265.489C259.189 265.175 259.416 264.756 259.327 264.364C256.146 259.214 252.809 253.286 251.327 247.375C250.371 243.563 250.419 239.658 250.131 235.758C249.991 233.895 248.512 228.651 250.653 227.701C252.453 226.901 255.948 226.312 257.984 225.906C261.451 225.215 265.486 224.571 269 224.203C269.883 224.11 273.749 224.23 274.168 223.972C276.696 218.695 278.551 213.126 280.83 207.744C282.686 203.359 285.409 199.023 286.365 194.357C286.285 193.531 277.61 197.284 276.947 197.525C273.112 198.917 266.319 201.713 262.498 202.055C262.274 202.076 260.534 201.986 260.446 201.936C260.237 201.817 258.287 199.869 258.183 199.579C257.481 197.648 258.051 195.254 257.6 193.26C257.609 191.093 258.643 184.977 259.715 183.201C260.788 181.425 269.976 178.357 272.375 177.564C283.486 173.896 294.951 171.317 306.4 168.916C306.479 168.258 306.218 168.476 305.972 168.331C301.552 165.697 296.739 164.533 296.331 158.268C295.866 151.095 303.415 144.31 309.011 140.951C315.66 136.96 323.309 134.097 331.053 133.362L334.794 123.068C334.505 118.957 334.443 117.045 336.658 113.56C337.789 111.782 339.447 110.288 340.488 108.437L340.488 108.44ZM414.979 126.982C413.801 127.492 413.132 126.738 412.199 126.554C410.786 126.275 406.226 125.491 405.086 125.9C400.492 127.546 392.694 134.492 388.275 137.554C383.73 140.706 379.019 143.652 374.491 146.801C373.973 147.162 373.216 147.191 372.722 147.673C371.684 148.689 372.117 150.363 371.903 151.518C371.758 152.3 371.069 153.6 371.063 154.129C371.044 155.343 372.976 155.439 372.964 156.047C371.803 159.013 369.586 162.262 371.616 165.351C366.299 166.412 360.902 168.909 355.656 166.512C355.308 166.352 355.171 165.876 355.07 165.833C354.696 165.67 353.097 166.691 352.652 166.986C347.685 170.282 340.346 175.94 335.763 179.804C332.085 182.906 331.862 189.591 332.329 194.084C332.404 194.801 332.562 195.468 332.912 196.1C336.294 195.771 339.537 194.815 342.898 194.279C348.687 193.357 355.214 190.519 360.881 189.755C361.344 189.693 362.818 190.024 362.94 190.435L354.496 230.876C354.517 231.567 357.884 232.876 358.613 233.162C365.77 235.954 374.024 238 381.541 239.571C383.185 239.481 387.956 234.014 389.188 232.565C391.167 230.239 394.006 226.87 395.729 224.436C396.19 223.784 396.565 223.029 396.804 222.264C393.982 216.543 389.221 210.711 387.831 204.386C386.745 199.445 386.185 190.977 387.247 186.026C387.31 185.729 388.008 183.551 388.093 183.445C388.724 182.652 396.36 180.853 397.832 180.575C405.549 179.123 413.764 178.648 421.597 177.773C423.449 177.568 429.297 177.104 430.582 176.49C431.431 176.084 433.836 170.153 434.524 168.839C436.986 164.129 440.222 159.279 442.286 154.438C442.705 153.455 444.661 148.03 443.954 147.419C443.885 147.36 442.301 147.128 442.165 147.145C441.042 147.294 438.268 148.8 436.916 149.287C426.643 153.002 414.538 157.605 403.843 159.542C403.163 159.666 400.5 160.104 400.091 159.895C398.881 158.136 397.579 157.632 397.605 155.221C397.66 150.204 406.873 137.888 410.062 133.498C411.085 132.088 413.012 128.673 414.06 127.633C414.404 127.291 415.069 127.442 414.976 126.977L414.979 126.982ZM343.178 147.843C344.133 146.489 343.787 145.489 343.304 143.886C342.354 140.733 340.78 139.946 337.682 139.248C328.098 137.091 318.857 140.259 310.867 145.375C307.03 147.83 298.283 155.035 302.625 160.126C305.481 163.48 315.771 165.097 319.986 164.373C328.065 162.984 338.519 154.447 343.178 147.84L343.178 147.843ZM332.001 176.041C326.119 175.098 320.544 173.725 315.014 171.494C309.921 173.938 305.025 175.743 299.345 176.272C298.422 176.36 293.73 176.143 293.421 176.802L292.696 182.457C296.267 182.997 300.053 182.69 303.595 183.329C304.379 183.47 305.464 183.528 305.438 184.51L296.154 233.487C303.616 237.214 311.228 240.785 318.998 243.875C320.687 243.982 324.204 241.242 325.579 240.115C326.747 239.157 333.635 232.864 333.776 232.015C334.006 230.63 330.528 225.246 329.737 223.531C325.181 213.685 320.06 193.842 325.008 183.684C325.864 181.928 329.457 181.278 331.214 180.77C331.748 180.359 331.776 176.937 331.999 176.042L332.001 176.041Z" fill="url(#paint1_linear_144_7233)"/>
<path d="M50.4955 125.295C50.6685 125.419 49.895 127.03 49.7508 127.329C48.2989 130.285 46.2182 133.152 44.6871 136.104C37.7822 149.399 34.1721 164.628 29.903 178.916L28.8366 181.946C28.4046 177.601 29.516 173.1 30.3985 168.851C33.2651 155.05 38.2029 141.252 46.4304 129.741C47.1637 128.715 48.6033 126.629 49.4315 125.841C49.6643 125.62 50.1841 125.077 50.4958 125.298L50.4955 125.295Z" fill="url(#paint2_linear_144_7233)"/>
<g filter="url(#filter0_n_144_7233)">
<path d="M283.642 115.986C283.263 118.902 283.47 121.884 282.732 124.74C279.173 125.855 275.209 125.907 271.717 127.046C271.181 131.352 270.633 135.711 271.003 140.055C268.283 140.31 265.566 140.862 262.845 141.109C255.845 141.743 247.021 141.077 240.537 138.101C239.926 137.82 238.163 137.094 238.103 136.383C238.016 135.33 238.938 131.562 239.236 130.294C239.557 128.92 240.205 127.535 240.49 126.272C240.67 125.464 239.686 125.561 241.715 124.744C247.754 122.305 258.192 120.805 264.732 120.654C267.435 120.592 271.011 121.409 273.467 120.932C273.949 120.839 276.322 120.062 276.557 119.838C276.842 119.566 276.841 118.542 277.279 117.908C277.457 117.652 278.658 116.623 278.81 116.603L283.642 115.986Z" fill="url(#paint3_linear_144_7233)"/>
</g>
<g filter="url(#filter1_n_144_7233)">
<path d="M300.149 111.951C306.776 111.589 313.607 109.919 320.134 111.742C319.921 112.095 319.654 112.357 319.324 112.604C315.163 115.703 307.187 120.472 302.422 122.426C301.737 122.707 298.705 123.947 298.284 123.903C297.516 123.822 297.409 120.571 297.445 119.823C297.499 118.75 299.423 112.307 300.149 111.954L300.149 111.951Z" fill="url(#paint4_linear_144_7233)"/>
</g>
<path d="M235.554 170.125L233.841 171.407C229.357 173.588 224.832 175.64 220.07 177.181C218.82 178.12 219.721 179.103 219.626 179.814C219.579 180.168 219.116 180.457 219.039 180.862C218.921 181.495 218.413 185.514 218.024 185.544C217.932 185.553 217.297 184.795 216.747 185.432C216.505 183.277 214.906 176.715 216.448 175.123C217.216 174.329 219.827 173.479 220.962 173.14C224.306 172.143 228.637 171.273 232.105 170.56C233.179 170.338 234.468 170.053 235.554 170.119L235.554 170.125Z" fill="url(#paint5_linear_144_7233)"/>
<path d="M225.258 254.22C225.331 252.678 226.239 236.95 227.107 236.873C227.221 236.861 227.911 237.43 227.893 237.73C227.435 242.354 227.658 248.247 226.316 252.681C226.146 253.242 226.018 254.213 225.256 254.223L225.258 254.22Z" fill="url(#paint6_linear_144_7233)"/>
<path d="M271.586 201.719C271.816 202.486 271.482 202.201 271.024 202.389C268.893 203.264 261.636 205.682 259.606 205.784C259.3 205.801 258.395 205.922 258.329 205.515C258.219 204.833 270.507 202.432 271.586 201.719Z" fill="url(#paint7_linear_144_7233)"/>
<path d="M359.465 226.123C359.408 226.091 358.84 225.12 358.822 224.999C358.707 224.144 359.394 220.98 359.584 219.878C360.397 215.216 361.64 210.071 362.855 205.487C363.039 204.796 362.637 203.865 363.569 203.431C363.324 210.164 362.601 217.503 360.722 223.995C360.617 224.357 360.081 226.463 359.462 226.124L359.465 226.123Z" fill="url(#paint8_linear_144_7233)"/>
<path d="M370.763 169.677C371.441 170.233 369.361 170.695 369.087 170.741C366.524 171.178 361.746 171.427 359.092 171.413C357.997 171.407 353.386 171.104 352.589 170.813C352.115 170.64 351.773 170.095 351.983 169.829C352.225 169.524 358.647 170.24 359.755 170.234C362.896 170.214 366.33 169.682 369.49 169.553C369.716 169.544 370.697 169.621 370.766 169.676L370.763 169.677Z" fill="url(#paint9_linear_144_7233)"/>
<path d="M389.047 224.866C388.932 223.879 390.272 223.054 390.098 222.094C389.935 221.186 387.299 218.874 387.647 218.31C389.874 218.845 391.333 220.993 392.902 222.555C392.931 223.177 389.493 225.177 389.047 224.866Z" fill="url(#paint10_linear_144_7233)"/>
<path d="M432.829 155.061C432.883 155.11 433.302 156.35 433.292 156.467C433.222 157.323 429.875 157.863 429.709 157.663C429.368 157.257 428.766 155.445 429.215 155.026C429.491 154.766 432.679 154.923 432.829 155.061Z" fill="url(#paint11_linear_144_7233)"/>
<path d="M126.884 158.13C126.656 157.483 125.946 157.596 125.341 157.541C124.847 157.029 130.681 146.032 131.449 144.727C132.286 143.307 135.198 138.425 136.502 137.935C137.399 137.599 138.575 137.488 138.903 138.56C139.567 143.428 138.866 148.373 138.966 153.277C138.285 154.798 128.767 156.941 126.884 158.13Z" fill="url(#paint12_linear_144_7233)"/>
<path d="M399.586 92.18C390.754 94.5773 381.549 95.6697 372.952 98.952C372.518 98.6117 373.563 96.0507 373.762 95.4752C374.916 92.1677 376.587 88.9934 377.945 85.7664C378.236 84.7246 376.824 85.34 376.431 84.481C378.045 84.2607 379.889 84.0895 381.512 84.1824C386.555 84.4695 394.869 88.2562 398.913 91.2838C399.248 91.5328 399.618 91.6848 399.583 92.1831L399.586 92.18Z" fill="url(#paint13_linear_144_7233)"/>
<path d="M195.713 105.168C196.463 105.631 196.879 106.316 197.452 106.941C196.567 107.279 197.261 107.597 197.134 107.961C196.562 109.592 191.251 114.346 189.669 115.6C189.297 115.895 187.241 117.443 186.976 117.28C185.556 116.421 186.93 115.055 187.17 114.166C187.951 111.276 186.494 108.479 184.74 106.31C184.143 105.569 185.611 105.065 186.129 104.9C188.95 104.004 193.092 103.544 195.71 105.168L195.713 105.168Z" fill="url(#paint14_linear_144_7233)"/>
<path d="M180.03 160.147C180.897 159.75 182.838 159.898 183.541 160.63C183.596 161.083 180.23 163.621 179.597 163.5C178.444 163.28 179.118 160.564 180.03 160.147Z" fill="url(#paint15_linear_144_7233)"/>
<path d="M301.528 229.6C301.442 229.698 299.144 229.369 299.205 228.688C301.438 220.553 302.573 211.977 304.765 203.862C305.203 202.24 305.577 200.267 306.588 198.928C306.508 201.888 305.845 204.799 305.598 207.74C305.264 211.718 305.527 217.047 304.579 220.887C304.451 221.403 303.736 221.472 303.347 221.925C302.034 223.463 301.59 227.589 301.531 229.606L301.528 229.6Z" fill="url(#paint16_linear_144_7233)"/>
<defs>
<filter id="filter0_n_144_7233" x="238.098" y="115.986" width="45.5449" height="25.3418" filterUnits="userSpaceOnUse" color-interpolation-filters="sRGB">
<feFlood flood-opacity="0" result="BackgroundImageFix"/>
<feBlend mode="normal" in="SourceGraphic" in2="BackgroundImageFix" result="shape"/>
<feTurbulence type="fractalNoise" baseFrequency="1.1612553596496582 1.1612553596496582" stitchTiles="stitch" numOctaves="3" result="noise" seed="4124" />
<feColorMatrix in="noise" type="luminanceToAlpha" result="alphaNoise" />
<feComponentTransfer in="alphaNoise" result="coloredNoise1">
<feFuncA type="discrete" tableValues="1 1 1 1 1 1 1 1 1 1 1 1 1 1 1 1 1 1 1 1 1 1 1 1 1 1 1 1 1 1 1 1 1 1 1 1 1 1 1 1 1 1 1 1 1 1 1 1 1 1 1 0 0 0 0 0 0 0 0 0 0 0 0 0 0 0 0 0 0 0 0 0 0 0 0 0 0 0 0 0 0 0 0 0 0 0 0 0 0 0 0 0 0 0 0 0 0 0 0 0 "/>
</feComponentTransfer>
<feComposite operator="in" in2="shape" in="coloredNoise1" result="noise1Clipped" />
<feFlood flood-color="rgba(131, 75, 222, 0.21)" result="color1Flood" />
<feComposite operator="in" in2="noise1Clipped" in="color1Flood" result="color1" />
<feMerge result="effect1_noise_144_7233">
<feMergeNode in="shape" />
<feMergeNode in="color1" />
</feMerge>
</filter>
<filter id="filter1_n_144_7233" x="297.439" y="110.906" width="22.6953" height="12.998" filterUnits="userSpaceOnUse" color-interpolation-filters="sRGB">
<feFlood flood-opacity="0" result="BackgroundImageFix"/>
<feBlend mode="normal" in="SourceGraphic" in2="BackgroundImageFix" result="shape"/>
<feTurbulence type="fractalNoise" baseFrequency="1.1612553596496582 1.1612553596496582" stitchTiles="stitch" numOctaves="3" result="noise" seed="4124" />
<feColorMatrix in="noise" type="luminanceToAlpha" result="alphaNoise" />
<feComponentTransfer in="alphaNoise" result="coloredNoise1">
<feFuncA type="discrete" tableValues="1 1 1 1 1 1 1 1 1 1 1 1 1 1 1 1 1 1 1 1 1 1 1 1 1 1 1 1 1 1 1 1 1 1 1 1 1 1 1 1 1 1 1 1 1 1 1 1 1 1 1 0 0 0 0 0 0 0 0 0 0 0 0 0 0 0 0 0 0 0 0 0 0 0 0 0 0 0 0 0 0 0 0 0 0 0 0 0 0 0 0 0 0 0 0 0 0 0 0 0 "/>
</feComponentTransfer>
<feComposite operator="in" in2="shape" in="coloredNoise1" result="noise1Clipped" />
<feFlood flood-color="rgba(131, 75, 222, 0.21)" result="color1Flood" />
<feComposite operator="in" in2="noise1Clipped" in="color1Flood" result="color1" />
<feMerge result="effect1_noise_144_7233">
<feMergeNode in="shape" />
<feMergeNode in="color1" />
</feMerge>
</filter>
<linearGradient id="paint0_linear_144_7233" x1="235.861" y1="126.047" x2="235.861" y2="263.02" gradientUnits="userSpaceOnUse">
<stop stop-color="white"/>
<stop offset="1" stop-color="#ADFFE7"/>
</linearGradient>
<linearGradient id="paint1_linear_144_7233" x1="220.315" y1="39.851" x2="251.258" y2="281.932" gradientUnits="userSpaceOnUse">
<stop stop-color="#0079EA"/>
<stop offset="1" stop-color="#6B1BFF"/>
</linearGradient>
<linearGradient id="paint2_linear_144_7233" x1="36.2769" y1="127.039" x2="43.0627" y2="180.128" gradientUnits="userSpaceOnUse">
<stop stop-color="#0079EA"/>
<stop offset="1" stop-color="#004FD8"/>
</linearGradient>
<linearGradient id="paint3_linear_144_7233" x1="259.956" y1="119.013" x2="262.785" y2="141.146" gradientUnits="userSpaceOnUse">
<stop stop-color="#0079EA"/>
<stop offset="1" stop-color="#004FD8"/>
</linearGradient>
<linearGradient id="paint4_linear_144_7233" x1="308.083" y1="110.937" x2="309.557" y2="122.47" gradientUnits="userSpaceOnUse">
<stop stop-color="#0079EA"/>
<stop offset="1" stop-color="#004FD8"/>
</linearGradient>
<linearGradient id="paint5_linear_144_7233" x1="225.257" y1="171.322" x2="226.929" y2="184.406" gradientUnits="userSpaceOnUse">
<stop stop-color="#0079EA"/>
<stop offset="1" stop-color="#004FD8"/>
</linearGradient>
<linearGradient id="paint6_linear_144_7233" x1="225.44" y1="237.086" x2="227.593" y2="253.93" gradientUnits="userSpaceOnUse">
<stop stop-color="#0079EA"/>
<stop offset="1" stop-color="#004FD8"/>
</linearGradient>
<linearGradient id="paint7_linear_144_7233" x1="264.841" y1="202.581" x2="265.161" y2="205.086" gradientUnits="userSpaceOnUse">
<stop stop-color="#0079EA"/>
<stop offset="1" stop-color="#004FD8"/>
</linearGradient>
<linearGradient id="paint8_linear_144_7233" x1="359.877" y1="203.903" x2="362.672" y2="225.77" gradientUnits="userSpaceOnUse">
<stop stop-color="#0079EA"/>
<stop offset="1" stop-color="#004FD8"/>
</linearGradient>
<linearGradient id="paint9_linear_144_7233" x1="361.236" y1="168.614" x2="361.632" y2="171.714" gradientUnits="userSpaceOnUse">
<stop stop-color="#0079EA"/>
<stop offset="1" stop-color="#004FD8"/>
</linearGradient>
<linearGradient id="paint10_linear_144_7233" x1="389.941" y1="218.017" x2="390.795" y2="224.698" gradientUnits="userSpaceOnUse">
<stop stop-color="#0079EA"/>
<stop offset="1" stop-color="#004FD8"/>
</linearGradient>
<linearGradient id="paint11_linear_144_7233" x1="431.002" y1="154.745" x2="431.361" y2="157.55" gradientUnits="userSpaceOnUse">
<stop stop-color="#0079EA"/>
<stop offset="1" stop-color="#004FD8"/>
</linearGradient>
<linearGradient id="paint12_linear_144_7233" x1="130.898" y1="138.544" x2="133.297" y2="157.31" gradientUnits="userSpaceOnUse">
<stop stop-color="#0079EA"/>
<stop offset="1" stop-color="#004FD8"/>
</linearGradient>
<linearGradient id="paint13_linear_144_7233" x1="384.689" y1="83.4237" x2="386.453" y2="97.2262" gradientUnits="userSpaceOnUse">
<stop stop-color="#0079EA"/>
<stop offset="1" stop-color="#004FD8"/>
</linearGradient>
<linearGradient id="paint14_linear_144_7233" x1="190.714" y1="104.028" x2="192.324" y2="116.617" gradientUnits="userSpaceOnUse">
<stop stop-color="#0079EA"/>
<stop offset="1" stop-color="#004FD8"/>
</linearGradient>
<linearGradient id="paint15_linear_144_7233" x1="181.049" y1="159.924" x2="181.477" y2="163.273" gradientUnits="userSpaceOnUse">
<stop stop-color="#0079EA"/>
<stop offset="1" stop-color="#004FD8"/>
</linearGradient>
<linearGradient id="paint16_linear_144_7233" x1="301.081" y1="199.632" x2="304.858" y2="229.183" gradientUnits="userSpaceOnUse">
<stop stop-color="#0079EA"/>
<stop offset="1" stop-color="#004FD8"/>
</linearGradient>
</defs>
</svg>
