<svg width="456" height="275" viewBox="0 0 456 275" fill="none" xmlns="http://www.w3.org/2000/svg">
<path d="M140.045 113.984L144.364 138.83C142.279 156.444 140.045 173.925 138.713 191.636L144.215 201.7L153.325 197.799L162.348 185.033C155.637 160.219 149.441 135.249 143.387 110.243C146.249 94.8559 147.785 79.0976 151.418 63.9214L167.833 56.5385C170.488 44.9363 172.254 33.1025 174.555 21.4408L196.646 12.5913C190.566 44.5256 184.021 76.3604 178.538 108.432C178.271 109.107 174.593 112.09 173.768 112.717C173.425 112.979 171.803 114.244 171.548 114.017L165.309 90.6421L159.168 101.698L176.852 171.152L169.312 215.122L159.796 226.83C158.43 227.511 152.768 227.668 152.109 228.646C151.884 228.98 151.734 229.746 151.664 230.182C150.84 235.258 150.515 240.472 149.812 245.569C149.467 248.073 149.036 250.603 148.6 253.091L129.567 261.818L131.829 244.682L133.6 235.437L121.378 203.956C122.946 187.245 126.622 170.661 128.757 153.956" fill="#2A1E0E"/>
<path d="M69.8326 132.016L57.4565 121.82L47.8023 133.686C42.6755 161.248 38.2623 188.953 34.4546 216.766L40.4905 225.388L41.323 225.739L69.0133 201.144L65.4664 234.353L46.6891 256.341L28.6968 259.45C24.468 253.886 19.7681 248.671 15.5483 243.108C14.871 242.214 12.6235 239.357 12.593 238.546C12.5549 237.508 13.0293 236.647 13.1096 235.675C13.7225 228.281 14.1085 220.845 14.7593 213.482C16.9896 188.27 20.965 163.247 24.8743 138.256C33.9015 123.604 44.3403 109.998 53.4754 95.4336L67.0478 90.1169L67.9115 90.5087L80.4613 112.848L69.8297 132.013L69.8326 132.016Z" fill="#2A1E0E"/>
<path d="M273.22 45.8909L273.372 60.8219L266.052 86.1454C265.688 86.59 264.991 86.4264 264.511 86.3615C258.549 85.5793 252.351 83.8782 246.384 82.9016L245.921 83.3718L239.185 123.109L249.467 119.928L245.522 144.196L236.311 145.559L230.676 182.827L230.579 186.855L258.144 173.532L254.863 205.342L254.589 205.867L215.408 212.66C218.23 198.558 219.625 184.163 221.984 169.961L215.249 139.438L230.377 54.6914L273.208 45.8869L273.22 45.8909Z" fill="#2A1E0E"/>
<path d="M226.146 55.6432C224.575 64.9597 222.93 74.2842 221.399 83.6099C220.614 88.3815 220.157 93.2529 219.3 98.0098C219.009 99.6243 218.34 104.358 217.769 105.498C217.637 105.76 213.973 109.169 213.568 109.43C213.298 109.602 213.239 109.857 212.787 109.694L206.776 87.6291L205.881 88.1056L199.582 97.3189L217.713 168.791L211.545 209.922L204.72 217.611L172.568 223.353L182.257 159.359L193.563 189.713C193.963 189.931 194.567 189.04 194.792 188.761C197.037 185.962 198.888 182.421 201.103 179.549L182.184 120.381C184.161 105.222 187.111 90.2099 189.624 75.1423L198.053 60.0609C207.442 58.781 216.857 57.5901 226.142 55.6559L226.146 55.6432Z" fill="#2A1E0E"/>
<path d="M339.441 53.2847C339.314 58.5053 341.609 64.673 341.213 69.7459C340.37 80.487 337.557 91.8777 336.423 102.674L323.452 131.304C323.375 131.819 323.842 132.1 324.11 132.413C326.229 134.873 330.047 136.918 332.4 139.287L332.669 139.949L330.601 164.059C330.104 171.054 329.054 177.982 328.114 184.904C327.898 186.501 328.122 188.474 327.734 189.975C327.402 191.263 321.76 201.55 320.755 203C320.45 203.438 320.23 203.932 319.762 204.224L292.994 211.769C292.707 211.504 292.669 211.485 292.702 211.09C293.245 204.393 293.544 197.679 294.09 190.988C294.152 190.229 294.49 189.543 294.554 188.784C297.332 155.691 300.887 122.56 304.827 89.5714C305.883 80.7247 306.565 71.8302 307.97 63.0363L339.444 53.2849L339.441 53.2847ZM326.513 79.8919L320.983 80.498L315.779 120.866C316.238 120.823 316.386 120.299 316.602 119.957C318.346 117.228 319.781 113.795 321.499 110.992L326.513 79.8919ZM313.442 184.024L317.98 150.109L312.373 151.545L308.855 184.73L313.442 184.024Z" fill="#2A1E0E"/>
<path d="M133.757 71.3689C126.025 114.206 121.433 157.606 116.06 200.855L97.0125 231.501C96.1311 232.36 92.5562 233.079 91.1513 233.437C88.1922 234.195 85.1537 234.746 82.153 235.281C81.625 235.106 76.4206 227.003 75.6609 225.803C74.7476 224.36 71.4185 219.552 71.33 218.284C75.1239 182.513 79.138 146.691 85.9031 111.429L86.6395 110.589L100.123 106.589L92.8383 151.191L86.3118 200.708L94.9887 204.224L101.521 194.432L105.414 160.77L118.63 77.8974L133.76 71.3627L133.757 71.3689Z" fill="#2A1E0E"/>
<path d="M413.901 91.298L425.684 88.5395L421.366 114.872L409.819 118.077L404.735 151.612L405.165 152.13L421.622 145.481L415.234 167.331L384.527 182.409L386.309 157.785C388.457 139.447 390.216 120.953 392.402 102.595C395.239 78.7737 398.508 54.9589 401.984 31.2195L432.066 20.7493L432.969 21.4544L443.111 37.2558L438.784 54.029L419.368 58.6718L413.895 91.2944L413.901 91.298Z" fill="#2A1E0E"/>
<path d="M283.207 118.34L298.966 80.2917C298.582 83.1067 298.448 85.9712 298.145 88.7982C294.858 119.391 294.125 150.451 292.567 181.19C292.056 191.287 291.153 201.351 291.041 211.436L281.97 214.592L279.65 146.873L265.452 224.786L262.011 150.206L257.433 170.777L245.857 174.65L259.699 92.5087L265.001 120.991L276.218 77.1434L283.204 118.346L283.207 118.34Z" fill="#2A1E0E"/>
<path d="M363.458 45.5396L359.82 70.3488C359.678 71.5171 359.75 72.716 359.599 73.8836C356.312 99.176 353.249 124.532 351.317 149.929C351.019 153.844 350.912 157.781 350.62 161.693L383.078 145.789L379.629 182.842L331.835 199.213C332.376 194.131 331.867 188.987 332.459 183.904C334.086 169.877 337.698 155.508 339.019 141.363C339.297 138.392 338.07 138.341 336.234 136.57C338.495 108.273 342.533 80.1482 345.64 51.9248L346.203 51.2186L363.464 45.5433L363.458 45.5396Z" fill="#2A1E0E"/>
<path d="M191.963 0.902861C196.234 -0.80803 201.098 -0.0523775 204.65 2.87259C208.201 5.79752 209.875 10.4262 209.014 14.9458C206.987 25.5913 204.921 36.1629 202.867 46.6997C209.845 45.746 216.501 44.7797 223.073 43.4312C223.874 43.229 224.699 43.1072 225.539 43.0669C226.273 42.7615 227.043 42.5221 227.841 42.3579L270.672 33.5542L271.083 33.4761C273.14 33.1238 275.256 33.2888 277.238 33.9585L277.251 33.9624L277.721 34.1324C282.533 35.9733 285.757 40.5775 285.81 45.7632L285.961 60.6939C285.974 61.9195 285.808 63.1404 285.467 64.3179L284.501 67.6617C286.275 69.2116 287.612 71.2576 288.298 73.605C289.777 71.2417 291.971 69.4818 294.489 68.523C294.801 66.0076 295.144 63.4997 295.536 61.0503C296.291 56.3193 299.667 52.4272 304.244 51.0093L335.564 41.3052C336.761 40.9178 338.018 40.7088 339.293 40.6939C340.213 40.0896 341.213 39.6049 342.27 39.2574L359.185 33.6958C362.769 32.4025 366.773 32.7965 370.053 34.814L370.059 34.8179C374.234 37.3856 376.54 42.1432 375.968 47.0113C375.941 47.2433 375.905 47.4733 375.866 47.7017L372.317 71.897C372.313 71.9829 372.308 72.1642 372.297 72.5122C372.281 73.0237 372.252 74.2105 372.087 75.4908C372.087 75.496 372.085 75.5011 372.085 75.5064C369.245 97.3519 366.597 119.081 364.7 140.772L376.148 135.163C376.372 133.067 376.597 130.968 376.821 128.864C377.802 119.661 378.796 110.374 379.899 101.107V101.106C382.754 77.1391 386.039 53.2066 389.525 29.396L389.596 28.9624C390.407 24.5112 393.55 20.8223 397.844 19.3277L427.926 8.85794L428.306 8.73196C432.245 7.4997 436.548 8.27554 439.814 10.8257L440.717 11.5308L441.129 11.8667C442.073 12.6699 442.894 13.6085 443.564 14.6529L453.707 30.4546C455.599 33.4035 456.177 37.0079 455.302 40.4009L450.976 57.1743C449.811 61.689 446.247 65.1905 441.712 66.2749L430.405 68.9781L429.154 76.437C431.041 76.9781 432.804 77.9599 434.282 79.3413C437.353 82.2126 438.789 86.4274 438.109 90.5767L433.792 116.91C432.997 121.752 429.461 125.692 424.733 127.004L421.044 128.028L420.296 132.96C423.806 132.588 427.374 133.706 430.07 136.146C433.648 139.384 435.061 144.382 433.707 149.014L427.319 170.864C426.327 174.256 423.956 177.076 420.784 178.633L390.077 193.711C387.907 194.777 385.522 195.175 383.199 194.928L335.916 211.125C333.999 211.781 331.986 211.955 330.043 211.675C329.305 212.598 328.136 213.839 326.431 214.904C325.421 215.535 324.325 216.019 323.178 216.342L296.41 223.888C295.045 224.273 293.648 224.417 292.273 224.338L286.106 226.484C283.431 227.414 280.556 227.404 277.934 226.517L277.838 227.043C276.69 233.343 270.996 237.778 264.607 237.349C258.218 236.92 253.169 231.763 252.874 225.367L252.579 218.994L217.559 225.066C216.634 225.226 215.705 225.28 214.787 225.235L214.136 225.969C212.257 228.086 209.72 229.509 206.933 230.006L174.781 235.748C172.825 236.097 170.847 235.973 168.995 235.424C167.971 236.52 166.758 237.428 165.412 238.099C164.635 238.486 163.944 238.74 163.463 238.9C163.387 238.925 163.311 238.948 163.237 238.971C163.229 239.044 163.221 239.117 163.213 239.191C162.953 241.651 162.67 244.485 162.284 247.284L162.285 247.285C161.906 250.035 161.44 252.762 161.002 255.261C160.289 259.342 157.613 262.81 153.847 264.537L134.814 273.263C130.648 275.173 125.774 274.669 122.087 271.947C118.401 269.224 116.484 264.714 117.084 260.17L119.345 243.035L119.399 242.672C119.418 242.552 119.439 242.432 119.462 242.312L120.552 236.62L115.978 224.836L107.706 238.147C107.169 239.01 106.53 239.806 105.802 240.516C104.586 241.702 103.378 242.435 102.675 242.825C101.9 243.255 101.179 243.572 100.628 243.794C99.5395 244.233 98.4717 244.556 97.688 244.777C96.863 245.009 96.0715 245.205 95.4742 245.348C94.7482 245.522 94.5115 245.574 94.272 245.634L94.273 245.635C90.7981 246.525 87.3218 247.149 84.3609 247.676C82.3003 248.043 80.1808 247.891 78.1939 247.233C75.9533 246.491 74.4906 245.289 74.1744 245.034C73.8925 244.806 73.6474 244.587 73.4449 244.398L56.2632 264.518C54.3556 266.752 51.7271 268.248 48.8326 268.749L30.8394 271.857C26.208 272.657 21.5166 270.811 18.6724 267.069C16.744 264.532 14.6815 262.04 12.4205 259.309C10.2164 256.647 7.81494 253.748 5.51615 250.717L5.51323 250.713C5.31784 250.456 4.34622 249.204 3.51908 248.025C3.10627 247.436 2.54279 246.605 2.03178 245.709C1.78017 245.267 1.41712 244.595 1.07963 243.786C0.853154 243.243 0.100645 241.422 0.0102953 239.019V239.008C-0.07831 236.596 0.428899 234.644 0.616741 233.937C1.11843 227.7 1.63732 218.924 2.21635 212.374V212.373C4.49088 186.661 8.54049 161.202 12.4341 136.31C12.6925 134.659 13.2771 133.075 14.1538 131.652C18.8672 124.001 23.9168 116.677 28.7798 109.648C33.701 102.535 38.4208 95.7386 42.8081 88.7437L43.0855 88.3208C44.5096 86.2406 46.5279 84.6318 48.8824 83.7095L62.4546 78.3931C65.62 77.1531 69.1526 77.2457 72.2486 78.6499L73.1119 79.0425L73.565 79.2583C75.8027 80.3828 77.6578 82.1514 78.8882 84.3413L86.3091 97.5523L96.5425 94.5181C98.761 93.8602 101.077 93.8365 103.249 94.3931L106.196 75.9146L106.265 75.5171C107.051 71.4352 109.805 67.9934 113.637 66.3384L128.767 59.8033C132.259 58.2952 136.154 58.4759 139.417 60.1158C140.495 56.7143 142.973 53.9133 146.253 52.438L156.868 47.6636C158.762 38.386 160.162 29.3389 162.201 19.0044L162.285 18.6138C163.208 14.6045 166.037 11.2887 169.872 9.75247L191.963 0.902861ZM174.554 21.4409L174.128 23.6294C172.029 34.5809 170.321 45.6617 167.833 56.5386L151.418 63.9214L151.084 65.3462C147.688 80.0824 146.159 95.3367 143.386 110.243C149.44 135.248 155.637 160.219 162.348 185.033L153.325 197.799L144.214 201.7L138.712 191.636C140.045 173.926 142.278 156.445 144.364 138.831L128.756 153.957C126.622 170.661 122.946 187.245 121.377 203.956L133.6 235.437L131.829 244.682L129.567 261.818L148.6 253.091C149.035 250.603 149.467 248.073 149.811 245.569C150.514 240.472 150.839 235.258 151.664 230.182C151.724 229.801 151.847 229.166 152.028 228.79L152.109 228.646C152.768 227.668 158.429 227.51 159.795 226.83L169.312 215.123L176.852 171.153L159.168 101.698L165.309 90.6421L171.547 114.016C171.803 114.244 173.425 112.979 173.768 112.717C174.593 112.09 178.27 109.107 178.538 108.432C184.02 76.3604 190.566 44.5256 196.646 12.5913L174.554 21.4409ZM53.4751 95.4331L52.6148 96.7964C43.6888 110.849 33.6187 124.062 24.8736 138.256L23.4087 147.629C19.9984 169.506 16.7109 191.421 14.7593 213.482L14.5259 216.247C14.0077 222.703 13.6453 229.205 13.1089 235.675L13.0894 235.856C12.9713 236.755 12.5566 237.573 12.5923 238.546C12.6234 239.358 14.8699 242.214 15.5474 243.108C19.5034 248.324 23.8817 253.233 27.898 258.411L28.6968 259.45L46.689 256.341L65.4663 234.353L69.0132 201.144L41.3228 225.739L40.4898 225.388L34.4537 216.766C38.2614 188.953 42.6755 161.248 47.8023 133.686L57.4556 121.82L69.8326 132.016L69.8296 132.012L80.4605 112.848L67.9107 90.5083L67.0474 90.1167L53.4751 95.4331ZM118.629 77.897L105.414 160.77L101.521 194.431L94.9878 204.224L86.3111 200.709L92.8374 151.192L100.123 106.589L86.6392 110.588L85.9029 111.428C79.1378 146.691 75.1235 182.513 71.3296 218.285C71.4187 219.553 74.7475 224.36 75.6607 225.803C76.3969 226.966 81.3035 234.606 82.0894 235.242L82.1529 235.281C85.1535 234.746 88.1919 234.195 91.1509 233.437C92.5119 233.09 95.9092 232.404 96.9214 231.581L97.0122 231.501L116.059 200.855C121.432 157.606 126.025 114.206 133.756 71.3687L133.759 71.3628L118.629 77.897ZM265.001 120.991L259.699 92.5083L245.857 174.65L257.432 170.777L262.01 150.206L265.452 224.787L279.649 146.873L281.969 214.592L291.041 211.436C291.152 201.351 292.056 191.287 292.566 181.19C294.124 150.451 294.858 119.391 298.145 88.7984C298.448 85.9713 298.582 83.1066 298.966 80.2915L283.207 118.34L283.204 118.346L276.217 77.1431L265.001 120.991ZM226.142 55.6558C216.857 57.59 207.442 58.7811 198.052 60.0611L189.624 75.1421C187.111 90.2098 184.161 105.222 182.184 120.381L201.103 179.548C198.888 182.421 197.036 185.962 194.792 188.761C194.566 189.041 193.962 189.931 193.562 189.713L182.256 159.359L172.568 223.353L204.719 217.611L211.544 209.922L217.712 168.791L199.582 97.3189L205.88 88.106L206.775 87.6294L212.787 109.694C213.239 109.857 213.297 109.602 213.568 109.429C213.973 109.168 217.637 105.76 217.769 105.498C218.34 104.358 219.009 99.6251 219.299 98.0103C220.157 93.2533 220.613 88.3815 221.398 83.6099C222.93 74.2842 224.575 64.9596 226.146 55.6431L226.142 55.6558ZM230.377 54.6919L215.249 139.438L221.984 169.961C219.625 184.163 218.229 198.559 215.408 212.661L254.588 205.868L254.862 205.342L258.144 173.533L230.579 186.855L230.676 182.827L236.311 145.559L245.522 144.196L249.467 119.928L239.185 123.109L245.921 83.3716L246.384 82.9019C252.351 83.8786 258.549 85.5796 264.511 86.3618C264.991 86.4267 265.688 86.5896 266.051 86.1451L273.372 60.8218L273.219 45.8911L273.208 45.8872L230.377 54.6919ZM307.969 63.0367L307.714 64.6861C306.478 72.9417 305.817 81.278 304.827 89.5718C300.886 122.56 297.332 155.691 294.554 188.784C294.49 189.543 294.151 190.229 294.089 190.989C293.544 197.679 293.245 204.393 292.702 211.089C292.669 211.485 292.707 211.504 292.994 211.769L319.762 204.223C320.23 203.931 320.449 203.438 320.754 203C321.761 201.549 327.402 191.263 327.734 189.975C328.122 188.474 327.898 186.502 328.114 184.905C329.053 177.982 330.103 171.054 330.6 164.059L332.668 139.949L332.4 139.287C330.046 136.917 326.228 134.873 324.11 132.413C323.841 132.1 323.375 131.819 323.452 131.303L336.422 102.673C337.557 91.8776 340.369 80.4866 341.212 69.7456C341.608 64.6727 339.313 58.5052 339.439 53.2847L307.969 63.0367ZM59.4771 139.799C55.6981 160.391 52.3159 181.07 49.2847 201.825L60.6509 191.73C60.97 191.447 61.3023 191.183 61.6431 190.937C63.3954 175.457 65.312 159.92 67.5953 144.408C65.5358 144.037 63.5443 143.15 61.8257 141.734L59.4771 139.799ZM346.203 51.2183L345.64 51.9243C342.533 80.1477 338.495 108.273 336.234 136.57C338.07 138.341 339.297 138.392 339.019 141.363C337.697 155.508 334.085 169.877 332.459 183.905C331.866 188.987 332.375 194.131 331.835 199.213L379.628 182.842L383.078 145.789L350.62 161.693C350.912 157.781 351.018 153.844 351.316 149.929C353.007 127.707 355.563 105.516 358.378 83.3716L359.599 73.8833C359.749 72.7159 359.678 71.5172 359.819 70.3492L363.457 45.5454L346.203 51.2183ZM313.442 184.024L308.855 184.73L312.373 151.544L317.98 150.109L313.442 184.024ZM401.983 31.2193C398.508 54.9586 395.239 78.7739 392.401 102.595C390.215 120.953 388.456 139.447 386.308 157.785L384.527 182.409L415.234 167.332L421.622 145.481L405.165 152.13L404.734 151.613L409.819 118.077L421.366 114.872L425.684 88.5396L413.901 91.2984L413.895 91.2945L419.368 58.6714L438.784 54.0288L443.111 37.2554L432.968 21.4546L432.065 20.7495L401.983 31.2193ZM321.499 110.993C319.781 113.795 318.346 117.228 316.602 119.958C316.386 120.299 316.237 120.822 315.779 120.866L320.983 80.4976L326.512 79.8921L321.499 110.993ZM363.457 45.5454L363.463 45.5435L363.458 45.5396L363.457 45.5454Z" fill="url(#paint0_linear_525_5)"/>
<defs>
<linearGradient id="paint0_linear_525_5" x1="364.956" y1="45.641" x2="354.455" y2="200.745" gradientUnits="userSpaceOnUse">
<stop stop-color="#FF2600"/>
<stop offset="1" stop-color="#FF6E2B"/>
</linearGradient>
</defs>
</svg>
