<svg width="1237" height="613" viewBox="0 0 1237 613" fill="none" xmlns="http://www.w3.org/2000/svg">
<path d="M467.227 46L457.43 12.0625H466.242L471.445 34.5625H471.727L477.633 12.0625H484.898L490.852 34.6094H491.086L496.336 12.0625H505.148L495.305 46H487.617L481.43 25.0938H481.148L474.961 46H467.227ZM516.398 31.4219V46H508.477V12.0625H516.117V25.1875H516.398C517.57 22.0938 520.242 20.2188 524.039 20.2188C529.383 20.2188 532.898 23.9688 532.898 29.7812V46H524.977V31.2812C525.023 28.4219 523.477 26.6875 520.805 26.6875C518.18 26.6875 516.398 28.4688 516.398 31.4219ZM536.695 38.9219C536.695 33.2969 541.055 31.2812 546.117 30.9531C547.945 30.8359 551.133 30.7188 552.211 30.6719V28.6094C552.211 26.8281 550.898 25.8438 548.742 25.8438C546.633 25.8438 545.32 26.7344 544.992 28.4219H537.633C537.961 23.9219 541.805 20.2188 548.93 20.2188C555.211 20.2188 560.133 23.2188 560.133 28.7031V46H552.68V42.4375H552.492C551.086 45.0156 548.648 46.4688 545.086 46.4688C540.211 46.4688 536.695 43.9844 536.695 38.9219ZM544.195 38.5938C544.195 40.3281 545.555 41.2188 547.477 41.2188C550.148 41.2188 552.305 39.4844 552.258 36.9531V35.3125C551.297 35.3594 548.602 35.4766 547.43 35.5938C545.461 35.8281 544.195 36.9062 544.195 38.5938ZM579.164 20.5469V26.3594H574.523V38.0312C574.523 39.625 575.32 40.0938 576.68 40.1406C577.336 40.1875 578.602 40.0938 579.492 40.0469V46.0938C578.742 46.1875 577.43 46.375 575.555 46.375C569.977 46.375 566.602 44.0781 566.648 38.9219V26.3594H563.227V20.5469H566.648V14.4531H574.523V20.5469H579.164ZM598.805 46L592.102 20.5469H600.023L603.586 37H603.773L607.57 20.5469H615.305L619.195 36.9062H619.383L622.805 20.5469H630.773L624.07 46H615.633L611.602 30.9062H611.273L607.242 46H598.805ZM645.258 46.4688C637.289 46.4688 632.414 41.5 632.414 33.3906C632.414 25.5156 637.336 20.2188 644.977 20.2188C652.102 20.2188 657.258 24.7656 657.258 33.2031V35.2188H640.195V35.3594C640.195 38.6406 642.211 40.75 645.398 40.75C647.555 40.75 649.148 39.8125 649.805 38.3125H657.164C656.227 43.2812 651.867 46.4688 645.258 46.4688ZM640.195 30.5781H649.898C649.852 27.8594 647.883 25.9375 645.164 25.9375C642.352 25.9375 640.312 27.9297 640.195 30.5781ZM681.398 46.375C675.727 46.375 671.18 41.9219 671.18 33.2969C671.18 24.3438 676.008 20.2188 681.352 20.2188C685.43 20.2188 687.586 22.6094 688.57 24.9062H688.758V12.0625H696.633V46H688.805V41.875H688.57C687.539 44.1719 685.289 46.375 681.398 46.375ZM684.07 40.1875C687.117 40.1875 688.898 37.4688 688.898 33.25C688.898 29.0312 687.164 26.4062 684.07 26.4062C680.977 26.4062 679.289 29.125 679.289 33.25C679.289 37.4688 681.023 40.1875 684.07 40.1875ZM713.555 46.4688C705.586 46.4688 700.758 41.1719 700.758 33.3438C700.758 25.5156 705.586 20.2188 713.555 20.2188C721.523 20.2188 726.352 25.5156 726.352 33.3438C726.352 41.1719 721.523 46.4688 713.555 46.4688ZM713.602 40.5156C716.602 40.5156 718.289 37.5625 718.289 33.2969C718.289 29.0312 716.602 26.0781 713.602 26.0781C710.508 26.0781 708.82 29.0312 708.82 33.2969C708.82 37.5625 710.508 40.5156 713.602 40.5156ZM741.164 46V20.5469H749.086V46H741.164ZM745.148 17.5C742.898 17.5 741.07 15.8125 741.07 13.7031C741.07 11.5938 742.898 9.90625 745.148 9.90625C747.398 9.90625 749.273 11.5938 749.273 13.7031C749.273 15.8125 747.398 17.5 745.148 17.5ZM762.07 31.4219V46H754.148V20.5469H761.648V25.1875H761.93C763.102 22.0938 765.914 20.2188 769.664 20.2188C775.008 20.2188 778.523 24.0156 778.477 29.7812V46H770.602V31.2812C770.602 28.4219 769.055 26.6875 766.43 26.6875C763.805 26.6875 762.07 28.4688 762.07 31.4219Z" fill="white"/>
<path d="M803.063 123.409H753.167V225.929H803.063V243.002H736.562V106.336H803.063V123.409H819.668V140.481H836.273V208.856H819.668V140.481H803.063V123.409ZM803.063 208.856H819.668V225.929H803.063V208.856Z" fill="#D4FF00"/>
<path d="M401.273 208.604H417.878V242.834H401.273V208.604ZM417.878 174.459H434.565V191.532H484.461V174.459H467.856V140.23H451.17V106H467.856V140.23H484.461V174.459H501.147V208.688H517.752V242.918H501.147V208.688H417.878V174.459ZM434.565 140.23H451.17V174.459H434.565V140.23Z" fill="#D4FF00"/>
<path d="M535.016 106H551.621V242.834H535.016V106Z" fill="#D4FF00"/>
<path d="M577.227 214.825L616.898 174.12L577.227 133.415L585.733 124.668L633.83 174.12L585.733 223.572L577.227 214.825Z" fill="#D4FF00"/>
<path d="M594.734 232.825L642.831 183.457L690.927 232.825L682.502 241.572L642.831 200.866L603.241 241.572L594.734 232.825Z" fill="#D4FF00"/>
<path d="M594.734 115.418L603.241 106.672L642.831 147.377L681.112 108.018L689.619 116.764L642.831 164.87L594.734 115.418Z" fill="#D4FF00"/>
<path d="M651.914 174.128L698.62 126.105L707.127 134.768L668.846 174.128L708.518 214.833L700.011 223.58L651.914 174.128Z" fill="#D4FF00"/>
<path d="M79.2305 396H75.9727L81.9492 379.031H85.6992L91.6992 396H88.4414L87.0234 391.805H80.6367L79.2305 396ZM81.457 389.344H86.2031L83.8945 382.5H83.7539L81.457 389.344ZM96.7617 379.031V396H93.7148V379.031H96.7617ZM116.684 376.898V398.109H114.059V376.898H116.684ZM100.371 393V378.82H110.59V380.953H102.996V390.797C106.887 390.773 109.336 390.668 112.16 390.164L112.418 392.32C109.383 392.883 106.652 393 102.176 393H100.371ZM127.395 382.922C127.383 386.191 129.352 389.918 132.691 391.477L131.238 393.539C128.848 392.414 127.078 390.141 126.129 387.492C125.168 390.398 123.316 392.883 120.879 394.055L119.355 392.016C122.73 390.41 124.781 386.449 124.793 382.922V381.141H120.176V378.984H131.824V381.141H127.395V382.922ZM133.793 398.086V376.898H136.395V385.148H139.652V387.328H136.395V398.086H133.793ZM158.191 376.922V392.227H155.566V376.922H158.191ZM140.918 383.602C140.918 380.52 143.414 378.316 146.637 378.305C149.859 378.316 152.344 380.52 152.332 383.602C152.344 386.73 149.859 388.922 146.637 388.922C143.414 388.922 140.918 386.73 140.918 383.602ZM143.473 383.602C143.461 385.477 144.82 386.648 146.637 386.648C148.406 386.648 149.777 385.477 149.777 383.602C149.777 381.773 148.406 380.578 146.637 380.578C144.82 380.578 143.461 381.773 143.473 383.602ZM144.176 397.664V390.68H146.801V395.555H158.777V397.664H144.176ZM173.871 378.938V381H161.309V378.938H166.301V376.805H168.902V378.938H173.871ZM162.387 385.688C162.387 383.367 164.531 381.82 167.59 381.82C170.648 381.82 172.758 383.367 172.77 385.688C172.758 388.008 170.648 389.555 167.59 389.555C164.531 389.555 162.387 388.008 162.387 385.688ZM163.887 393.234V391.148H177.996V398.086H175.395V393.234H163.887ZM164.918 385.688C164.906 386.883 165.984 387.551 167.59 387.539C169.195 387.551 170.285 386.883 170.285 385.688C170.285 384.492 169.195 383.789 167.59 383.789C165.984 383.789 164.906 384.492 164.918 385.688ZM175.395 390.164V376.898H177.996V382.523H180.949V384.656H177.996V390.164H175.395ZM193.863 379.102V380.602C193.863 382.488 193.863 385.16 193.277 388.805L190.699 388.594C191.215 385.383 191.273 383.004 191.285 381.188H182.965V379.102H193.863ZM181.84 391.547C183.094 391.535 184.488 391.523 185.941 391.488V385.148H188.52V391.406C190.676 391.312 192.891 391.16 194.918 390.914L195.059 392.859C190.688 393.574 185.836 393.656 182.098 393.633L181.84 391.547ZM196.02 398.086V376.898H198.645V385.523H201.715V387.727H198.645V398.086H196.02ZM219.926 382.898V384.961H205.254V377.672H207.832V382.898H219.926ZM202.746 389.484V387.422H222.105V389.484H202.746ZM205.066 397.594V391.359H207.668V395.484H220.066V397.594H205.066ZM245.918 376.898V382.852H248.895V385.008H245.918V392.227H243.316V376.898H245.918ZM230.098 388.641V378.656H239.59V380.742H232.676V386.508C236.66 386.508 238.875 386.379 241.395 385.852L241.676 387.961C238.898 388.512 236.438 388.641 231.809 388.641H230.098ZM232.348 397.664V390.609H234.949V395.555H246.762V397.664H232.348ZM260.941 378.258C260.941 380.754 263.883 383.344 268.207 383.953L267.223 386.016C263.742 385.477 260.965 383.789 259.617 381.504C258.258 383.812 255.457 385.523 251.988 386.062L251.004 384.023C255.328 383.379 258.258 380.836 258.27 378.258V377.438H260.941V378.258ZM249.926 389.531V387.422H269.285V389.531H261.105V393.398H258.527V389.531H249.926ZM252.27 397.664V391.5H254.871V395.555H267.152V397.664H252.27ZM287.402 376.922V383.578H290.355V385.734H287.402V392.742H284.801V376.922H287.402ZM270.715 381.352V379.266H275.707V376.898H278.309V379.266H283.277V381.352H270.715ZM271.793 386.273C271.793 383.836 273.914 382.219 276.996 382.219C280.055 382.219 282.164 383.836 282.176 386.273C282.164 388.699 280.055 390.281 276.996 390.281C273.914 390.281 271.793 388.699 271.793 386.273ZM273.832 397.664V391.5H276.434V395.555H288.246V397.664H273.832ZM274.324 386.273C274.312 387.551 275.391 388.277 276.996 388.266C278.602 388.277 279.691 387.551 279.691 386.273C279.691 384.984 278.602 384.234 276.996 384.234C275.391 384.234 274.312 384.984 274.324 386.273ZM314.824 376.898V398.086H312.199V376.898H314.824ZM297.27 392.25C302.824 389.613 305.379 386.027 305.848 381.211H298.348V379.148H308.496C308.496 385.453 306.047 390.809 298.629 394.336L297.27 392.25ZM328.863 377.578C328.863 379.84 331.758 381.902 336.176 382.383L335.309 384.352C331.711 383.941 328.863 382.512 327.504 380.449C326.145 382.512 323.297 383.941 319.746 384.352L318.855 382.383C323.297 381.902 326.18 379.84 326.191 377.578V377.016H328.863V377.578ZM317.871 387.469V385.406H337.184V387.469H328.793V389.109H334.77V394.359H322.723V395.906H335.355V397.898H320.168V392.484H332.215V391.102H320.145V389.109H326.191V387.469H317.871ZM361.676 378.844V381C361.676 383.637 361.676 386.473 360.902 390.633L358.348 390.375C359.074 386.449 359.074 383.566 359.074 381V380.93H346.254V378.844H361.676ZM344.309 395.344V393.211H348.645V386.461H351.246V393.211H353.941V386.461H356.496V393.211H363.621V395.344H344.309ZM384.363 386.906V388.992H379.535V391.195H381.996V398.086H379.395V393.234H367.184V391.195H369.809V388.992H365.051V386.906H384.363ZM367.043 381.469C367.043 378.914 370.043 377.344 374.684 377.344C379.336 377.344 382.312 378.914 382.324 381.469C382.312 384.059 379.336 385.617 374.684 385.617C370.043 385.617 367.043 384.059 367.043 381.469ZM369.762 381.469C369.738 382.852 371.59 383.59 374.684 383.602C377.777 383.59 379.629 382.852 379.629 381.469C379.629 380.145 377.777 379.383 374.684 379.383C371.59 379.383 369.738 380.145 369.762 381.469ZM372.41 391.195H376.957V388.992H372.41V391.195ZM403.418 376.898V398.109H400.793V376.898H403.418ZM386.473 385.922C386.461 381.352 388.793 378.445 392.004 378.445C395.18 378.445 397.523 381.352 397.535 385.922C397.523 390.527 395.18 393.422 392.004 393.422C388.793 393.422 386.461 390.527 386.473 385.922ZM388.98 385.922C388.98 389.18 390.211 391.066 392.004 391.078C393.785 391.066 395.004 389.18 395.004 385.922C395.004 382.688 393.785 380.789 392.004 380.789C390.211 380.789 388.98 382.688 388.98 385.922ZM417.926 378.445C421.113 378.445 423.41 381.352 423.434 385.922C423.41 390.527 421.113 393.422 417.926 393.422C414.703 393.422 412.406 390.527 412.418 385.922C412.406 381.352 414.703 378.445 417.926 378.445ZM414.926 385.922C414.914 389.18 416.145 391.066 417.926 391.078C419.719 391.066 420.914 389.18 420.926 385.922C420.914 382.688 419.719 380.789 417.926 380.789C416.145 380.789 414.914 382.688 414.926 385.922ZM426.223 398.086V376.898H428.824V385.031H432.082V387.234H428.824V398.086H426.223ZM450.645 376.898V398.086H448.066V376.898H450.645ZM434.191 392.766V378.961H436.77V390.539C439.734 390.492 442.898 390.234 446.168 389.578L446.496 391.758C442.77 392.531 439.312 392.777 436.02 392.766H434.191ZM470.309 376.898V385.031H473.566V387.211H470.309V398.109H467.73V376.898H470.309ZM454.559 380.859V378.75H464.309V386.742H457.184V390.961C460.547 390.938 463.16 390.797 466.113 390.281L466.348 392.391C463.078 392.977 460.195 393.117 456.34 393.117H454.605V384.656H461.707V380.859H454.559ZM478.582 394.336L476.613 400.898H474.387L475.605 394.336H478.582ZM489.293 396H486.035L492.012 379.031H495.762L501.762 396H498.504L497.086 391.805H490.699L489.293 396ZM491.52 389.344H496.266L493.957 382.5H493.816L491.52 389.344ZM506.824 379.031V396H503.777V379.031H506.824ZM522.832 381.984C522.809 385.875 524.859 389.766 528.293 391.242L526.746 393.328C524.309 392.203 522.527 389.965 521.543 387.199C520.57 390.176 518.742 392.613 516.176 393.82L514.582 391.641C518.109 390.117 520.172 386.074 520.184 381.984V378.609H522.832V381.984ZM529.816 398.109V376.898H532.441V398.109H529.816ZM553.793 376.898V398.086H551.309V387.281H548.918V397.008H546.527V377.297H548.918V385.195H551.309V376.898H553.793ZM536.215 393.141V379.406H544.137V381.516H538.84V390.938C541.137 390.914 543.035 390.797 545.191 390.398L545.379 392.531C542.812 393.047 540.598 393.117 537.645 393.141H536.215ZM574.582 376.898V398.086H572.074V376.898H574.582ZM556.512 386.062C556.512 381.398 558.316 378.504 561.082 378.516C563.648 378.504 565.395 380.906 565.699 384.867H567.738V377.273H570.223V397.055H567.738V386.977H565.723C565.477 391.113 563.707 393.645 561.082 393.633C558.316 393.645 556.512 390.738 556.512 386.062ZM558.926 386.062C558.914 389.379 559.734 391.16 561.082 391.148C562.488 391.16 563.32 389.379 563.332 386.062C563.32 382.758 562.488 380.965 561.082 380.977C559.734 380.965 558.914 382.758 558.926 386.062ZM600.363 376.898V398.109H597.738V376.898H600.363ZM584.051 393V378.82H594.27V380.953H586.676V390.797C590.566 390.773 593.016 390.668 595.84 390.164L596.098 392.32C593.062 392.883 590.332 393 585.855 393H584.051ZM611.074 382.922C611.062 386.191 613.031 389.918 616.371 391.477L614.918 393.539C612.527 392.414 610.758 390.141 609.809 387.492C608.848 390.398 606.996 392.883 604.559 394.055L603.035 392.016C606.41 390.41 608.461 386.449 608.473 382.922V381.141H603.855V378.984H615.504V381.141H611.074V382.922ZM617.473 398.086V376.898H620.074V385.148H623.332V387.328H620.074V398.086H617.473ZM641.848 376.898V398.109H639.223V376.898H641.848ZM624.902 385.922C624.891 381.352 627.223 378.445 630.434 378.445C633.609 378.445 635.953 381.352 635.965 385.922C635.953 390.527 633.609 393.422 630.434 393.422C627.223 393.422 624.891 390.527 624.902 385.922ZM627.41 385.922C627.41 389.18 628.641 391.066 630.434 391.078C632.215 391.066 633.434 389.18 633.434 385.922C633.434 382.688 632.215 380.789 630.434 380.789C628.641 380.789 627.41 382.688 627.41 385.922ZM662.754 376.898V398.109H660.152V385.711H654.082V383.602H660.152V376.898H662.754ZM646.09 393.094V379.219H648.691V390.902C651.539 390.867 654.363 390.656 657.34 390.07L657.645 392.203C654.234 392.906 651.07 393.082 647.824 393.094H646.09ZM682.301 376.898V385.172H685.441V387.352H682.301V398.039H679.699V376.898H682.301ZM665.59 392.25C670.746 389.672 673.535 386.086 674.051 381.258H666.738V379.102H676.699C676.688 385.324 674.109 390.797 667.066 394.266L665.59 392.25ZM697.934 378.445C700.793 378.445 702.914 380.836 703.289 384.703H707.332V376.898H709.91V398.109H707.332V386.812H703.312C703.031 390.902 700.875 393.422 697.934 393.422C694.746 393.422 692.484 390.527 692.496 385.922C692.484 381.352 694.746 378.445 697.934 378.445ZM695.004 385.922C694.992 389.18 696.188 391.066 697.934 391.078C699.691 391.066 700.875 389.18 700.887 385.922C700.875 382.688 699.691 380.789 697.934 380.789C696.188 380.789 694.992 382.688 695.004 385.922ZM731.168 389.344V391.336H715.676V389.344H722.145V387.539H724.746V389.344H731.168ZM713.309 386.789V377.836H718.793V379.875H715.863V384.738C716.871 384.691 717.891 384.586 719.027 384.352L719.215 386.391C717.363 386.777 715.945 386.789 714.293 386.789H713.309ZM717.223 395.062C717.211 393.164 719.52 392.086 723.387 392.086C727.254 392.086 729.551 393.164 729.551 395.062C729.551 397.031 727.254 398.074 723.387 398.086C719.52 398.074 717.211 397.031 717.223 395.062ZM719.848 386.789V377.836H725.777V379.875H722.426V384.75C724.055 384.715 725.133 384.609 726.387 384.328L726.598 386.391C724.957 386.754 723.586 386.789 720.949 386.789H719.848ZM719.988 395.062C719.988 395.883 721.219 396.281 723.387 396.281C725.543 396.281 726.738 395.883 726.762 395.062C726.738 394.289 725.543 393.902 723.387 393.891C721.219 393.902 719.988 394.289 719.988 395.062ZM725.051 383.109V381.117H728.262V376.898H730.816V388.195H728.262V383.109H725.051ZM751.91 376.898V398.086H749.426V376.898H751.91ZM733.465 391.758C737.848 389.168 739.863 385.852 740.262 381.586H734.543V379.477H742.84C742.84 381.527 742.582 383.449 742.008 385.242H744.949V377.414H747.41V397.078H744.949V387.328H741.152C739.922 389.754 737.93 391.875 734.941 393.609L733.465 391.758ZM767.637 381.984C767.613 385.77 769.512 389.59 772.793 391.172L771.199 393.258C768.902 392.098 767.25 389.859 766.348 387.164C765.422 390.047 763.688 392.438 761.262 393.656L759.668 391.57C763.078 389.953 765.023 385.898 765.035 381.984V378.609H767.637V381.984ZM774.059 398.086V376.898H776.66V385.195H779.918V387.422H776.66V398.086H774.059ZM800.145 388.781V390.891H795.434V398.086H792.785V390.891H788.098V398.086H785.426V390.891H780.785V388.781H800.145ZM782.824 382.383C782.812 379.5 785.906 377.66 790.418 377.648C794.93 377.66 798.047 379.5 798.059 382.383C798.047 385.23 794.93 387.023 790.418 387.023C785.906 387.023 782.812 385.23 782.824 382.383ZM785.496 382.383C785.484 384 787.43 384.949 790.418 384.961C793.418 384.949 795.363 384 795.363 382.383C795.363 380.719 793.418 379.758 790.418 379.758C787.43 379.758 785.484 380.719 785.496 382.383ZM818.145 376.898V385.336H821.402V387.492H818.145V398.086H815.566V376.898H818.145ZM801.434 382.242V380.156H806.449V377.203H809.051V380.156H813.926V382.242H801.434ZM802.418 388.617C802.395 385.688 804.668 383.613 807.762 383.625C810.809 383.613 813.07 385.688 813.082 388.617C813.07 391.535 810.809 393.586 807.762 393.586C804.668 393.586 802.395 391.535 802.418 388.617ZM804.902 388.617C804.891 390.34 806.098 391.441 807.762 391.43C809.391 391.441 810.574 390.34 810.598 388.617C810.574 386.895 809.391 385.758 807.762 385.758C806.098 385.758 804.891 386.895 804.902 388.617ZM839.59 378.844V380.883C839.566 383.52 839.566 386.461 838.746 390.891L836.121 390.609C836.953 386.484 836.953 383.473 836.965 380.93H824.309V378.844H839.59ZM822.293 395.344V393.211H829.418V385.852H831.996V393.211H841.605V395.344H822.293ZM858.363 377.227C863.051 377.238 865.992 378.75 866.004 381.305C865.992 383.812 863.051 385.312 858.363 385.289C853.723 385.312 850.723 383.812 850.723 381.305C850.723 378.75 853.723 377.238 858.363 377.227ZM848.73 388.664V386.578H868.043V388.664H859.652V390.703H865.699V397.828H851.004V390.703H857.074V388.664H848.73ZM853.441 381.305C853.418 382.594 855.27 383.297 858.363 383.297C861.457 383.297 863.309 382.594 863.309 381.305C863.309 379.957 861.457 379.23 858.363 379.242C855.27 379.23 853.418 379.957 853.441 381.305ZM853.582 395.719H863.168V392.766H853.582V395.719ZM877.512 380.578C877.512 383.191 879.316 385.805 882.691 386.859L881.355 388.875C878.953 388.102 877.207 386.508 876.234 384.492C875.285 386.684 873.48 388.43 870.973 389.273L869.637 387.258C873.047 386.109 874.863 383.355 874.887 380.578V380.32H870.316V378.234H881.965V380.32H877.512V380.578ZM872.66 392.766V390.656H887.121V398.086H884.496V392.766H872.66ZM884.496 389.672V376.898H887.121V389.672H884.496ZM896.004 378.445C897.914 378.445 899.496 379.512 900.445 381.375H905.402V376.898H907.98V398.109H905.402V390.094H900.633C899.707 392.203 898.043 393.422 896.004 393.422C892.816 393.422 890.555 390.527 890.566 385.922C890.555 381.352 892.816 378.445 896.004 378.445ZM893.074 385.922C893.062 389.18 894.258 391.066 896.004 391.078C897.762 391.066 898.945 389.18 898.957 385.922C898.945 382.688 897.762 380.789 896.004 380.789C894.258 380.789 893.062 382.688 893.074 385.922ZM901.184 383.508C901.336 384.246 901.418 385.055 901.418 385.922C901.418 386.648 901.359 387.34 901.242 387.984H905.402V383.508H901.184ZM916.652 378.445C919.84 378.445 922.137 381.352 922.16 385.922C922.137 390.527 919.84 393.422 916.652 393.422C913.43 393.422 911.133 390.527 911.145 385.922C911.133 381.352 913.43 378.445 916.652 378.445ZM913.652 385.922C913.641 389.18 914.871 391.066 916.652 391.078C918.445 391.066 919.641 389.18 919.652 385.922C919.641 382.688 918.445 380.789 916.652 380.789C914.871 380.789 913.641 382.688 913.652 385.922ZM924.949 398.086V376.898H927.551V381.961H930.691V384.141H927.551V388.219H930.691V390.352H927.551V398.086H924.949ZM953.988 376.898V385.336H957.246V387.492H953.988V398.086H951.41V376.898H953.988ZM937.277 382.242V380.156H942.293V377.203H944.895V380.156H949.77V382.242H937.277ZM938.262 388.617C938.238 385.688 940.512 383.613 943.605 383.625C946.652 383.613 948.914 385.688 948.926 388.617C948.914 391.535 946.652 393.586 943.605 393.586C940.512 393.586 938.238 391.535 938.262 388.617ZM940.746 388.617C940.734 390.34 941.941 391.441 943.605 391.43C945.234 391.441 946.418 390.34 946.441 388.617C946.418 386.895 945.234 385.758 943.605 385.758C941.941 385.758 940.734 386.895 940.746 388.617ZM975.293 382.898V384.961H960.621V377.672H963.199V382.898H975.293ZM958.113 389.484V387.422H977.473V389.484H958.113ZM960.434 397.594V391.359H963.035V395.484H975.434V397.594H960.434ZM995.473 376.898V385.172H998.613V387.352H995.473V398.039H992.871V376.898H995.473ZM978.762 392.25C983.918 389.672 986.707 386.086 987.223 381.258H979.91V379.102H989.871C989.859 385.324 987.281 390.797 980.238 394.266L978.762 392.25ZM1018.96 386.508V388.477H999.598V386.508H1018.96ZM1001.85 391.57V389.742H1016.61V394.57H1004.47V396.047H1017.25V397.852H1001.87V392.883H1014.04V391.57H1001.85ZM1001.99 379.172V377.367H1016.57V382.148H1004.64V383.531H1016.94V385.312H1002.06V380.461H1013.96V379.172H1001.99ZM1043.31 395.742V397.828H1028.36V390.75H1034.4V388.664H1026.06V386.578H1045.37V388.664H1036.98V390.75H1043.1V392.836H1030.98V395.742H1043.31ZM1028.5 384.891V377.648H1042.91V384.891H1028.5ZM1031.03 382.828H1040.33V379.734H1031.03V382.828ZM1063.96 382.898V384.961H1049.29V377.672H1051.86V382.898H1063.96ZM1046.78 389.484V387.422H1066.14V389.484H1046.78ZM1049.1 397.594V391.359H1051.7V395.484H1064.1V397.594H1049.1ZM1082.78 390.141C1087.38 390.152 1090.29 391.605 1090.3 394.125C1090.29 396.586 1087.38 398.062 1082.78 398.062C1078.22 398.062 1075.28 396.586 1075.28 394.125C1075.28 391.605 1078.22 390.152 1082.78 390.141ZM1073.29 388.617V386.508H1080.74V382.664H1083.32V386.508H1092.5V388.617H1073.29ZM1075.49 379.969V377.906H1090.16V379.664C1090.17 381.34 1090.17 383.121 1089.57 385.289L1087 385.055C1087.52 383.004 1087.56 381.504 1087.56 379.969H1075.49ZM1077.9 394.125C1077.88 395.367 1079.72 396.047 1082.78 396.047C1085.85 396.047 1087.7 395.367 1087.72 394.125C1087.7 392.836 1085.85 392.109 1082.78 392.109C1079.72 392.109 1077.88 392.836 1077.9 394.125ZM1110.69 376.898V382.992H1113.64V385.172H1110.69V392.18H1108.04V376.898H1110.69ZM1093.91 387.914C1098.76 386.508 1101.63 383.871 1102.08 380.648H1094.8V378.516H1104.93C1104.94 384.141 1101.26 388.16 1094.99 389.977L1093.91 387.914ZM1097.07 397.664V390.609H1099.72V395.555H1111.49V397.664H1097.07ZM1132.35 376.898V398.109H1129.72V376.898H1132.35ZM1115.4 385.922C1115.39 381.352 1117.72 378.445 1120.93 378.445C1124.11 378.445 1126.45 381.352 1126.46 385.922C1126.45 390.527 1124.11 393.422 1120.93 393.422C1117.72 393.422 1115.39 390.527 1115.4 385.922ZM1117.91 385.922C1117.91 389.18 1119.14 391.066 1120.93 391.078C1122.71 391.066 1123.93 389.18 1123.93 385.922C1123.93 382.688 1122.71 380.789 1120.93 380.789C1119.14 380.789 1117.91 382.688 1117.91 385.922ZM1152.06 376.898V384.938H1155.32V387.07H1152.06V398.109H1149.46V376.898H1152.06ZM1136.33 392.93V378.914H1146.25V381.023H1138.93V390.75C1142.23 390.738 1144.84 390.574 1147.75 390.07L1148.05 392.273C1144.76 392.836 1141.91 392.93 1138.09 392.93H1136.33ZM1158.79 396.188C1157.78 396.188 1156.95 395.367 1156.96 394.359C1156.95 393.375 1157.78 392.566 1158.79 392.555C1159.76 392.566 1160.59 393.375 1160.59 394.359C1160.59 395.367 1159.76 396.188 1158.79 396.188ZM121.242 429.828V431.984H112.805V439.086H110.227V431.984H101.883V429.828H121.242ZM103.922 423.406C103.91 420.5 107.004 418.66 111.516 418.648C116.027 418.66 119.145 420.5 119.156 423.406C119.145 426.277 116.027 428.105 111.516 428.094C107.004 428.105 103.91 426.277 103.922 423.406ZM106.594 423.406C106.582 425.059 108.527 426.031 111.516 426.031C114.516 426.031 116.461 425.059 116.461 423.406C116.461 421.742 114.516 420.758 111.516 420.758C108.527 420.758 106.582 421.742 106.594 423.406ZM140.297 417.898V439.109H137.719V417.898H140.297ZM123.797 421.859V419.75H133.781V427.695H126.492V431.961C129.832 431.938 132.703 431.762 136.008 431.211L136.242 433.344C132.645 433.965 129.48 434.105 125.672 434.094H123.82V425.633H131.133V421.859H123.797ZM160.547 423.898V425.961H145.875V418.672H148.453V423.898H160.547ZM143.367 430.484V428.422H162.727V430.484H143.367ZM145.688 438.594V432.359H148.289V436.484H160.688V438.594H145.688ZM187.477 417.922V433.227H184.852V417.922H187.477ZM170.203 424.602C170.203 421.52 172.699 419.316 175.922 419.305C179.145 419.316 181.629 421.52 181.617 424.602C181.629 427.73 179.145 429.922 175.922 429.922C172.699 429.922 170.203 427.73 170.203 424.602ZM172.758 424.602C172.746 426.477 174.105 427.648 175.922 427.648C177.691 427.648 179.062 426.477 179.062 424.602C179.062 422.773 177.691 421.578 175.922 421.578C174.105 421.578 172.746 422.773 172.758 424.602ZM173.461 438.664V431.68H176.086V436.555H188.062V438.664H173.461ZM200.109 431.141C204.715 431.152 207.621 432.605 207.633 435.125C207.621 437.586 204.715 439.062 200.109 439.062C195.551 439.062 192.609 437.586 192.609 435.125C192.609 432.605 195.551 431.152 200.109 431.141ZM190.617 429.617V427.508H198.07V423.664H200.648V427.508H209.836V429.617H190.617ZM192.82 420.969V418.906H207.492V420.664C207.504 422.34 207.504 424.121 206.906 426.289L204.328 426.055C204.855 424.004 204.891 422.504 204.891 420.969H192.82ZM195.234 435.125C195.211 436.367 197.051 437.047 200.109 437.047C203.18 437.047 205.031 436.367 205.055 435.125C205.031 433.836 203.18 433.109 200.109 433.109C197.051 433.109 195.211 433.836 195.234 435.125ZM219.305 423.922C219.305 427.391 221.344 431.047 224.766 432.477L223.336 434.539C220.828 433.449 219 431.234 218.027 428.539C217.055 431.445 215.191 433.883 212.719 435.055L211.219 433.016C214.559 431.469 216.645 427.52 216.656 423.922V422.141H211.992V419.984H223.945V422.141H219.305V423.922ZM226.312 439.086V417.898H228.938V439.086H226.312ZM249.188 423.406V425.516H234.562V418.273H237.164V423.406H249.188ZM232.055 429.664V427.555H251.391V429.664H232.055ZM234.305 435.102C234.305 432.605 237.082 431.199 241.688 431.188C246.258 431.199 249.012 432.605 249.023 435.102C249.012 437.586 246.258 438.992 241.688 438.992C237.082 438.992 234.305 437.586 234.305 435.102ZM236.953 435.102C236.941 436.32 238.605 436.988 241.688 437C244.723 436.988 246.398 436.32 246.422 435.102C246.398 433.848 244.723 433.238 241.688 433.227C238.605 433.238 236.941 433.848 236.953 435.102ZM262.43 418.227C267.258 418.238 270.059 419.516 270.07 421.859C270.059 424.227 267.258 425.504 262.43 425.516C257.613 425.504 254.789 424.227 254.789 421.859C254.789 419.516 257.613 418.238 262.43 418.227ZM252.797 428.727V426.641H272.109V428.727H252.797ZM255.07 432.078V430.156H269.695V435.336H257.648V436.906H270.281V438.898H255.094V433.484H267.141V432.078H255.07ZM257.531 421.859C257.52 423.031 259.207 423.57 262.43 423.57C265.699 423.57 267.375 423.031 267.375 421.859C267.375 420.77 265.699 420.148 262.43 420.148C259.207 420.148 257.52 420.77 257.531 421.859ZM296.859 417.898V439.109H294.234V417.898H296.859ZM279.914 426.922C279.902 422.352 282.234 419.445 285.445 419.445C288.621 419.445 290.965 422.352 290.977 426.922C290.965 431.527 288.621 434.422 285.445 434.422C282.234 434.422 279.902 431.527 279.914 426.922ZM282.422 426.922C282.422 430.18 283.652 432.066 285.445 432.078C287.227 432.066 288.445 430.18 288.445 426.922C288.445 423.688 287.227 421.789 285.445 421.789C283.652 421.789 282.422 423.688 282.422 426.922ZM310.312 421.273V423.359H299.93V421.273H303.867V418.508H306.445V421.273H310.312ZM300.539 429.406C300.516 426.523 302.473 424.473 305.156 424.484C307.852 424.473 309.773 426.523 309.773 429.406C309.773 432.348 307.852 434.398 305.156 434.398C302.473 434.398 300.516 432.348 300.539 429.406ZM302.836 429.406C302.824 431.117 303.785 432.184 305.156 432.172C306.516 432.184 307.477 431.117 307.477 429.406C307.477 427.742 306.516 426.641 305.156 426.641C303.785 426.641 302.824 427.742 302.836 429.406ZM311.203 438.125V418.344H313.641V426.617H315.703V417.898H318.188V439.086H315.703V428.727H313.641V438.125H311.203ZM337.312 417.898V426.336H340.57V428.492H337.312V439.086H334.734V417.898H337.312ZM320.602 423.242V421.156H325.617V418.203H328.219V421.156H333.094V423.242H320.602ZM321.586 429.617C321.562 426.688 323.836 424.613 326.93 424.625C329.977 424.613 332.238 426.688 332.25 429.617C332.238 432.535 329.977 434.586 326.93 434.586C323.836 434.586 321.562 432.535 321.586 429.617ZM324.07 429.617C324.059 431.34 325.266 432.441 326.93 432.43C328.559 432.441 329.742 431.34 329.766 429.617C329.742 427.895 328.559 426.758 326.93 426.758C325.266 426.758 324.059 427.895 324.07 429.617ZM358.758 419.844V421.883C358.734 424.52 358.734 427.461 357.914 431.891L355.289 431.609C356.121 427.484 356.121 424.473 356.133 421.93H343.477V419.844H358.758ZM341.461 436.344V434.211H348.586V426.852H351.164V434.211H360.773V436.344H341.461ZM385.523 417.898V439.109H382.898V417.898H385.523ZM369.211 434V419.82H379.43V421.953H371.836V431.797C375.727 431.773 378.176 431.668 381 431.164L381.258 433.32C378.223 433.883 375.492 434 371.016 434H369.211ZM396.234 423.922C396.223 427.191 398.191 430.918 401.531 432.477L400.078 434.539C397.688 433.414 395.918 431.141 394.969 428.492C394.008 431.398 392.156 433.883 389.719 435.055L388.195 433.016C391.57 431.41 393.621 427.449 393.633 423.922V422.141H389.016V419.984H400.664V422.141H396.234V423.922ZM402.633 439.086V417.898H405.234V426.148H408.492V428.328H405.234V439.086H402.633ZM427.031 417.922V433.227H424.406V417.922H427.031ZM409.758 424.602C409.758 421.52 412.254 419.316 415.477 419.305C418.699 419.316 421.184 421.52 421.172 424.602C421.184 427.73 418.699 429.922 415.477 429.922C412.254 429.922 409.758 427.73 409.758 424.602ZM412.312 424.602C412.301 426.477 413.66 427.648 415.477 427.648C417.246 427.648 418.617 426.477 418.617 424.602C418.617 422.773 417.246 421.578 415.477 421.578C413.66 421.578 412.301 422.773 412.312 424.602ZM413.016 438.664V431.68H415.641V436.555H427.617V438.664H413.016ZM436.992 419.375C440.355 419.363 442.805 421.484 442.828 424.484C442.805 427.496 440.355 429.605 436.992 429.617C433.664 429.605 431.168 427.496 431.18 424.484C431.168 421.484 433.664 419.363 436.992 419.375ZM430.219 432.547C434.039 432.547 439.324 432.5 443.906 431.844L444.117 433.742C439.371 434.645 434.285 434.68 430.547 434.68L430.219 432.547ZM433.758 424.484C433.746 426.254 435.141 427.344 436.992 427.344C438.867 427.344 440.262 426.254 440.273 424.484C440.262 422.727 438.879 421.625 436.992 421.625C435.141 421.625 433.746 422.727 433.758 424.484ZM445.172 439.109V417.898H447.773V439.109H445.172ZM474.305 417.922V433.438H471.703V425.727H467.871C467.332 428.211 465.141 429.898 462.445 429.898C459.246 429.898 456.844 427.66 456.844 424.555C456.844 421.426 459.246 419.234 462.445 419.234C465.223 419.234 467.461 420.98 467.918 423.594H471.703V417.922H474.305ZM459.328 424.555C459.328 426.418 460.676 427.648 462.445 427.648C464.18 427.648 465.504 426.418 465.516 424.555C465.504 422.68 464.18 421.508 462.445 421.508C460.676 421.508 459.328 422.68 459.328 424.555ZM460.406 438.664V431.867H463.008V436.555H474.844V438.664H460.406ZM483.094 419.445C485.953 419.445 488.074 421.836 488.449 425.703H492.492V417.898H495.07V439.109H492.492V427.812H488.473C488.191 431.902 486.035 434.422 483.094 434.422C479.906 434.422 477.645 431.527 477.656 426.922C477.645 422.352 479.906 419.445 483.094 419.445ZM480.164 426.922C480.152 430.18 481.348 432.066 483.094 432.078C484.852 432.066 486.035 430.18 486.047 426.922C486.035 423.688 484.852 421.789 483.094 421.789C481.348 421.789 480.152 423.688 480.164 426.922ZM517.406 434.469V436.625H498.047V434.469H506.391V431.023H500.344V424.086H512.531V421.461H500.297V419.352H515.109V426.148H502.945V428.891H515.602V431.023H508.969V434.469H517.406ZM534.82 421.273V423.359H524.438V421.273H528.375V418.508H530.953V421.273H534.82ZM525.047 429.406C525.023 426.523 526.98 424.473 529.664 424.484C532.359 424.473 534.281 426.523 534.281 429.406C534.281 432.348 532.359 434.398 529.664 434.398C526.98 434.398 525.023 432.348 525.047 429.406ZM527.344 429.406C527.332 431.117 528.293 432.184 529.664 432.172C531.023 432.184 531.984 431.117 531.984 429.406C531.984 427.742 531.023 426.641 529.664 426.641C528.293 426.641 527.332 427.742 527.344 429.406ZM535.711 438.125V418.344H538.148V426.617H540.211V417.898H542.695V439.086H540.211V428.727H538.148V438.125H535.711ZM552.914 421.25C552.914 423.969 554.613 426.57 557.883 427.625L556.477 429.711C554.168 428.902 552.539 427.297 551.637 425.258C550.699 427.484 548.977 429.219 546.539 430.109L545.133 428.023C548.578 426.887 550.289 424.109 550.289 421.086V419H552.914V421.25ZM548.531 433.578V431.516H562.969V439.086H560.367V433.578H548.531ZM556.148 424.156V422.023H560.367V417.898H562.969V430.484H560.367V424.156H556.148ZM582.562 417.898V426.336H585.82V428.492H582.562V439.086H579.984V417.898H582.562ZM565.852 423.242V421.156H570.867V418.203H573.469V421.156H578.344V423.242H565.852ZM566.836 429.617C566.812 426.688 569.086 424.613 572.18 424.625C575.227 424.613 577.488 426.688 577.5 429.617C577.488 432.535 575.227 434.586 572.18 434.586C569.086 434.586 566.812 432.535 566.836 429.617ZM569.32 429.617C569.309 431.34 570.516 432.441 572.18 432.43C573.809 432.441 574.992 431.34 575.016 429.617C574.992 427.895 573.809 426.758 572.18 426.758C570.516 426.758 569.309 427.895 569.32 429.617ZM597.492 419.867V422.797H601.898V417.898H604.477V439.109H601.898V430.648H597.492V433.859H587.508V419.867H597.492ZM590.109 431.797H594.938V421.906H590.109V431.797ZM597.492 428.562H601.898V424.906H597.492V428.562ZM611.578 435.336L609.609 441.898H607.383L608.602 435.336H611.578ZM636.961 417.898V439.086H634.336V417.898H636.961ZM619.406 433.25C624.961 430.613 627.516 427.027 627.984 422.211H620.484V420.148H630.633C630.633 426.453 628.184 431.809 620.766 435.336L619.406 433.25ZM651 418.578C651 420.84 653.895 422.902 658.312 423.383L657.445 425.352C653.848 424.941 651 423.512 649.641 421.449C648.281 423.512 645.434 424.941 641.883 425.352L640.992 423.383C645.434 422.902 648.316 420.84 648.328 418.578V418.016H651V418.578ZM640.008 428.469V426.406H659.32V428.469H650.93V430.109H656.906V435.359H644.859V436.906H657.492V438.898H642.305V433.484H654.352V432.102H642.281V430.109H648.328V428.469H640.008ZM678.375 417.898V439.109H675.75V417.898H678.375ZM661.43 426.922C661.418 422.352 663.75 419.445 666.961 419.445C670.137 419.445 672.48 422.352 672.492 426.922C672.48 431.527 670.137 434.422 666.961 434.422C663.75 434.422 661.418 431.527 661.43 426.922ZM663.938 426.922C663.938 430.18 665.168 432.066 666.961 432.078C668.742 432.066 669.961 430.18 669.961 426.922C669.961 423.688 668.742 421.789 666.961 421.789C665.168 421.789 663.938 423.688 663.938 426.922ZM703.781 417.898V425.961H707.039V428.164H703.781V439.086H701.18V417.898H703.781ZM687.938 434.117V419.633H690.516V424.93H695.508V419.633H698.109V434.117H687.938ZM690.516 431.984H695.508V426.969H690.516V431.984ZM727.242 425.328V427.438H718.875V429.453H724.828V435.102H712.805V436.836H725.461V438.898H710.203V433.156H722.227V431.516H710.156V429.453H716.273V427.438H707.93V425.328H713.344C713.941 423.371 714.082 421.895 714.117 420.711H709.711V418.602H716.672V419.75C716.66 421.039 716.66 422.926 715.98 425.328H721.746C722.285 423.371 722.426 421.883 722.461 420.711H718.055V418.602H724.992V419.609C724.98 420.898 724.98 422.809 724.359 425.328H727.242ZM740.977 423.453C740.988 426.875 742.16 430.438 745.031 432.242L743.602 434.234C741.691 433.086 740.449 431.117 739.746 428.809C738.984 431.352 737.625 433.508 735.633 434.727L734.016 432.781C737.098 430.918 738.457 427.18 738.469 423.57V419.773H740.977V423.453ZM742.758 427.344V425.188H745.781V418.273H748.242V438.055H745.781V427.344H742.758ZM750.141 439.086V417.898H752.648V439.086H750.141ZM773.391 417.898V439.086H770.906V417.898H773.391ZM754.898 432.758C759.281 430.168 761.297 426.852 761.695 422.586H756.023V420.477H764.273C764.273 421.543 764.203 422.586 764.051 423.594H766.523V418.414H769.008V438.078H766.523V431H763.219V428.867H766.523V425.727H763.605C762.598 429.242 760.395 432.266 756.422 434.609L754.898 432.758ZM795.188 427.508V429.477H775.828V427.508H795.188ZM778.078 432.57V430.742H792.844V435.57H780.703V437.047H793.477V438.852H778.102V433.883H790.266V432.57H778.078ZM778.219 420.172V418.367H792.797V423.148H780.867V424.531H793.172V426.312H778.289V421.461H790.195V420.172H778.219ZM808.078 419.445C810.938 419.445 813.059 421.836 813.434 425.703H817.477V417.898H820.055V439.109H817.477V427.812H813.457C813.176 431.902 811.02 434.422 808.078 434.422C804.891 434.422 802.629 431.527 802.641 426.922C802.629 422.352 804.891 419.445 808.078 419.445ZM805.148 426.922C805.137 430.18 806.332 432.066 808.078 432.078C809.836 432.066 811.02 430.18 811.031 426.922C811.02 423.688 809.836 421.789 808.078 421.789C806.332 421.789 805.137 423.688 805.148 426.922ZM841.312 430.344V432.336H825.82V430.344H832.289V428.539H834.891V430.344H841.312ZM823.453 427.789V418.836H828.938V420.875H826.008V425.738C827.016 425.691 828.035 425.586 829.172 425.352L829.359 427.391C827.508 427.777 826.09 427.789 824.438 427.789H823.453ZM827.367 436.062C827.355 434.164 829.664 433.086 833.531 433.086C837.398 433.086 839.695 434.164 839.695 436.062C839.695 438.031 837.398 439.074 833.531 439.086C829.664 439.074 827.355 438.031 827.367 436.062ZM829.992 427.789V418.836H835.922V420.875H832.57V425.75C834.199 425.715 835.277 425.609 836.531 425.328L836.742 427.391C835.102 427.754 833.73 427.789 831.094 427.789H829.992ZM830.133 436.062C830.133 436.883 831.363 437.281 833.531 437.281C835.688 437.281 836.883 436.883 836.906 436.062C836.883 435.289 835.688 434.902 833.531 434.891C831.363 434.902 830.133 435.289 830.133 436.062ZM835.195 424.109V422.117H838.406V417.898H840.961V429.195H838.406V424.109H835.195ZM862.055 417.898V439.086H859.57V417.898H862.055ZM843.609 432.758C847.992 430.168 850.008 426.852 850.406 422.586H844.688V420.477H852.984C852.984 422.527 852.727 424.449 852.152 426.242H855.094V418.414H857.555V438.078H855.094V428.328H851.297C850.066 430.754 848.074 432.875 845.086 434.609L843.609 432.758ZM886.805 417.898V425.961H890.062V428.164H886.805V439.086H884.203V417.898H886.805ZM870.961 434.117V419.633H873.539V424.93H878.531V419.633H881.133V434.117H870.961ZM873.539 431.984H878.531V426.969H873.539V431.984ZM907.547 417.898V426.031H910.805V428.211H907.547V439.109H904.969V417.898H907.547ZM891.797 421.859V419.75H901.547V427.742H894.422V431.961C897.785 431.938 900.398 431.797 903.352 431.281L903.586 433.391C900.316 433.977 897.434 434.117 893.578 434.117H891.844V425.656H898.945V421.859H891.797ZM931.055 434.398V436.531H911.695V434.398H920.039V430.273H913.828V419.305H916.43V422.773H926.25V419.305H928.852V430.273H922.617V434.398H931.055ZM916.43 428.164H926.25V424.859H916.43V428.164ZM949.734 419.844V421.883C949.711 424.52 949.711 427.461 948.891 431.891L946.266 431.609C947.098 427.484 947.098 424.473 947.109 421.93H934.453V419.844H949.734ZM932.438 436.344V434.211H939.562V426.852H942.141V434.211H951.75V436.344H932.438ZM976.617 417.898V428.75H974.016V423.383H969.797V421.297H974.016V417.898H976.617ZM958.758 426.781C962.168 425.75 963.938 423.137 963.938 420.289V418.602H966.562V420.289C966.551 422.902 968.262 425.375 971.555 426.383L970.172 428.398C967.875 427.637 966.211 426.137 965.273 424.215C964.359 426.359 962.613 428.047 960.117 428.867L958.758 426.781ZM962.672 431.703V429.664H976.617V435.148H965.25V436.766H977.297V438.828H962.695V433.203H974.039V431.703H962.672ZM997.898 417.898V439.086H995.414V417.898H997.898ZM979.406 432.758C983.789 430.168 985.805 426.852 986.203 422.586H980.531V420.477H988.781C988.781 421.543 988.711 422.586 988.559 423.594H991.031V418.414H993.516V438.078H991.031V431H987.727V428.867H991.031V425.727H988.113C987.105 429.242 984.902 432.266 980.93 434.609L979.406 432.758ZM1017.07 417.852V422.633H1020.05V424.742H1017.07V429.406H1014.47V417.852H1017.07ZM1000.38 421.602V419.609H1005.38V417.734H1007.98V419.609H1012.95V421.602H1000.38ZM1001.46 425.727C1001.46 423.617 1003.54 422.27 1006.66 422.258C1009.8 422.27 1011.83 423.617 1011.84 425.727C1011.83 427.895 1009.8 429.195 1006.66 429.195C1003.54 429.195 1001.46 427.895 1001.46 425.727ZM1003.22 432.242V430.344H1017.07V435.453H1005.82V436.953H1017.73V438.898H1003.24V433.648H1014.47V432.242H1003.22ZM1003.99 425.727C1003.98 426.77 1005.02 427.309 1006.66 427.32C1008.3 427.309 1009.36 426.77 1009.36 425.727C1009.36 424.719 1008.3 424.121 1006.66 424.133C1005.02 424.121 1003.98 424.719 1003.99 425.727ZM1029.09 423.922C1029.09 427.391 1031.13 431.047 1034.55 432.477L1033.12 434.539C1030.62 433.449 1028.79 431.234 1027.82 428.539C1026.84 431.445 1024.98 433.883 1022.51 435.055L1021.01 433.016C1024.35 431.469 1026.43 427.52 1026.45 423.922V422.141H1021.78V419.984H1033.73V422.141H1029.09V423.922ZM1036.1 439.086V417.898H1038.73V439.086H1036.1ZM1058.32 419.141V421.273H1051.01V423.242H1057.9V425.328H1051.01V427.414C1054.68 427.402 1056.95 427.32 1059.54 426.828L1059.82 428.891C1056.95 429.395 1054.42 429.477 1050.09 429.453H1048.41V419.141H1058.32ZM1050.56 438.828V431.305H1064.25V438.828H1050.56ZM1053.14 436.719H1061.67V433.344H1053.14V436.719ZM1061.65 430.32V417.898H1064.25V422.961H1067.2V425.117H1064.25V430.32H1061.65ZM1085.23 419.188V421.086C1085.21 423.066 1085.21 425.234 1084.66 428.234H1087.59V430.344H1079.18V439.109H1076.55V430.344H1068.28V428.234H1082.02C1082.6 425.352 1082.62 423.184 1082.62 421.297H1070.55V419.188H1085.23ZM1105.73 417.922V424.578H1108.69V426.734H1105.73V433.742H1103.13V417.922H1105.73ZM1089.05 422.352V420.266H1094.04V417.898H1096.64V420.266H1101.61V422.352H1089.05ZM1090.12 427.273C1090.12 424.836 1092.25 423.219 1095.33 423.219C1098.39 423.219 1100.5 424.836 1100.51 427.273C1100.5 429.699 1098.39 431.281 1095.33 431.281C1092.25 431.281 1090.12 429.699 1090.12 427.273ZM1092.16 438.664V432.5H1094.77V436.555H1106.58V438.664H1092.16ZM1092.66 427.273C1092.64 428.551 1093.72 429.277 1095.33 429.266C1096.93 429.277 1098.02 428.551 1098.02 427.273C1098.02 425.984 1096.93 425.234 1095.33 425.234C1093.72 425.234 1092.64 425.984 1092.66 427.273ZM1126.36 417.898V425.938H1129.62V428.07H1126.36V439.109H1123.76V417.898H1126.36ZM1110.63 433.93V419.914H1120.55V422.023H1113.23V431.75C1116.53 431.738 1119.14 431.574 1122.05 431.07L1122.35 433.273C1119.06 433.836 1116.21 433.93 1112.39 433.93H1110.63ZM1133.09 437.188C1132.08 437.188 1131.25 436.367 1131.26 435.359C1131.25 434.375 1132.08 433.566 1133.09 433.555C1134.06 433.566 1134.89 434.375 1134.89 435.359C1134.89 436.367 1134.06 437.188 1133.09 437.188ZM106.16 478H102.902L108.879 461.031H112.629L118.629 478H115.371L113.953 473.805H107.566L106.16 478ZM108.387 471.344H113.133L110.824 464.5H110.684L108.387 471.344ZM123.691 461.031V478H120.645V461.031H123.691ZM132.316 460.211C135.574 460.211 138.059 462.309 138.082 465.32C138.059 467.91 136.23 469.82 133.652 470.301V473.43C135.422 473.336 137.18 473.207 138.832 472.984L139.02 474.93C134.578 475.727 129.738 475.75 126.105 475.703L125.73 473.57C127.324 473.57 129.152 473.559 131.051 473.512V470.324C128.391 469.855 126.551 467.934 126.574 465.32C126.551 462.309 128.988 460.211 132.316 460.211ZM129.105 465.32C129.094 467.09 130.465 468.227 132.316 468.203C134.133 468.227 135.492 467.09 135.504 465.32C135.492 463.539 134.133 462.438 132.316 462.414C130.465 462.438 129.094 463.539 129.105 465.32ZM140.051 480.086V458.898H142.652V467.359H145.723V469.562H142.652V480.086H140.051ZM170.707 458.898V480.086H168.176V458.898H170.707ZM153.129 475.234V461.383H161.191V463.469H155.684V473.055C158.18 473.043 159.984 472.926 162.059 472.492L162.27 474.625C159.879 475.117 157.758 475.223 154.559 475.234H153.129ZM159.738 468.883V466.75H163.816V459.32H166.254V479.055H163.816V468.883H159.738ZM190.793 458.898V480.109H188.168V458.898H190.793ZM173.848 467.922C173.836 463.352 176.168 460.445 179.379 460.445C182.555 460.445 184.898 463.352 184.91 467.922C184.898 472.527 182.555 475.422 179.379 475.422C176.168 475.422 173.836 472.527 173.848 467.922ZM176.355 467.922C176.355 471.18 177.586 473.066 179.379 473.078C181.16 473.066 182.379 471.18 182.379 467.922C182.379 464.688 181.16 462.789 179.379 462.789C177.586 462.789 176.355 464.688 176.355 467.922ZM211.676 458.898V480.109H209.098V468.672H205.113V466.562H209.098V458.898H211.676ZM194.871 475.234V460.727H204.785V462.859H197.496V466.656H203.941V468.719H197.496V473.078C200.719 473.066 203.133 472.949 205.863 472.516L206.121 474.625C203.039 475.094 200.32 475.211 196.535 475.234H194.871ZM218.777 476.336L216.809 482.898H214.582L215.801 476.336H218.777ZM245.824 475.469V477.625H226.465V475.469H234.809V472.023H228.762V465.086H240.949V462.461H228.715V460.352H243.527V467.148H231.363V469.891H244.02V472.023H237.387V475.469H245.824ZM266.566 475.398V477.531H247.207V475.398H255.551V471.273H249.34V460.305H251.941V463.773H261.762V460.305H264.363V471.273H258.129V475.398H266.566ZM251.941 469.164H261.762V465.859H251.941V469.164ZM285.598 472.656V480.086H282.973V474.766H271.137V472.656H285.598ZM269.121 470.781V460.328H279.363V462.414H271.77V464.5H278.754V466.516H271.77V468.719C275.73 468.707 278.145 468.602 280.934 468.156L281.191 470.219C278.156 470.699 275.496 470.793 270.926 470.781H269.121ZM282.973 471.766V458.898H285.598V471.766H282.973ZM299.637 461.805C299.637 465.074 302.836 468.367 307.277 469.141L306.105 471.32C302.555 470.582 299.648 468.426 298.266 465.578C296.871 468.402 293.965 470.57 290.426 471.32L289.277 469.141C293.648 468.344 296.859 465.062 296.871 461.805V460.234H299.637V461.805ZM288.691 477.391V475.234H308.051V477.391H288.691ZM313.559 476.336L311.59 482.898H309.363L310.582 476.336H313.559ZM325.16 461.031V478H322.113V461.031H325.16ZM333.738 478.258C330.023 478.258 327.645 475.621 327.645 471.695C327.645 467.734 330.023 465.109 333.738 465.109C337.465 465.109 339.844 467.734 339.832 471.695C339.844 475.621 337.465 478.258 333.738 478.258ZM330.668 471.672C330.668 474.004 331.688 475.867 333.762 475.867C335.801 475.867 336.82 474.004 336.809 471.672C336.82 469.34 335.801 467.465 333.762 467.477C331.688 467.465 330.668 469.34 330.668 471.672ZM340.605 463.586V461.031H354.129V463.586H348.902V478H345.855V463.586H340.605ZM358.98 476.336L357.012 482.898H354.785L356.004 476.336H358.98ZM377.613 461.805C377.613 465.074 380.812 468.367 385.254 469.141L384.082 471.32C380.531 470.582 377.625 468.426 376.242 465.578C374.848 468.402 371.941 470.57 368.402 471.32L367.254 469.141C371.625 468.344 374.836 465.062 374.848 461.805V460.234H377.613V461.805ZM366.668 477.391V475.234H386.027V477.391H366.668ZM398.191 460.961V474.836H388.16V460.961H398.191ZM390.715 472.75H395.59V463H390.715V472.75ZM401.402 480.086V458.898H404.004V467.031H407.262V469.234H404.004V480.086H401.402ZM425.379 470.008V472.07H410.52V460.562H425.191V462.672H413.168V465.227H424.699V467.266H413.168V470.008H425.379ZM408.152 477.508V475.375H427.512V477.508H408.152ZM436.91 463.984C436.887 467.875 438.938 471.766 442.371 473.242L440.824 475.328C438.387 474.203 436.605 471.965 435.621 469.199C434.648 472.176 432.82 474.613 430.254 475.82L428.66 473.641C432.188 472.117 434.25 468.074 434.262 463.984V460.609H436.91V463.984ZM443.895 480.109V458.898H446.52V480.109H443.895ZM461.473 460.727V462.859H453.434V466.633H460.629V468.695H453.434V473.055C456.902 473.043 459.551 472.914 462.598 472.422L462.855 474.531C459.516 475.059 456.539 475.164 452.637 475.164H450.855V460.727H461.473ZM464.707 480.086V458.898H467.332V480.086H464.707ZM495.41 468.719V470.852H476.074V468.719H495.41ZM478.324 476.172C478.324 473.711 481.102 472.316 485.707 472.328C490.277 472.316 493.031 473.711 493.043 476.172C493.031 478.668 490.277 480.062 485.707 480.062C481.102 480.062 478.324 478.668 478.324 476.172ZM478.441 467.055V459.578H493.066V461.688H481.043V464.969H493.184V467.055H478.441ZM480.973 476.172C480.961 477.426 482.625 478.047 485.707 478.047C488.742 478.047 490.418 477.426 490.441 476.172C490.418 474.977 488.742 474.32 485.707 474.32C482.625 474.32 480.961 474.977 480.973 476.172ZM509.215 464.406C509.203 467.98 510.434 471.473 513.363 473.031L511.816 475.094C509.906 474.027 508.641 472.164 507.926 469.902C507.164 472.398 505.805 474.496 503.824 475.68L502.16 473.781C505.277 471.953 506.684 468.18 506.684 464.57V460.773H509.215V464.406ZM513.645 479.055V459.273H516.105V467.242H518.285V458.898H520.793V480.086H518.285V469.352H516.105V479.055H513.645ZM542.613 475.469V477.625H523.254V475.469H531.598V472.023H525.551V465.086H537.738V462.461H525.504V460.352H540.316V467.148H528.152V469.891H540.809V472.023H534.176V475.469H542.613ZM563.332 469.375V471.461H555.152V475.352H552.504V471.461H543.973V469.375H563.332ZM546.035 463.703C546.023 461.043 549.07 459.367 553.629 459.367C558.211 459.367 561.223 461.043 561.223 463.703C561.223 466.375 558.211 468.027 553.629 468.016C549.07 468.027 546.023 466.375 546.035 463.703ZM546.34 479.664V473.383H548.965V477.531H561.199V479.664H546.34ZM548.848 463.703C548.824 465.109 550.723 465.93 553.629 465.93C556.559 465.93 558.445 465.109 558.434 463.703C558.445 462.25 556.559 461.43 553.629 461.43C550.723 461.43 548.824 462.25 548.848 463.703ZM576.316 460.094C578.027 460.082 579.516 460.715 580.512 461.781H585.574V458.898H588.176V471.367H585.574V468.672H580.5C579.492 469.715 578.016 470.348 576.316 470.336C573.117 470.348 570.715 468.203 570.715 465.227C570.715 462.227 573.117 460.082 576.316 460.094ZM573.199 465.227C573.199 466.961 574.5 468.133 576.316 468.133C578.074 468.133 579.375 466.961 579.387 465.227C579.375 463.434 578.074 462.32 576.316 462.32C574.5 462.32 573.199 463.434 573.199 465.227ZM573.809 475.938C573.785 473.324 576.562 471.801 581.004 471.812C585.457 471.801 588.234 473.324 588.246 475.938C588.234 478.539 585.457 480.062 581.004 480.062C576.562 480.062 573.785 478.539 573.809 475.938ZM576.363 475.938C576.34 477.285 578.062 478.012 581.004 478.023C584.004 478.012 585.691 477.285 585.691 475.938C585.691 474.555 584.004 473.816 581.004 473.805C578.062 473.816 576.34 474.555 576.363 475.938ZM581.684 463.867C581.801 464.301 581.871 464.746 581.871 465.227C581.871 465.695 581.801 466.141 581.695 466.562H585.574V463.867H581.684ZM608.918 472.422V480.086H606.316V474.484H594.48V472.422H608.918ZM591.457 465.203C591.457 462.203 593.859 460.047 597.059 460.07C598.805 460.059 600.328 460.715 601.324 461.828H606.316V458.898H608.918V471.414H606.316V468.602H601.348C600.34 469.727 598.816 470.406 597.059 470.406C593.859 470.406 591.457 468.25 591.457 465.203ZM593.941 465.203C593.941 467.043 595.242 468.191 597.059 468.203C598.793 468.191 600.117 467.043 600.129 465.203C600.117 463.434 598.793 462.262 597.059 462.273C595.242 462.262 593.941 463.434 593.941 465.203ZM602.449 466.492H606.316V463.961H602.461C602.555 464.359 602.613 464.77 602.613 465.203C602.613 465.648 602.555 466.082 602.449 466.492ZM621.551 459.227C626.379 459.238 629.18 460.516 629.191 462.859C629.18 465.227 626.379 466.504 621.551 466.516C616.734 466.504 613.91 465.227 613.91 462.859C613.91 460.516 616.734 459.238 621.551 459.227ZM611.918 469.727V467.641H631.23V469.727H611.918ZM614.191 473.078V471.156H628.816V476.336H616.77V477.906H629.402V479.898H614.215V474.484H626.262V473.078H614.191ZM616.652 462.859C616.641 464.031 618.328 464.57 621.551 464.57C624.82 464.57 626.496 464.031 626.496 462.859C626.496 461.77 624.82 461.148 621.551 461.148C618.328 461.148 616.641 461.77 616.652 462.859ZM656.098 471.953V479.828H642.105V471.953H656.098ZM639.574 470.055V460.07H642.152V467.852C644.988 467.828 647.742 467.605 650.684 467.031L650.965 469.211C647.648 469.879 644.566 470.055 641.285 470.055H639.574ZM644.66 477.719H653.543V474.039H644.66V477.719ZM647.965 464.734V462.625H653.496V458.898H656.098V471.039H653.496V464.734H647.965ZM678.832 467.078V469.211H675.691V480.039H673.09V458.898H675.691V467.078H678.832ZM659.848 474.812V460.961H662.426V472.656C665.25 472.609 668.25 472.363 671.449 471.695L671.73 473.898C668.156 474.613 664.77 474.801 661.629 474.812H659.848ZM699.176 467.383V469.445H679.84V467.383H699.176ZM682.113 472.867V470.898H696.738V476.219H684.691V477.836H697.324V479.875H682.137V474.344H694.184V472.867H682.113ZM682.301 466.023V459.438H696.691V461.523H684.902V463.961H696.879V466.023H682.301ZM711.363 460.867V463.797H715.77V458.898H718.348V480.109H715.77V471.648H711.363V474.859H701.379V460.867H711.363ZM703.98 472.797H708.809V462.906H703.98V472.797ZM711.363 469.562H715.77V465.906H711.363V469.562ZM725.449 476.336L723.48 482.898H721.254L722.473 476.336H725.449ZM750.832 458.898V480.086H748.207V458.898H750.832ZM733.277 474.25C738.832 471.613 741.387 468.027 741.855 463.211H734.355V461.148H744.504C744.504 467.453 742.055 472.809 734.637 476.336L733.277 474.25ZM764.871 459.578C764.871 461.84 767.766 463.902 772.184 464.383L771.316 466.352C767.719 465.941 764.871 464.512 763.512 462.449C762.152 464.512 759.305 465.941 755.754 466.352L754.863 464.383C759.305 463.902 762.188 461.84 762.199 459.578V459.016H764.871V459.578ZM753.879 469.469V467.406H773.191V469.469H764.801V471.109H770.777V476.359H758.73V477.906H771.363V479.898H756.176V474.484H768.223V473.102H756.152V471.109H762.199V469.469H753.879ZM792.246 458.898V480.109H789.621V458.898H792.246ZM775.301 467.922C775.289 463.352 777.621 460.445 780.832 460.445C784.008 460.445 786.352 463.352 786.363 467.922C786.352 472.527 784.008 475.422 780.832 475.422C777.621 475.422 775.289 472.527 775.301 467.922ZM777.809 467.922C777.809 471.18 779.039 473.066 780.832 473.078C782.613 473.066 783.832 471.18 783.832 467.922C783.832 464.688 782.613 462.789 780.832 462.789C779.039 462.789 777.809 464.688 777.809 467.922ZM812.004 460.469V462.578H804.902V469.305C808.207 469.293 810.48 469.164 813.059 468.672L813.316 470.781C810.434 471.285 807.902 471.426 803.988 471.438H802.324V460.469H812.004ZM804.879 479.758V473.102H807.504V477.648H819.34V479.758H804.879ZM810.715 466.633V464.57H816.199V458.922H818.801V474.344H816.199V466.633H810.715ZM829.793 464.922C829.793 468.391 831.832 472.047 835.254 473.477L833.824 475.539C831.316 474.449 829.488 472.234 828.516 469.539C827.543 472.445 825.68 474.883 823.207 476.055L821.707 474.016C825.047 472.469 827.133 468.52 827.145 464.922V463.141H822.48V460.984H834.434V463.141H829.793V464.922ZM836.801 480.086V458.898H839.426V480.086H836.801ZM859.699 464.898V466.961H845.027V459.672H847.605V464.898H859.699ZM842.52 471.484V469.422H861.879V471.484H842.52ZM844.84 479.594V473.359H847.441V477.484H859.84V479.594H844.84ZM886.582 458.898V469.82H884.004V458.898H886.582ZM869.145 467.922C872.438 466.949 874.254 464.559 874.383 462.062H869.824V459.953H881.473V462.062H877.031C877.148 464.406 878.941 466.633 882.223 467.523L880.957 469.539C878.484 468.824 876.715 467.324 875.754 465.402C874.793 467.523 872.953 469.199 870.34 469.984L869.145 467.922ZM872.566 472.703V470.711H886.629V476.172H875.168V477.883H887.262V479.898H872.613V474.273H884.027V472.703H872.566ZM909.059 469.492V471.578H900.879V475.469H898.301V471.578H889.699V469.492H909.059ZM892.043 479.664V473.523H894.645V477.555H906.926V479.664H892.043ZM892.16 467.523V459.859H906.574V467.523H892.16ZM894.691 465.484H903.996V461.898H894.691V465.484ZM928.746 458.898V480.086H926.238V458.898H928.746ZM910.676 468.062C910.676 463.398 912.48 460.504 915.246 460.516C917.812 460.504 919.559 462.906 919.863 466.867H921.902V459.273H924.387V479.055H921.902V468.977H919.887C919.641 473.113 917.871 475.645 915.246 475.633C912.48 475.645 910.676 472.738 910.676 468.062ZM913.09 468.062C913.078 471.379 913.898 473.16 915.246 473.148C916.652 473.16 917.484 471.379 917.496 468.062C917.484 464.758 916.652 462.965 915.246 462.977C913.898 462.965 913.078 464.758 913.09 468.062ZM954.527 458.898V480.109H951.902V458.898H954.527ZM938.215 475V460.82H948.434V462.953H940.84V472.797C944.73 472.773 947.18 472.668 950.004 472.164L950.262 474.32C947.227 474.883 944.496 475 940.02 475H938.215ZM965.238 464.922C965.227 468.191 967.195 471.918 970.535 473.477L969.082 475.539C966.691 474.414 964.922 472.141 963.973 469.492C963.012 472.398 961.16 474.883 958.723 476.055L957.199 474.016C960.574 472.41 962.625 468.449 962.637 464.922V463.141H958.02V460.984H969.668V463.141H965.238V464.922ZM971.637 480.086V458.898H974.238V467.148H977.496V469.328H974.238V480.086H971.637ZM996.035 458.922V474.227H993.41V458.922H996.035ZM978.762 465.602C978.762 462.52 981.258 460.316 984.48 460.305C987.703 460.316 990.188 462.52 990.176 465.602C990.188 468.73 987.703 470.922 984.48 470.922C981.258 470.922 978.762 468.73 978.762 465.602ZM981.316 465.602C981.305 467.477 982.664 468.648 984.48 468.648C986.25 468.648 987.621 467.477 987.621 465.602C987.621 463.773 986.25 462.578 984.48 462.578C982.664 462.578 981.305 463.773 981.316 465.602ZM982.02 479.664V472.68H984.645V477.555H996.621V479.664H982.02ZM1008.76 460.094C1013.23 460.094 1016.67 462.473 1016.66 466.07C1016.67 469.715 1013.23 472.094 1008.76 472.094C1004.32 472.094 1000.9 469.715 1000.91 466.07C1000.9 462.473 1004.32 460.094 1008.76 460.094ZM999.129 477.414V475.281H1018.49V477.414H999.129ZM1003.42 466.07C1003.41 468.473 1005.68 469.949 1008.76 469.961C1011.86 469.949 1014.11 468.473 1014.11 466.07C1014.11 463.727 1011.86 462.18 1008.76 462.203C1005.68 462.18 1003.41 463.727 1003.42 466.07ZM1039.23 475.469V477.625H1019.87V475.469H1028.21V472.023H1022.17V465.086H1034.36V462.461H1022.12V460.352H1036.93V467.148H1024.77V469.891H1037.43V472.023H1030.79V475.469H1039.23ZM1065.62 468.953V471.016H1046.31V468.953H1065.62ZM1048.3 463.492C1048.3 460.961 1051.3 459.391 1055.94 459.391C1060.59 459.391 1063.57 460.961 1063.58 463.492C1063.57 466.059 1060.59 467.594 1055.94 467.594C1051.3 467.594 1048.3 466.059 1048.3 463.492ZM1048.56 476.242C1048.56 473.758 1051.31 472.387 1055.94 472.398C1060.5 472.387 1063.27 473.758 1063.28 476.242C1063.27 478.715 1060.5 480.098 1055.94 480.086C1051.31 480.098 1048.56 478.715 1048.56 476.242ZM1051.02 463.492C1051 464.852 1052.85 465.566 1055.94 465.555C1059.04 465.566 1060.89 464.852 1060.89 463.492C1060.89 462.145 1059.04 461.43 1055.94 461.43C1052.85 461.43 1051 462.145 1051.02 463.492ZM1051.21 476.242C1051.2 477.449 1052.86 478.082 1055.94 478.07C1058.98 478.082 1060.65 477.449 1060.68 476.242C1060.65 475 1058.98 474.367 1055.94 474.367C1052.86 474.367 1051.2 475 1051.21 476.242ZM1083.76 458.898V463.609H1086.71V465.766H1083.76V470.219H1081.16V458.898H1083.76ZM1067.94 469.656V460.211H1077.36V462.32H1070.52V467.523C1074.5 467.512 1076.72 467.395 1079.24 466.844L1079.52 468.953C1076.74 469.527 1074.28 469.645 1069.65 469.656H1067.94ZM1070.03 479.781V471.273H1072.63V473.453H1081.16V471.273H1083.76V479.781H1070.03ZM1072.63 477.672H1081.16V475.516H1072.63V477.672ZM1104.5 458.922V465.578H1107.46V467.734H1104.5V474.742H1101.9V458.922H1104.5ZM1087.82 463.352V461.266H1092.81V458.898H1095.41V461.266H1100.38V463.352H1087.82ZM1088.89 468.273C1088.89 465.836 1091.02 464.219 1094.1 464.219C1097.16 464.219 1099.27 465.836 1099.28 468.273C1099.27 470.699 1097.16 472.281 1094.1 472.281C1091.02 472.281 1088.89 470.699 1088.89 468.273ZM1090.93 479.664V473.5H1093.54V477.555H1105.35V479.664H1090.93ZM1091.43 468.273C1091.41 469.551 1092.49 470.277 1094.1 470.266C1095.7 470.277 1096.79 469.551 1096.79 468.273C1096.79 466.984 1095.7 466.234 1094.1 466.234C1092.49 466.234 1091.41 466.984 1091.43 468.273ZM1125.13 458.898V466.938H1128.39V469.07H1125.13V480.109H1122.53V458.898H1125.13ZM1109.4 474.93V460.914H1119.32V463.023H1112V472.75C1115.3 472.738 1117.91 472.574 1120.82 472.07L1121.12 474.273C1117.83 474.836 1114.98 474.93 1111.16 474.93H1109.4ZM1131.86 478.188C1130.85 478.188 1130.02 477.367 1130.03 476.359C1130.02 475.375 1130.85 474.566 1131.86 474.555C1132.83 474.566 1133.66 475.375 1133.66 476.359C1133.66 477.367 1132.83 478.188 1131.86 478.188ZM248.906 542.961V545.352C248.906 548.188 248.906 551.105 248.133 555.57L245.484 555.336C246.305 551.176 246.305 548.105 246.305 545.352V545.07H234.094V542.961H248.906ZM232.055 559.18V557.047H251.367V559.18H232.055ZM270.328 543.102V544.602C270.328 546.488 270.328 549.16 269.742 552.805L267.164 552.594C267.68 549.383 267.738 547.004 267.75 545.188H259.43V543.102H270.328ZM258.305 555.547C259.559 555.535 260.953 555.523 262.406 555.488V549.148H264.984V555.406C267.141 555.312 269.355 555.16 271.383 554.914L271.523 556.859C267.152 557.574 262.301 557.656 258.562 557.633L258.305 555.547ZM272.484 562.086V540.898H275.109V549.523H278.18V551.727H275.109V562.086H272.484ZM296.977 540.898V553.484H294.375V548.305H290.766V546.172H294.375V540.898H296.977ZM279.164 551.375C282.574 550.203 284.367 547.355 284.367 544.555V544.391H279.961V542.281H291.398V544.391H287.016V544.531C287.016 547.109 288.727 549.711 292.008 550.812L290.695 552.875C288.34 552.078 286.676 550.461 285.738 548.469C284.812 550.719 283.043 552.547 280.523 553.438L279.164 551.375ZM282.609 558.055C282.586 555.512 285.34 554.023 289.805 554.023C294.293 554.023 297.035 555.512 297.047 558.055C297.035 560.598 294.293 562.074 289.805 562.086C285.34 562.074 282.586 560.598 282.609 558.055ZM285.188 558.055C285.176 559.367 286.863 560.082 289.805 560.07C292.77 560.082 294.445 559.367 294.445 558.055C294.445 556.73 292.77 556.016 289.805 556.016C286.863 556.016 285.176 556.73 285.188 558.055ZM318.258 540.898V562.086H315.75V540.898H318.258ZM300.188 550.062C300.188 545.398 301.992 542.504 304.758 542.516C307.324 542.504 309.07 544.906 309.375 548.867H311.414V541.273H313.898V561.055H311.414V550.977H309.398C309.152 555.113 307.383 557.645 304.758 557.633C301.992 557.645 300.188 554.738 300.188 550.062ZM302.602 550.062C302.59 553.379 303.41 555.16 304.758 555.148C306.164 555.16 306.996 553.379 307.008 550.062C306.996 546.758 306.164 544.965 304.758 544.977C303.41 544.965 302.59 546.758 302.602 550.062ZM328.547 545.984C328.535 549.922 330.422 553.789 333.797 555.266L332.227 557.352C329.836 556.18 328.148 553.93 327.246 551.152C326.32 554.082 324.586 556.52 322.148 557.75L320.508 555.641C323.965 554.023 325.887 549.945 325.898 545.984V542.609H328.547V545.984ZM331.453 549.852V547.742H335.906V540.898H338.484V562.109H335.906V549.852H331.453ZM366.492 552.828V554.984H358.055V562.086H355.477V554.984H347.133V552.828H366.492ZM349.172 546.406C349.16 543.5 352.254 541.66 356.766 541.648C361.277 541.66 364.395 543.5 364.406 546.406C364.395 549.277 361.277 551.105 356.766 551.094C352.254 551.105 349.16 549.277 349.172 546.406ZM351.844 546.406C351.832 548.059 353.777 549.031 356.766 549.031C359.766 549.031 361.711 548.059 361.711 546.406C361.711 544.742 359.766 543.758 356.766 543.758C353.777 543.758 351.832 544.742 351.844 546.406ZM385.547 540.898V562.109H382.969V540.898H385.547ZM369.047 544.859V542.75H379.031V550.695H371.742V554.961C375.082 554.938 377.953 554.762 381.258 554.211L381.492 556.344C377.895 556.965 374.73 557.105 370.922 557.094H369.07V548.633H376.383V544.859H369.047ZM405.797 546.898V548.961H391.125V541.672H393.703V546.898H405.797ZM388.617 553.484V551.422H407.977V553.484H388.617ZM390.938 561.594V555.359H393.539V559.484H405.938V561.594H390.938ZM432.82 540.922V556.555H430.219V551.234H425.953V553.109H416.039V542.305H418.641V545.727H423.375V542.305H425.953V544.578H430.219V540.922H432.82ZM418.641 551.047H423.375V547.742H418.641V551.047ZM418.852 561.664V555.008H421.5V559.555H433.289V561.664H418.852ZM425.953 549.125H430.219V546.688H425.953V549.125ZM452.578 540.898V549.641H455.555V551.82H452.578V562.086H449.953V540.898H452.578ZM435.562 556.203C437.168 556.203 439.031 556.203 440.977 556.156V554.176C438.668 553.777 437.168 552.336 437.18 550.344C437.168 547.953 439.266 546.371 442.312 546.359C445.324 546.371 447.445 547.953 447.469 550.344C447.445 552.348 445.91 553.789 443.602 554.176V556.062C445.383 555.969 447.164 555.828 448.828 555.594L448.992 557.492C444.445 558.324 439.547 558.359 435.938 558.359L435.562 556.203ZM435.961 545.398V543.336H440.977V540.992H443.602V543.336H448.594V545.398H435.961ZM439.641 550.344C439.629 551.562 440.707 552.277 442.312 552.266C443.895 552.277 444.961 551.562 444.961 550.344C444.961 549.113 443.895 548.363 442.312 548.352C440.707 548.363 439.629 549.113 439.641 550.344ZM474.844 540.898V562.086H472.336V540.898H474.844ZM456.773 550.062C456.773 545.398 458.578 542.504 461.344 542.516C463.91 542.504 465.656 544.906 465.961 548.867H468V541.273H470.484V561.055H468V550.977H465.984C465.738 555.113 463.969 557.645 461.344 557.633C458.578 557.645 456.773 554.738 456.773 550.062ZM459.188 550.062C459.176 553.379 459.996 555.16 461.344 555.148C462.75 555.16 463.582 553.379 463.594 550.062C463.582 546.758 462.75 544.965 461.344 544.977C459.996 544.965 459.176 546.758 459.188 550.062ZM502.336 552.781V554.891H497.625V562.086H494.977V554.891H490.289V562.086H487.617V554.891H482.977V552.781H502.336ZM485.016 546.383C485.004 543.5 488.098 541.66 492.609 541.648C497.121 541.66 500.238 543.5 500.25 546.383C500.238 549.23 497.121 551.023 492.609 551.023C488.098 551.023 485.004 549.23 485.016 546.383ZM487.688 546.383C487.676 548 489.621 548.949 492.609 548.961C495.609 548.949 497.555 548 497.555 546.383C497.555 544.719 495.609 543.758 492.609 543.758C489.621 543.758 487.676 544.719 487.688 546.383ZM521.484 540.922V556.461H518.883V551.211H513.832C512.824 552.348 511.324 553.027 509.625 553.039C506.426 553.027 504.023 550.754 504.023 547.625C504.023 544.461 506.426 542.199 509.625 542.188C511.312 542.199 512.812 542.867 513.82 543.992H518.883V540.922H521.484ZM506.508 547.625C506.508 549.512 507.809 550.719 509.625 550.719C511.359 550.719 512.684 549.512 512.695 547.625C512.684 545.727 511.359 544.508 509.625 544.508C507.809 544.508 506.508 545.727 506.508 547.625ZM507.586 561.664V554.867H510.188V559.555H522.023V561.664H507.586ZM514.969 546.102C515.098 546.582 515.18 547.086 515.18 547.625C515.18 548.141 515.109 548.633 514.98 549.102H518.883V546.102H514.969ZM541.078 540.898V549.336H544.336V551.492H541.078V562.086H538.5V540.898H541.078ZM524.367 546.242V544.156H529.383V541.203H531.984V544.156H536.859V546.242H524.367ZM525.352 552.617C525.328 549.688 527.602 547.613 530.695 547.625C533.742 547.613 536.004 549.688 536.016 552.617C536.004 555.535 533.742 557.586 530.695 557.586C527.602 557.586 525.328 555.535 525.352 552.617ZM527.836 552.617C527.824 554.34 529.031 555.441 530.695 555.43C532.324 555.441 533.508 554.34 533.531 552.617C533.508 550.895 532.324 549.758 530.695 549.758C529.031 549.758 527.824 550.895 527.836 552.617ZM563.508 540.898V562.086H561.023V540.898H563.508ZM545.062 555.758C549.445 553.168 551.461 549.852 551.859 545.586H546.141V543.477H554.438C554.438 545.527 554.18 547.449 553.605 549.242H556.547V541.414H559.008V561.078H556.547V551.328H552.75C551.52 553.754 549.527 555.875 546.539 557.609L545.062 555.758ZM579.445 544.531C579.445 547.121 581.156 549.711 584.438 550.812L583.125 552.828C580.758 552.055 579.082 550.449 578.156 548.457C577.23 550.672 575.473 552.453 572.953 553.297L571.617 551.234C574.992 550.121 576.797 547.309 576.797 544.555V544.273H572.391V542.188H583.828V544.273H579.445V544.531ZM574.969 556.625V554.539H589.406V562.086H586.805V556.625H574.969ZM583.195 548.281V546.148H586.805V540.898H589.406V553.531H586.805V548.281H583.195ZM611.719 550.953V553.016H592.406V550.953H611.719ZM594.398 545.492C594.398 542.961 597.398 541.391 602.039 541.391C606.691 541.391 609.668 542.961 609.68 545.492C609.668 548.059 606.691 549.594 602.039 549.594C597.398 549.594 594.398 548.059 594.398 545.492ZM594.656 558.242C594.656 555.758 597.41 554.387 602.039 554.398C606.598 554.387 609.363 555.758 609.375 558.242C609.363 560.715 606.598 562.098 602.039 562.086C597.41 562.098 594.656 560.715 594.656 558.242ZM597.117 545.492C597.094 546.852 598.945 547.566 602.039 547.555C605.133 547.566 606.984 546.852 606.984 545.492C606.984 544.145 605.133 543.43 602.039 543.43C598.945 543.43 597.094 544.145 597.117 545.492ZM597.305 558.242C597.293 559.449 598.957 560.082 602.039 560.07C605.074 560.082 606.75 559.449 606.773 558.242C606.75 557 605.074 556.367 602.039 556.367C598.957 556.367 597.293 557 597.305 558.242ZM629.742 540.898V549.336H633V551.492H629.742V562.086H627.164V540.898H629.742ZM613.031 546.242V544.156H618.047V541.203H620.648V544.156H625.523V546.242H613.031ZM614.016 552.617C613.992 549.688 616.266 547.613 619.359 547.625C622.406 547.613 624.668 549.688 624.68 552.617C624.668 555.535 622.406 557.586 619.359 557.586C616.266 557.586 613.992 555.535 614.016 552.617ZM616.5 552.617C616.488 554.34 617.695 555.441 619.359 555.43C620.988 555.441 622.172 554.34 622.195 552.617C622.172 550.895 620.988 549.758 619.359 549.758C617.695 549.758 616.488 550.895 616.5 552.617ZM644.672 542.867V545.797H649.078V540.898H651.656V562.109H649.078V553.648H644.672V556.859H634.688V542.867H644.672ZM637.289 554.797H642.117V544.906H637.289V554.797ZM644.672 551.562H649.078V547.906H644.672V551.562ZM658.758 558.336L656.789 564.898H654.562L655.781 558.336H658.758ZM677.93 542.445C680.789 542.445 682.91 544.836 683.285 548.703H687.328V540.898H689.906V562.109H687.328V550.812H683.309C683.027 554.902 680.871 557.422 677.93 557.422C674.742 557.422 672.48 554.527 672.492 549.922C672.48 545.352 674.742 542.445 677.93 542.445ZM675 549.922C674.988 553.18 676.184 555.066 677.93 555.078C679.688 555.066 680.871 553.18 680.883 549.922C680.871 546.688 679.688 544.789 677.93 544.789C676.184 544.789 674.988 546.688 675 549.922ZM710.508 540.898V562.109H707.883V540.898H710.508ZM694.195 557V542.82H704.414V544.953H696.82V554.797C700.711 554.773 703.16 554.668 705.984 554.164L706.242 556.32C703.207 556.883 700.477 557 696 557H694.195ZM721.453 545.984C721.441 549.922 723.328 553.789 726.703 555.266L725.133 557.352C722.742 556.18 721.055 553.93 720.152 551.152C719.227 554.082 717.492 556.52 715.055 557.75L713.414 555.641C716.871 554.023 718.793 549.945 718.805 545.984V542.609H721.453V545.984ZM724.359 549.852V547.742H728.812V540.898H731.391V562.109H728.812V549.852H724.359ZM753.703 551.445V553.531H734.367V551.445H753.703ZM736.734 549.523V541.742H751.359V543.805H739.336V547.414H751.547V549.523H736.734ZM736.758 561.641V555.383H739.312V559.531H751.688V561.641H736.758ZM771.75 543.805C771.75 547.074 774.949 550.367 779.391 551.141L778.219 553.32C774.668 552.582 771.762 550.426 770.379 547.578C768.984 550.402 766.078 552.57 762.539 553.32L761.391 551.141C765.762 550.344 768.973 547.062 768.984 543.805V542.234H771.75V543.805ZM760.805 559.391V557.234H780.164V559.391H760.805ZM792.492 543.805C792.492 547.074 795.691 550.367 800.133 551.141L798.961 553.32C795.41 552.582 792.504 550.426 791.121 547.578C789.727 550.402 786.82 552.57 783.281 553.32L782.133 551.141C786.504 550.344 789.715 547.062 789.727 543.805V542.234H792.492V543.805ZM781.547 559.391V557.234H800.906V559.391H781.547ZM821.648 557.469V559.625H802.289V557.469H810.633V554.023H804.586V547.086H816.773V544.461H804.539V542.352H819.352V549.148H807.188V551.891H819.844V554.023H813.211V557.469H821.648ZM829.898 542.375C833.262 542.363 835.711 544.484 835.734 547.484C835.711 550.496 833.262 552.605 829.898 552.617C826.57 552.605 824.074 550.496 824.086 547.484C824.074 544.484 826.57 542.363 829.898 542.375ZM823.125 555.547C826.945 555.547 832.23 555.5 836.812 554.844L837.023 556.742C832.277 557.645 827.191 557.68 823.453 557.68L823.125 555.547ZM826.664 547.484C826.652 549.254 828.047 550.344 829.898 550.344C831.773 550.344 833.168 549.254 833.18 547.484C833.168 545.727 831.785 544.625 829.898 544.625C828.047 544.625 826.652 545.727 826.664 547.484ZM838.078 562.109V540.898H840.68V562.109H838.078ZM867.117 540.898V551.633H864.492V540.898H867.117ZM849.797 549.945C855.059 548.914 857.52 546.699 857.824 543.875H850.922V541.766H860.719C860.707 547.449 857.273 550.672 850.711 552.055L849.797 549.945ZM853.055 554.539V552.5H867.117V558.031H855.727V559.836H867.75V561.875H853.102V556.133H864.492V554.539H853.055ZM879.844 541.227C884.672 541.238 887.473 542.516 887.484 544.859C887.473 547.227 884.672 548.504 879.844 548.516C875.027 548.504 872.203 547.227 872.203 544.859C872.203 542.516 875.027 541.238 879.844 541.227ZM870.211 551.727V549.641H889.523V551.727H870.211ZM872.484 555.078V553.156H887.109V558.336H875.062V559.906H887.695V561.898H872.508V556.484H884.555V555.078H872.484ZM874.945 544.859C874.934 546.031 876.621 546.57 879.844 546.57C883.113 546.57 884.789 546.031 884.789 544.859C884.789 543.77 883.113 543.148 879.844 543.148C876.621 543.148 874.934 543.77 874.945 544.859ZM907.406 542.727V552.734H897.375V542.727H907.406ZM899.789 561.664V554.867H902.391V559.555H914.203V561.664H899.789ZM899.93 550.672H904.852V544.812H899.93V550.672ZM910.758 556.367V540.898H913.359V547.109H916.312V549.289H913.359V556.367H910.758ZM936.727 549.383V551.445H917.391V549.383H936.727ZM919.664 554.867V552.898H934.289V558.219H922.242V559.836H934.875V561.875H919.688V556.344H931.734V554.867H919.664ZM919.852 548.023V541.438H934.242V543.523H922.453V545.961H934.43V548.023H919.852ZM943.922 542.445C946.781 542.445 948.902 544.836 949.277 548.703H953.32V540.898H955.898V562.109H953.32V550.812H949.301C949.02 554.902 946.863 557.422 943.922 557.422C940.734 557.422 938.473 554.527 938.484 549.922C938.473 545.352 940.734 542.445 943.922 542.445ZM940.992 549.922C940.98 553.18 942.176 555.066 943.922 555.078C945.68 555.066 946.863 553.18 946.875 549.922C946.863 546.688 945.68 544.789 943.922 544.789C942.176 544.789 940.98 546.688 940.992 549.922ZM975.586 540.898V546.992H978.539V549.172H975.586V556.18H972.938V540.898H975.586ZM958.805 551.914C963.656 550.508 966.527 547.871 966.973 544.648H959.695V542.516H969.82C969.832 548.141 966.152 552.16 959.883 553.977L958.805 551.914ZM961.969 561.664V554.609H964.617V559.555H976.383V561.664H961.969ZM996.211 540.898V548.938H999.469V551.07H996.211V562.109H993.609V540.898H996.211ZM980.484 556.93V542.914H990.398V545.023H983.086V554.75C986.379 554.738 988.992 554.574 991.898 554.07L992.203 556.273C988.91 556.836 986.062 556.93 982.242 556.93H980.484ZM1002.94 560.188C1001.93 560.188 1001.1 559.367 1001.11 558.359C1001.1 557.375 1001.93 556.566 1002.94 556.555C1003.91 556.566 1004.74 557.375 1004.74 558.359C1004.74 559.367 1003.91 560.188 1002.94 560.188ZM5.51953 583.445C8.70703 583.445 11.0039 586.352 11.0273 590.922C11.0039 595.527 8.70703 598.422 5.51953 598.422C2.29688 598.422 0 595.527 0.0117188 590.922C0 586.352 2.29688 583.445 5.51953 583.445ZM2.51953 590.922C2.50781 594.18 3.73828 596.066 5.51953 596.078C7.3125 596.066 8.50781 594.18 8.51953 590.922C8.50781 587.688 7.3125 585.789 5.51953 585.789C3.73828 585.789 2.50781 587.688 2.51953 590.922ZM13.8164 603.086V581.898H16.418V590.031H19.6758V592.234H16.418V603.086H13.8164ZM28.6055 585.578C28.6055 588.191 30.4102 590.805 33.7852 591.859L32.4492 593.875C30.0469 593.102 28.3008 591.508 27.3281 589.492C26.3789 591.684 24.5742 593.43 22.0664 594.273L20.7305 592.258C24.1406 591.109 25.957 588.355 25.9805 585.578V585.32H21.4102V583.234H33.0586V585.32H28.6055V585.578ZM23.7539 597.766V595.656H38.2148V603.086H35.5898V597.766H23.7539ZM35.5898 594.672V581.898H38.2148V594.672H35.5898ZM64.6289 581.898V603.109H62.0039V581.898H64.6289ZM47.6836 590.922C47.6719 586.352 50.0039 583.445 53.2148 583.445C56.3906 583.445 58.7344 586.352 58.7461 590.922C58.7344 595.527 56.3906 598.422 53.2148 598.422C50.0039 598.422 47.6719 595.527 47.6836 590.922ZM50.1914 590.922C50.1914 594.18 51.4219 596.066 53.2148 596.078C54.9961 596.066 56.2148 594.18 56.2148 590.922C56.2148 587.688 54.9961 585.789 53.2148 585.789C51.4219 585.789 50.1914 587.688 50.1914 590.922ZM87.082 592.68V594.742H67.7227V592.68H87.082ZM70.1133 584.383V582.344H84.6914V587.781H72.7617V589.305H85.1133V591.297H70.1836V585.883H82.0898V584.383H70.1133ZM70.2539 602.828V596.266H84.7617V602.828H70.2539ZM72.8086 600.719H82.1836V598.328H72.8086V600.719ZM111.246 594.648V596.5H99.1289V597.836H110.824V599.617H99.1289V600.977H111.574V602.898H96.5508V594.648H102.504V592.891H94.1836V590.828H113.496V592.891H105.105V594.648H111.246ZM96.6914 589.469V582.273H99.2695V583.961H108.41V582.273H110.988V589.469H96.6914ZM99.2695 587.477H108.41V585.906H99.2695V587.477ZM122.918 587.922C122.918 591.391 124.957 595.047 128.379 596.477L126.949 598.539C124.441 597.449 122.613 595.234 121.641 592.539C120.668 595.445 118.805 597.883 116.332 599.055L114.832 597.016C118.172 595.469 120.258 591.52 120.27 587.922V586.141H115.605V583.984H127.559V586.141H122.918V587.922ZM129.926 603.086V581.898H132.551V603.086H129.926ZM147.223 583C150.457 582.988 152.836 585.039 152.848 587.898C152.836 590.805 150.457 592.832 147.223 592.844C144.012 592.832 141.586 590.805 141.598 587.898C141.586 585.039 144.012 582.988 147.223 583ZM143.379 602.5V594.531H145.934V600.379C147.141 600.309 148.395 600.133 149.613 599.734L149.988 601.773C148.113 602.43 146.309 602.512 144.504 602.5H143.379ZM144.152 587.898C144.129 589.586 145.465 590.711 147.223 590.711C148.98 590.711 150.305 589.586 150.316 587.898C150.305 586.246 148.98 585.145 147.223 585.133C145.465 585.145 144.129 586.246 144.152 587.898ZM149.262 596.523V594.578H153.34V592.961H155.895V594.578H159.926V596.523H149.262ZM150.551 600.086C150.527 598.246 152.18 597.086 154.582 597.086C156.961 597.086 158.625 598.246 158.637 600.086C158.625 601.914 156.961 603.062 154.582 603.062C152.168 603.062 150.527 601.914 150.551 600.086ZM152.871 600.086C152.859 600.836 153.586 601.258 154.582 601.258C155.578 601.258 156.293 600.836 156.293 600.086C156.293 599.348 155.578 598.914 154.582 598.891C153.586 598.914 152.859 599.348 152.871 600.086ZM155.473 592.398V581.898H158.074V586.422H161.027V588.578H158.074V592.398H155.473ZM181.418 592.844V594.93H162.105V592.844H181.418ZM164.098 586.867C164.098 584.184 167.109 582.566 171.738 582.578C176.355 582.566 179.367 584.184 179.379 586.867C179.367 589.562 176.355 591.203 171.738 591.203C167.109 591.203 164.098 589.562 164.098 586.867ZM164.496 602.664V596.5H167.098V600.555H179.238V602.664H164.496ZM166.816 586.867C166.793 588.309 168.656 589.082 171.738 589.07C174.832 589.082 176.684 588.309 176.684 586.867C176.684 585.473 174.832 584.664 171.738 584.664C168.656 584.664 166.793 585.473 166.816 586.867ZM206.285 581.922V597.555H203.684V592.234H199.418V594.109H189.504V583.305H192.105V586.727H196.84V583.305H199.418V585.578H203.684V581.922H206.285ZM192.105 592.047H196.84V588.742H192.105V592.047ZM192.316 602.664V596.008H194.965V600.555H206.754V602.664H192.316ZM199.418 590.125H203.684V587.688H199.418V590.125ZM226.043 581.898V590.641H229.02V592.82H226.043V603.086H223.418V581.898H226.043ZM209.027 597.203C210.633 597.203 212.496 597.203 214.441 597.156V595.176C212.133 594.777 210.633 593.336 210.645 591.344C210.633 588.953 212.73 587.371 215.777 587.359C218.789 587.371 220.91 588.953 220.934 591.344C220.91 593.348 219.375 594.789 217.066 595.176V597.062C218.848 596.969 220.629 596.828 222.293 596.594L222.457 598.492C217.91 599.324 213.012 599.359 209.402 599.359L209.027 597.203ZM209.426 586.398V584.336H214.441V581.992H217.066V584.336H222.059V586.398H209.426ZM213.105 591.344C213.094 592.562 214.172 593.277 215.777 593.266C217.359 593.277 218.426 592.562 218.426 591.344C218.426 590.113 217.359 589.363 215.777 589.352C214.172 589.363 213.094 590.113 213.105 591.344ZM249.363 591.508V593.477H230.004V591.508H249.363ZM232.254 596.57V594.742H247.02V599.57H234.879V601.047H247.652V602.852H232.277V597.883H244.441V596.57H232.254ZM232.395 584.172V582.367H246.973V587.148H235.043V588.531H247.348V590.312H232.465V585.461H244.371V584.172H232.395ZM274.066 581.898V592.984H271.488V581.898H274.066ZM256.84 587.617C256.84 584.805 259.23 582.789 262.465 582.812C265.676 582.789 268.066 584.805 268.09 587.617C268.066 590.453 265.676 592.445 262.465 592.445C259.23 592.445 256.84 590.453 256.84 587.617ZM259.02 602.828V597.32H263.684V595.797H259.02V593.852H266.238V599.148H261.551V600.871C264.07 600.848 265.664 600.777 267.551 600.414L267.809 602.336C265.547 602.781 263.707 602.828 260.379 602.828H259.02ZM259.371 587.617C259.371 589.246 260.684 590.336 262.465 590.336C264.246 590.336 265.547 589.246 265.559 587.617C265.547 585.988 264.246 584.945 262.465 584.945C260.684 584.945 259.371 585.988 259.371 587.617ZM267.082 595.938V593.852H274.066V602.969H271.535V595.938H267.082ZM294.504 583.844V585.883C294.48 588.52 294.48 591.461 293.66 595.891L291.035 595.609C291.867 591.484 291.867 588.473 291.879 585.93H279.223V583.844H294.504ZM277.207 600.344V598.211H284.332V590.852H286.91V598.211H296.52V600.344H277.207ZM314.848 583.891V597.93H304.77V583.891H314.848ZM307.348 595.844H312.316V585.93H307.348V595.844ZM318.645 603.109V581.898H321.27V603.109H318.645ZM333.012 584.055V591.953H327.527V596.078C329.672 596.055 331.723 595.973 334.09 595.586L334.277 597.695C331.418 598.176 329.098 598.246 326.473 598.258H325.02V589.844H330.504V586.164H324.996V584.055H333.012ZM335.355 602.008V582.297H337.746V590.031H340.137V581.898H342.621V603.086H340.137V592.141H337.746V602.008H335.355ZM364.465 591.508V593.477H345.105V591.508H364.465ZM347.355 596.57V594.742H362.121V599.57H349.98V601.047H362.754V602.852H347.379V597.883H359.543V596.57H347.355ZM347.496 584.172V582.367H362.074V587.148H350.145V588.531H362.449V590.312H347.566V585.461H359.473V584.172H347.496ZM389.309 581.898V592.75H386.707V587.383H382.488V585.297H386.707V581.898H389.309ZM371.449 590.781C374.859 589.75 376.629 587.137 376.629 584.289V582.602H379.254V584.289C379.242 586.902 380.953 589.375 384.246 590.383L382.863 592.398C380.566 591.637 378.902 590.137 377.965 588.215C377.051 590.359 375.305 592.047 372.809 592.867L371.449 590.781ZM375.363 595.703V593.664H389.309V599.148H377.941V600.766H389.988V602.828H375.387V597.203H386.73V595.703H375.363ZM410.59 581.898V603.086H408.105V581.898H410.59ZM392.098 596.758C396.48 594.168 398.496 590.852 398.895 586.586H393.223V584.477H401.473C401.473 585.543 401.402 586.586 401.25 587.594H403.723V582.414H406.207V602.078H403.723V595H400.418V592.867H403.723V589.727H400.805C399.797 593.242 397.594 596.266 393.621 598.609L392.098 596.758ZM429.762 581.852V586.633H432.738V588.742H429.762V593.406H427.16V581.852H429.762ZM413.074 585.602V583.609H418.066V581.734H420.668V583.609H425.637V585.602H413.074ZM414.152 589.727C414.152 587.617 416.227 586.27 419.355 586.258C422.496 586.27 424.523 587.617 424.535 589.727C424.523 591.895 422.496 593.195 419.355 593.195C416.227 593.195 414.152 591.895 414.152 589.727ZM415.91 596.242V594.344H429.762V599.453H418.512V600.953H430.418V602.898H415.934V597.648H427.16V596.242H415.91ZM416.684 589.727C416.672 590.77 417.715 591.309 419.355 591.32C420.996 591.309 422.051 590.77 422.051 589.727C422.051 588.719 420.996 588.121 419.355 588.133C417.715 588.121 416.672 588.719 416.684 589.727ZM450.527 583.656C450.516 586.316 453.504 589.023 458.027 589.609L456.996 591.719C453.398 591.18 450.539 589.41 449.156 587.02C447.773 589.41 444.926 591.18 441.363 591.719L440.332 589.609C444.809 589.023 447.785 586.34 447.785 583.656V582.578H450.527V583.656ZM439.488 595.703V593.547H458.801V595.703H450.387V603.086H447.809V595.703H439.488ZM473.449 595.68C473.449 597.449 474.258 599.289 476.074 600.461C477.926 599.207 478.781 597.285 478.793 595.68V594.812H481.348V595.68C481.336 597.895 482.648 599.98 485.426 600.859L484.16 602.758C482.098 602.066 480.738 600.719 480 599.02C479.309 600.695 478.066 602.172 476.145 602.945C474.129 602.207 472.863 600.777 472.195 599.102C471.434 600.73 470.086 602.055 468.129 602.758L466.84 600.859C469.582 599.898 470.906 597.742 470.918 595.68V594.812H473.449V595.68ZM466.301 588.086C466.301 585.109 468.738 583.047 472.02 583.047C475.289 583.047 477.727 585.109 477.715 588.086C477.727 591.027 475.289 593.113 472.02 593.102C468.738 593.113 466.301 591.027 466.301 588.086ZM468.855 588.086C468.844 589.82 470.168 590.934 472.02 590.945C473.836 590.934 475.16 589.82 475.16 588.086C475.16 586.352 473.836 585.238 472.02 585.25C470.168 585.238 468.844 586.352 468.855 588.086ZM480.949 593.922V581.922H483.574V593.922H480.949ZM503.824 587.898V589.961H489.152V582.672H491.73V587.898H503.824ZM486.645 594.484V592.422H506.004V594.484H486.645ZM488.965 602.594V596.359H491.566V600.484H503.965V602.594H488.965ZM529.816 581.898V586.727H532.77V588.859H529.816V593.805H527.215V581.898H529.816ZM512.941 592.117C517.852 590.863 520.641 588.355 521.098 585.297H513.949V583.188H523.934C523.922 588.695 520.312 592.504 513.973 594.203L512.941 592.117ZM516.105 602.805V594.648H529.816V602.805H516.105ZM518.707 600.742H527.238V596.781H518.707V600.742ZM550.559 581.898V587.008H553.512V589.188H550.559V594.25H547.957V581.898H550.559ZM533.637 592.141C538.582 590.863 541.406 588.332 541.852 585.25H534.691V583.141H544.652C544.641 588.695 541.031 592.527 534.715 594.133L533.637 592.141ZM536.449 597.227V595.141H550.559V603.086H547.957V597.227H536.449ZM566.426 584.102V585.602C566.426 587.488 566.426 590.16 565.84 593.805L563.262 593.594C563.777 590.383 563.836 588.004 563.848 586.188H555.527V584.102H566.426ZM554.402 596.547C555.656 596.535 557.051 596.523 558.504 596.488V590.148H561.082V596.406C563.238 596.312 565.453 596.16 567.48 595.914L567.621 597.859C563.25 598.574 558.398 598.656 554.66 598.633L554.402 596.547ZM568.582 603.086V581.898H571.207V590.523H574.277V592.727H571.207V603.086H568.582ZM588.645 586.422C588.633 588.754 590.355 590.98 593.684 591.883L592.488 593.945C590.062 593.277 588.34 591.848 587.379 590.031C586.453 592.082 584.695 593.688 582.199 594.461L580.934 592.422C584.273 591.473 586.043 589.012 586.043 586.422V586.328H581.613V584.266H586.043V581.805H588.668V584.266H593.074V586.328H588.645V586.422ZM583.676 599.125C583.676 596.617 586.395 595.188 590.848 595.188C595.266 595.188 597.938 596.617 597.949 599.125C597.938 601.609 595.266 603.039 590.848 603.039C586.395 603.039 583.676 601.609 583.676 599.125ZM586.277 599.125C586.277 600.391 587.906 601.047 590.848 601.047C593.742 601.047 595.371 600.391 595.371 599.125C595.371 597.836 593.742 597.203 590.848 597.203C587.906 597.203 586.277 597.836 586.277 599.125ZM595.137 594.742V581.898H597.738V587.078H600.691V589.211H597.738V594.742H595.137ZM608.637 583.375C612 583.363 614.449 585.484 614.473 588.484C614.449 591.496 612 593.605 608.637 593.617C605.309 593.605 602.812 591.496 602.824 588.484C602.812 585.484 605.309 583.363 608.637 583.375ZM601.863 596.547C605.684 596.547 610.969 596.5 615.551 595.844L615.762 597.742C611.016 598.645 605.93 598.68 602.191 598.68L601.863 596.547ZM605.402 588.484C605.391 590.254 606.785 591.344 608.637 591.344C610.512 591.344 611.906 590.254 611.918 588.484C611.906 586.727 610.523 585.625 608.637 585.625C606.785 585.625 605.391 586.727 605.402 588.484ZM616.816 603.109V581.898H619.418V603.109H616.816ZM632.637 583.164V589.539H625.957V592.141C629.367 592.141 631.301 592.047 633.551 591.625L633.809 593.734C631.277 594.168 629.086 594.227 624.926 594.227H623.379V587.594H630.035V585.227H623.332V583.164H632.637ZM625.77 598.047V595.961H640.254V603.086H637.652V598.047H625.77ZM633.902 591.461V589.375H637.652V587.008H633.902V584.922H637.652V581.922H640.254V594.953H637.652V591.461H633.902ZM652.887 582.227C657.715 582.238 660.516 583.516 660.527 585.859C660.516 588.227 657.715 589.504 652.887 589.516C648.07 589.504 645.246 588.227 645.246 585.859C645.246 583.516 648.07 582.238 652.887 582.227ZM643.254 592.727V590.641H662.566V592.727H643.254ZM645.527 596.078V594.156H660.152V599.336H648.105V600.906H660.738V602.898H645.551V597.484H657.598V596.078H645.527ZM647.988 585.859C647.977 587.031 649.664 587.57 652.887 587.57C656.156 587.57 657.832 587.031 657.832 585.859C657.832 584.77 656.156 584.148 652.887 584.148C649.664 584.148 647.977 584.77 647.988 585.859ZM687.387 581.898V603.086H684.762V581.898H687.387ZM669.832 597.25C675.387 594.613 677.941 591.027 678.41 586.211H670.91V584.148H681.059C681.059 590.453 678.609 595.809 671.191 599.336L669.832 597.25ZM709.793 598.445V600.578H690.434V598.445H709.793ZM692.684 585.508V583.398H707.496V590.219H695.332V592.984H707.988V595.047H692.73V588.133H704.918V585.508H692.684ZM728.332 587.898V589.961H713.66V582.672H716.238V587.898H728.332ZM711.152 594.484V592.422H730.512V594.484H711.152ZM713.473 602.594V596.359H716.074V600.484H728.473V602.594H713.473ZM755.355 581.922V596.055H752.754V589.773H748.723V587.641H752.754V581.922H755.355ZM737.895 592.938C742.77 591.473 745.324 588.941 745.77 585.648H738.996V583.562H748.582C748.57 589.176 745.336 593.008 739.02 594.977L737.895 592.938ZM740.121 600.93C744.363 600.285 746.977 597.848 746.988 595.211V594.391H749.59V595.211C749.578 597.836 752.18 600.215 756.41 600.906L755.355 602.969C752.074 602.406 749.555 600.848 748.277 598.668C746.988 600.859 744.434 602.418 741.152 602.992L740.121 600.93ZM786.574 592.703V595.164H763.23V592.703H786.574ZM809.707 583.961V586.352C809.707 589.188 809.707 592.105 808.934 596.57L806.285 596.336C807.105 592.176 807.105 589.105 807.105 586.352V586.07H794.895V583.961H809.707ZM792.855 600.18V598.047H812.168V600.18H792.855ZM831.34 581.922V596.055H828.738V589.773H824.707V587.641H828.738V581.922H831.34ZM813.879 592.938C818.754 591.473 821.309 588.941 821.754 585.648H814.98V583.562H824.566C824.555 589.176 821.32 593.008 815.004 594.977L813.879 592.938ZM816.105 600.93C820.348 600.285 822.961 597.848 822.973 595.211V594.391H825.574V595.211C825.562 597.836 828.164 600.215 832.395 600.906L831.34 602.969C828.059 602.406 825.539 600.848 824.262 598.668C822.973 600.859 820.418 602.418 817.137 602.992L816.105 600.93ZM851.965 581.898V603.109H849.34V581.898H851.965ZM835.02 590.922C835.008 586.352 837.34 583.445 840.551 583.445C843.727 583.445 846.07 586.352 846.082 590.922C846.07 595.527 843.727 598.422 840.551 598.422C837.34 598.422 835.008 595.527 835.02 590.922ZM837.527 590.922C837.527 594.18 838.758 596.066 840.551 596.078C842.332 596.066 843.551 594.18 843.551 590.922C843.551 587.688 842.332 585.789 840.551 585.789C838.758 585.789 837.527 587.688 837.527 590.922ZM863.801 601H860.543L866.52 584.031H870.27L876.27 601H873.012L871.594 596.805H865.207L863.801 601ZM866.027 594.344H870.773L868.465 587.5H868.324L866.027 594.344ZM881.332 584.031V601H878.285V584.031H881.332ZM901.254 581.898V603.109H898.629V581.898H901.254ZM884.941 598V583.82H895.16V585.953H887.566V595.797C891.457 595.773 893.906 595.668 896.73 595.164L896.988 597.32C893.953 597.883 891.223 598 886.746 598H884.941ZM911.965 587.922C911.953 591.191 913.922 594.918 917.262 596.477L915.809 598.539C913.418 597.414 911.648 595.141 910.699 592.492C909.738 595.398 907.887 597.883 905.449 599.055L903.926 597.016C907.301 595.41 909.352 591.449 909.363 587.922V586.141H904.746V583.984H916.395V586.141H911.965V587.922ZM918.363 603.086V581.898H920.965V590.148H924.223V592.328H920.965V603.086H918.363ZM942.762 581.922V597.227H940.137V581.922H942.762ZM925.488 588.602C925.488 585.52 927.984 583.316 931.207 583.305C934.43 583.316 936.914 585.52 936.902 588.602C936.914 591.73 934.43 593.922 931.207 593.922C927.984 593.922 925.488 591.73 925.488 588.602ZM928.043 588.602C928.031 590.477 929.391 591.648 931.207 591.648C932.977 591.648 934.348 590.477 934.348 588.602C934.348 586.773 932.977 585.578 931.207 585.578C929.391 585.578 928.031 586.773 928.043 588.602ZM928.746 602.664V595.68H931.371V600.555H943.348V602.664H928.746ZM963.48 581.898V603.109H960.855V581.898H963.48ZM946.535 590.922C946.523 586.352 948.855 583.445 952.066 583.445C955.242 583.445 957.586 586.352 957.598 590.922C957.586 595.527 955.242 598.422 952.066 598.422C948.855 598.422 946.523 595.527 946.535 590.922ZM949.043 590.922C949.043 594.18 950.273 596.066 952.066 596.078C953.848 596.066 955.066 594.18 955.066 590.922C955.066 587.688 953.848 585.789 952.066 585.789C950.273 585.789 949.043 587.688 949.043 590.922ZM991.629 593.828V595.984H983.191V603.086H980.613V595.984H972.27V593.828H991.629ZM974.309 587.406C974.297 584.5 977.391 582.66 981.902 582.648C986.414 582.66 989.531 584.5 989.543 587.406C989.531 590.277 986.414 592.105 981.902 592.094C977.391 592.105 974.297 590.277 974.309 587.406ZM976.98 587.406C976.969 589.059 978.914 590.031 981.902 590.031C984.902 590.031 986.848 589.059 986.848 587.406C986.848 585.742 984.902 584.758 981.902 584.758C978.914 584.758 976.969 585.742 976.98 587.406ZM1010.68 581.898V603.109H1008.11V581.898H1010.68ZM994.184 585.859V583.75H1004.17V591.695H996.879V595.961C1000.22 595.938 1003.09 595.762 1006.39 595.211L1006.63 597.344C1003.03 597.965 999.867 598.105 996.059 598.094H994.207V589.633H1001.52V585.859H994.184ZM1032.06 581.898V603.086H1029.55V581.898H1032.06ZM1013.99 591.062C1013.99 586.398 1015.79 583.504 1018.56 583.516C1021.12 583.504 1022.87 585.906 1023.18 589.867H1025.21V582.273H1027.7V602.055H1025.21V591.977H1023.2C1022.95 596.113 1021.18 598.645 1018.56 598.633C1015.79 598.645 1013.99 595.738 1013.99 591.062ZM1016.4 591.062C1016.39 594.379 1017.21 596.16 1018.56 596.148C1019.96 596.16 1020.8 594.379 1020.81 591.062C1020.8 587.758 1019.96 585.965 1018.56 585.977C1017.21 585.965 1016.39 587.758 1016.4 591.062ZM1052.8 581.898V603.086H1050.32V581.898H1052.8ZM1034.36 596.758C1038.74 594.168 1040.75 590.852 1041.15 586.586H1035.43V584.477H1043.73C1043.73 586.527 1043.47 588.449 1042.9 590.242H1045.84V582.414H1048.3V602.078H1045.84V592.328H1042.04C1040.81 594.754 1038.82 596.875 1035.83 598.609L1034.36 596.758ZM1077.55 581.898V590.172H1080.69V592.352H1077.55V603.039H1074.95V581.898H1077.55ZM1060.84 597.25C1066 594.672 1068.79 591.086 1069.3 586.258H1061.99V584.102H1071.95C1071.94 590.324 1069.36 595.797 1062.32 599.266L1060.84 597.25ZM1101.06 598.445V600.578H1081.7V598.445H1101.06ZM1083.95 585.508V583.398H1098.76V590.219H1086.6V592.984H1099.25V595.047H1084V588.133H1096.18V585.508H1083.95ZM1120.18 581.898V603.109H1117.61V594.906H1113.71V592.773H1117.61V590.523H1113.71V588.391H1117.61V581.898H1120.18ZM1102.39 597.062C1105.7 595.562 1107.57 591.953 1107.57 588.625V587.523H1103.03V585.438H1107.6V582.344H1110.2V585.438H1114.63V587.523H1110.18V588.625C1110.16 591.824 1112.09 595.305 1115.43 596.758L1114 598.773C1111.59 597.73 1109.84 595.586 1108.9 593.055C1107.97 595.738 1106.23 597.988 1103.8 599.078L1102.39 597.062ZM1142.5 592.938V595.047H1123.18V592.938H1131.5V591.062C1127.62 590.781 1125.18 589.234 1125.18 586.773C1125.18 584.113 1128.19 582.484 1132.82 582.484C1137.43 582.484 1140.45 584.113 1140.46 586.773C1140.45 589.234 1138 590.781 1134.13 591.062V592.938H1142.5ZM1125.57 602.664V596.5H1128.18V600.555H1140.32V602.664H1125.57ZM1127.89 586.773C1127.87 588.238 1129.73 589.012 1132.82 589C1135.91 589.012 1137.76 588.238 1137.76 586.773C1137.76 585.379 1135.91 584.559 1132.82 584.547C1129.73 584.559 1127.87 585.379 1127.89 586.773ZM1159.44 594.977C1163.84 594.977 1166.53 596.465 1166.54 599.008C1166.53 601.586 1163.84 603.074 1159.44 603.086C1155.01 603.074 1152.27 601.586 1152.27 599.008C1152.27 596.465 1155.01 594.977 1159.44 594.977ZM1150.35 593.125V583.234H1152.93V586.094H1157.87V583.234H1160.45V593.125H1150.35ZM1152.93 591.062H1157.87V588.133H1152.93V591.062ZM1154.87 599.008C1154.87 600.32 1156.54 601.035 1159.44 601.023C1162.34 601.035 1163.96 600.32 1163.96 599.008C1163.96 597.695 1162.34 597.027 1159.44 597.016C1156.54 597.027 1154.87 597.695 1154.87 599.008ZM1163.73 594.461V581.898H1166.33V586.961H1169.29V589.141H1166.33V594.461H1163.73ZM1178.26 584.922C1178.25 587.711 1180.01 590.336 1183.37 591.391L1182.08 593.453C1179.64 592.645 1177.9 591.027 1176.94 588.953C1175.99 591.18 1174.21 592.949 1171.7 593.805L1170.39 591.766C1173.81 590.605 1175.58 587.793 1175.57 584.922V582.906H1178.26V584.922ZM1173.55 597.625V595.539H1188.01V603.086H1185.39V597.625H1173.55ZM1185.39 594.578V581.898H1188.01V594.578H1185.39ZM1208.73 581.898V603.109H1206.11V581.898H1208.73ZM1191.79 590.922C1191.77 586.352 1194.11 583.445 1197.32 583.445C1200.49 583.445 1202.84 586.352 1202.85 590.922C1202.84 595.527 1200.49 598.422 1197.32 598.422C1194.11 598.422 1191.77 595.527 1191.79 590.922ZM1194.29 590.922C1194.29 594.18 1195.52 596.066 1197.32 596.078C1199.1 596.066 1200.32 594.18 1200.32 590.922C1200.32 587.688 1199.1 585.789 1197.32 585.789C1195.52 585.789 1194.29 587.688 1194.29 590.922ZM1228.44 581.898V589.938H1231.7V592.07H1228.44V603.109H1225.84V581.898H1228.44ZM1212.71 597.93V583.914H1222.63V586.023H1215.32V595.75C1218.61 595.738 1221.22 595.574 1224.13 595.07L1224.43 597.273C1221.14 597.836 1218.29 597.93 1214.47 597.93H1212.71ZM1235.17 601.188C1234.16 601.188 1233.33 600.367 1233.34 599.359C1233.33 598.375 1234.16 597.566 1235.17 597.555C1236.14 597.566 1236.97 598.375 1236.97 599.359C1236.97 600.367 1236.14 601.188 1235.17 601.188Z" fill="#D9D9D9"/>
</svg>
