<svg width="602" height="230" viewBox="0 0 602 230" fill="none" xmlns="http://www.w3.org/2000/svg">
<mask id="path-1-inside-1_606_759" fill="white">
<path d="M445.598 120.609H602V230H0V0H445.598V120.609Z"/>
</mask>
<path d="M445.598 120.609H602V230H0V0H445.598V120.609Z" fill="white" fill-opacity="0.7"/>
<path d="M445.598 120.609H444.598V121.609H445.598V120.609ZM602 120.609H603V119.609H602V120.609ZM602 230V231H603V230H602ZM0 230H-1V231H0V230ZM0 0V-1H-1V0H0ZM445.598 0H446.598V-1H445.598V0ZM445.598 120.609V121.609H602V120.609V119.609H445.598V120.609ZM602 120.609H601V230H602H603V120.609H602ZM602 230V229H0V230V231H602V230ZM0 230H1V0H0H-1V230H0ZM0 0V1H445.598V0V-1H0V0ZM445.598 0H444.598V120.609H445.598H446.598V0H445.598Z" fill="black" mask="url(#path-1-inside-1_606_759)"/>
<path d="M54.4219 36.4922V53.4609H52.0547L43.4531 41.0625H43.3125V53.4609H40.7344V36.4922H43.125L51.7266 48.9141H51.8906V36.4922H54.4219ZM68.7891 36.4922H71.3672V47.6484C71.3672 51.2109 68.6953 53.7422 64.6406 53.7422C60.5391 53.7422 57.8906 51.2109 57.8906 47.6484V36.4922H60.4688V47.4375C60.4688 49.7344 62.0625 51.3984 64.6406 51.3984C67.1953 51.3984 68.7891 49.7344 68.7891 47.4375V36.4922ZM74.8359 53.4609V36.4922H77.4141V51.2344H85.0781V53.4609H74.8359ZM87.7266 53.4609V36.4922H90.3047V51.2344H97.9688V53.4609H87.7266ZM118.805 45.4219V47.2031H99.6562V45.4219H118.805ZM116.648 53.2031V55.0078H102.07V48.9141H104.32V53.2031H116.648ZM109.219 35.1562C113.766 35.1328 116.719 36.7266 116.719 39.3516C116.719 42 113.766 43.5938 109.219 43.6172C104.648 43.5938 101.719 42 101.719 39.3516C101.719 36.7266 104.648 35.1328 109.219 35.1562ZM109.219 36.9375C106.008 36.9375 103.992 37.8516 104.016 39.3516C103.992 40.8984 106.008 41.7891 109.219 41.7891C112.43 41.7891 114.422 40.8984 114.422 39.3516C114.422 37.8516 112.43 36.9375 109.219 36.9375ZM126.375 42.9609L128.25 36.4922H130.242L129 42.9609H126.375ZM137.531 36.0234C140.672 36.0234 142.898 38.8828 142.922 43.3828C142.898 47.9062 140.672 50.7656 137.531 50.7656C134.391 50.7656 132.141 47.9062 132.164 43.3828C132.141 38.8828 134.391 36.0234 137.531 36.0234ZM137.531 38.0156C135.609 38.0156 134.297 40.0781 134.297 43.3828C134.297 46.7109 135.609 48.7734 137.531 48.7734C139.477 48.7734 140.789 46.7109 140.789 43.3828C140.789 40.0781 139.477 38.0156 137.531 38.0156ZM148.266 34.4531V42.6797H151.641V44.5547H148.266V55.4531H146.039V34.4531H148.266ZM160.43 38.2266C160.43 40.9219 162.445 43.5 165.68 44.5312L164.531 46.2656C162.117 45.4688 160.289 43.8047 159.352 41.6953C158.402 43.9805 156.539 45.7852 154.031 46.6641L152.883 44.9531C156.141 43.8281 158.156 41.0859 158.18 38.2266V37.6406H153.469V35.8359H165.047V37.6406H160.43V38.2266ZM170.062 34.4531V47.1328H167.836V34.4531H170.062ZM170.062 48.1875V55.4531H167.836V49.9922H155.836V48.1875H170.062ZM196.758 34.4531V46.9453H194.531V41.625H190.617V39.7969H194.531V34.4531H196.758ZM189.727 47.5312C194.133 47.5312 196.828 48.9844 196.828 51.4922C196.828 54 194.133 55.4297 189.727 55.4531C185.32 55.4297 182.602 54 182.625 51.4922C182.602 48.9844 185.32 47.5312 189.727 47.5312ZM189.727 49.2656C186.656 49.2656 184.828 50.0625 184.828 51.4922C184.828 52.8984 186.656 53.7188 189.727 53.6953C192.797 53.7188 194.625 52.8984 194.625 51.4922C194.625 50.0625 192.797 49.2656 189.727 49.2656ZM186.773 38.1562C186.773 40.8281 188.672 43.4062 191.836 44.4844L190.688 46.2422C188.332 45.4219 186.598 43.7461 185.695 41.6719C184.77 44.0273 182.93 45.9141 180.422 46.8281L179.25 45.0469C182.508 43.9219 184.5 41.0859 184.5 38.1797V37.7109H179.953V35.9062H191.273V37.7109H186.773V38.1562ZM206.836 35.9531C210.164 35.9297 212.531 37.9922 212.555 40.9453C212.531 43.8984 210.164 45.9609 206.836 45.9609C203.531 45.9609 201.094 43.8984 201.117 40.9453C201.094 37.9922 203.531 35.9297 206.836 35.9531ZM206.836 37.875C204.797 37.875 203.297 39.0938 203.32 40.9453C203.297 42.7969 204.797 44.0156 206.836 44.0156C208.875 44.0156 210.375 42.7969 210.375 40.9453C210.375 39.0938 208.875 37.875 206.836 37.875ZM217.359 34.4531V55.5H215.133V34.4531H217.359ZM200.109 49.125C203.93 49.125 209.227 49.0781 213.82 48.4219L213.984 50.0391C209.227 50.9531 204.141 50.9766 200.391 50.9766L200.109 49.125ZM233.25 43.3359V45.1641H228.82V49.0547C230.766 48.9609 232.723 48.832 234.562 48.6328L234.727 50.2734C230.109 50.9766 225.117 51.0234 221.133 51.0469L220.852 49.1953C222.621 49.1953 224.578 49.1836 226.594 49.125V45.1641H222.375V36.3984H233.156V38.2031H224.578V43.3359H233.25ZM238.102 34.4531V55.5H235.875V34.4531H238.102ZM249.211 40.6406C249.211 44.1562 251.508 47.7891 254.742 49.1719L253.523 50.9062C251.051 49.8164 249.082 47.5078 248.109 44.6953C247.137 47.6953 245.156 50.25 242.719 51.4453L241.43 49.6875C244.594 48.2109 246.938 44.25 246.961 40.6406V38.4141H242.156V36.5625H253.992V38.4141H249.211V40.6406ZM258.867 34.4531V55.4531H256.641V34.4531H258.867ZM273.914 35.5781C277.102 35.5781 279.422 37.6172 279.422 40.4531C279.422 43.3125 277.102 45.3281 273.914 45.3281C270.75 45.3281 268.383 43.3125 268.406 40.4531C268.383 37.6172 270.75 35.5781 273.914 35.5781ZM273.914 37.4297C272.016 37.4297 270.562 38.6719 270.562 40.4531C270.562 42.2344 272.016 43.5 273.914 43.5C275.836 43.5 277.266 42.2344 277.266 40.4531C277.266 38.6719 275.836 37.4297 273.914 37.4297ZM284.578 34.4531V39.0469H287.625V40.8984H284.578V44.9062H282.352V34.4531H284.578ZM272.367 47.0859V53.0625C273.598 53.0039 275.016 52.8281 276.352 52.3828L276.68 54.1406C274.734 54.7969 272.836 54.8906 271.266 54.8906H270.188V47.0859H272.367ZM286.547 47.1562V48.8672H275.953V47.1562H280.195V45.4453H282.375V47.1562H286.547ZM281.25 49.4766C283.57 49.4766 285.211 50.6484 285.211 52.4766C285.211 54.2812 283.57 55.4297 281.25 55.4062C278.883 55.4297 277.266 54.2812 277.289 52.4766C277.266 50.6484 278.883 49.4766 281.25 49.4766ZM281.25 51.0703C280.078 51.0703 279.258 51.6094 279.258 52.4766C279.258 53.3203 280.078 53.8594 281.25 53.8594C282.398 53.8594 283.219 53.3203 283.219 52.4766C283.219 51.6094 282.398 51.0703 281.25 51.0703ZM307.969 45.4219V47.2031H288.82V45.4219H307.969ZM305.812 53.2031V55.0078H291.234V48.9141H293.484V53.2031H305.812ZM298.383 35.1562C302.93 35.1328 305.883 36.7266 305.883 39.3516C305.883 42 302.93 43.5938 298.383 43.6172C293.812 43.5938 290.883 42 290.883 39.3516C290.883 36.7266 293.812 35.1328 298.383 35.1562ZM298.383 36.9375C295.172 36.9375 293.156 37.8516 293.18 39.3516C293.156 40.8984 295.172 41.7891 298.383 41.7891C301.594 41.7891 303.586 40.8984 303.586 39.3516C303.586 37.8516 301.594 36.9375 298.383 36.9375ZM332.93 34.4766V48.5859H330.703V42.0938H326.414V40.2656H330.703V34.4766H332.93ZM326.273 36.0938C326.273 41.5781 322.875 45.4219 316.711 47.3672L315.727 45.6094C320.66 44.1211 323.473 41.4023 323.906 37.8984H316.805V36.0938H326.273ZM327.117 47.7188C327.117 50.5547 330.094 52.8984 334.031 53.5781L333.117 55.3359C329.93 54.7734 327.27 53.168 326.016 50.8594C324.727 53.1797 322.031 54.7852 318.82 55.3828L317.953 53.6016C321.914 52.9688 324.891 50.5781 324.914 47.7188V46.8516H327.117V47.7188ZM340.148 36.5156L338.273 42.9844H336.281L337.523 36.5156H340.148ZM359.203 34.4531V55.5H356.977V34.4531H359.203ZM347.977 36.0234C351.094 36.0234 353.391 38.8828 353.391 43.3828C353.391 47.9062 351.094 50.7656 347.977 50.7656C344.812 50.7656 342.539 47.9062 342.539 43.3828C342.539 38.8828 344.812 36.0234 347.977 36.0234ZM347.977 38.0156C346.031 38.0156 344.695 40.0781 344.695 43.3828C344.695 46.7109 346.031 48.7734 347.977 48.7734C349.898 48.7734 351.234 46.7109 351.234 43.3828C351.234 40.0781 349.898 38.0156 347.977 38.0156ZM378.914 34.4531V42.5859H382.289V44.4141H378.914V55.5H376.688V34.4531H378.914ZM373.266 36.4688V38.2734H365.672V48.4219C369.199 48.4102 371.848 48.2578 374.836 47.7188L375.117 49.5938C371.836 50.1797 369.047 50.2969 365.133 50.2734H363.445V36.4688H373.266ZM385.688 53.625C384.773 53.625 384 52.875 384.023 51.9609C384 51.0469 384.773 50.2969 385.688 50.2969C386.578 50.2969 387.352 51.0469 387.352 51.9609C387.352 52.875 386.578 53.625 385.688 53.625ZM58.9688 80.3828V82.2344H50.3906V89.4531H48.2109V82.2344H39.75V80.3828H58.9688ZM49.3125 69.25C53.7422 69.25 56.7891 71.0547 56.7891 73.9141C56.7891 76.75 53.7422 78.5312 49.3125 78.5312C44.8594 78.5312 41.8359 76.75 41.8359 73.9141C41.8359 71.0547 44.8594 69.25 49.3125 69.25ZM49.3125 71.0312C46.1953 71.0547 44.1094 72.1328 44.1328 73.9141C44.1094 75.6719 46.1953 76.75 49.3125 76.75C52.4297 76.75 54.5156 75.6719 54.5156 73.9141C54.5156 72.1328 52.4297 71.0547 49.3125 71.0312ZM77.9531 68.4531V89.5H75.7266V68.4531H77.9531ZM71.5312 70.3516V78.0156H63.9844V82.6094C67.3828 82.5977 70.3594 82.4453 73.875 81.8594L74.0859 83.6875C70.3594 84.3203 67.1953 84.4609 63.4922 84.4609H61.7109V76.2344H69.2578V72.1562H61.6875V70.3516H71.5312ZM98.25 74.5938V76.375H83.7891V69.2031H85.9922V74.5938H98.25ZM100.453 79.0234V80.8047H81.2344V79.0234H100.453ZM98.3906 87.1328V88.9609H83.625V82.7969H85.8516V87.1328H98.3906ZM125.25 68.4531V89.5H123.023V68.4531H125.25ZM114.023 70.0234C117.141 70.0234 119.438 72.8828 119.438 77.3828C119.438 81.9062 117.141 84.7656 114.023 84.7656C110.859 84.7656 108.586 81.9062 108.586 77.3828C108.586 72.8828 110.859 70.0234 114.023 70.0234ZM114.023 72.0156C112.078 72.0156 110.742 74.0781 110.742 77.3828C110.742 80.7109 112.078 82.7734 114.023 82.7734C115.945 82.7734 117.281 80.7109 117.281 77.3828C117.281 74.0781 115.945 72.0156 114.023 72.0156ZM137.742 69.9531V73.3047H143.344V69.9531H145.547V80.4062H135.562V69.9531H137.742ZM137.742 78.625H143.344V75.0391H137.742V78.625ZM151.875 68.4766V83.9453H149.648V68.4766H151.875ZM152.391 87.2031V89.0078H138.023V82.375H140.273V87.2031H152.391ZM170.531 81.6484C175.078 81.6484 177.938 83.0781 177.961 85.5391C177.938 87.9766 175.078 89.4297 170.531 89.4062C166.031 89.4297 163.148 87.9766 163.148 85.5391C163.148 83.0781 166.031 81.6484 170.531 81.6484ZM170.531 83.3359C167.344 83.3359 165.352 84.1562 165.375 85.5391C165.352 86.8984 167.344 87.6953 170.531 87.6953C173.742 87.6953 175.734 86.8984 175.758 85.5391C175.734 84.1562 173.742 83.3359 170.531 83.3359ZM177.797 69.4844V71.2422C177.797 72.9297 177.797 74.6641 177.211 76.8203L175.031 76.5859C175.594 74.4414 175.594 72.8945 175.594 71.2656H163.312V69.4844H177.797ZM180.188 78.1094V79.9141H161.086V78.1094H168.75V74.1719H170.93V78.1094H180.188ZM198.305 68.4531V74.6641H201.352V76.5156H198.305V83.7109H196.055V68.4531H198.305ZM192.609 70.0469C192.609 75.5547 188.859 79.5625 182.719 81.4141L181.781 79.6328C186.691 78.1562 189.75 75.3672 190.195 71.8984H182.672V70.0469H192.609ZM199.172 87.2031V89.0078H184.969V82.1406H187.219V87.2031H199.172ZM220.617 68.4531V89.4531H218.484V68.4531H220.617ZM216.352 68.8516V88.4219H214.219V78.2969H211.852C211.664 82.3984 209.906 84.9531 207.305 84.9297C204.562 84.9531 202.781 82.0703 202.781 77.5234C202.781 72.9766 204.562 70.1172 207.305 70.1406C209.859 70.1172 211.594 72.543 211.852 76.4922H214.219V68.8516H216.352ZM207.305 72.2266C205.781 72.2266 204.844 74.1719 204.844 77.5234C204.844 80.875 205.781 82.8203 207.305 82.8203C208.852 82.8203 209.812 80.875 209.812 77.5234C209.812 74.1719 208.852 72.2266 207.305 72.2266ZM246.539 68.4531V79.3047H244.336V68.4531H246.539ZM246.562 80.2656V85.4688H234.984V87.5078H247.266V89.2422H232.828V83.8516H244.359V81.9766H232.758V80.2656H246.562ZM236.93 71.3828C236.93 73.9375 238.945 76.3047 242.203 77.2422L241.125 78.9531C238.652 78.2148 236.789 76.6328 235.852 74.6172C234.914 76.8438 233.004 78.5898 230.414 79.3984L229.383 77.6406C232.641 76.6328 234.656 74.1016 234.68 71.3828H229.969V69.5781H241.547V71.3828H236.93ZM269.086 79.0703V80.875H260.742V84.9531H258.539V80.875H249.867V79.0703H269.086ZM266.602 69.4375V76.8906H252.328V69.4375H266.602ZM254.508 71.1953V75.1328H264.398V71.1953H254.508ZM266.953 87.2031V89.0078H252.258V82.9609H254.484V87.2031H266.953ZM280.195 68.8047C284.93 68.8047 287.695 70.0703 287.695 72.4141C287.695 74.7578 284.93 76.0469 280.195 76.0469C275.461 76.0469 272.695 74.7578 272.695 72.4141C272.695 70.0703 275.461 68.8047 280.195 68.8047ZM280.195 70.4453C276.844 70.4453 274.992 71.1719 275.016 72.4141C274.992 73.7031 276.844 74.3828 280.195 74.3828C283.547 74.3828 285.398 73.7031 285.398 72.4141C285.398 71.1719 283.547 70.4453 280.195 70.4453ZM289.781 77.3359V79.1172H270.633V77.3359H289.781ZM287.367 80.7344V85.6562H275.133V87.5312H287.953V89.2422H272.953V84.0391H285.164V82.3984H272.93V80.7344H287.367ZM308.109 70.0938V71.9219H300.68V78.9531C304.195 78.9414 306.551 78.8359 309.234 78.3203L309.469 80.125C306.539 80.6406 304.008 80.7812 300.094 80.7812H298.477V70.0938H308.109ZM314.742 68.4766V83.7812H312.516V75.9531H306.797V74.1719H312.516V68.4766H314.742ZM315.281 87.3203V89.125H301.055V82.5859H303.305V87.3203H315.281ZM325.758 72.8359C325.758 75.5547 327.773 78.1094 331.008 79.1406L329.859 80.875C327.445 80.0781 325.617 78.4258 324.68 76.3281C323.73 78.6133 321.867 80.418 319.359 81.2969L318.211 79.5391C321.469 78.4375 323.484 75.7188 323.508 72.8359V71.9219H318.797V70.1172H330.375V71.9219H325.758V72.8359ZM335.391 68.4766V83.8047H333.164V68.4766H335.391ZM336.023 87.2031V89.0078H321.656V82.3516H323.906V87.2031H336.023ZM355.078 68.4531V76.5859H358.453V78.4141H355.078V89.5H352.852V68.4531H355.078ZM349.43 70.4688V72.2734H341.836V82.4219C345.363 82.4102 348.012 82.2578 351 81.7188L351.281 83.5938C348 84.1797 345.211 84.2969 341.297 84.2734H339.609V70.4688H349.43ZM361.852 87.625C360.938 87.625 360.164 86.875 360.188 85.9609C360.164 85.0469 360.938 84.2969 361.852 84.2969C362.742 84.2969 363.516 85.0469 363.516 85.9609C363.516 86.875 362.742 87.625 361.852 87.625ZM57.1641 136.453V157.5H54.9375V136.453H57.1641ZM45.9375 138.023C49.0547 138.023 51.3516 140.883 51.3516 145.383C51.3516 149.906 49.0547 152.766 45.9375 152.766C42.7734 152.766 40.5 149.906 40.5 145.383C40.5 140.883 42.7734 138.023 45.9375 138.023ZM45.9375 140.016C43.9922 140.016 42.6562 142.078 42.6562 145.383C42.6562 148.711 43.9922 150.773 45.9375 150.773C47.8594 150.773 49.1953 148.711 49.1953 145.383C49.1953 142.078 47.8594 140.016 45.9375 140.016ZM83.8828 136.477V151.852H81.6562V143.953H77.6484V142.148H81.6562V136.477H83.8828ZM84.4453 155.203V157.008H70.2422V150.469H72.4688V155.203H84.4453ZM73.8984 140.719C73.8984 143.344 75.7969 145.969 78.9609 147.023L77.8125 148.805C75.457 147.973 73.7109 146.285 72.7969 144.211C71.8828 146.52 70.043 148.383 67.5469 149.273L66.3984 147.469C69.6328 146.367 71.625 143.602 71.625 140.719V139.898H67.0781V138.07H78.3984V139.898H73.8984V140.719ZM94.8281 141.797C94.8047 145.641 97.125 149.484 100.383 150.938L99.0469 152.695C96.6328 151.547 94.7227 149.191 93.75 146.32C92.7656 149.391 90.832 151.934 88.3125 153.164L86.9531 151.289C90.2578 149.812 92.5781 145.805 92.5781 141.797V138.211H94.8281V141.797ZM104.508 136.453V157.5H102.281V136.453H104.508ZM127.055 146.086V147.797H107.836V146.086H127.055ZM124.688 149.273V153.891H112.359V155.625H125.344V157.195H110.133V152.414H122.484V150.867H110.109V149.273H124.688ZM124.641 136.992V141.539H112.5V143.133H124.992V144.703H110.297V140.062H122.414V138.562H110.25V136.992H124.641ZM153.609 147.492V149.25H134.414V147.492H142.898V145.664H136.922V137.016H151.266V138.773H139.172V140.484H150.727V142.148H139.172V143.93H151.406V145.664H145.125V147.492H153.609ZM144.023 150.633C148.641 150.609 151.266 151.828 151.266 154.031C151.266 156.258 148.641 157.43 144.023 157.406C139.359 157.43 136.734 156.258 136.734 154.031C136.734 151.828 139.359 150.609 144.023 150.633ZM144.023 152.297C140.719 152.297 138.938 152.906 138.961 154.031C138.938 155.156 140.719 155.742 144.023 155.719C147.281 155.742 149.039 155.156 149.039 154.031C149.039 152.906 147.281 152.297 144.023 152.297ZM165.586 139.922V141.727H155.156V139.922H159.281V137.062H161.484V139.922H165.586ZM160.383 142.992C163.055 142.992 164.93 144.984 164.953 147.82C164.93 150.68 163.055 152.695 160.383 152.695C157.758 152.695 155.812 150.68 155.836 147.82C155.812 144.984 157.758 142.992 160.383 142.992ZM160.383 144.844C158.859 144.844 157.805 146.086 157.805 147.82C157.805 149.602 158.859 150.797 160.383 150.797C161.883 150.797 162.984 149.602 162.984 147.82C162.984 146.086 161.883 144.844 160.383 144.844ZM173.18 136.453V157.453H171.07V147.023H168.656V156.469H166.547V136.922H168.656V145.195H171.07V136.453H173.18ZM199.266 136.453V157.453H197.016V136.453H199.266ZM193.008 138.703C193.008 144.844 190.383 150.188 183.188 153.633L182.016 151.828C187.605 149.168 190.324 145.383 190.758 140.484H183.023V138.703H193.008ZM213.258 137.25C213.258 139.664 216.586 141.68 220.688 142.148L219.914 143.836C216.469 143.426 213.457 141.973 212.109 139.828C210.75 141.973 207.738 143.426 204.328 143.836L203.555 142.148C207.656 141.68 210.984 139.664 210.984 137.25V136.547H213.258V137.25ZM221.695 145.055V146.836H213.211V148.711H219.281V153.68H207.047V155.531H219.867V157.242H204.867V152.062H217.078V150.422H204.844V148.711H210.984V146.836H202.547V145.055H221.695ZM230.133 137.953C233.461 137.93 235.828 139.992 235.852 142.945C235.828 145.898 233.461 147.961 230.133 147.961C226.828 147.961 224.391 145.898 224.414 142.945C224.391 139.992 226.828 137.93 230.133 137.953ZM230.133 139.875C228.094 139.875 226.594 141.094 226.617 142.945C226.594 144.797 228.094 146.016 230.133 146.016C232.172 146.016 233.672 144.797 233.672 142.945C233.672 141.094 232.172 139.875 230.133 139.875ZM240.656 136.453V157.5H238.43V136.453H240.656ZM223.406 151.125C227.227 151.125 232.523 151.078 237.117 150.422L237.281 152.039C232.523 152.953 227.438 152.977 223.688 152.977L223.406 151.125ZM266.25 136.453V144.82H269.508V146.672H266.25V157.43H264.023V136.453H266.25ZM260.766 138.656C260.742 144.727 258.07 150.141 251.156 153.562L249.914 151.828C255.176 149.203 258.035 145.406 258.492 140.508H250.969V138.656H260.766ZM287.602 142.125V143.93H273.188V136.828H275.391V142.125H287.602ZM289.805 146.156V147.984H270.633V146.156H289.805ZM280.195 149.695C284.719 149.695 287.438 151.078 287.438 153.516C287.438 155.977 284.719 157.359 280.195 157.359C275.648 157.359 272.906 155.977 272.906 153.516C272.906 151.078 275.648 149.695 280.195 149.695ZM280.195 151.43C276.984 151.453 275.156 152.156 275.156 153.516C275.156 154.852 276.984 155.648 280.195 155.648C283.359 155.648 285.211 154.852 285.211 153.516C285.211 152.156 283.359 151.453 280.195 151.43ZM298.828 139.594C298.828 142.547 300.727 145.172 303.914 146.203L302.695 147.938C300.387 147.105 298.688 145.488 297.773 143.391C296.859 145.793 295.031 147.656 292.5 148.57L291.305 146.789C294.656 145.641 296.602 142.852 296.625 139.688V137.625H298.828V139.594ZM308.883 136.453V148.852H306.656V142.547H302.227V140.719H306.656V136.453H308.883ZM301.852 149.438C306.258 149.438 308.953 150.891 308.953 153.445C308.953 155.977 306.258 157.43 301.852 157.406C297.445 157.43 294.727 155.977 294.75 153.445C294.727 150.891 297.445 149.438 301.852 149.438ZM301.852 151.172C298.781 151.172 296.953 151.992 296.953 153.445C296.953 154.852 298.781 155.648 301.852 155.648C304.922 155.648 306.75 154.852 306.75 153.445C306.75 151.992 304.922 151.172 301.852 151.172ZM335.508 136.453V157.5H333.281V145.055H327.023V143.227H333.281V136.453H335.508ZM321.352 138.773V150.586C324.352 150.539 327.188 150.363 330.234 149.742L330.516 151.57C327.141 152.273 324.094 152.438 320.789 152.438H319.102V138.773H321.352ZM349.289 138.469V144H354.023V136.453H356.227V157.5H354.023V145.805H349.289V152.203H339.539V138.469H349.289ZM341.742 140.203V150.422H347.109V140.203H341.742ZM363.234 153.844L361.359 160.312H359.367L360.609 153.844H363.234ZM58.9688 182.383V184.234H50.3906V191.453H48.2109V184.234H39.75V182.383H58.9688ZM49.3125 171.25C53.7422 171.25 56.7891 173.055 56.7891 175.914C56.7891 178.75 53.7422 180.531 49.3125 180.531C44.8594 180.531 41.8359 178.75 41.8359 175.914C41.8359 173.055 44.8594 171.25 49.3125 171.25ZM49.3125 173.031C46.1953 173.055 44.1094 174.133 44.1328 175.914C44.1094 177.672 46.1953 178.75 49.3125 178.75C52.4297 178.75 54.5156 177.672 54.5156 175.914C54.5156 174.133 52.4297 173.055 49.3125 173.031ZM77.9531 170.453V191.5H75.7266V170.453H77.9531ZM71.5312 172.352V180.016H63.9844V184.609C67.3828 184.598 70.3594 184.445 73.875 183.859L74.0859 185.688C70.3594 186.32 67.1953 186.461 63.4922 186.461H61.7109V178.234H69.2578V174.156H61.6875V172.352H71.5312ZM103.617 170.453V175.633H106.664V177.508H103.617V182.734H101.391V170.453H103.617ZM97.8047 171.742C97.8047 177.156 94.1484 180.93 87.9141 182.547L87 180.836C92.0391 179.523 95.0273 176.863 95.4141 173.547H88.0078V171.742H97.8047ZM103.617 183.648V191.453H101.391V185.453H89.7422V183.648H103.617ZM115.172 176.641C115.172 179.969 117.352 183.672 120.539 185.172L119.273 186.906C116.918 185.77 115.055 183.402 114.117 180.648C113.145 183.66 111.176 186.25 108.773 187.445L107.461 185.688C110.648 184.164 112.969 180.203 112.969 176.641V174.414H108.234V172.562H119.742V174.414H115.172V176.641ZM124.219 170.453V178.773H127.594V180.648H124.219V191.453H121.992V170.453H124.219ZM144.961 170.453V178.82H148.219V180.672H144.961V191.43H142.734V170.453H144.961ZM139.477 172.656C139.453 178.727 136.781 184.141 129.867 187.562L128.625 185.828C133.887 183.203 136.746 179.406 137.203 174.508H129.68V172.656H139.477ZM171.914 171.766V173.617C171.914 175.609 171.914 177.766 171.328 180.766H174.352V182.594H165.844V191.477H163.594V182.594H155.203V180.766H169.078C169.711 177.777 169.711 175.574 169.711 173.617V173.594H157.547V171.766H171.914ZM195.094 180.953V182.734H186.609V184.938H192.75V191.406H190.5V186.742H178.078V184.938H184.406V182.734H175.945V180.953H195.094ZM186.609 170.383V172.469H193.172V174.227H186.75C186.961 176.312 189.844 177.848 194.039 178.234L193.336 179.898C189.727 179.57 186.797 178.363 185.508 176.383C184.207 178.363 181.277 179.57 177.68 179.898L176.977 178.234C181.148 177.848 184.031 176.312 184.289 174.227H177.867V172.469H184.406V170.383H186.609ZM213.188 170.477V177.227H216.234V179.078H213.188V186.18H210.961V170.477H213.188ZM209.227 172.914V174.719H196.711V172.914H201.867V170.453H204.094V172.914H209.227ZM202.969 175.727C205.992 175.727 208.055 177.297 208.055 179.688C208.055 182.078 205.992 183.625 202.969 183.625C199.922 183.625 197.859 182.078 197.859 179.688C197.859 177.297 199.922 175.727 202.969 175.727ZM202.969 177.438C201.188 177.438 199.992 178.305 200.016 179.688C199.992 181.047 201.188 181.891 202.969 181.891C204.75 181.891 205.945 181.047 205.969 179.688C205.945 178.305 204.75 177.438 202.969 177.438ZM214.078 189.203V191.008H199.875V184.938H202.102V189.203H214.078ZM239.789 170.453V175.398H242.836V177.25H239.789V182.312H237.562V170.453H239.789ZM234 171.766C233.977 177.156 230.344 180.93 224.086 182.617L223.195 180.836C228.211 179.512 231.176 176.875 231.586 173.594H224.18V171.766H234ZM239.789 183.203V191.172H226.336V183.203H239.789ZM228.562 185.055V189.391H237.586V185.055H228.562ZM260.531 170.453V175.633H263.578V177.508H260.531V182.734H258.305V170.453H260.531ZM254.719 171.742C254.719 177.156 251.062 180.93 244.828 182.547L243.914 180.836C248.953 179.523 251.941 176.863 252.328 173.547H244.922V171.742H254.719ZM260.531 183.648V191.453H258.305V185.453H246.656V183.648H260.531ZM268.547 187.844L266.672 194.312H264.68L265.922 187.844H268.547ZM293.133 170.453V178.82H296.391V180.672H293.133V191.43H290.906V170.453H293.133ZM287.648 172.656C287.625 178.727 284.953 184.141 278.039 187.562L276.797 185.828C282.059 183.203 284.918 179.406 285.375 174.508H277.852V172.656H287.648ZM314.906 170.453V191.453H312.68V170.453H314.906ZM305.414 177.203C305.414 180.555 307.641 183.977 310.898 185.359L309.68 187.07C307.266 186.016 305.332 183.836 304.359 181.188C303.41 183.988 301.512 186.32 299.062 187.422L297.82 185.711C301.078 184.258 303.234 180.719 303.234 177.203V175.82H298.453V174.039H303.211V170.875H305.414V174.039H310.125V175.82H305.414V177.203ZM322.031 187.844L320.156 194.312H318.164L319.406 187.844H322.031ZM340.641 173.922V175.727H330.211V173.922H334.336V171.062H336.539V173.922H340.641ZM335.438 176.992C338.109 176.992 339.984 178.984 340.008 181.82C339.984 184.68 338.109 186.695 335.438 186.695C332.812 186.695 330.867 184.68 330.891 181.82C330.867 178.984 332.812 176.992 335.438 176.992ZM335.438 178.844C333.914 178.844 332.859 180.086 332.859 181.82C332.859 183.602 333.914 184.797 335.438 184.797C336.938 184.797 338.039 183.602 338.039 181.82C338.039 180.086 336.938 178.844 335.438 178.844ZM348.234 170.453V191.453H346.125V181.023H343.711V190.469H341.602V170.922H343.711V179.195H346.125V170.453H348.234ZM358.406 173.805C358.383 176.594 360.305 179.219 363.469 180.273L362.25 182.055C359.93 181.223 358.219 179.523 357.328 177.391C356.402 179.734 354.621 181.574 352.172 182.5L350.977 180.695C354.258 179.547 356.156 176.781 356.18 173.688V171.531H358.406V173.805ZM368.508 184V191.453H366.281V185.758H354.281V184H368.508ZM368.508 170.453V182.898H366.281V176.523H361.852V174.695H366.281V170.453H368.508ZM378.586 171.953C381.914 171.93 384.281 173.992 384.305 176.945C384.281 179.898 381.914 181.961 378.586 181.961C375.281 181.961 372.844 179.898 372.867 176.945C372.844 173.992 375.281 171.93 378.586 171.953ZM378.586 173.875C376.547 173.875 375.047 175.094 375.07 176.945C375.047 178.797 376.547 180.016 378.586 180.016C380.625 180.016 382.125 178.797 382.125 176.945C382.125 175.094 380.625 173.875 378.586 173.875ZM389.109 170.453V191.5H386.883V170.453H389.109ZM371.859 185.125C375.68 185.125 380.977 185.078 385.57 184.422L385.734 186.039C380.977 186.953 375.891 186.977 372.141 186.977L371.859 185.125ZM404.625 176.898C404.625 180.203 406.148 183.578 409.055 185.125L407.812 186.766C405.785 185.688 404.367 183.672 403.617 181.281C402.855 183.848 401.449 186.051 399.422 187.258L398.109 185.57C401.016 183.883 402.516 180.297 402.539 176.898V176.055H398.742V174.227H402.539V171.203H404.625V174.227H408.352V176.055H404.625V176.898ZM416.367 170.453V191.453H414.234V170.453H416.367ZM412.102 170.898V190.398H409.992V180.484H406.969V178.633H409.992V170.898H412.102ZM437.133 170.453V191.453H435.023V170.453H437.133ZM432.844 170.992V190.422H430.734V183.273H427.148V181.445H430.734V178.023H427.5C426.48 181.551 424.242 184.609 420.281 186.977L418.969 185.383C423.422 182.734 425.566 179.207 425.953 174.883H420V173.055H428.156C428.156 174.133 428.074 175.176 427.898 176.195H430.734V170.992H432.844ZM459.023 180.086V181.797H439.805V180.086H459.023ZM456.656 183.273V187.891H444.328V189.625H457.312V191.195H442.102V186.414H454.453V184.867H442.078V183.273H456.656ZM456.609 170.992V175.539H444.469V177.133H456.961V178.703H442.266V174.062H454.383V172.562H442.219V170.992H456.609ZM483.445 180.414V182.242H468.82V172.328H483.258V174.156H471.023V180.414H483.445ZM485.648 186.836V188.688H466.43V186.836H485.648ZM504.656 170.453V191.5H502.453V180.203H498.609V178.352H502.453V170.453H504.656ZM497.367 172.352V179.852H490.172V184.633C493.523 184.621 496.102 184.504 499.031 183.977L499.219 185.805C496.078 186.367 493.312 186.484 489.609 186.508H487.945V178.047H495.211V174.156H487.898V172.352H497.367ZM525.82 170.477V186.016H523.711V178.328H521.086V185.383H519V170.852H521.086V176.477H523.711V170.477H525.82ZM526.43 189.016V190.844H511.828V183.906H514.055V189.016H526.43ZM511.125 172.211V180.039C513.234 180.004 515.215 179.863 517.57 179.43L517.805 181.234C515.062 181.773 512.766 181.867 510.258 181.867H508.898V172.211H511.125ZM545.016 170.453V178.586H548.391V180.414H545.016V191.5H542.789V170.453H545.016ZM539.367 172.469V174.273H531.773V184.422C535.301 184.41 537.949 184.258 540.938 183.719L541.219 185.594C537.938 186.18 535.148 186.297 531.234 186.273H529.547V172.469H539.367ZM551.789 189.625C550.875 189.625 550.102 188.875 550.125 187.961C550.102 187.047 550.875 186.297 551.789 186.297C552.68 186.297 553.453 187.047 553.453 187.961C553.453 188.875 552.68 189.625 551.789 189.625Z" fill="black"/>
</svg>
