<svg width="894" height="178" viewBox="0 0 894 178" fill="none" xmlns="http://www.w3.org/2000/svg">
<rect x="0.5" y="0.5" width="893" height="177" fill="white" fill-opacity="0.7"/>
<rect x="0.5" y="0.5" width="893" height="177" stroke="black"/>
<path d="M52.1641 44.9922V66.0391H49.9375V44.9922H52.1641ZM35.5 53.9219C35.5 49.4336 37.7617 46.5742 40.9375 46.5625C44.0547 46.5742 46.3516 49.4336 46.3516 53.9219C46.3516 58.457 44.0547 61.3164 40.9375 61.3047C37.7617 61.3164 35.5 58.457 35.5 53.9219ZM37.6562 53.9219C37.6445 57.2617 38.9805 59.3125 40.9375 59.3125C42.8594 59.3125 44.1953 57.2617 44.1953 53.9219C44.1953 50.6289 42.8594 48.5664 40.9375 48.5547C38.9805 48.5664 37.6445 50.6289 37.6562 53.9219ZM73.0234 45.0156V60.5312H70.7969V52.6094H66.2031V57.0391H56.5234V46.3984H58.75V49.9609H64V46.3984H66.2031V50.8047H70.7969V45.0156H73.0234ZM58.75 55.2344H64V51.6719H58.75V55.2344ZM59.3125 65.5469V59.0078H61.5625V63.7422H73.4922V65.5469H59.3125ZM99.625 45.0156V60.3906H97.3984V52.4922H93.3906V50.6875H97.3984V45.0156H99.625ZM82.1406 56.0078C85.3633 54.918 87.3789 52.1523 87.3672 49.2578V48.4375H82.8203V46.6094H94.1406V48.4375H89.6406V49.2578C89.6289 51.8711 91.5273 54.5078 94.7031 55.5625L93.5547 57.3438C91.1992 56.5234 89.4531 54.8359 88.5391 52.75C87.625 55.0703 85.7852 56.9219 83.2891 57.8125L82.1406 56.0078ZM85.9844 65.5469V59.0078H88.2109V63.7422H100.188V65.5469H85.9844ZM110.57 50.3359C110.547 54.168 112.867 58.0352 116.125 59.4766L114.789 61.2344C112.375 60.0859 110.465 57.7305 109.48 54.8594C108.508 57.9414 106.574 60.4727 104.055 61.7031L102.695 59.8281C106 58.3633 108.32 54.3438 108.32 50.3359V46.75H110.57V50.3359ZM118.023 66.0391V44.9922H120.25V66.0391H118.023ZM140.594 51.1328V52.9141H126.133V45.7422H128.336V51.1328H140.594ZM123.578 57.3438V55.5625H142.797V57.3438H123.578ZM125.969 65.5V59.3359H128.195V63.6719H140.734V65.5H125.969ZM167.711 44.9922V57.4844H165.484V52.1641H161.57V50.3359H165.484V44.9922H167.711ZM150.203 55.5859C153.461 54.4492 155.465 51.6133 155.453 48.7188V48.25H150.906V46.4453H162.227V48.25H157.727V48.6953C157.715 51.3555 159.613 53.9453 162.789 55.0234L161.641 56.7812C159.285 55.9727 157.551 54.2852 156.637 52.2109C155.723 54.5547 153.883 56.4414 151.375 57.3672L150.203 55.5859ZM153.578 62.0312C153.566 59.5352 156.262 58.082 160.68 58.0703C165.074 58.082 167.77 59.5352 167.781 62.0312C167.77 64.5273 165.074 65.9805 160.68 65.9922C156.262 65.9805 153.566 64.5273 153.578 62.0312ZM155.781 62.0312C155.77 63.4492 157.598 64.2578 160.68 64.2344C163.738 64.2578 165.566 63.4492 165.578 62.0312C165.566 60.6016 163.738 59.793 160.68 59.8047C157.598 59.793 155.77 60.6016 155.781 62.0312ZM187.445 44.9922V49.7969H190.492V51.6484H187.445V56.1953H185.219V44.9922H187.445ZM171.883 55.5625V46.3281H181.211V48.1562H174.086V53.7344C178.176 53.7109 180.473 53.5938 183.109 53.0312L183.367 54.8359C180.531 55.4336 178.047 55.5508 173.547 55.5625H171.883ZM173.992 65.6641V57.2969H176.195V59.6875H185.219V57.2969H187.445V65.6641H173.992ZM176.195 63.8594H185.219V61.4453H176.195V63.8594ZM202.023 57.2969V59.7344H205.305V57.2969H207.367V65.7344H199.938V57.2969H202.023ZM197.852 50.7344C197.84 47.8633 200.148 45.8828 203.359 45.8828C206.125 45.8828 208.27 47.4414 208.727 49.7969H212.828V44.9922H215.055V56.125H212.828V51.625H208.738C208.305 54.0273 206.148 55.6211 203.359 55.6094C200.148 55.6211 197.84 53.6289 197.852 50.7344ZM199.984 50.7344C199.973 52.5508 201.379 53.793 203.359 53.8047C205.305 53.793 206.688 52.5508 206.688 50.7344C206.688 48.9414 205.305 47.7227 203.359 47.7344C201.379 47.7227 199.973 48.9414 199.984 50.7344ZM202.023 64H205.305V61.4219H202.023V64ZM207.484 64.2109C210.016 63.168 211.258 60.9648 211.258 58.8672V57.1562H213.461V58.8672C213.449 61.0703 214.691 63.2969 217.281 64.2109L216.133 65.8984C214.234 65.1719 213.004 63.8008 212.336 62.1367C211.645 63.7539 210.414 65.1484 208.609 65.8984L207.484 64.2109ZM235.281 51.1328V52.9141H220.82V45.7422H223.023V51.1328H235.281ZM218.266 57.3438V55.5625H237.484V57.3438H218.266ZM220.656 65.5V59.3359H222.883V63.6719H235.422V65.5H220.656ZM247.305 64H244.562L250.656 47.0312H253.633L259.75 64H257.008L255.461 59.5234H248.852L247.305 64ZM249.59 57.3672H254.711L252.203 50.125H252.086L249.59 57.3672ZM264.484 47.0312V64H261.906V47.0312H264.484ZM273.812 46.4922C277.129 46.4805 279.52 48.5312 279.531 51.4844C279.52 54.4375 277.129 56.4883 273.812 56.5C270.508 56.4883 268.082 54.4375 268.094 51.4844C268.082 48.5312 270.508 46.4805 273.812 46.4922ZM267.086 59.6641C270.906 59.6641 276.203 59.6289 280.797 58.9609L280.961 60.5781C276.215 61.4922 271.117 61.5156 267.367 61.5156L267.086 59.6641ZM270.297 51.4844C270.273 53.3477 271.773 54.5547 273.812 54.5547C275.852 54.5547 277.352 53.3477 277.352 51.4844C277.352 49.6445 275.852 48.4141 273.812 48.4141C271.773 48.4141 270.273 49.6445 270.297 51.4844ZM282.109 66.0391V44.9922H284.336V66.0391H282.109ZM299.383 46.2109C301.129 46.1992 302.617 46.8555 303.602 47.9453H308.852V44.9922H311.078V57.3906H308.852V54.5547H303.59C302.605 55.6328 301.117 56.2773 299.383 56.2656C296.219 56.2773 293.863 54.1797 293.875 51.25C293.863 48.2852 296.219 46.1992 299.383 46.2109ZM296.008 51.25C295.996 53.0898 297.414 54.3906 299.383 54.3672C301.293 54.3906 302.711 53.0898 302.711 51.25C302.711 49.3633 301.293 48.1094 299.383 48.1328C297.414 48.1094 295.996 49.3633 296.008 51.25ZM296.945 61.9141C296.934 59.3477 299.652 57.8477 304.047 57.8594C308.418 57.8477 311.137 59.3477 311.148 61.9141C311.137 64.4688 308.418 65.957 304.047 65.9453C299.652 65.957 296.934 64.4688 296.945 61.9141ZM299.125 61.9141C299.113 63.3555 300.965 64.1992 304.047 64.1875C307.129 64.1992 308.969 63.3555 308.969 61.9141C308.969 60.4141 307.129 59.582 304.047 59.5703C300.965 59.582 299.113 60.4141 299.125 61.9141ZM304.621 49.7266C304.762 50.1953 304.844 50.7109 304.844 51.25C304.844 51.7656 304.762 52.2695 304.621 52.7266H308.852V49.7266H304.621ZM331.82 58.4688V65.9922H329.594V60.2266H317.594V58.4688H331.82ZM314.617 51.2266C314.605 48.2617 316.961 46.1523 320.125 46.1641C321.906 46.1523 323.441 46.8438 324.414 47.9922H329.594V44.9922H331.82V57.3672H329.594V54.4844H324.414C323.43 55.6328 321.906 56.3242 320.125 56.3125C316.961 56.3242 314.605 54.2148 314.617 51.2266ZM316.75 51.2266C316.738 53.1484 318.156 54.4258 320.125 54.4375C322.012 54.4258 323.453 53.1484 323.453 51.2266C323.453 49.3516 322.012 48.0508 320.125 48.0391C318.156 48.0508 316.738 49.3516 316.75 51.2266ZM325.387 52.6562H329.594V49.8203H325.398C325.516 50.2656 325.586 50.7344 325.586 51.2266C325.586 51.7305 325.516 52.2109 325.387 52.6562ZM353.125 44.9922V65.9922H350.992V44.9922H353.125ZM335.289 54.0625C335.289 49.5156 337.07 46.668 339.812 46.6797C342.367 46.668 344.09 49.0938 344.348 53.0312H346.727V45.3906H348.859V64.9609H346.727V54.8359H344.359C344.16 58.9375 342.414 61.4805 339.812 61.4688C337.07 61.4805 335.289 58.6211 335.289 54.0625ZM337.352 54.0625C337.352 57.4023 338.301 59.3711 339.812 59.3594C341.359 59.3711 342.32 57.4023 342.32 54.0625C342.32 50.7109 341.359 48.7539 339.812 48.7656C338.301 48.7539 337.352 50.7109 337.352 54.0625ZM363.367 50.3359C363.367 54.1797 365.523 58.0117 368.734 59.4531L367.375 61.2344C364.996 60.0391 363.191 57.6719 362.266 54.8008C361.34 57.8242 359.512 60.3789 357.086 61.6328L355.68 59.8281C358.938 58.2695 361.105 54.2266 361.117 50.3359V46.75H363.367V50.3359ZM366.414 53.7812V51.9766H371.102V44.9922H373.305V66.0391H371.102V53.7812H366.414ZM401.523 54.2031V55.8672H393.062V57.625H399.133V62.3594H386.898V64.0938H399.719V65.7812H384.719V60.8125H396.93V59.2422H384.695V57.625H390.859V55.8672H382.422V54.2031H401.523ZM383.359 51.6953C387.379 51.4727 390.215 50.2422 390.672 48.4609H384.32V46.75H390.859V44.8984H393.062V46.75H399.625V48.4609H393.238C393.684 50.2422 396.52 51.4727 400.586 51.6953L399.906 53.3828C396.25 53.1133 393.273 52.0469 391.961 50.207C390.648 52.0469 387.672 53.1133 383.992 53.3828L383.359 51.6953ZM406.141 45.8828V48.7422H411.648V45.8828H413.852V55.0469H403.961V45.8828H406.141ZM406.07 58.4688V56.7109H419.641V62.0078H408.297V64H420.367V65.7812H406.117V60.3672H417.438V58.4688H406.07ZM406.141 53.2656H411.648V50.4531H406.141V53.2656ZM417.414 55.7969V44.9922H419.641V49.3984H422.688V51.2031H419.641V55.7969H417.414ZM440.383 45.0156V51.7656H443.43V53.6172H440.383V60.7188H438.156V45.0156H440.383ZM423.906 49.2578V47.4531H429.062V44.9922H431.289V47.4531H436.422V49.2578H423.906ZM425.055 54.2266C425.043 51.8242 427.117 50.2539 430.164 50.2656C433.176 50.2539 435.25 51.8242 435.25 54.2266C435.25 56.6055 433.176 58.1523 430.164 58.1641C427.117 58.1523 425.043 56.6055 425.055 54.2266ZM427.07 65.5469V59.4766H429.297V63.7422H441.273V65.5469H427.07ZM427.211 54.2266C427.188 55.5977 428.383 56.4414 430.164 56.4297C431.945 56.4414 433.141 55.5977 433.164 54.2266C433.141 52.8438 431.945 51.9883 430.164 51.9766C428.383 51.9883 427.188 52.8438 427.211 54.2266ZM460.984 44.9922V53.125H464.359V54.9531H460.984V66.0391H458.758V44.9922H460.984ZM445.516 60.8125V47.0078H455.336V48.8125H447.742V58.9609C451.27 58.9492 453.906 58.7969 456.906 58.2578L457.188 60.1328C453.895 60.7188 451.105 60.8242 447.203 60.8125H445.516ZM467.758 64.1641C466.844 64.1523 466.082 63.4141 466.094 62.5C466.082 61.5859 466.844 60.8359 467.758 60.8359C468.66 60.8359 469.41 61.5859 469.422 62.5C469.41 63.4141 468.66 64.1523 467.758 64.1641ZM52.2344 78.9922V99.9922H49.9844V78.9922H52.2344ZM34.9844 94.3672C40.5625 91.707 43.293 87.9219 43.7266 83.0234H35.9922V81.2422H45.9766C45.9766 87.3945 43.3633 92.7148 36.1562 96.1719L34.9844 94.3672ZM66.2266 79.7891C66.2383 82.2031 69.5664 84.2305 73.6562 84.6875L72.8828 86.375C69.4375 85.9531 66.4258 84.5 65.0781 82.3555C63.7188 84.5 60.707 85.9531 57.2969 86.375L56.5234 84.6875C60.625 84.2305 63.9414 82.2031 63.9531 79.7891V79.0859H66.2266V79.7891ZM55.5156 89.375V87.5938H74.6641V89.375H66.1797V91.25H72.25V96.2188H60.0156V98.0703H72.8359V99.7812H57.8359V94.6016H70.0469V92.9609H57.8125V91.25H63.9531V89.375H55.5156ZM93.6484 78.9922V100.039H91.4219V78.9922H93.6484ZM76.9844 87.9219C76.9844 83.4336 79.2461 80.5742 82.4219 80.5625C85.5391 80.5742 87.8359 83.4336 87.8359 87.9219C87.8359 92.457 85.5391 95.3164 82.4219 95.3047C79.2461 95.3164 76.9844 92.457 76.9844 87.9219ZM79.1406 87.9219C79.1289 91.2617 80.4648 93.3125 82.4219 93.3125C84.3438 93.3125 85.6797 91.2617 85.6797 87.9219C85.6797 84.6289 84.3438 82.5664 82.4219 82.5547C80.4648 82.5664 79.1289 84.6289 79.1406 87.9219ZM120.367 78.9922V91.4844H118.141V86.1641H114.227V84.3359H118.141V78.9922H120.367ZM102.859 89.5859C106.117 88.4492 108.121 85.6133 108.109 82.7188V82.25H103.562V80.4453H114.883V82.25H110.383V82.6953C110.371 85.3555 112.27 87.9453 115.445 89.0234L114.297 90.7812C111.941 89.9727 110.207 88.2852 109.293 86.2109C108.379 88.5547 106.539 90.4414 104.031 91.3672L102.859 89.5859ZM106.234 96.0312C106.223 93.5352 108.918 92.082 113.336 92.0703C117.73 92.082 120.426 93.5352 120.438 96.0312C120.426 98.5273 117.73 99.9805 113.336 99.9922C108.918 99.9805 106.223 98.5273 106.234 96.0312ZM108.438 96.0312C108.426 97.4492 110.254 98.2578 113.336 98.2344C116.395 98.2578 118.223 97.4492 118.234 96.0312C118.223 94.6016 116.395 93.793 113.336 93.8047C110.254 93.793 108.426 94.6016 108.438 96.0312ZM141.625 78.9922V99.9922H139.492V78.9922H141.625ZM123.297 94.2031C126.273 92.4102 127.785 88.5898 127.797 84.8516V83.1641H123.93V81.3594H133.539V83.1641H129.93V84.8516C129.93 88.4375 131.383 92.0352 134.336 93.7344L133 95.375C130.996 94.1797 129.625 92.0352 128.887 89.5039C128.137 92.2461 126.707 94.5898 124.656 95.8672L123.297 94.2031ZM131.992 88.25V86.4219H135.25V79.4375H137.359V98.9375H135.25V88.25H131.992ZM156.859 87.875V89.7031H152.43V93.5938C154.375 93.5117 156.332 93.3828 158.172 93.1719L158.336 94.8125C153.707 95.5039 148.738 95.5742 144.742 95.5859L144.461 93.7344C146.23 93.7344 148.188 93.7227 150.203 93.6758V89.7031H145.984V80.9375H156.766V82.7422H148.188V87.875H156.859ZM159.484 100.039V78.9922H161.711V100.039H159.484ZM182.547 78.9922V99.9922H180.297V78.9922H182.547ZM165.297 94.3672C170.875 91.707 173.605 87.9219 174.039 83.0234H166.305V81.2422H176.289C176.289 87.3945 173.676 92.7148 166.469 96.1719L165.297 94.3672ZM209.078 78.9922V100.039H206.852V78.9922H209.078ZM192.414 87.9219C192.414 83.4336 194.676 80.5742 197.852 80.5625C200.969 80.5742 203.266 83.4336 203.266 87.9219C203.266 92.457 200.969 95.3164 197.852 95.3047C194.676 95.3164 192.414 92.457 192.414 87.9219ZM194.57 87.9219C194.559 91.2617 195.895 93.3125 197.852 93.3125C199.773 93.3125 201.109 91.2617 201.109 87.9219C201.109 84.6289 199.773 82.5664 197.852 82.5547C195.895 82.5664 194.559 84.6289 194.57 87.9219ZM229.938 79.0156V94.3906H227.711V86.4922H223.703V84.6875H227.711V79.0156H229.938ZM212.453 90.0078C215.676 88.918 217.691 86.1523 217.68 83.2578V82.4375H213.133V80.6094H224.453V82.4375H219.953V83.2578C219.941 85.8711 221.84 88.5078 225.016 89.5625L223.867 91.3438C221.512 90.5234 219.766 88.8359 218.852 86.75C217.938 89.0703 216.098 90.9219 213.602 91.8125L212.453 90.0078ZM216.297 99.5469V93.0078H218.523V97.7422H230.5V99.5469H216.297ZM240.016 80.4922C243.332 80.4805 245.723 82.5312 245.734 85.4844C245.723 88.4375 243.332 90.4883 240.016 90.5C236.711 90.4883 234.285 88.4375 234.297 85.4844C234.285 82.5312 236.711 80.4805 240.016 80.4922ZM233.289 93.6641C237.109 93.6641 242.406 93.6289 247 92.9609L247.164 94.5781C242.418 95.4922 237.32 95.5156 233.57 95.5156L233.289 93.6641ZM236.5 85.4844C236.477 87.3477 237.977 88.5547 240.016 88.5547C242.055 88.5547 243.555 87.3477 243.555 85.4844C243.555 83.6445 242.055 82.4141 240.016 82.4141C237.977 82.4141 236.477 83.6445 236.5 85.4844ZM248.312 100.039V78.9922H250.539V100.039H248.312ZM276.273 78.9922V84.1016H279.32V85.9297H276.273V91.0625H274.047V78.9922H276.273ZM260.734 89.6797V80.1875H262.961V87.8281C265.809 87.793 268.773 87.6055 272.008 86.9375L272.289 88.7656C268.75 89.4922 265.539 89.6797 262.445 89.6797H260.734ZM262.492 93.9688V92.1641H276.273V99.9922H274.047V93.9688H262.492ZM288.086 84.3359C288.086 88.1797 290.242 92.0117 293.453 93.4531L292.094 95.2344C289.715 94.0391 287.91 91.6719 286.984 88.8008C286.059 91.8242 284.23 94.3789 281.805 95.6328L280.398 93.8281C283.656 92.2695 285.824 88.2266 285.836 84.3359V80.75H288.086V84.3359ZM291.133 87.7812V85.9766H295.82V78.9922H298.023V100.039H295.82V87.7812H291.133ZM307.562 80.3281C310.797 80.3281 313.199 82.3672 313.211 85.3203C313.199 87.9219 311.336 89.8086 308.688 90.2305V93.5586C310.551 93.4648 312.414 93.3242 314.148 93.1016L314.312 94.7656C309.871 95.5391 304.984 95.5742 301.352 95.5391L301 93.7109C302.629 93.6992 304.504 93.6875 306.461 93.6406V90.2305C303.754 89.832 301.902 87.9336 301.914 85.3203C301.902 82.3672 304.27 80.3281 307.562 80.3281ZM304.07 85.3203C304.059 87.1836 305.547 88.4258 307.562 88.4141C309.555 88.4258 311.02 87.1836 311.031 85.3203C311.02 83.4453 309.555 82.2266 307.562 82.2031C305.547 82.2266 304.059 83.4453 304.07 85.3203ZM315.414 99.9922V78.9922H317.641V87.5234H320.875V89.3984H317.641V99.9922H315.414ZM347.008 89.2812V91.0391H338.523V92.9609C342.414 93.1484 344.652 94.3672 344.664 96.4531C344.652 98.7266 341.992 99.957 337.422 99.9453C332.828 99.957 330.133 98.7266 330.133 96.4531C330.133 94.3672 332.395 93.1484 336.32 92.9609V91.0391H327.859V89.2812H347.008ZM328.867 86.5859C332.992 86.2578 335.852 84.7812 336.168 82.7656H329.781V80.9844H336.32V78.9688H338.523V80.9844H345.086V82.7656H338.664C338.98 84.7812 341.852 86.2578 345.977 86.5859L345.297 88.2969C341.664 87.9805 338.723 86.7617 337.422 84.793C336.109 86.7617 333.18 87.9805 329.57 88.2969L328.867 86.5859ZM332.383 96.4531C332.371 97.6484 334.176 98.2812 337.422 98.2578C340.621 98.2812 342.438 97.6484 342.438 96.4531C342.438 95.2578 340.621 94.6016 337.422 94.6016C334.176 94.6016 332.371 95.2578 332.383 96.4531ZM365.5 84.3594V86.1406H359.289V87.9453H367.75V89.7266H348.602V87.9453H357.062V86.1406H351.109V79.7656H365.289V81.5703H353.336V84.3594H365.5ZM350.898 92.9609V91.2969H365.336V96.1953H353.102V98.0469H365.922V99.7812H350.922V94.6016H363.133V92.9609H350.898ZM373.117 96.3828L371.242 102.852H369.25L370.492 96.3828H373.117ZM397.984 81.125V83.375C397.984 86.0938 397.984 89.0352 397.211 93.5234L394.938 93.3125C395.781 89.1055 395.781 86.0234 395.781 83.375V82.9531H383.406V81.125H397.984ZM381.344 97.0156V95.1641H400.492V97.0156H381.344ZM427.094 91.2969V93.0547H407.945V91.2969H416.406V89.7734C412.703 89.6094 410.605 88.4961 410.617 86.5859C410.605 84.5 413.125 83.3984 417.508 83.3984C421.879 83.3984 424.41 84.5 424.398 86.5859C424.41 88.4844 422.312 89.5977 418.633 89.7734V91.2969H427.094ZM408.93 82.5781V80.8672H416.406V78.7812H418.633V80.8672H426.016V82.5781H408.93ZM410.359 99.5469V94.2969H412.609V97.7656H424.938V99.5469H410.359ZM412.867 86.5859C412.855 87.6406 414.449 88.1797 417.508 88.1797C420.543 88.1797 422.148 87.6406 422.148 86.5859C422.148 85.5312 420.543 84.9922 417.508 84.9922C414.449 84.9922 412.855 85.5312 412.867 86.5859ZM445.188 79.0156V85.3203H448.258V87.1953H445.188V94.4609H442.961V79.0156H445.188ZM429.531 82.1797V80.3516H439.094V86.5391H431.781V89.4688C435.426 89.4688 438.004 89.3164 441.062 88.7891L441.297 90.6172C438.051 91.1797 435.273 91.2852 431.242 91.2969H429.555V84.8281H436.914V82.1797H429.531ZM431.992 99.5469V93.2656H434.242V97.7422H446.125V99.5469H431.992ZM461.125 81.2422V82.5312C461.113 84.3008 461.113 87.0078 460.516 90.7578L458.312 90.5938C458.852 87.2422 458.91 84.793 458.922 83.0469H450.391V81.2422H461.125ZM449.219 93.6641C450.531 93.6523 451.996 93.6406 453.531 93.6055V87.2422H455.734V93.5352C457.961 93.4414 460.246 93.3008 462.344 93.0312L462.461 94.6953C458.09 95.3984 453.203 95.4922 449.477 95.4688L449.219 93.6641ZM463.539 99.9922V78.9922H465.789V87.6641H469V89.5625H465.789V99.9922H463.539ZM492.391 78.9922V87.3594H495.648V89.2109H492.391V99.9688H490.164V78.9922H492.391ZM476.055 94.3672C481.316 91.7422 484.176 87.9453 484.633 83.0469H477.109V81.1953H486.906C486.883 87.2656 484.211 92.6914 477.297 96.1016L476.055 94.3672ZM513.742 84.6641V86.4688H499.328V79.3672H501.531V84.6641H513.742ZM496.773 90.5234V88.6953H515.945V90.5234H496.773ZM499.047 96.0547C499.047 93.6055 501.777 92.2227 506.336 92.2344C510.859 92.2227 513.566 93.6055 513.578 96.0547C513.566 98.5156 510.859 99.8984 506.336 99.8984C501.777 99.8984 499.047 98.5156 499.047 96.0547ZM501.297 96.0547C501.285 97.4023 503.125 98.1758 506.336 98.1875C509.5 98.1758 511.352 97.4023 511.352 96.0547C511.352 94.6953 509.5 93.9805 506.336 93.9688C503.125 93.9805 501.285 94.6953 501.297 96.0547ZM524.969 82.1328C524.957 85.0742 526.867 87.6992 530.055 88.7422L528.836 90.4766C526.527 89.6328 524.828 88.0156 523.914 85.9062C523.012 88.3086 521.184 90.1953 518.641 91.1094L517.445 89.3281C520.797 88.1797 522.742 85.3789 522.766 82.2266V80.1641H524.969V82.1328ZM520.891 95.9844C520.879 93.4414 523.574 91.9648 527.992 91.9766C532.387 91.9648 535.082 93.4414 535.094 95.9844C535.082 98.5156 532.387 99.957 527.992 99.9453C523.574 99.957 520.879 98.5156 520.891 95.9844ZM523.094 95.9844C523.082 97.3789 524.91 98.1992 527.992 98.1875C531.051 98.1992 532.879 97.3789 532.891 95.9844C532.879 94.543 531.051 93.7109 527.992 93.7109C524.91 93.7109 523.082 94.543 523.094 95.9844ZM528.367 85.0859V83.2578H532.797V78.9922H535.023V91.3906H532.797V85.0859H528.367ZM547.82 79.3438C552.555 79.332 555.309 80.6094 555.32 82.9531C555.309 85.3086 552.555 86.5859 547.82 86.5859C543.086 86.5859 540.309 85.3086 540.32 82.9531C540.309 80.6094 543.086 79.332 547.82 79.3438ZM538.258 89.6562V87.875H557.406V89.6562H538.258ZM540.555 92.9375V91.2734H554.992V96.1953H542.758V98.0703H555.578V99.7812H540.578V94.5781H552.789V92.9375H540.555ZM542.641 82.9531C542.629 84.2539 544.48 84.9219 547.82 84.9219C551.184 84.9219 553.035 84.2539 553.023 82.9531C553.035 81.7109 551.184 80.9844 547.82 80.9844C544.48 80.9844 542.629 81.7109 542.641 82.9531ZM581.5 81.125V83.375C581.5 86.0938 581.5 89.0352 580.727 93.5234L578.453 93.3125C579.297 89.1055 579.297 86.0234 579.297 83.375V82.9531H566.922V81.125H581.5ZM564.859 97.0156V95.1641H584.008V97.0156H564.859ZM594.18 81.1953V88.7891H588.414V93.2188C590.688 93.207 592.844 93.1016 595.375 92.7031L595.562 94.4844C592.645 95 590.301 95.0703 587.688 95.0938H586.258V86.9609H592.023V83.0234H586.234V81.1953H594.18ZM596.734 98.9141V79.4141H598.773V87.1719H601.492V78.9922H603.625V99.9922H601.492V88.9766H598.773V98.9141H596.734ZM623.805 78.9922V99.9922H621.555V78.9922H623.805ZM606.297 93.0547C607.164 93.0547 608.09 93.043 609.062 93.0312V82.9766H606.859V81.1484H618.812V82.9766H616.633V92.75C617.723 92.668 618.801 92.5625 619.844 92.4453L619.961 94.0859C615.414 94.8242 610.422 94.8945 606.555 94.9062L606.297 93.0547ZM611.219 92.9961C612.273 92.9727 613.363 92.9258 614.453 92.8789V82.9766H611.219V92.9961ZM638.758 80.8438V82.6719H630.578V86.7266H637.961V88.5078H630.578V93.2188C634.246 93.1953 636.906 93.0664 640.023 92.5625L640.258 94.3672C636.93 94.9062 634.047 95.0117 630.086 95.0234H628.375V80.8438H638.758ZM642.297 99.9922V78.9922H644.547V99.9922H642.297ZM665.359 78.9922V100.039H663.133V89.1172H658.797V87.3125H663.133V78.9922H665.359ZM647.828 94.25C651.004 92.7852 653.09 89.1992 653.078 85.7422V84.3594H648.414V82.5781H653.102V79.4141H655.328V82.5781H659.875V84.3594H655.281V85.7422C655.281 89.0586 657.426 92.4688 660.648 93.8984L659.406 95.6094C657.004 94.5547 655.152 92.3516 654.215 89.7148C653.301 92.5039 651.461 94.8477 649.047 95.9609L647.828 94.25ZM686.078 92.4219V99.7344H672.133V92.4219H686.078ZM669.414 81.8516V80.0234H678.812V86.0469H671.641V88.7422C675.004 88.7422 677.512 88.625 680.477 88.1562L680.664 89.9844C677.465 90.4883 674.781 90.582 671.078 90.5703H669.438V84.3594H676.656V81.8516H669.414ZM674.336 97.9297H683.875V94.1562H674.336V97.9297ZM680.055 85.4141V83.5859H683.852V79.0156H686.078V91.3438H683.852V85.4141H680.055ZM698.406 80.2344V83.5391H703.656V80.2344H705.859V82.2734H710.453V78.9922H712.68V91.4844H710.453V88.3672H705.859V90.3594H696.18V80.2344H698.406ZM698.406 88.5547H703.656V85.2969H698.406V88.5547ZM698.453 94.3203V92.5391H712.68V99.9922H710.453V94.3203H698.453ZM705.859 86.5625H710.453V84.0781H705.859V86.5625ZM733.984 78.9922V99.9922H731.852V78.9922H733.984ZM716.148 88.0625C716.148 83.5156 717.93 80.668 720.672 80.6797C723.227 80.668 724.949 83.0938 725.207 87.0312H727.586V79.3906H729.719V98.9609H727.586V88.8359H725.219C725.02 92.9375 723.273 95.4805 720.672 95.4688C717.93 95.4805 716.148 92.6211 716.148 88.0625ZM718.211 88.0625C718.211 91.4023 719.16 93.3711 720.672 93.3594C722.219 93.3711 723.18 91.4023 723.18 88.0625C723.18 84.7109 722.219 82.7539 720.672 82.7656C719.16 82.7539 718.211 84.7109 718.211 88.0625ZM759.156 81.125V83.375C759.156 86.0938 759.156 89.0352 758.383 93.5234L756.109 93.3125C756.953 89.1055 756.953 86.0234 756.953 83.375V82.9531H744.578V81.125H759.156ZM742.516 97.0156V95.1641H761.664V97.0156H742.516ZM780.742 78.9922V100.039H778.539V91.25H774.438V89.3984H778.539V85.5078H774.555V83.6797H778.539V78.9922H780.742ZM763.984 82.6484V80.8438H773.289V88.5078H766.258V93.3359C769.223 93.3242 771.73 93.1836 774.719 92.75L774.906 94.5781C771.625 95.0938 768.941 95.1875 765.625 95.1875H764.031V86.75H771.109V82.6484H763.984ZM793.305 80V86.6094C796.316 86.5859 799.07 86.3984 802.094 85.8359L802.375 87.6406C799.035 88.2852 796.07 88.4727 792.742 88.4844H791.055V80H793.305ZM792.812 92.9609V91.2266H799.211V89.2344H801.438V91.2266H807.812V92.9609H792.812ZM794.336 96.8516C794.336 94.8594 796.645 93.7578 800.289 93.7344C804.004 93.7578 806.266 94.8594 806.289 96.8516C806.266 98.8438 804.004 99.957 800.289 99.9453C796.645 99.957 794.336 98.8438 794.336 96.8516ZM796.539 96.8516C796.539 97.8125 797.945 98.3633 800.289 98.3516C802.656 98.3633 804.039 97.8125 804.039 96.8516C804.039 95.8906 802.656 95.3633 800.289 95.375C797.945 95.3633 796.539 95.8906 796.539 96.8516ZM799.305 83.8203V82.0391H805.141V78.9922H807.367V90.1016H805.141V83.8203H799.305ZM820.164 80.2578C824.57 80.2578 827.922 82.5898 827.922 86.1172C827.922 89.668 824.57 91.9883 820.164 91.9766C815.77 91.9883 812.418 89.668 812.43 86.1172C812.418 82.5898 815.77 80.2578 820.164 80.2578ZM810.602 97.2734V95.4219H829.82V97.2734H810.602ZM814.562 86.1172C814.551 88.5664 816.941 90.1484 820.164 90.1484C823.375 90.1484 825.754 88.5664 825.766 86.1172C825.754 83.6797 823.375 82.0508 820.164 82.0625C816.941 82.0508 814.551 83.6797 814.562 86.1172ZM841.914 81.0078V83.9375H846.648V78.9922H848.852V100.039H846.648V91.5078H841.914V94.7422H832.164V81.0078H841.914ZM834.367 92.9609H839.734V82.7422H834.367V92.9609ZM841.914 89.7031H846.648V85.7656H841.914V89.7031ZM855.859 96.3828L853.984 102.852H851.992L853.234 96.3828H855.859ZM51.2734 112.992V118.172H54.3203V120.047H51.2734V125.273H49.0469V112.992H51.2734ZM34.6562 123.375C39.6953 122.051 42.6836 119.391 43.0703 116.086H35.6641V114.281H45.4609C45.4492 119.684 41.8047 123.48 35.5703 125.086L34.6562 123.375ZM37.3984 127.992V126.188H51.2734V133.992H49.0469V127.992H37.3984ZM62.8281 119.18C62.8164 122.496 65.0078 126.199 68.1953 127.711L66.9297 129.445C64.5742 128.32 62.6992 125.953 61.75 123.211C60.7891 126.199 58.8203 128.789 56.4297 129.984L55.1172 128.227C58.3047 126.691 60.6133 122.73 60.625 119.18V116.953H55.8906V115.102H67.3984V116.953H62.8281V119.18ZM69.6484 133.992V112.992H71.875V121.312H75.25V123.188H71.875V133.992H69.6484ZM83.1016 114.492C86.418 114.48 88.8086 116.531 88.8203 119.484C88.8086 122.438 86.418 124.488 83.1016 124.5C79.7969 124.488 77.3711 122.438 77.3828 119.484C77.3711 116.531 79.7969 114.48 83.1016 114.492ZM76.375 127.664C80.1953 127.664 85.4922 127.629 90.0859 126.961L90.25 128.578C85.5039 129.492 80.4062 129.516 76.6562 129.516L76.375 127.664ZM79.5859 119.484C79.5625 121.348 81.0625 122.555 83.1016 122.555C85.1406 122.555 86.6406 121.348 86.6406 119.484C86.6406 117.645 85.1406 116.414 83.1016 116.414C81.0625 116.414 79.5625 117.645 79.5859 119.484ZM91.3984 134.039V112.992H93.625V134.039H91.3984ZM112.586 126.07C116.91 126.07 119.547 127.523 119.547 130.008C119.547 132.527 116.91 133.98 112.586 133.992C108.215 133.98 105.531 132.527 105.531 130.008C105.531 127.523 108.215 126.07 112.586 126.07ZM103.68 124.055V114.305H105.859V117.328H111.367V114.305H113.57V124.055H103.68ZM105.859 122.273H111.367V119.086H105.859V122.273ZM107.758 130.008C107.746 131.414 109.551 132.211 112.586 132.211C115.598 132.211 117.379 131.414 117.367 130.008C117.379 128.613 115.598 127.828 112.586 127.828C109.551 127.828 107.746 128.613 107.758 130.008ZM117.133 125.531V112.992H119.359V118.125H122.406V120.023H119.359V125.531H117.133ZM131.242 116.016C131.23 118.922 133.199 121.582 136.445 122.648L135.32 124.406C132.883 123.562 131.066 121.852 130.117 119.66C129.18 122.004 127.328 123.867 124.844 124.758L123.719 123.023C126.988 121.863 128.957 119.016 128.969 116.016V114H131.242V116.016ZM126.789 128.414V126.609H141.016V133.992H138.789V128.414H126.789ZM138.789 125.602V112.992H141.016V125.602H138.789ZM153.906 114.258C158.312 114.258 161.664 116.59 161.664 120.117C161.664 123.668 158.312 125.988 153.906 125.977C149.512 125.988 146.16 123.668 146.172 120.117C146.16 116.59 149.512 114.258 153.906 114.258ZM144.344 131.273V129.422H163.562V131.273H144.344ZM148.305 120.117C148.293 122.566 150.684 124.148 153.906 124.148C157.117 124.148 159.496 122.566 159.508 120.117C159.496 117.68 157.117 116.051 153.906 116.062C150.684 116.051 148.293 117.68 148.305 120.117ZM184.305 129.609V131.484H165.086V129.609H173.547V125.93H167.43V119.25H179.758V116.297H167.383V114.469H181.961V121.031H169.633V124.102H182.453V125.93H175.75V129.609H184.305ZM198.531 114.492C201.848 114.48 204.238 116.531 204.25 119.484C204.238 122.438 201.848 124.488 198.531 124.5C195.227 124.488 192.801 122.438 192.812 119.484C192.801 116.531 195.227 114.48 198.531 114.492ZM191.805 127.664C195.625 127.664 200.922 127.629 205.516 126.961L205.68 128.578C200.934 129.492 195.836 129.516 192.086 129.516L191.805 127.664ZM195.016 119.484C194.992 121.348 196.492 122.555 198.531 122.555C200.57 122.555 202.07 121.348 202.07 119.484C202.07 117.645 200.57 116.414 198.531 116.414C196.492 116.414 194.992 117.645 195.016 119.484ZM206.828 134.039V112.992H209.055V134.039H206.828ZM223.445 115.008V128.812H213.602V115.008H223.445ZM215.805 127.008H221.289V116.766H215.805V127.008ZM227.594 134.039V112.992H229.82V134.039H227.594ZM252.367 122.625V124.336H233.148V122.625H252.367ZM235.422 127.406V125.812H250V130.43H237.672V132.164H250.656V133.734H235.445V128.953H247.797V127.406H235.422ZM235.562 115.102V113.531H249.953V118.078H237.812V119.672H250.305V121.242H235.609V116.602H247.727V115.102H235.562ZM267.133 117.328C267.133 119.719 269.031 121.969 272.242 122.859L271.234 124.57C268.785 123.879 266.992 122.402 266.055 120.516C265.129 122.602 263.289 124.207 260.805 124.969L259.727 123.211C262.938 122.297 264.93 119.941 264.93 117.328V117.094H260.359V115.312H264.93V112.898H267.156V115.312H271.703V117.094H267.133V117.328ZM261.812 132.188C265.34 131.684 268.012 129.961 268.41 127.945H262.656V126.164H276.602V127.945H270.859C271.246 129.914 273.953 131.684 277.469 132.211L276.648 133.922C273.449 133.43 270.836 131.965 269.617 129.973C268.41 131.965 265.809 133.395 262.633 133.898L261.812 132.188ZM274.047 125.109V112.992H276.273V118.031H279.32V119.883H276.273V125.109H274.047ZM297.508 115.008V117.07C297.496 119.66 297.496 122.566 296.711 126.867L294.461 126.633C295.27 122.566 295.27 119.59 295.281 117.07V116.812H282.531V115.008H297.508ZM280.516 131.156V129.305H287.805V121.898H290.008V129.305H299.664V131.156H280.516ZM308.57 119.18C308.559 122.496 310.75 126.199 313.938 127.711L312.672 129.445C310.316 128.32 308.441 125.953 307.492 123.211C306.531 126.199 304.562 128.789 302.172 129.984L300.859 128.227C304.047 126.691 306.355 122.73 306.367 119.18V116.953H301.633V115.102H313.141V116.953H308.57V119.18ZM315.391 133.992V112.992H317.617V121.312H320.992V123.188H317.617V133.992H315.391ZM344.359 113.016V119.766H347.406V121.617H344.359V128.719H342.133V113.016H344.359ZM327.883 117.258V115.453H333.039V112.992H335.266V115.453H340.398V117.258H327.883ZM329.031 122.227C329.02 119.824 331.094 118.254 334.141 118.266C337.152 118.254 339.227 119.824 339.227 122.227C339.227 124.605 337.152 126.152 334.141 126.164C331.094 126.152 329.02 124.605 329.031 122.227ZM331.047 133.547V127.477H333.273V131.742H345.25V133.547H331.047ZM331.188 122.227C331.164 123.598 332.359 124.441 334.141 124.43C335.922 124.441 337.117 123.598 337.141 122.227C337.117 120.844 335.922 119.988 334.141 119.977C332.359 119.988 331.164 120.844 331.188 122.227ZM364.961 112.992V121.125H368.336V122.953H364.961V134.039H362.734V112.992H364.961ZM349.492 128.812V115.008H359.312V116.812H351.719V126.961C355.246 126.949 357.883 126.797 360.883 126.258L361.164 128.133C357.871 128.719 355.082 128.824 351.18 128.812H349.492ZM371.734 132.164C370.82 132.152 370.059 131.414 370.07 130.5C370.059 129.586 370.82 128.836 371.734 128.836C372.637 128.836 373.387 129.586 373.398 130.5C373.387 131.414 372.637 132.152 371.734 132.164Z" fill="black"/>
</svg>
