<?xml version="1.0" encoding="UTF-8"?>
<svg id="_레이어_1" data-name="레이어 1" xmlns="http://www.w3.org/2000/svg" xmlns:xlink="http://www.w3.org/1999/xlink" viewBox="0 0 927.83 564.32">
  <defs>
    <style>
      .cls-1 {
        mask: url(#mask);
      }

      .cls-2 {
        fill: #040000;
      }

      .cls-3 {
        fill: url(#_무제_그라디언트_3);
      }

      .cls-4 {
        fill: #fff;
      }

      .cls-5 {
        fill: #f7c7c8;
      }
    </style>
    <linearGradient id="_무제_그라디언트_3" data-name="무제 그라디언트 3" x1="472.69" y1="-101.92" x2="454.83" y2="635.28" gradientTransform="translate(0 612.1) scale(1 -1)" gradientUnits="userSpaceOnUse">
      <stop offset="0" stop-color="#ee8ea2"/>
      <stop offset=".42" stop-color="#e02d4c"/>
      <stop offset="1" stop-color="#ef93a6"/>
    </linearGradient>
    <mask id="mask" x="-1.94" y="-.37" width="932.56" height="568.36" maskUnits="userSpaceOnUse">
      <g id="path-2-outside-1_1674_4845" data-name="path-2-outside-1 1674 4845">
        <rect class="cls-4" x="-1.94" y="-.37" width="932.56" height="568.36"/>
        <path class="cls-2" d="M310.85,81.85c.27-.04.58.1.71.35l-.06-.04c1.9,3.39-8.64,18.66-6.51,23.31.54,2.04-1,.06-1.09.56-.6,3.4.44,6.53-1.5,9.86-.92,1.59-3,1.91-3.19,2.87-.3,1.52,1.96,5.78-.15,8.53l-.6-1.19c-.21-.44-.75-.56-1.13-.27l-.96.73c-.19.15-.29.4-.29.65.28,5.04-31.07,159.31-28.55,158.85l24.35,40.8c-14.78,27.81-29.13,55.19-42.95,84.4-1.1,2.33-2.88,4.42-3.36,7.15-.1.5-.62.77-1.08.54l-.12-.06c-.46-.23-1.02.06-1.09.56-.54,3.32-.39,5.9-2.44,9.07-.42.67-1.98.84-2.21,1.21-.33.52-1.46,8.42-3.38,11.42-1.23,1.94-2.5.23-2.96,1.07-1.13,2.08.19,4.48-.65,6.29-.81,1.75-2.77,1.98-3.42,3.01-.86,1.38.35,3.75-1,5.73-3.44,5.07-3.23,6.77-5.8,12.42-2.29,5.02-8.86,20.66-11.38,24.03-1.27,1.71-3.31,1.26-3.75,1.78-1.1,1.25.13,7.78-4.84,6.96-.27-.06-.47-.25-.57-.5-1.67-4.6-1.31-8-.39-12.76,1.86-9.66,6.36-22.35,9.36-32.07,14.76-47.97,34.19-94.65,51.46-141.71.19-.52-.23-1.06-.79-1.02-3.98.27-7.75,1.75-11.49,2.96-16.01,5.13-33.59,11.42-49.29,17.45-28.59,10.99-28.73,12.55-47.78,35.15-3.38,4-8.07,6.94-10.63,11.63l1.19.38c.19.06.4.06.58-.04,24-11.86,49.24-27.73,74.56-36.26,3.56-1.21,20.6-8.17,16.92,1.57-1.11,3-14.45,11.72-17.87,14.64-38.34,32.69-90.74,83.66-110.83,128.72-.41.9-.63.81-.7.29l-4.32,6.42c.14,1.36.65,2.42.32,3.84-1.35,5.82-5.23,14.07-7.13,20.22-1.25,4.03-2.17,8.3-3.11,12.43-.11.48-.64.73-1.08.5l-.11-.06c-.48-.25-1.08.1-1.1.64-.19,3.84-.58,13.62-2.48,14-1.5.11-2.58-1.23-3.02-2.52-1.36-4.02-.86-17.34-1.63-23.12-2.67-20.27-7.78-39.41-19.28-56.55-5.3-7.92-19.83-23.94-29.61-24.98-7.48-.81-15.65,7.3-17.66-4.58-1.88-11.03,4.62-44.07,7.34-56.25,23.97-107.04,93.71-157.83,187.58-201.71,2.35-1.08,10.13-5.4,12.16-3.44.11.11.19.29.19.46.52,6.63-1.98,10.53-5.21,16.18-18.14,31.77-41.14,65.53-61.11,96.63-4.21,6.57-20.55,33.69-25.14,36.54-6.61,4.07-7.11-4.87-6.52-9.55.62-4.96,7.17-23.58,5.5-26.88-.42-.83-4.34-3.54-5.36-3.8-14.57-3.86-38.98,24.96-46.59,35.84-6.44,9.2-12.35,19.93-14.14,31.17-.1.62-.83.87-1.27.43-.4-.42-1.13-.23-1.27.34-6.5,26.25,4.44,57.98,36.78,52.85,4.9-.79,22.54-7.86,24-12.39,1.98-6.15-2.63-5.53-2.71-7.53,0-.1.02-.21.06-.31,2.13-5.44,6.42-10.38,8.4-15.74,1.27-3.44,2.69-5.59-1.82-6.99-.15-.04-.31-.04-.45,0l-42.95,11.78c-.35.1-.69-.08-.87-.4-1.13-2.17-2.67-3.61-1.42-6.34,2.47-5.35,36.17-22.12,43.31-25.48,9.51-4.46,21.1-6.19,27.92-14.45.02-.04.05-.09.05-.1l119.17-189.41c14.64-12.93,20.72-36.99,33.11-51.56,1.88-2.21,4.04-4.79,7.11-5.11ZM793.92,16.85c7.49-3.27,10.15,6.29,13.75,10.36,27.29,30.82,51.85,66.22,72.12,103.54,8.76,16.12,31.42,57.92,31.84,74.41.62,24.79-41.95,7.13-54.75,2.21-27.25-10.47-52.52-26.94-78.79-37.78-2.64-1.1-15.8-6.63-17.55-4.46l-142.89,60.83c-9.03,6.75-24.1,18.33-23.34,19.87,7.82,10.32,22.91,1.23,30.84-4.92,7.94-6.15,12.61-15.36,21.3-20.05,1.19-.07,1.57,2.39,2.9,3.17,25.35,14.55,64,21.02,92.88,17.56,5.96-.71,22.39-5.09,26.65-4.19,3.48.75,1.52,4.65-.19,6.25-5.63,5.27-30.44,14.56-39.3,19.08-65.97,33.5-137.62,85.69-184.82,142.79-5.81,7.01-20.16,29.58-27.6,31.35-1.21.29-2.19.25-3.4.1-3.85-.48-21.02-16.47-26.5-20.02-6.63-4.28-15.33-6.53-20.58-11.2-.94-.85-3.33.26-2.9-3.41.18-2.58,12.63-13.74,15.31-16.87,13.09-15.26,36.46-54.52,43.28-73.29,1.35-3.71,2.31-8.13,3.48-11.96-2.5-2.09-5.5.85-7.69,2.27-40.95,26.35-77.38,87.94-97.6,131.47-11.43,24.62-20.01,50.54-30.67,75.41-.87,2-6.27,13.69-6.99,14.03-4.67,2.21-2.91-2.55-3.35-3.03l-2.05.09c7.46-35.66,21.1-69.74,34.55-103.48,9.76-24.5,22.94-48.29,28.14-74.27-1.54-2.88-14.72,1.71-15.51-6.94-.28-3.2,10.57-29.3,12.76-33.9,11.59-24.19,31.59-52.1,47.12-74.43,2.1-3.03,4.54-6.75,7.27-11.03-55.93,9.02-50.78,20.63-93.51,73.23-6.21,7.63-11.15,16.03-17.01,24.02-7.76,10.59-14.53,23.35-20.22,36.49-1.79,4.15-4.67,9.4-5.48,13.67-.13.71.19,1.44.35,2.17.09.48-.58.79-1.14.52l-.81-.38.67,3.77-.74-.37c-.5-.23-1.13,0-1.13.42,0,2.83-3.25,4.73-3.79,7.42-.61,3.07-1.3,4.23-3.03,7.24-51.29,89.4,39.93-4.19,59.29-7.61,10.65-1.88,21.7-9.72,11.07,6.52-12.47,19.1-78.08,74.51-97.9,90.23-16.41,13.03-40.4,32-61.53,40.3-6.92,2.73-17.78,5.86-19.93-3.08-3.09-12.82,9.03-36.07,15.57-48.17,26.79-49.58,68.93-101.3,102.2-149.28.24-.37,4.19-1.23,1.5-2.65-9.19-4-29.25,4.42-36.76,1.35-2.71-1.11.19-2.75,1.75-3.62,8.67-4.78,24.96-7.95,34.93-12.95,11.84-5.94,21.26-21.04,28.37-30.54,3.92-5.25,8.7-14.49,12.84-18.83.71-.73,6.38-2.4,1.77-2.02-.33.04-.65-.14-.78-.37-2.65-4.67-14.11-.29-18.62,1.23-31.69,10.57-34.63,17.49-62.86,31.25-29.46,14.35-43.26-2.56-38.03-27.68,9.3-44.56,27.06-62.61,51.64-102.58.04-.08.12-.14.19-.19,9.03-5.55,4.68,3.27,4.76,7.5.44,21.2,12.47,36.63,37.28,48.43,29.46,14.02,58.78,12.64,89.7,9.84l32.93-.81c29.32-46.86,84.31-144.15,108.69-170.79,1.65-1.81,9.3-10.78,11.47-9.57l.19,3.11-8.77,8.37,10.67-7.89c.63.36,1.42,11.13,1.29,12.59-.13,1.46-1.76,1.96-2.19,3.72-.5,2.06.57,13.16.11,14.32l-2.34.75c1.42,3.88.34,10.32-.73,14.3-4.65,17.4-45.91,115.22-49.22,133.13-1.19,6.44-2.4,18.55-4.21,23.83-.36,1.08-2.42,4.82-3.13,5.63-2.71,3.08-21.64,12.56-24.1,9.51,3.86-2.59.36-3.21-2.44-2.92-1.87-1.9,4.23-25.82,4.23-30.38-2.89-8.09-10.83,2.36-14.17,6.01-15.18,16.64-45.9,58.82-44.44,81.63.12,1.79-.14,2.58,1.91,1.89,5.17-1.73,27.52-20.14,33.36-24.85,8.49-6.84,16.28-14.53,24.72-21.45,13.74-11.24,28.02-16.55,34.55-33.98,6.94-18.54,10.72-41.03,16.58-60.3,1.45-4.75,8.57-28.84,11.34-30.54,4.63-2.83,4.67,5.3,5.65,6.92,3.64,5.91,19.93-2.18,24.77-4.73,26.58-13.97,58.88-41.01,81.83-60.9,17.43-15.12,36.47-36.86,54.5-49.9,14.61-10.57,15.16-1,12.65,11.91-6.94,35.78-30.61,60.22-58,82.29-17.72,14.28-41.05,32.27-60.11,44.34-11.82,7.48-10.88,3.65-21.72,5.88-13.12,2.69-23.73,13.8-28.96,25.71-.71,1.63-3.92,10.53-4.04,11.67-.15,1.67.71,1.4,1.88,1.06,7.76-2.25,26.92-19.12,34.96-24.79,29.31-20.74,59.69-40.13,88.79-61.13,20.51-14.82,56.01-39.59,63.47-64.55,4.21-14.13,2-29.7-.29-43.9ZM181.78,366.92c-10.51,4.67-21.1,10.2-31.04,15.97-3.94,2.29-7.84,5.89-11.91,8.33-4.88,2.92-11.68,4.9-15.7,9.05,10.49-2.96,18.98-10.84,27.98-15.99,10.13-5.8,21.43-10.28,30.67-17.35ZM545.69,375.07l-13.68,13.24,3.94-2.31,13.68-13.24-3.94,2.31ZM694.18,253.12c-14.47-4.84-32.03,1.54-45.6,7.36-25.82,11.07-45.35,30.82-63.72,51.33-8.42,9.4-17.3,23.04-26.16,31.27-1.65,1.54-4.48,4.21-6.86,3.63v-.04c-2.19-.54-4.88-6.21-3.8-8.72,3.92-17.85,9.18-35.53,12.63-53.48.46-2.42,2.86-12.84,2.63-14.11-.23-1.27-.88-1.34-1.92-1.82-5.88,3.44-7.19,4.99-9.09,11.28-3.59,11.9-4.99,27.79-8.01,40.53-4.78,20.29-10.51,40.51-16.02,60.63.13,3.98,5.84-.89,7.09-1.81,8.96-6.65,17.82-16.37,26.5-23.73,25.21-21.33,51.35-41.57,78.65-60.21,10.37-7.09,47.02-27.57,51.89-35.82.77-1.33,2.53-5.01,1.8-6.28ZM231.34,345.69c-8.46,0-15.74,5.86-23.85,7.86-.06.02-.17.08-.17.08h-.02l-7.3,4.17,31.34-12.11ZM151.07,335.21c-5.74,1.31-12.03,4.34-17.04,6.7-1.61.77-4.92,2.31-5.84,3.75l17.64-6.04s.12-.04.12-.04l5.65-2.98c.77-.4.35-1.59-.52-1.4ZM204.57,316.32s-.08.03-.09.04l-8.54,4.04c10.93-2.79,21.85-6.42,32.33-10.65h.02c1.19-.48,4.05-1.04,4.07-2.48l-27.79,9.05ZM243.6,276.52c-6.51-6.28-5.88-8.97-14.6-3.44-13.59,8.61-20.1,25.83-30.02,36.75-.6.65-1.29,1.11-2.12,1.34-.44.13-.71.6-.52,1.04.83,1.88,1.15,3.07,3.67,2.75,4.23-.54,31.07-11.64,34.32-14.32,6.15-5.05,5.71-16.6,9.42-23.21l-.02.02c.17-.31.12-.7-.13-.93ZM558.73,250.27c-10.88,5.21-18.73,14.61-27.73,21.81-6.09,4.88-13.34,8.34-18.31,14.37l-21.58,17.85,4.78-2.65,62.84-51.39ZM648.27,226.02c-2.69-1.25-5.07-.31-4.11,2.92,8.14-2.27,12.63,7.82,20.14,7.9-4.88-2.86-11.13-8.55-16.05-10.82h.02ZM425.41,217.23h.17c5.67-.52,11.52-.42,17.24-.67l.02-.02c2.94-.13,3.34-.36.12-.75h-.14l-33.94-.04,16.53,1.48ZM776.51,93.45c-39.82,36.44-87.38,63.17-130.77,95.07l-20.32,15.29c17.22-10.03,33.15-22.81,49.62-34.19,19.57-13.51,39.75-26.18,59.08-40.01,22.28-15.93,48.05-33.54,60.59-58.37h-.02l-18.18,22.2ZM331.8,157.89c-.78,7.7,1.73,16.96,8.03,23.61l-6.13-13.95s-.04-.08-.04-.09l-1.87-9.57ZM776.18,25.02c-19.48,14.16-35.82,32.25-53.88,48.2-19.51,17.2-39.79,33.57-60.86,48.81l-33.15,22.08c6.61-2.06,12.97-6.57,18.87-10.38,27.5-17.7,52.11-39.26,76.98-60.32l52.04-48.39ZM804.04,28.56l26.53,32.27-11.53-16.53-18.12-21.12,3.13,5.38Z"/>
      </g>
    </mask>
  </defs>
  <path class="cls-3" d="M310.85,81.85c.27-.04.58.1.71.35l-.06-.04c1.9,3.39-8.64,18.66-6.51,23.31.54,2.04-1,.06-1.09.56-.6,3.4.44,6.53-1.5,9.86-.92,1.59-3,1.91-3.19,2.87-.3,1.52,1.96,5.78-.15,8.53l-.6-1.19c-.21-.44-.75-.56-1.13-.27l-.96.73c-.19.15-.29.4-.29.65.28,5.04-31.07,159.31-28.55,158.85l24.35,40.8c-14.78,27.81-29.13,55.19-42.95,84.4-1.1,2.33-2.88,4.42-3.36,7.15-.1.5-.62.77-1.08.54l-.12-.06c-.46-.23-1.02.06-1.09.56-.54,3.32-.39,5.9-2.44,9.07-.42.67-1.98.84-2.21,1.21-.33.52-1.46,8.42-3.38,11.42-1.23,1.94-2.5.23-2.96,1.07-1.13,2.08.19,4.48-.65,6.29-.81,1.75-2.77,1.98-3.42,3.01-.86,1.38.35,3.75-1,5.73-3.44,5.07-3.23,6.77-5.8,12.42-2.29,5.02-8.86,20.66-11.38,24.03-1.27,1.71-3.31,1.26-3.75,1.78-1.1,1.25.13,7.78-4.84,6.96-.27-.06-.47-.25-.57-.5-1.67-4.6-1.31-8-.39-12.76,1.86-9.66,6.36-22.35,9.36-32.07,14.76-47.97,34.19-94.65,51.46-141.71.19-.52-.23-1.06-.79-1.02-3.98.27-7.75,1.75-11.49,2.96-16.01,5.13-33.59,11.42-49.29,17.45-28.59,10.99-28.73,12.55-47.78,35.15-3.38,4-8.07,6.94-10.63,11.63l1.19.38c.19.06.4.06.58-.04,24-11.86,49.24-27.73,74.56-36.26,3.56-1.21,20.6-8.17,16.92,1.57-1.11,3-14.45,11.72-17.87,14.64-38.34,32.69-90.74,83.66-110.83,128.72-.41.9-.63.81-.7.29l-4.32,6.42c.14,1.36.65,2.42.32,3.84-1.35,5.82-5.23,14.07-7.13,20.22-1.25,4.03-2.17,8.3-3.11,12.43-.11.48-.64.73-1.08.5l-.11-.06c-.48-.25-1.08.1-1.1.64-.19,3.84-.58,13.62-2.48,14-1.5.11-2.58-1.23-3.02-2.52-1.36-4.02-.86-17.34-1.63-23.12-2.67-20.27-7.78-39.41-19.28-56.55-5.3-7.92-19.83-23.94-29.61-24.98-7.48-.81-15.65,7.3-17.66-4.58-1.88-11.03,4.62-44.07,7.34-56.25,23.97-107.04,93.71-157.83,187.58-201.71,2.35-1.08,10.13-5.4,12.16-3.44.11.11.19.29.19.46.52,6.63-1.98,10.53-5.21,16.18-18.14,31.77-41.14,65.53-61.11,96.63-4.21,6.57-20.55,33.69-25.14,36.54-6.61,4.07-7.11-4.87-6.52-9.55.62-4.96,7.17-23.58,5.5-26.88-.42-.83-4.34-3.54-5.36-3.8-14.57-3.86-38.98,24.96-46.59,35.84-6.44,9.2-12.35,19.93-14.14,31.17-.1.62-.83.87-1.27.43-.4-.42-1.13-.23-1.27.34-6.5,26.25,4.44,57.98,36.78,52.85,4.9-.79,22.54-7.86,24-12.39,1.98-6.15-2.63-5.53-2.71-7.53,0-.1.02-.21.06-.31,2.13-5.44,6.42-10.38,8.4-15.74,1.27-3.44,2.69-5.59-1.82-6.99-.15-.04-.31-.04-.45,0l-42.95,11.78c-.35.1-.69-.08-.87-.4-1.13-2.17-2.67-3.61-1.42-6.34,2.47-5.35,36.17-22.12,43.31-25.48,9.51-4.46,21.1-6.19,27.92-14.45.02-.04.05-.09.05-.1l119.17-189.41c14.64-12.93,20.72-36.99,33.11-51.56,1.88-2.21,4.04-4.79,7.11-5.11ZM793.92,16.85c7.49-3.27,10.15,6.29,13.75,10.36,27.29,30.82,51.85,66.22,72.12,103.54,8.76,16.12,31.42,57.92,31.84,74.41.62,24.79-41.95,7.13-54.75,2.21-27.25-10.47-52.52-26.94-78.79-37.78-2.64-1.1-15.8-6.63-17.55-4.46l-142.89,60.83c-9.03,6.75-24.1,18.33-23.34,19.87,7.82,10.32,22.91,1.23,30.84-4.92,7.94-6.15,12.61-15.36,21.3-20.05,1.19-.07,1.57,2.39,2.9,3.17,25.35,14.55,64,21.02,92.88,17.56,5.96-.71,22.39-5.09,26.65-4.19,3.48.75,1.52,4.65-.19,6.25-5.63,5.27-30.44,14.56-39.3,19.08-65.97,33.5-137.62,85.69-184.82,142.79-5.81,7.01-20.16,29.58-27.6,31.35-1.21.29-2.19.25-3.4.1-3.85-.48-21.02-16.47-26.5-20.02-6.63-4.28-15.33-6.53-20.58-11.2-.94-.85-3.33.26-2.9-3.41.18-2.58,12.63-13.74,15.31-16.87,13.09-15.26,36.46-54.52,43.28-73.29,1.35-3.71,2.31-8.13,3.48-11.96-2.5-2.09-5.5.85-7.69,2.27-40.95,26.35-77.38,87.94-97.6,131.47-11.43,24.62-20.01,50.54-30.67,75.41-.87,2-6.27,13.69-6.99,14.03-4.67,2.21-2.91-2.55-3.35-3.03l-2.05.09c7.46-35.66,21.1-69.74,34.55-103.48,9.76-24.5,22.94-48.29,28.14-74.27-1.54-2.88-14.72,1.71-15.51-6.94-.28-3.2,10.57-29.3,12.76-33.9,11.59-24.19,31.59-52.1,47.12-74.43,2.1-3.03,4.54-6.75,7.27-11.03-55.93,9.02-50.78,20.63-93.51,73.23-6.21,7.63-11.15,16.03-17.01,24.02-7.76,10.59-14.53,23.35-20.22,36.49-1.79,4.15-4.67,9.4-5.48,13.67-.13.71.19,1.44.35,2.17.09.48-.58.79-1.14.52l-.81-.38.67,3.77-.74-.37c-.5-.23-1.13,0-1.13.42,0,2.83-3.25,4.73-3.79,7.42-.61,3.07-1.3,4.23-3.03,7.24-51.29,89.4,39.93-4.19,59.29-7.61,10.65-1.88,21.7-9.72,11.07,6.52-12.47,19.1-78.08,74.51-97.9,90.23-16.41,13.03-40.4,32-61.53,40.3-6.92,2.73-17.78,5.86-19.93-3.08-3.09-12.82,9.03-36.07,15.57-48.17,26.79-49.58,68.93-101.3,102.2-149.28.24-.37,4.19-1.23,1.5-2.65-9.19-4-29.25,4.42-36.76,1.35-2.71-1.11.19-2.75,1.75-3.62,8.67-4.78,24.96-7.95,34.93-12.95,11.84-5.94,21.26-21.04,28.37-30.54,3.92-5.25,8.7-14.49,12.84-18.83.71-.73,6.38-2.4,1.77-2.02-.33.04-.65-.14-.78-.37-2.65-4.67-14.11-.29-18.62,1.23-31.69,10.57-34.63,17.49-62.86,31.25-29.46,14.35-43.26-2.56-38.03-27.68,9.3-44.56,27.06-62.61,51.64-102.58.04-.08.12-.14.19-.19,9.03-5.55,4.68,3.27,4.76,7.5.44,21.2,12.47,36.63,37.28,48.43,29.46,14.02,58.78,12.64,89.7,9.84l32.93-.81c29.32-46.86,84.31-144.15,108.69-170.79,1.65-1.81,9.3-10.78,11.47-9.57l.19,3.11-8.77,8.37,10.67-7.89c.63.36,1.42,11.13,1.29,12.59-.13,1.46-1.76,1.96-2.19,3.72-.5,2.06.57,13.16.11,14.32l-2.34.75c1.42,3.88.34,10.32-.73,14.3-4.65,17.4-45.91,115.22-49.22,133.13-1.19,6.44-2.4,18.55-4.21,23.83-.36,1.08-2.42,4.82-3.13,5.63-2.71,3.08-21.64,12.56-24.1,9.51,3.86-2.59.36-3.21-2.44-2.92-1.87-1.9,4.23-25.82,4.23-30.38-2.89-8.09-10.83,2.36-14.17,6.01-15.18,16.64-45.9,58.82-44.44,81.63.12,1.79-.14,2.58,1.91,1.89,5.17-1.73,27.52-20.14,33.36-24.85,8.49-6.84,16.28-14.53,24.72-21.45,13.74-11.24,28.02-16.55,34.55-33.98,6.94-18.54,10.72-41.03,16.58-60.3,1.45-4.75,8.57-28.84,11.34-30.54,4.63-2.83,4.67,5.3,5.65,6.92,3.64,5.91,19.93-2.18,24.77-4.73,26.58-13.97,58.88-41.01,81.83-60.9,17.43-15.12,36.47-36.86,54.5-49.9,14.61-10.57,15.16-1,12.65,11.91-6.94,35.78-30.61,60.22-58,82.29-17.72,14.28-41.05,32.27-60.11,44.34-11.82,7.48-10.88,3.65-21.72,5.88-13.12,2.69-23.73,13.8-28.96,25.71-.71,1.63-3.92,10.53-4.04,11.67-.15,1.67.71,1.4,1.88,1.06,7.76-2.25,26.92-19.12,34.96-24.79,29.31-20.74,59.69-40.13,88.79-61.13,20.51-14.82,56.01-39.59,63.47-64.55,4.21-14.13,2-29.7-.29-43.9ZM181.78,366.92c-10.51,4.67-21.1,10.2-31.04,15.97-3.94,2.29-7.84,5.89-11.91,8.33-4.88,2.92-11.68,4.9-15.7,9.05,10.49-2.96,18.98-10.84,27.98-15.99,10.13-5.8,21.43-10.28,30.67-17.35ZM545.69,375.07l-13.68,13.24,3.94-2.31,13.68-13.24-3.94,2.31ZM694.18,253.12c-14.47-4.84-32.03,1.54-45.6,7.36-25.82,11.07-45.35,30.82-63.72,51.33-8.42,9.4-17.3,23.04-26.16,31.27-1.65,1.54-4.48,4.21-6.86,3.63v-.04c-2.19-.54-4.88-6.21-3.8-8.72,3.92-17.85,9.18-35.53,12.63-53.48.46-2.42,2.86-12.84,2.63-14.11-.23-1.27-.88-1.34-1.92-1.82-5.88,3.44-7.19,4.99-9.09,11.28-3.59,11.9-4.99,27.79-8.01,40.53-4.78,20.29-10.51,40.51-16.02,60.63.13,3.98,5.84-.89,7.09-1.81,8.96-6.65,17.82-16.37,26.5-23.73,25.21-21.33,51.35-41.57,78.65-60.21,10.37-7.09,47.02-27.57,51.89-35.82.77-1.33,2.53-5.01,1.8-6.28ZM231.34,345.69c-8.46,0-15.74,5.86-23.85,7.86-.06.02-.17.08-.17.08h-.02l-7.3,4.17,31.34-12.11ZM151.07,335.21c-5.74,1.31-12.03,4.34-17.04,6.7-1.61.77-4.92,2.31-5.84,3.75l17.64-6.04s.12-.04.12-.04l5.65-2.98c.77-.4.35-1.59-.52-1.4ZM204.57,316.32s-.08.03-.09.04l-8.54,4.04c10.93-2.79,21.85-6.42,32.33-10.65h.02c1.19-.48,4.05-1.04,4.07-2.48l-27.79,9.05ZM243.6,276.52c-6.51-6.28-5.88-8.97-14.6-3.44-13.59,8.61-20.1,25.83-30.02,36.75-.6.65-1.29,1.11-2.12,1.34-.44.13-.71.6-.52,1.04.83,1.88,1.15,3.07,3.67,2.75,4.23-.54,31.07-11.64,34.32-14.32,6.15-5.05,5.71-16.6,9.42-23.21l-.02.02c.17-.31.12-.7-.13-.93ZM558.73,250.27c-10.88,5.21-18.73,14.61-27.73,21.81-6.09,4.88-13.34,8.34-18.31,14.37l-21.58,17.85,4.78-2.65,62.84-51.39ZM648.27,226.02c-2.69-1.25-5.07-.31-4.11,2.92,8.14-2.27,12.63,7.82,20.14,7.9-4.88-2.86-11.13-8.55-16.05-10.82h.02ZM425.41,217.23h.17c5.67-.52,11.52-.42,17.24-.67l.02-.02c2.94-.13,3.34-.36.12-.75h-.14l-33.94-.04,16.53,1.48ZM776.51,93.45c-39.82,36.44-87.38,63.17-130.77,95.07l-20.32,15.29c17.22-10.03,33.15-22.81,49.62-34.19,19.57-13.51,39.75-26.18,59.08-40.01,22.28-15.93,48.05-33.54,60.59-58.37h-.02l-18.18,22.2ZM331.8,157.89c-.78,7.7,1.73,16.96,8.03,23.61l-6.13-13.95s-.04-.08-.04-.09l-1.87-9.57ZM776.18,25.02c-19.48,14.16-35.82,32.25-53.88,48.2-19.51,17.2-39.79,33.57-60.86,48.81l-33.15,22.08c6.61-2.06,12.97-6.57,18.87-10.38,27.5-17.7,52.11-39.26,76.98-60.32l52.04-48.39ZM804.04,28.56l26.53,32.27-11.53-16.53-18.12-21.12,3.13,5.38Z"/>
  <g class="cls-1">
    <path class="cls-5" d="M316.93,79.3c-1.71-2.81-3.96-3.75-6.92-3.48.56,4.01,1.11,8.02,1.67,12.04-2.41.2-4.06-.46-5.5-2.77l8.65-8.04s-.04-.03-.06-.04l-8.6,8.13c-.82-1.64-.52-1.97-.59-2.04,0-.04-.06.18-.15.47-.19.57-.51,1.38-.87,2.2-.73,1.66-1.62,3.48-2.53,5.37-.9,1.9-1.84,3.87-2.7,6.16-.43,1.16-.84,2.39-1.16,3.95-.21,1.57-.86,3.47.56,7.08l-.4-1.11s-.04-.01-.11-.58c.02-.37-.24-.6.31-2.54.29-.97,1.48-3.17,3.91-4.1,2.29-.82,3.51-.38,4.17-.26,1.24.37,1.35.55,1.52.62.13.07.11.06,0-.02-.14-.09-.28-.21-1-.58-.46-.16-.77-.56-2.9-.73-.61-.02-1.36.02-2.26.29-.95.27-2.05.89-2.81,1.62-1.62,1.61-1.87,2.92-2.07,3.79l-.02.11c-.51,2.67-.38,4.82-.5,5.95-.11,1.19-.24,1.2-.42,1.46.48-.86,1.06-1.18.79-1.04-.14.08-.42.21-1.13.67-.37.25-.85.56-1.59,1.29-.69.7-1.82,2.1-2.23,4.15-.39,2.47-.07,3.06-.02,3.78.1.64.19,1.07.26,1.44.14.73.21,1.2.23,1.49.05.69-.29-.17.56-1.38l12.84,1.23c-.19-.4-.38-.81-.56-1.21l.06.13c-1.82-4.62-9.06-6.25-12.65-3.12l-.05.04c-.33.24-.65.47-.98.71l-.14.11c-2.41,1.97-3.19,4.49-3.21,6.69v.43c-4.14,19.98-10.03,46.44-15.09,69.69-3.14,14.4-6.25,28.8-9.3,43.26-1.52,7.25-3.02,14.48-4.48,21.76-.71,3.55-1.43,7.25-2.12,10.99-.15.83-.35,1.9-.51,2.83-.17.95-.31,1.78-.48,2.87-.16,1.03-.29,1.83-.45,3.1-.08.64-.12.85-.2,1.87-.03.45-.06.91-.06,1.49,0,.15,0,.3,0,.47,0,.08,0,.17,0,.27,0,.18.03.55.07.91.13.78.12,1.72,1.15,3.99.57,1.12,1.48,2.78,3.77,4.46,2.21,1.72,6.19,2.63,8.99,2.01l-12.21-5.54c7.83,13.77,15.68,27.53,23.54,41.28l-.31-12.45c-15.36,27.64-30.56,55.59-44.6,84.28.26.02-3.07,3.38-4.62,10.75l.04-.24c.87-7.98,12.23-13.83,19.39-9.59-.02,0-.06-.03-.1-.05-8.69-4.52-20.2.98-21.71,11.17v-.08c-.37,2.33-.54,3.97-.62,4.13-.09.19.19-.64.21-.64l-.09.14c2.13-3.19,3.81-3.92,4.65-4.47.88-.49,1.26-.61,1.39-.67.11-.04,0-.01-.58.2-.31.12-.72.26-1.6.68-.46.23-1,.5-1.93,1.13-.9.68-2.25,1.44-4.15,4.28l-.04.07c-1.79,3.17-1.38,2.99-1.65,3.61-.11.36-.18.61-.23.8-.09.36-.15.58-.2.8-.09.39-.16.69-.22.96-.12.54-.22,1-.32,1.45-.2.88-.39,1.68-.59,2.4-.19.71-.39,1.35-.54,1.75-.1.34-.4.69.31-.52l-.04.06c.42-.64,1.07-1.66,2.68-2.98,1.54-1.33,4.72-2.75,7.33-2.86,2.54-.16,4.03.38,3.11.14-.55-.03-1.62-.62-5.53-.17-1.93.26-4.73,1.22-6.88,2.88-2.21,1.69-3.41,3.45-4.19,4.85-2.78,5.04-2.32,9.9-2.25,11.29.06.78.05,1.02.03.4,0-.57.03-2.35,1.07-4.61l-.03.06c1.09-2.59,3.6-4.51,3.95-4.67.2-.12-.02-.02-.99.58-.9.64-3.06,1.71-5.51,5.4l-.03.05c-2.54,4.18-2.52,7.44-2.61,8.89-.03,1.55.02,2.06,0,2.06-.05.12,0-3.1,1.86-5.74-1.65,2.33-3.69,5.9-4.85,8.91-1.13,2.87-1.53,3.97-2.32,5.64-2.03,4.4-3.71,8.23-5.54,12.16-.9,1.94-1.8,3.85-2.69,5.64-.44.88-.88,1.75-1.28,2.48-.32.63-1.02,1.67-.43.8l-.04.06c1.32-1.95,4.21-3.81,5.81-4.24.79-.26,1.31-.33,1.05-.29-.16.03-.46.06-1.52.31-1.05.55-3.12-.23-8.46,5.15l.12-.14c-2.61,3.16-2.89,4.78-3.35,5.95-.37,1.16-.5,1.82-.61,2.38-.21,1.07-.26,1.58-.32,1.94-.09.66-.18.67.13-.36.3-.87,1.41-4,5.28-6.38,3.91-2.28,7.03-1.84,8.11-1.69l.77.15c4.88,1,8.97,4.77,10.54,8.99l.12.31c-.24-.77-.18-.7-.18-1.05,0-.35.16-1.59.55-3.46,1.87-8.92,5.69-19.36,9.18-30.38,12.56-39.92,28.4-79.25,43.58-119.37,2.69-7.11,5.36-14.25,7.99-21.42,4.56-11.47-5.91-24.03-17.11-22.76-7.3.57-12.24,2.78-15.36,3.71-16.94,5.45-33.57,11.4-50.12,17.76-9.5,3.89-19.62,6.85-31.15,15.23-11.15,8.83-16.53,17.08-23.17,24.62-.89,1.6-6.91,4.89-12.44,14.31l-9.34,17.09,18.57,5.98c.4.13.79.25,1.19.38l.3.09c3.18.91,7.66,1.46,12.99-1.36l-.63.33c25.76-12.84,48.9-27.48,72.54-35.53,2.44-.86,3.5-1.27,4.94-1.73,1.34-.43,2.61-.77,3.37-.92.36-.07.61-.08.36-.07-.3-.06-.94.28-3.95-.83-1.5-.6-3.84-1.96-5.69-4.44-1.85-2.42-2.56-5.31-2.67-6.95-.16-3.44.43-3.99.48-4.34l-.03.09c.72-1.86,1.22-2.47,1.53-2.96.29-.41.46-.61.55-.72.19-.21.14-.15.03-.05-.23.23-.73.67-1.29,1.13-1.12.93-2.51,1.99-3.94,3.06-3.06,2.32-5.47,3.84-10.14,7.61-43.45,38.42-87.07,77.81-114.72,134.51l.03-.07c.07-.16.17-.38.4-.79.29-.46.42-.93,1.88-2.64,1-.83,1.43-2.44,7.16-4.47,2.81-.99,8.26-.77,11.65,1.25,3.43,1.92,4.75,3.91,5.62,5.17,1.57,2.55,1.68,3.56,1.95,4.39.21.79.28,1.27.33,1.66l-5.56-40.45-22.86,33.88c-1.43,2.14-2.87,4.29-4.3,6.43l-3.12,4.61.54,5.62c.23,2.13.58,3.39.49,2.99-.09-.33-.27-2.52.17-4.17-.89,3.96-4.08,10.73-6.77,19.12-1.52,4.99-2.46,9.52-3.38,13.58l.04-.18c1.54-8.58,13.18-14.25,21.13-9.62,0,0-.03-.02-.07-.03-10.54-5.44-23.24,1.75-23.75,13.8v-.22c-.1,2.47-.21,4.57-.39,6.46-.09.9-.21,1.77-.28,2.15-.02.16-.08.25.12-.35.13-.33.25-.79.97-2.01.4-.65.9-1.46,2.16-2.73,1.2-1.16,3.57-3.09,7.35-3.87l1.88-.26c4.05-.44,8.3,1.77,9.88,3.45,1.77,1.74,2.33,2.96,2.87,4.41.42,1.41.19.76.16.33-.07-.52-.13-1.26-.18-2.04-.11-1.58-.18-3.39-.24-5.26-.16-3.9-.07-7.34-.74-13.16-2.76-21.01-8.75-43.67-21.9-62.97-4.83-6.96-9.54-12.11-15.23-17.48-6.24-5.05-10.35-11.09-25.39-14-9.27-.63-14.25,2.25-14.52,1.96.09.01.84-.21,2.77.19,1.9.33,4.65,2.01,5.77,3.44,2.22,2.94,1.44,2.89,1.48,2.28-.73-11.2,3.39-33.57,6.98-50.53,16.4-92.23,93.13-154.76,178.86-192.82l-.08.04c1.59-.75,2.23-1.1,3.1-1.53.82-.4,1.57-.74,2.19-.99.59-.25,1.15-.41.99-.37-.11,0-.37.11-1.47.1-.96-.1-3.79.08-7.44-3.22l-.19-.19c-2.41-2.55-3.56-5.04-3.69-8.87l.04.98c.08,1.33.06,1.58-.32,2.7-.38,1.1-1.59,3.26-3.1,5.91-18.38,32.52-39.66,64.03-60.18,96.42-4.09,6.58-7.79,12.7-11.71,18.83-1.94,3.04-3.91,6.05-5.87,8.89-.98,1.42-1.97,2.8-2.89,4-.46.6-.91,1.16-1.26,1.55-.17.19-.31.35-.33.37.02.01-.02-.07,1.02-.74.07-.03.26-.18,1.03-.42.73-.21,2.35-.64,4.7-.06,2.37.54,4.4,2.28,5.14,3.34.81,1.1.95,1.66,1.04,1.92.13.81-.17-1.35.02-2.41-.04.14.19-1.06.42-1.95.24-.97.51-2.03.8-3.1.57-2.15,1.19-4.41,1.8-6.73.61-2.33,1.21-4.71,1.75-7.36.27-1.34.53-2.73.73-4.44.1-.88.19-1.81.19-3.11-.14-1.4.41-2.58-1.57-7.1l-.03-.06c-1.31-2.35-1.7-2.47-2.14-3.01-.41-.44-.68-.69-.95-.93-.5-.46-.88-.77-1.24-1.06-.71-.57-1.33-1.01-1.97-1.45-.64-.44-1.26-.85-2-1.3-.38-.23-.77-.46-1.3-.74-.26-.14-.56-.3-.99-.49-.49-.21-.81-.42-2.36-.86-11.32-2.41-18.07,2.01-23.51,4.99-5.44,3.33-9.81,7.03-13.93,10.86-8.16,7.74-15.01,15.67-21.56,24.92-6.96,10.2-13.55,21.8-15.82,35.97.6-7.72,12.33-11.84,17.7-5.73l.17.18c-6.2-6.79-18.35-3.48-20.23,5.53l.03-.14c-3.42,14.91-3.05,30.95,5.01,45.88,7.54,15.71,29.09,23.72,44.28,20.1,7.29-1.61,10.71-3.37,15.66-5.56,2.34-1.1,4.66-2.29,7.13-3.81,1.24-.78,2.51-1.61,3.97-2.81,1.42-1.43,3.26-2.01,5.45-7.48.54-2.33,2.2-5.64-.37-11.91-1.36-2.99-3.97-5.01-4.89-5.61-.46-.3-.59-.47.17.2.37.35,1.02.99,1.67,2.15.65,1.14,1.1,2.77,1.13,4.06v.4c-.03,1.48-.17,2.15-.67,3.51l.02-.06c1.09-3.35,5.15-7.9,8.33-15.98.18-.5.43-1.12.8-2.16.32-1.08,1.06-2.44,1.05-5.92-.03-1.71-.6-4.09-1.75-5.93-1.13-1.86-2.5-3.05-3.58-3.81-2.19-1.49-3.61-1.89-4.87-2.3l-.55-.15c-1.66-.39-3.35-.54-5.66.09l.1-.03c-14.28,4.04-28.57,8.09-42.85,12.13,4.28-1.31,8.92,1.45,10.27,4.42-.94-1.68-1.53-2.72-1.11-1.8.18.44.39,1.51.3,2.38-.08.88-.31,1.42-.41,1.63-.73,1.44-.88,1.35-.87,1.38.02-.03.19-.2.42-.4.46-.4,1.12-.92,1.83-1.43,1.42-1.03,3.05-2.1,4.72-3.14,3.34-2.09,6.9-4.14,10.48-6.13,7.16-3.97,14.66-7.9,21.89-11.43,7.56-4.03,20.66-5.26,30.89-17.1l1.1-1.69c-.1.2-.13.24-.16.3-.01.03-.03.05-.04.07,0,.01-.02.03-.03.05-.07.11.15-.23-.28.44l.13-.2c28.96-46.95,57.89-93.9,86.81-140.87,10.19-16.55,20.38-33.11,30.56-49.66l-1.25,1.48c17.41-16.65,21.51-38.51,33.31-52.66,1.87-2.41,3.27-3.23,3.06-3.07-.43-4.03-.86-8.06-1.29-12.08-6.39.83-9.23,5.11-11.17,7.15-14.51,17.58-19.54,38.86-32.92,50.46l-1.25,1.48c-10.52,16.35-21.03,32.7-31.54,49.05-29.83,46.4-59.63,92.81-89.42,139.23l.13-.2c-.43.67-.22.35-.29.46-.02.03-.03.05-.04.07-.02.04-.04.08-.07.12-.05.09-.09.16-.21.4l1.1-1.69c-3.82,4.96-13.56,6.9-24.95,11.8-7.91,3.7-15.45,7.49-23.09,11.55-3.8,2.03-7.6,4.13-11.43,6.43-1.92,1.16-3.85,2.37-5.86,3.77-1.01.71-2.05,1.47-3.18,2.42-.58.49-1.19,1.03-1.89,1.75-.71.79-1.58,1.56-2.72,3.85-1.28,2.26-1.93,7.54-.53,10.69,1.22,3.06,2.03,3.88,2.11,4.18,1.69,3.64,7.07,6.79,12.06,5.27,14.32-3.8,28.67-7.61,43.02-11.42l.1-.03c-2.02.54-3.39.41-4.76.09l-.55-.15c.17.03.14.17-.84-.47-.48-.34-1.3-1-2.05-2.23-.76-1.21-1.14-2.85-1.15-3.82.02-2,.28-1.91.11-1.61-.13.35-.44,1.1-.78,2-1.04,3.12-5.14,7.72-8.46,15.49l.02-.06c-.58,1.55-.76,2.44-.8,4.13v.4c-.02,3.55,2.58,7.18,3.79,8.12,1.31,1.17,1.8,1.4,1.94,1.53.29.23-1.17-.78-1.91-2.42-.76-1.63-.68-2.78-.66-3.15.04-.41.05-.32-.03-.12.65-1.84,1.1-2.1,1.22-2.3.14-.16.06-.07-.09.05-.33.26-.97.69-1.68,1.12-1.45.86-3.23,1.75-5.05,2.57-1.83.82-3.75,1.6-5.63,2.28-.94.34-1.88.66-2.76.92-.81.25-1.87.51-1.83.48-20.5,4.65-29.86-18.62-24.25-39.71l.03-.14c-1.67,7.9-12.24,10.79-17.7,4.84l.17.18c6.15,7,19.53,2.31,20.25-6.61,1.45-8.64,6.33-17.74,12.46-26.34,5.29-7.28,11.91-14.76,18.63-20.9,3.37-3.07,6.89-5.86,10.19-7.79,1.63-.96,3.2-1.67,4.31-1.98,1.14-.35,1.57-.15,1.03-.24-1.27-.36-1.35-.47-1.58-.56-.17-.08-.22-.11-.25-.12-.04-.02.04.03.14.09.2.13.5.33.77.52.27.19.54.4.69.53.07.06.11.1.02.02-.06-.05-.13-.12-.35-.35-.25-.34-.46-.26-1.64-2.36l-.03-.06c-.85-1.77-.88-2.54-.97-3.03-.06-.44-.05-.63-.06-.7,0-.14,0,.07-.05.34-.07.57-.24,1.45-.44,2.37-.4,1.85-.95,3.94-1.53,6.05-1.18,4.59-2.47,7.56-3.83,14.99-.39,4.02-.75,7.17.88,12.95.49,1.48,1.16,3.25,2.76,5.38,1.51,2.08,4.64,4.65,8.27,5.5,7.57,1.45,10.72-1.22,13.03-2.38,1.8-1.14,2.48-1.86,3.17-2.51.62-.6,1.13-1.14,1.57-1.64.89-.99,1.6-1.86,2.29-2.74,1.35-1.71,2.54-3.34,3.69-4.96,2.29-3.22,4.42-6.4,6.51-9.57,4.15-6.3,8.22-12.85,12.02-18.78,20.66-31.73,42.5-63.19,62.03-96.83,1.34-2.37,3.18-5.16,4.89-9.45,1.75-4.26,2.52-9.87,2.11-14.31l.04.98c-.13-4.17-1.43-7-4.08-9.79l-.19-.19c-4.44-4.06-8.42-4.1-10.46-4.22-2.2-.03-3.54.24-4.71.48-2.28.51-3.8,1.08-5.22,1.63-2.68,1.05-5.38,2.44-6.56,2.98l-.08.04C116.86,203.8,26.22,275.43,7.92,377.63c-3.84,20.07-9.05,35.24-7.71,61.99.67,2.97.81,6.57,5.39,12.33,2.29,2.81,6.67,5.48,10.36,6.18,3.71.79,6.31.46,8.19.21,3.71-.61,5.45-1.27,6.62-1.52,1.12-.29,1.33-.12.24-.2-1.42-.3.59.22,2.22,1.44,1.77,1.19,3.79,2.87,5.75,4.73,3.89,3.67,8.03,8.43,10.65,12.31,9.5,14.16,14.3,31.43,16.65,50.12.23,1.88.31,6.21.41,10.04.05,1.99.11,4.06.25,6.33.07,1.15.16,2.35.33,3.75.21,1.48.25,2.78,1.26,5.95,1.02,2.84,2.31,5.3,5.1,8.02,2.59,2.65,8.24,5.49,13.71,4.93l1.88-.26c8.44-2.28,9.63-6.3,10.84-7.76,1.03-1.75,1.38-2.76,1.71-3.67.6-1.74.82-2.83,1.04-3.86.4-2.01.57-3.54.74-5.04.3-2.94.44-5.68.56-8.03v-.22c-.5,11-11.92,17.45-21.51,12.55,0,0,.03.02.07.04,8.81,5.13,21.6-1.1,23.32-10.61l.04-.17c.98-4.28,1.84-8.11,2.84-11.28,1.6-5.25,4.89-11.39,7.48-21.3.74-2.94.51-6.45.2-8.05-.32-1.68-.29-1.68-.19-.84l-2.58,10.24c1.44-2.14,2.89-4.27,4.33-6.41l-28.42-6.57c.07.5.16,1.08.4,1.99.29.94.44,2.06,2.07,4.7.9,1.3,2.26,3.34,5.74,5.29,3.44,2.05,8.95,2.27,11.81,1.26,5.84-2.06,6.34-3.75,7.43-4.66,1.62-1.88,1.86-2.54,2.26-3.19.34-.62.53-1.03.7-1.4l.03-.07c22.54-46.45,65.16-86.69,106.92-122.93,1.35-1.1,5.36-3.92,8.49-6.25,1.67-1.24,3.37-2.52,5.23-4.05.94-.78,1.91-1.6,3.07-2.7.6-.58,1.22-1.19,2.05-2.14.83-1.12,1.81-1.63,3.68-6.07l-.03.09c.7-2.1,1.79-4.43,1.49-9.7-.18-2.53-1.18-6.35-3.57-9.49-2.4-3.23-5.51-5.1-7.87-6.05-4.71-1.78-7.22-1.53-9.34-1.53-2.08.08-3.65.33-5.08.59-5.41,1.04-9.89,2.78-12.68,3.76-28.83,9.88-52.75,25.31-76.54,36.98l-.63.33c4.98-2.62,9.03-2.08,11.83-1.28l.3.09c-.4-.13-.79-.26-1.19-.38l9.23,23.07c-.41.04,2.89-2.51,8.79-8.92,14.6-18.15,20.09-22.98,41.26-30.47,16-6.13,32.22-11.92,48.43-17.13,4.44-1.51,7.01-2.26,7.64-2.23-10.13,1.15-19.66-10.25-15.5-20.76-2.6,7.07-5.23,14.11-7.9,21.15-15.02,39.74-30.9,79.8-43.47,121.53-3.06,10.26-6.97,20.82-9.54,33.77-1.01,4.12-1.8,14.27,1.14,21l.12.31c1.76,4.72,6.29,8.88,11.68,9.99l.77.14c2.68.41,7.52.81,12.83-2.33,5.28-3.22,7.24-7.85,8.05-10.24.83-2.57.98-4.18,1.13-5.12.06-.44.1-.74.05-.46-.04.15-.08.43-.32,1.2-.33.78-.46,2.03-2.8,4.88l.12-.14c-2.38,2.7-4.35,3.5-5.44,4-1.13.47-1.71.6-2.08.7-.71.17-.66.13-.47.1.44-.09,1.67-.3,3.13-.78,2.96-.86,7.08-3.55,9.24-6.66l-.04.06c1.88-2.65,2.23-3.58,2.95-4.91.64-1.23,1.18-2.36,1.7-3.46,1.04-2.21,1.99-4.33,2.92-6.43,1.83-4.16,3.63-8.48,5.24-12.16,1.14-2.5,2.28-5.71,2.79-7.12.48-1.26.7-1.71,1.65-3.18,3-4.26,3.31-9.54,3.22-11.38-.03-.99-.04-1.47-.05-.9-.07.47.08,2.71-1.93,6.05l-.03.05c-2.03,3.03-3.54,3.64-3.8,3.87-.32.18.15-.08.99-.61,1.65-.97,5.36-3.97,7.09-7.98l-.03.06c2.81-6.88,1.33-10.06,1.53-10.53-.03-.27.03.05-.07,1-.09.93-.47,2.57-1.29,4.02-.71,1.28-1.82,2.93-3.92,4.53-2.03,1.57-4.69,2.49-6.48,2.72-3.63.41-4.41-.12-4.68-.1-.36-.12,1.7.56,4.82.35,3.18-.14,6.92-1.8,8.9-3.49,2.06-1.68,3.07-3.15,3.8-4.28l-.04.06c3.11-5.44,3.08-7.35,3.84-9.96.29-1.22.53-2.36.75-3.43.11-.53.21-1.05.29-1.48.04-.2.08-.41.1-.5,0-.04.01-.05-.02.07-.02.07-.05.18-.13.44-.24.49.22.18-1.52,3.27l-.04.07c-1.84,2.74-3.11,3.44-3.92,4.06-.83.56-1.28.78-1.65.97-.68.33-.9.39-1.01.44-.19.06.11-.04.62-.24.53-.21,1.3-.49,2.55-1.19,1.21-.76,3.25-1.75,5.61-5.3l-.09.14c1.76-2.65,3.24-6.47,3.75-9.39.54-2.95.58-4.48.71-5.27v-.08c-1.37,9.22-11.68,14.12-19.48,10.08,0,0,.05.02.09.04,8.02,4.73,20.56-1.72,21.57-10.65l.04-.24c-.2.99-.51,1.34-.2.75.28-.58,1.16-1.89,2.32-4.33,12.93-28.38,27-56.4,41.29-84.51l3.34-6.58-3.65-5.87c-8.37-13.45-16.75-26.89-25.15-40.32l-4.46-7.12-7.75,1.59c2.76-.62,6.72.29,8.9,1.99,2.26,1.66,3.15,3.3,3.7,4.37.99,2.18.95,2.98,1.06,3.59.07.63.05.67.05.76,0,.09,0,.15,0,.21,0,.21-.01.21-.01.12,0-.26.02-.46.05-.83.07-.82.15-1.52.25-2.4.11-.95.21-1.71.32-2.59.11-.86.26-1.88.36-2.67.5-3.59,1.05-7.24,1.59-10.75,1.11-7.22,2.28-14.47,3.46-21.74,2.36-14.5,4.78-29.01,7.19-43.55,3.92-24.65,8.22-46.26,11.48-74.22v.43c-.01,1.71-.6,3.72-2.62,5.38l-.14.11c.31-.25.63-.51.94-.76l-.05.04c-2.89,2.55-8.93,1.19-10.39-2.58l.06.13c.21.39.42.78.63,1.17l5.83,10.87,7.02-9.65c2.69-3.57,2.55-7.61,2.22-9.78-.17-1.16-.41-2.12-.59-2.83-.09-.34-.16-.63-.18-.71-.06,0,.14-.16-.12,1.6-.34,1.69-1.25,2.78-1.69,3.22-.48.47-.67.57-.74.61-.11.06.24-.17.72-.48.95-.62,2.72-1.88,3.94-4.04,1.54-2.62,2.08-6.01,2.07-8.17,0-2.23-.09-3.47,0-4.11l-.02.11c-.19.82-.43,2.09-2.01,3.66-.74.72-1.82,1.32-2.75,1.59-.88.26-1.61.3-2.19.28-2.04-.17-2.26-.53-2.64-.65-.56-.29-.54-.31-.52-.3.04.02.18.12.47.28.33.17.61.44,2.03.86.75.15,2.06.6,4.44-.25,2.51-.96,3.77-3.24,4.08-4.31.6-2.12.34-2.54.34-3.1-.1-.94-.22-1.29-.32-1.68l-.4-1.11c.59,1.72.16,1.43.29,1.01.04-.46.22-1.21.46-2,.48-1.59,1.19-3.4,1.94-5.26.76-1.87,1.57-3.8,2.36-5.95.39-1.09.79-2.22,1.14-3.63.18-.74.34-1.48.43-2.57.01-1.07.3-2.47-1.01-5.03l-8.6,8.13s.04.02.06.04M311.69,87.86l-1.67-12.04.19-.02,1.29,12.08.19-.02ZM795.66.04c-4.29.24-7.02,4.71-5.31,8.65,3.34,7.67,6.69,15.35,10.03,23.02-.65.36-3.86,1.23-6.96.13-3.02-1.09-3.72-2.38-3.68-2.25.04.04.62.87,1.42,2.19.88,1.36,1.75,3.12,4.35,6.17,27.04,30.59,50.46,64.58,70.04,100.56,12.12,22.45,27.26,50.79,29.88,67.09.03.58-.15.41.32-.71.42-1.12,1.95-2.64,2.7-2.96,1.56-.59-.83.23-3.63-.14-8.96-.81-20.46-4.92-32.13-9.53-25.15-9.58-49.56-25.57-78.43-37.63-2.94-1.23-6.17-2.52-9.7-3.7-1.79-.59-3.63-1.17-6.04-1.72-1.24-.27-2.55-.55-4.65-.71-1.09-.06-2.34-.15-4.49.12-1.95.49-6.03.27-11.47,6.35l6.27-4.75c-47.63,20.28-95.26,40.55-142.89,60.83l-3.36,1.93c-4.19,3.14-8.39,6.33-12.61,9.68-2.11,1.68-4.23,3.39-6.45,5.29-1.11.96-2.24,1.94-3.53,3.18-.65.63-1.33,1.29-2.25,2.32-.45.52-.96,1.08-1.79,2.27-.4.58-.93,1.34-1.64,2.85-.28.59-.9,2.01-1.26,3.85-.29,1.3-.95,5.99,1.39,10.6l1.61,2.6c3.53,4.98,10.63,9.7,17.34,10.66,6.69,1.1,11.99-.09,16.28-1.43,8.55-2.87,14.41-6.87,20.05-11.13,11.17-9.31,15.96-17.6,19.06-18.6l-6.68,1.91c-3.36.31-7.41-1.07-9.38-2.48-2.09-1.41-2.9-2.49-3.43-3.12-.97-1.27-.88-1.31-.72-1,.61.62,1.03,3.47,7.13,7.53l.22.13c32.78,17.56,66.9,22.95,102.87,19.6,6.51-.93,10.14-1.92,14.55-2.77,2.1-.42,4.16-.81,5.96-1.1.89-.14,1.73-.25,2.31-.3.28-.03.49-.03.46-.03-.1-.03-.15.1-1.89-.23h-.06c-1.45-.35-5.57-1.41-8.71-6.3-2.95-4.95-2.14-8.86-1.82-10.4,1.03-3.29,1.11-3.02,2.69-4.75.88-.73-.41.28-1.47.84-1.15.66-2.54,1.38-3.99,2.09-2.91,1.43-6.09,2.87-9.31,4.29-6.59,2.94-12.87,5.38-20.83,9.27-71.32,36.96-137.2,84.44-189.95,146.9-5.48,6.92-8.83,12.04-12.95,17.32-1.98,2.56-3.97,5.02-5.8,7-.9.98-1.79,1.84-2.35,2.32-.26.23-.47.36-.33.27.18-.08.54-.47,2.58-1.01.95-.3,3.01-.18,2.38-.21,2.71.42,3.15.82,3.6.97.38.17.45.22.45.22,0,0-.31-.19-.66-.42-.71-.48-1.63-1.17-2.58-1.9-1.91-1.48-3.96-3.15-6.04-4.87-4.4-3.55-7.42-6.54-14.23-11.37-.16-.11-.35-.24-.52-.34-9.52-5.74-17.58-8.32-18.37-9.56l.06.05c-2.9-2.57-5.56-3.39-6.9-3.8-1.41-.4-1.97-.45-1.98-.47-.17.06,2.9.15,6.69,3.54,3.72,3.52,4.35,7.34,4.53,8.73.17,1.6.06,2.16.03,2.51l.07-.73c-.4,3.85-1.11,4.57-1.38,5.3-.32.64-.47.87-.58,1.04-.19.29-.15.22-.06.11.2-.25.63-.77,1.12-1.3.99-1.09,2.2-2.33,3.45-3.59,1.26-1.26,2.58-2.56,3.96-3.92,1.43-1.44,2.45-2.33,4.73-4.86.12-.13.25-.29.36-.43,19.72-25.34,33.34-47.99,45.94-77.85.07-.17.14-.35.2-.52,1.86-5.33,2.7-9.47,3.65-12.47l1.95-6.36c.73-2.37-.04-4.95-1.94-6.54l-5.1-4.27c-2.76-2.51-8.28-4.76-12.74-4.51-4.46.15-7.18,1.44-9.04,2.34-3.54,1.86-5.21,3.4-5.14,3.27l.06-.04c-51.31,36.31-78.53,87.44-103.53,138.27-11.95,25.77-20.52,51.77-30.87,75.85-.78,1.74-1.99,4.34-3.02,6.49-.53,1.11-1.07,2.21-1.58,3.22-.25.5-.5.98-.7,1.34-.1.18-.18.33-.18.31s.04-.07.19-.31c.11-.16.21-.31.55-.75.19-.25.45-.57.88-1.03.48-.41,1.26-1.71,4.81-3.51.28-.1.57-.36,2.5-.76.98-.15,2.53-.46,5.37.08,2.76.41,7.2,2.92,9.19,5.95,2.07,2.95,2.38,5.03,2.6,6.21.18,1.2.15,1.77.15,2.06,0,.27-.01.29.02-.17.01-.26.04-.57.04-1.48-.01-.49,0-.99-.17-2.31-.09-.62-.2-1.42-.62-2.77-.37-1.1-1.15-3.5-3.54-6.14l-3.16-3.46c-1.23-1.35-3-2.08-4.83-2l-4.69.21c-.68.03-1.37.06-2.05.09l8.64,10.16c3.23,3.8,9.44,2.4,10.65-2.44,7.43-29.78,19.12-59.15,31.04-89.02,9.19-23.34,22.96-47.63,28.98-77.1l1.14-5.68-2.73-5.11c-3-5.46-7.23-7.33-9.29-8.17-2.27-.86-3.57-1.04-4.66-1.22-2.1-.29-3.21-.29-4.19-.33-1.85-.05-2.88-.09-3.15-.14-.27.04.62-.24,3.24,1.57,1.25.9,2.63,2.5,3.36,4.02.75,1.52.95,2.76,1.02,3.49.15,1.98-.02,2.65-.04,2.98-.05.38-.08.52-.09.59-.03.14,0,.03.04-.13.08-.31.25-.87.42-1.41.36-1.13.82-2.42,1.29-3.72.95-2.62,1.99-5.33,3.06-8.04,2.1-5.29,4.59-11.36,6.58-15.72,11.86-24.29,29.03-47.99,45.79-72.15,2.74-3.96,5.2-7.76,7.63-11.57l12.03-18.87c2.86-4.49-.93-10.26-6.18-9.41l-22.09,3.56c-19.97,3.19-48.05,8.85-64.95,29.34-15.42,18-25.43,33.95-38.55,49.67-7.2,8.9-12.31,17.63-17.5,24.66-9.28,12.73-16.12,26.09-22.02,39.64-1.43,3.66-4.44,7.86-6.53,17.09-.7,3.89-.05,6.57.22,7.81.32,1.26.39,1.51.2.71l-.04-.21c-.97-3.93.46-9.74,3.03-12.73,2.49-3.13,5.05-4.38,7.2-5.15,4.28-1.41,8.05-.96,11.57.68l-.07-.04c-.27-.13-.54-.25-.81-.38l-17.6-8.39c-4.53-2.16-9.6,1.71-8.73,6.65l3.4,19.2c.23,1.26.45,2.51.67,3.77l23.08-17.38c-.25-.12-.5-.24-.75-.37l-.35-.16c-3.87-1.72-7.63-2.05-11.83-.94-2.11.62-4.49,1.59-7.11,4.04-2.59,2.3-5.26,7.21-5.17,11.95v.09c-.02-2.46.82-4.58,1.27-5.42.48-.9.6-.94.29-.56-.42.88-3.32,3.07-5.04,10.23-.16.75-.09.37-.02.24.06-.08-.51.95-1.18,2.12-5.57,9.99-11.04,19.02-15.65,32.2-.55,1.74-1.16,3.88-1.55,6.21-.24,1.47-.4,3.02-.4,4.77,0,1.81.26,5.05,1.66,8.25,1.57,4.16,6.29,8.74,10.61,10.15,4.65,1.61,7.25,1.27,9.52,1.09,2.48-.32,3.53-.65,4.98-1.08,1.42-.45,2.41-.85,3.38-1.26,7.53-3.38,11.97-6.67,16.85-9.99,9.42-6.62,17.96-13.37,26.46-19.8,4.22-3.2,8.42-6.33,12.49-9.14,2.03-1.4,4.07-2.73,5.79-3.74.93-.54,1.69-.95,2.31-1.24.53-.28,1.02-.31-.28-.04,3.32-.6,6.04-1.41,8.38-2.13,1.16-.36,2.22-.7,3.07-.96.8-.25,1.63-.43,1.08-.32-.44-.02-.77.43-4.41-.2-1.85-.39-5.41-1.62-8.29-5.08-2.93-3.57-3.38-7.15-3.46-8.82-.03-3.59.49-4.01.56-4.47.14-.38.13-.32.07-.2-.29.63-1.3,2.33-2.32,3.87-23.74,28.51-61.55,59.35-94.41,86.41-18.95,15.03-38.3,30.12-57.39,37.91-2.76,1.14-5.57,1.77-5.86,1.72-.13.05,1.02-.26,3.55,1.21,2.61,1.51,4.01,4.61,4.06,5.28-.05.24-.13-2.53.58-5.41.66-2.97,1.8-6.39,3.16-9.85,2.75-6.96,6.37-14.12,10.33-21.42,27.87-50.94,66.4-97.51,101.25-147.75l.25-.37c-1.71,2.55-3.11,3.48-3.62,3.92-.67.51-1.15.81-1.42.97-.62.38-.88.49-1.1.61-.38.19-.45.21-.47.22-.02,0,.24-.1.59-.26.74-.36,1.73-.68,4-2.27,1.13-.92,2.87-1.93,5.09-5.81,2.59-3.66,2.35-12.72-.09-16.02-2.11-3.61-3.8-4.68-4.87-5.56-1.13-.84-1.9-1.26-2.6-1.64l-1.11-.53c-14.99-4.96-20.76-1.47-27.56-.89-3.18.54-6.11,1.08-8.46,1.37-1.16.15-2.18.22-2.69.22-.46.06-.55-.27,1.62.52.55.24,1.24.51,2.52,1.38,1.19.92,3.62,2.46,5.48,7.17,1.94,4.85.44,10.41-.75,12.39-1.21,2.24-2.07,2.99-2.63,3.58-1.11,1.05-1.38,1.13-1.5,1.23-.09.06,0,0,.37-.21,6.52-3.57,19.63-5.8,33.97-12.46.23-.11.47-.23.69-.35,18.71-10.58,25.72-24.94,33.74-35.12,3.12-4.26,5-7.56,6.98-10.67,1.83-2.97,4-6.11,4.62-6.71l-.15.16c-2.27,2.17-2.57,2.06-3.03,2.4-.37.22-.52.29-.62.34-.18.09-.11.05,0,0,.26-.12.72-.31,1.59-.72.5-.25.89-.37,2.42-1.31.45-.29.88-.54,1.94-1.41.56-.5.99-.8,2.16-2.19.53-.65,1.14-1.48,1.76-2.62.81-1.51,1.75-3.8,1.93-6.84.25-2.91-.78-7.13-2.6-9.76-2.05-2.97-3.17-3.6-4.44-4.56-1.18-.82-2.39-1.38-2.97-1.62-.59-.25-1.11-.42-1.57-.56-2-.57-2.34-.53-3.12-.64-2.15-.2-2.5-.1-3.21-.09-.56.02-.99.06-1.41.09l-.54.05c6.27-.29,10.47.82,15.08,7.54l.11.19c-2.23-4.11-6.44-7.25-9.65-8.51-3.26-1.34-5.76-1.61-7.79-1.74-4.03-.18-6.64.32-9.06.78-4.65.96-8.59,2.4-11.38,3.34-24.27,6.85-46.05,23.34-64.79,32.04-3.81,1.87-7.55,3.13-10.36,3.49-2.9.4-4.05-.22-3.97-.22.04.05-.76-.56-1.23-3.16-.46-2.49-.32-6.13.48-9.92,5.97-35.45,28.26-62.94,49.58-97.39l.68-1.23c-2.91,5.13-4.67,5.37-4.57,5.51l-1.24.84c.4-.31,1.23-.49-.7.15-.61.16-1.45.41-3.23.47-1.71.03-5.25-.22-8.88-2.81-3.68-2.63-5.14-6.19-5.62-7.9-.51-1.87-.49-2.73-.52-3.32.07-1.93.05-.71-.2.39-.2,1.36-.73,2.7-.77,7.01-.98,29.87,25.4,53.98,46.52,62.77,31.87,15.65,67.88,14.28,98.12,11.34l-1.06.06c10.98-.27,21.96-.54,32.93-.81l5.4-.13c2.07-.05,3.98-1.14,5.08-2.89l2.86-4.58c35.88-57.2,68.48-119.48,106.91-168.45,2.02-2.25,3.26-3.63,4.65-5,.64-.64,1.29-1.21,1.48-1.36.07-.06.09-.02-.68.41-.44.22-1.01.58-2.67,1.04-1.35.26-4.51,1.33-9.43-.66-1.12-.45-2.03-1.32-2.68-2.34l-7.32-11.6c.06,1.04.13,2.08.19,3.11l4.98-12.73c-1.53,1.46-3.05,2.91-4.58,4.37-2.36,2.25-2.56,5.94-.46,8.43l13.36,15.88c2.1,2.49,5.77,2.93,8.39.99,2-1.48,4.01-2.96,6.01-4.45l-15.6.89c-1.52.09-3.05-.4-4.24-1.34-2.26-1.8-3.06-3.35-3.54-4.03-.51-.83-.78-1.42-.99-1.9-.37-.87-.45-1.15-.56-1.51-.16-.53-.2-.74-.24-.87-.06-.25-.04-.21-.03-.14.02.16.08.52.12.89.09.77.18,1.69.26,2.6.08.92.15,1.86.2,2.75.03.45.05.88.06,1.25.01.18.02.35.02.43.02-.04-.05.49.06-.97.18-2.59,1.48-5.41,2.32-6.57.86-1.23,1.08-1.34.67-.92-.76.75-3.92,4.64-4.81,8.91-.55,2.53-.45,2.93-.53,3.74-.04.69-.04,1.2-.05,1.66-.01.92,0,1.67.02,2.39.04,1.42.09,2.69.15,3.91.06,1.22.11,2.39.15,3.43.02.51.03,1.01.03,1.33,0,.15,0,.28,0,.19,0-.06,0-.13.03-.49.02-.17.04-.41.12-.89.08-.41.14-1.2.87-3.12l10.14-9.47c-.78.25-1.57.5-2.35.75l-9.97,3.18c-3.34,1.07-5.12,4.71-3.91,8l3.6,9.82c-.64-2.21-.17-.96-.36.16-.1,1.23-.41,2.93-.8,4.33-14.17,41.96-34.39,83.74-49.39,134.02-.08.27-.15.56-.2.83-.81,4.61-1.26,8.35-1.83,12.09-.52,3.6-1.34,8.05-1.7,9.02.38-1.05.33-.83.34-.87-.01.03-.07.14-.13.27-.13.26-.31.59-.48.91-.18.32-.36.64-.5.86-.06.11-.12.2-.11.18.09-.1-.15.11.93-1.18,1.36-1.45,1.23-1.16,1.25-1.21-.05.03-.27.19-.52.35-.52.34-1.24.76-1.98,1.17-1.49.83-3.15,1.66-4.75,2.39-1.6.73-3.23,1.37-4.42,1.75-.56.18-1.08.29-.82.24.16-.01.47-.11,1.77-.05.68.05,1.67.12,3.3.65.97.32,2.34.89,3.79,1.91,1.92,1.35,2.92,3.69,2.57,6.01l-3.1,20.47c1.16-.86,2.33-1.38,4.94-4.43,1.03-1.72,4.29-4.06,3.82-12.9-.42-4.25-2.92-8.17-4.93-10.05-2.07-1.99-3.61-2.76-4.86-3.37-4.63-1.95-6.04-1.66-7.79-1.86-1.62-.08-2.92-.02-4.32.11l13.23,4.78c1.53,1.57,2.37,3.02,2.91,4.14.54,1.16.66,1.62.86,2.23.33,1.19.37,1.63.43,2.06.09.81.07.97.08,1.08,0,.17,0-.12.04-.46.07-.72.2-1.76.38-2.84.34-2.18.79-4.58,1.26-7.03.47-2.45.97-4.97,1.47-7.6.25-1.33.51-2.67.76-4.15.12-.72.25-1.52.37-2.42.12-1.02.27-1.65.31-4.07l-.83-4.84c-.07-.4-.17-.79-.32-1.17-.73-1.89-1.72-4.2-4.38-7.14-2.66-3.28-9.53-6.5-14.47-6.05-9.65,1-11.44,4.11-13.98,5.74-4.24,3.54-6.78,6.85-8.33,8.52-21.36,27.24-43.93,47.59-48.66,93.61,0,.02,0,.1.03.76.02.34.04.82.17,1.82.19,1.02.21,2.52,1.85,5.81,1.36,3.32,7.07,7.85,10.71,8.4,3.68.84,5.32.47,6.58.36,2.37-.36,3.1-.69,3.91-.93,3.41-1.24,4.15-1.88,5.39-2.56,1.13-.67,2.03-1.25,2.94-1.85,1.74-1.16,3.31-2.28,4.83-3.38,3.03-2.21,5.9-4.41,8.74-6.61,5.63-4.38,11.19-8.91,16.47-13.19,9.34-7.54,17.14-15.26,24.82-21.53,9.22-8.19,31.28-17.72,39.45-40.82,7.98-21.81,11.24-42.73,16.92-61.27,1.57-5.24,3.12-10.26,4.76-15.18.82-2.44,1.66-4.85,2.5-7.04.41-1.08.84-2.13,1.19-2.88.16-.36.33-.68.32-.66-.02.03-.05.1-.35.54-.14.2-.38.53-.84,1.06-.4.42-1.27,1.47-3.28,2.73-.66.38-1.6.98-3.74,1.47-2.03.53-6.04.5-9.2-1.11-3.16-1.56-4.64-3.53-5.38-4.59-.74-1.12-.94-1.69-1.08-2.01-.22-.6-.09-.32.05.35.08.36.18.82.38,1.61.1.4.23.89.45,1.62.3.83.41,1.63,1.87,4.16l.04.07c2.96,5.08,8.72,8.23,12.36,9.05,3.8.96,6.46.84,8.71.7,4.42-.39,7.43-1.3,10.29-2.2,5.62-1.87,10.19-4.03,14.77-6.42,32.66-17.91,58.68-40.59,84.88-62.98,19.74-17.31,35.91-36.18,53.39-49.02,1.41-1.05,2.94-1.9,2.99-1.88-.08-.04-.45.47-3.47.42-1.52-.07-3.96-.6-6.14-2.03-2.21-1.41-3.61-3.32-4.26-4.54-1.26-2.55-.97-2.97-1.03-2.97,0,.04.02.6-.04,1.28-.1,1.41-.4,3.37-.81,5.42-5.16,28.84-26.43,52.25-52.26,72.77-19.13,15.35-38.73,30.53-58.61,43.27-2.63,1.78-5.69,2.97-4.27,2.49.22-.04.17,0-.63.01-.77.02-2.09.04-3.45.12-2.77.16-5.5.57-7.97,1.08-20.43,4.6-33.29,19.16-40.53,35.07-.84,2.01-1.04,2.64-1.47,3.78-.39,1.05-.76,2.07-1.13,3.11-.36,1.04-.73,2.08-1.1,3.2-.19.56-.38,1.13-.58,1.8-.1.33-.22.7-.34,1.15-.07.26-.14.49-.24.89-.09.46-.21.59-.46,2.6l-.02.17c-.06,1.08-.28,2.26.23,5.26.31,1.51.79,3.7,2.8,6.63,1.91,2.94,6.01,5.7,9.02,6.44,6.07,1.42,7.57.31,8.8.22,1.11-.26,1.52-.4,1.75-.46l-.08.02c6.75-2.25,8.83-4.12,11.91-5.99,2.81-1.85,5.33-3.69,7.77-5.51,4.86-3.64,9.4-7.29,13.78-10.77,2.24-1.77,4.57-3.6,6.32-4.84,28.93-20.47,59.28-39.84,88.93-61.23,24.14-18.81,53.44-33.51,69.32-72.59.12-.3.24-.63.32-.95,4.57-16.28,2.96-31.25,1-44.42-.51-3.42-3.68-5.77-7.09-5.22-6.6,1.06-13.19,2.12-19.79,3.19-3.32.53-5.6,3.64-5.12,6.96,1.72,11.85,2.33,22.52-.19,30.71-6.5,19-33.43,38.85-57.44,56.05-28.62,20.67-58.89,39.99-88.65,61.04-3.02,2.16-5.32,4.01-7.72,5.89-4.54,3.59-8.87,7.07-13.12,10.25-2.11,1.58-4.22,3.1-6.14,4.37-.95.63-1.88,1.2-2.61,1.6-.66.39-1.46.65-.51.34l-.08.02c-.24.08-.3.07.33-.08.76.01,1.74-1.01,7.34.28,2.78.68,6.66,3.29,8.43,6.02,1.87,2.72,2.26,4.68,2.53,5.95.42,2.51.23,3.2.2,3.79l-.02.17c-.22,1.78-.28,1.63-.31,1.86-.04.14-.04.15-.04.13.01-.03.06-.17.1-.33.1-.32.23-.73.38-1.15.28-.84.59-1.74.91-2.65.32-.9.65-1.81.98-2.7.28-.78.79-2.1.76-2.02,3.51-8.26,11.23-15.28,17.36-16.3,1.32-.27,2.34-.41,3.39-.47.97-.12,2.83.15,7.35-.49,9.02-1.81,12.5-4.87,16.38-7.09,22.07-14.15,41.89-29.62,61.61-45.42,27.29-21.6,56.54-51.81,63.74-91.82.54-2.78,1.04-5.66,1.31-9.17-.07-3.74,1.43-6.93-2.74-16.17-1.91-4.84-10.73-10.68-16.32-10.36-5.46-.17-8.26,1.08-10.6,1.95-4.52,1.92-7.1,3.78-9.71,5.62-22.23,16.57-38.2,35.71-55.62,50.79-25.41,21.85-51.53,44-78.75,58.79-3.33,1.76-6.89,3.36-9.74,4.29-1.37.47-2.71.72-2.75.7.02.02.42-.13,2.06.27,1.49.28,5.2,2.18,7,5.33l.04.07c1.23,2.14,1.18,2.52,1.35,2.91.09.31.1.36.09.32-.03-.09-.12-.51-.24-1.04-.26-1.09-.56-2.58-1.43-4.87-1.11-2.09-1.68-6.38-9.66-10.83-3.96-2.01-8.94-2.08-11.84-1.36-3.02.7-4.78,1.68-6.2,2.53-2.27,1.41-3.47,2.76-4.05,3.4-.69.78-1.15,1.42-1.47,1.87-.71,1.02-1.05,1.63-1.43,2.3-.65,1.17-1.1,2.14-1.49,2.98-.78,1.73-1.37,3.21-1.94,4.68-1.12,2.92-2.06,5.65-2.98,8.38-1.82,5.42-3.49,10.88-5.04,16.04-6.41,21.37-9.77,41.93-16.26,59.33-2.79,9.46-13.87,14.84-29.64,27.12-9.21,7.58-16.96,15.22-24.62,21.37-5.48,4.45-10.73,8.71-16.06,12.86-2.65,2.06-5.31,4.1-7.88,5.97-1.28.93-2.55,1.84-3.69,2.59-.58.38-1.1.72-1.49.94-.23.18-1.03.43.78-.26.19-.04.34-.19,2.09-.46.95-.07,2.28-.42,5.66.34,3.33.47,8.78,4.8,10,7.84,1.5,3.01,1.46,4.21,1.61,4.93.09.69.08.86.09.89,0,.04-.02-.49-.06-1.11.77-17.58,22.16-49.2,40.25-69.67,1.5-1.66,2.28-2.61,3.14-3.53.8-.87,1.53-1.57,1.78-1.77.1-.09.09-.03-.47.28-.6.26-1.7,1.09-5.05,1.28-3.34.37-8.61-2.12-10.21-4.22-1.84-2.06-2.04-3.08-2.25-3.54l-.94-5.45c.03-1.12.03-.53-.03-.24-.05.36-.13.88-.22,1.39-.18,1.06-.4,2.24-.62,3.45-.46,2.41-.97,4.95-1.47,7.54-.5,2.61-1,5.25-1.45,8.16-.23,1.47-.45,2.96-.62,4.81-.08.96-.17,1.89-.18,3.4,0,.73,0,1.54.17,3.01.1.76.19,1.49.62,3.01.24.78.4,1.34,1.02,2.67.62,1.28,1.55,2.86,3.17,4.54l3.38,3.45c1.31,1.34,3.17,2.01,5.04,1.82l4.81-.49c-.19.02-.29.03-.7.01-.22-.01-.51-.03-1.06-.13-.58-.13-1.34-.2-3.21-1.03-.97-.48-2.26-1.1-4.11-2.87-1.79-1.66-4.13-5.31-4.52-9.26-.4-8.23,2.51-10.01,3.16-11.27,1.84-2.11,2.03-1.91,2.19-2.1l-9.09,6.11c-3,2.02-3.63,6.18-1.36,8.99l6.87,8.52c6.23,6.86,11.03,6.2,13.16,6.59,2.39.12,3.85-.09,5.1-.27,2.45-.39,4.09-.88,5.66-1.37,3.08-.98,5.56-2.02,8.02-3.13,2.44-1.11,4.78-2.28,7.17-3.62,1.21-.68,2.42-1.39,3.77-2.25.66-.43,1.39-.91,2.23-1.54.93-.74,1.64-1.11,3.75-3.38,1.43-1.7,1.49-1.95,1.87-2.49.31-.47.54-.84.75-1.19.42-.7.77-1.31,1.12-1.94.34-.63.67-1.24,1.03-1.95.18-.35.36-.72.58-1.19.23-.53.41-.81.97-2.37,3.37-11.78,3.43-18.8,4.72-25.7.05-.27.12-.53.2-.79,12.17-39.86,32.69-83.97,48.69-131.15.08-.24.15-.5.2-.74,1.32-6.56,3.66-11.04.22-23.68l-10.29,21.01c.78-.25,1.57-.5,2.35-.75l4.53-1.45c1.76-.56,3.18-1.89,3.86-3.61l1.75-4.42c.77-2.03.87-3.01.97-3.54.1-.63.14-1.02.17-1.33.06-.68.07-1.02.09-1.4.02-.67.02-1.17.02-1.6-.01-.87-.03-1.58-.06-2.26-.06-1.35-.12-2.57-.17-3.74-.06-1.16-.1-2.29-.13-3.26-.01-.48-.02-.93-.01-1.2,0-.13,0-.22,0-.14-.04.2.1.02-.33,2.01-.56,2.78-2.81,5.46-2.59,5.14.08-.12.81-.77,2.07-2.6,1.26-1.76,2.85-5.28,3.09-8.58.14-1.99.07-2,.08-2.56,0-.46-.02-.81-.03-1.16-.03-.69-.06-1.31-.09-1.92-.08-1.22-.16-2.39-.26-3.59-.1-1.2-.22-2.39-.38-3.72-.08-.67-.17-1.36-.32-2.25-.08-.47-.15-.93-.33-1.71-.08-.37-.2-.87-.43-1.63-.16-.5-.28-.89-.7-1.88-.24-.54-.55-1.2-1.08-2.07-.64-.91-1.8-3.23-5.79-5.63l-5.69-3.28c-2.13-1.22-4.77-1.07-6.75.38h0c-1.26,10.67-1.92,16.3-3.18,26.97l3.82,4.55c3.61.2,5.37.29,8.98.49l7.39-7.06c1.32-1.26,2.01-3.03,1.9-4.85l-.29-4.66c-.07-1.04-.13-2.08-.19-3.11l-.34-5.48c-.13-2.1-1.32-3.99-3.16-5.01l-4.8-2.67c-6.47-3.34-10.89-1.97-12.98-1.53-2.28.63-3.43,1.26-4.43,1.79-1.89,1.05-2.9,1.84-3.85,2.56-1.82,1.44-3.04,2.61-4.22,3.77-2.17,2.14-4.28,4.5-5.66,6.05-.1.11-.19.22-.28.34-44.91,57.27-74.4,116.04-110.33,172.95l13.33-7.6c-10.98.27-21.95.54-32.93.81l-1.06.06c-29.91,2.92-57.67,3.27-81.27-8.33-17.6-8.34-28.1-18.91-28.04-34.14-.06,1.88-.06.77.2-.3.19-1.34.72-2.56.78-6.97-.04-1.22-.07-2.69-.75-5.16-.65-2.3-2.42-6.44-6.61-9.43-4.14-2.96-8.32-3.32-10.65-3.28-2.39.07-3.82.44-5.06.78-4.25,1.34-5.67,2.43-7.36,3.4l-1.24.84c-.04.26-1.96.6-4.96,5.9l.69-1.23c-18.88,30.81-46.67,65.74-53.7,107.76-2.26,12.57-4.36,31.61,13.37,45.84.3.24.64.48.97.67,19.28,11.65,35.5,3.92,46.65-.96,23.66-11.37,39.54-24.41,60.89-30.44,3.46-1.2,5.77-1.96,7.58-2.32.81-.19,1.49-.16.76-.17-.39-.04-1.23-.04-2.97-.74-1.69-.63-4.54-2.7-5.97-5.35l.11.19c4.94,7.24,9.78,8.63,16.65,8.27l-.54.05c.1,0,.15-.01.07,0-.18-.01-.07.07-1.72-.08-.63-.09-.89-.04-2.75-.57-.43-.13-.92-.3-1.49-.54-.56-.23-1.73-.78-2.89-1.58-1.25-.94-2.35-1.56-4.38-4.5-1.8-2.6-2.83-6.79-2.58-9.67.17-3.01,1.11-5.28,1.9-6.75.61-1.12,1.2-1.92,1.71-2.55,1.13-1.33,1.52-1.61,2.04-2.06.95-.78,1.29-.97,1.63-1.19,1.11-.68,1.05-.58,1.1-.62-.03.02-.47.21-1.11.5-.33.15-.72.32-1.33.63-.32.16-.69.35-1.27.7-.33.2-.62.37-1.18.76-.5.36-1.25.87-2.44,2.07l-.15.16c-8.05,9.28-10.69,15.94-14.07,20.3-8.57,11.95-16.51,22.85-22.65,25.75-7.95,4.08-19.88,5.55-35.5,13.25-1.08.69-2.41,1.04-5.81,4.14-.89.91-2.06,2.01-3.49,4.67-1.41,2.39-3,8.45-.9,13.74,2.03,5.15,4.82,7.03,6.39,8.21,1.66,1.14,2.76,1.61,3.72,2.02,9.71,3.23,13.19,1.68,17.18,1.45.12,0,.25-.02.37-.03,3.72-.48,6.83-1.07,9.71-1.56,2.9-.5,5.57-.9,7.6-1.03,1.95-.24,3.56.36,1.6-.3l-1.11-.53c-.36-.2-.82-.44-1.66-1.05-.78-.66-2.18-1.46-4.11-4.75-2.25-2.97-2.48-11.62-.08-14.95,2.04-3.55,3.49-4.31,4.32-5.01,1.66-1.16,1.97-1.15,2.04-1.21,0,0-.08.03-.44.19-.19.08-.44.19-.98.45-.3.15-.63.31-1.34.74-.31.19-.83.51-1.53,1.05-.55.46-1.99,1.44-3.72,4.02l.25-.37c-33.83,48.9-72.89,95.73-103.14,150.81-7.46,16.63-19.61,28.43-17.12,59.06.03.4.08.79.18,1.17,1.09,4.41,4.51,10.72,10.22,14.1,5.84,3.53,11.02,3.72,14.72,3.63,7.46-.41,12.11-2.28,16.55-3.94,26.54-11.08,46.09-27.39,65.66-42.68,35.23-29.54,68.19-54.06,101.13-93.74.17-.21.34-.43.48-.66,1.31-2.03,2.62-4.05,4.17-7.2.41-.86.84-1.78,1.35-3.25.41-1.46,1.26-3,1.19-7.69-.11-2.19-.69-6.34-3.98-10.34-3.23-3.89-7.31-5.35-9.71-5.87-4.74-.86-6.16-.28-7.69-.13-5.05.97-6.49,1.74-8.58,2.32-1.88.59-3.41.99-4.43,1.17-7.52,1.71-9.41,3.47-12.73,5.2-2.81,1.65-5.37,3.34-7.81,5.02-4.85,3.35-9.29,6.68-13.68,10-8.75,6.62-17.23,13.29-25.48,19.08-3.97,2.8-8.55,5.71-10.95,6.72-.41.21-.94.21.63-.04.89-.04,2.24-.37,5.54.76,3.09.96,6.8,4.61,7.8,7.42.93,2.19.96,3.8.97,4.33,0,.56-.04.76-.04.71,0-.07.17-.8.43-1.59,2.41-7.15,7.79-17.02,12.91-25.98.63-1.13,1.43-2.36,2.58-4.84,1.18-2.52,1.94-5.46,2.29-7.29-.44,2.14-1.19,3.27-1.39,3.61-.23.34-.05.06.51-.66.81-1.33,4.78-5.27,4.98-13.55v.09c.09,4.51-2.47,9.2-4.88,11.33-2.45,2.29-4.62,3.15-6.51,3.71-3.74.99-7.01.7-10.46-.83l-.35-.16c.25.12.5.24.75.37l17.74,8.68c4.53,2.22,9.67-1.65,8.79-6.62l-1.68-9.48c-5.93-2.32-7.6-2.97-13.53-5.28l-11.83,9.01c.27.13.54.25.81.38l-.08-.04c3.98,1.87,8.29,2.35,13.06.78,2.38-.85,5.16-2.25,7.82-5.57,2.73-3.19,4.22-9.27,3.21-13.44l-.04-.21c-.34-1.52-.5-1.98-.35-1.43.09.52.64,2.45.08,5.61-.05.06.49-1.63,1.3-3.4.82-1.86,1.88-3.97,3.14-6.86,5.19-11.97,11.23-23.52,18.4-33.32,6.41-8.8,11.31-17.04,16.5-23.38,13.46-16.17,25.87-35.02,37.41-48.33,8.58-10.44,21.1-14.45,36.96-17.5,4.32-.83,6.45-5.76,4.03-9.44l-5.93-9.03c-2.41-3.67-7.81-3.72-10.26-.06-.62.92-1.23,1.82-1.84,2.7-16.65,24.1-34.39,48.11-48.43,76.67-3.02,6.63-5.09,11.83-7.47,17.77-1.15,2.92-2.28,5.84-3.4,8.93-.56,1.55-1.11,3.11-1.67,4.86-.27.85-.57,1.82-.87,2.92-.17.63-.31,1.17-.5,2.1-.08.42-.19.95-.29,1.71-.07.65-.26,1.8-.09,4.04.17,4.42,3.19,11.92,8.56,15.6,5.15,3.68,9.2,4.14,12,4.58,2.84.35,4.93.33,6.2.38.59.01,1.04.07.49,0-.32-.06-.86-.08-2.39-.66-1.23-.52-4.29-1.76-6.82-5.63-.47-.71-.74-1.56-.87-2.41l-1.41-9.52c-4.48,22.83-16.89,45.6-27.3,71.45-13.44,33.78-27.49,68.6-35.36,106.17l-2.64,12.65c-.82,3.94,2.29,7.61,6.31,7.43l12.91-.58c.68-.03-.64-7.64.05-7.67l-10.67,2.33c-2.35-2.6-3.1-4.92-3.45-5.97-.4-1.28-.5-2.02-.58-2.57-.15-1.18-.13-1.55-.14-1.9,0-.63.02-.68.01-.67,0,.08-.05.64-.07,1.45.25,1.67-6.96,6.87-2.57,13.88,2.31,3.47,13.2,3.78,16.49,4.29,3.37.65,5.48.3,6.98.06,3-.6,4.29-1.27,5.55-1.83,3.6-1.83,4.48-3.19,5-3.66.47-.51.78-.89,1.04-1.22.44-.57.61-.84.83-1.15.32-.49.54-.85.71-1.13.35-.58.57-.99.79-1.41.42-.79.77-1.47,1.11-2.14.67-1.33,1.28-2.58,1.88-3.83,1.22-2.55,2.25-4.73,3.56-7.69,11.07-25.86,19.57-51.53,30.5-75.02,22.8-47.51,51.76-97.11,91.67-124.67l.06-.04c1.37-.9,1.93-1.35,2.29-1.6.33-.24.38-.23-.18.07-.57.25-1.89,1.03-4.9,1.14-1.91.13-4.25-.5-6.13-1.39-1.59-.74-2.76-2.15-3.25-3.83l-4.44-15c-1.47,4.88-2.34,8.8-3.22,11.18-9.21,22.39-25.11,49.07-40.34,68.27.1-.11-.61.65-1.16,1.19-.59.6-1.25,1.24-1.91,1.9-1.34,1.32-2.74,2.7-4.18,4.13-1.44,1.45-2.9,2.93-4.49,4.67-.8.88-1.62,1.8-2.6,3.05-.49.62-1.04,1.35-1.73,2.42-.38.59-.77,1.21-1.3,2.29-.46,1.15-1.37,2.34-1.81,6.64l.07-.73c-.12,1.22-.29,2.66,0,5.13.28,2.24,1.19,6.95,5.56,11.07,4.44,3.99,8.39,4.3,9.07,4.53.42.07.29.09-.7-.19-.93-.29-3.17-.94-5.74-3.22l.06.05c11.28,8.98,19.01,9.98,22.55,12.71,2.07,1.43,7.29,5.88,11.44,9.31,2.21,1.82,4.45,3.66,6.94,5.59,1.26.97,2.55,1.94,4.14,3.02.8.54,1.68,1.12,2.86,1.8.62.35,1.31.73,2.31,1.18,1.08.43,2.21,1.1,5.59,1.6,1.61.27,5.99.45,9.17-.41,7.12-2.06,8.86-4.33,11.21-6.07,2.12-1.8,3.71-3.44,5.19-5.04,2.94-3.19,5.35-6.22,7.67-9.22,4.51-5.81,9.01-12.39,12.26-16.45,48.42-57.52,112.12-103.78,179.67-138.67,5.14-2.54,12.47-5.52,19.2-8.5,3.44-1.52,6.93-3.09,10.57-4.88,1.83-.9,3.68-1.85,5.7-3,2.1-1.26,3.99-2.14,7.56-5.32,3.44-3.54,5.02-5.57,6.7-11.41.63-2.81,1.47-8.14-2.19-14.22-3.84-6.03-9.26-7.68-11.99-8.28h-.06c-2.85-.56-4.02-.47-5.25-.48-1.18.02-2.07.08-2.92.16-1.68.15-3.07.35-4.4.56-2.64.42-5.03.88-7.35,1.35-4.43.89-9.6,2.04-12,2.36-27.47,2.91-59.44-2.54-82.89-15.53l.22.13c2.48,1.51,3.48,2.92,3.98,3.57.49.68.55.84.39.55-.22-.32-.49-1.01-1.91-2.87-.76-.92-1.83-2.28-4.22-3.89-2.13-1.5-6.1-2.9-9.65-2.82-.53.01-1.04.12-1.55.26l-5.07,1.45c-.57.16-1.13.41-1.64.71-13.82,8.42-18.42,18.42-22.74,21.03-3.53,2.77-7.61,5.13-10.1,5.89-1.2.42-1.79.24-.84.36.96.04,2.86,1.38,2.94,1.69l1.61,2.6c2.27,4.49,1.61,8.96,1.35,10.14-.34,1.71-.89,2.92-1.11,3.4-.58,1.23-.93,1.7-1.15,2.03-.46.65-.54.71-.58.76-.07.07.18-.19.45-.45.57-.55,1.37-1.27,2.21-1.98,1.69-1.45,3.58-2.98,5.48-4.5,3.84-3.04,7.85-6.1,11.87-9.11l-3.36,1.93c47.4-20.18,94.8-40.35,142.2-60.53.47-.2.9-.45,1.31-.76l5.66-4.29c-4.94,5.48-8.19,5.05-9.41,5.43-1.39.17-1.87.1-2.18.09-.56-.05-.35-.05-.08.02.61.13,1.72.45,2.85.83,2.32.78,4.85,1.77,7.53,2.89,25.06,10.3,49.84,26.57,79.21,37.95,11.95,4.55,24.6,9.87,41.08,11.57,5.78.28,12.44.99,21.75-3.67,4.56-2.34,9.25-7.16,11.41-12.23,2.13-4.82,2.55-9.14,2.53-12.83,0-.39-.04-.78-.11-1.16-6.45-37-21.13-55.92-33.7-81.16-20.71-38.05-45.41-73.94-74.23-106.54.53.67-.23-.33-1.02-1.68-.87-1.39-1.96-3.28-3.92-5.71-1.96-2.32-5.08-5.88-11.14-7.99-2.7-.95-5.47-1.21-8.04-1.06ZM806.22,40.79l-12.95-29.71-11.52,5.02,2,12.41,31.99-5.15-9.52,17.43ZM188.36,381.73c-4.39-9.87-8.77-19.74-13.16-29.61-2.19.97-4.36,1.97-6.51,2.99-8.95,4.24-17.61,8.86-26.09,13.77-6.45,3.92-9.89,7.22-12.11,8.44-2.38,1.84-9.72,2.95-19.01,11.68l-41.79,43.18,57.83-16.32c15.48-4.66,24.51-13.72,31.63-17.52,7.12-4.12,16.11-7.92,25.66-13.84,2.26-1.42,4.55-2.97,6.81-4.7-6.56-8.58-13.13-17.16-19.69-25.74-1.32,1.01-2.76,2-4.33,2.98-6.59,4.17-15.17,7.86-24.56,13.19-11.49,6.93-18.78,13.14-24.32,14.45l16.04,26.86c-.34.27.85-.69,3.03-1.72,2.2-1.11,5.2-2.27,9.34-4.7,6.11-3.79,9.81-7.21,11.73-8.22,7.76-4.5,15.68-8.72,23.69-12.51,1.92-.91,3.86-1.8,5.79-2.66ZM175.2,352.12l13.16,29.61-16.42-27.67,19.69,25.74-16.42-27.67ZM556.95,386.71c-7.51-7.76-15.03-15.52-22.54-23.29-.56.55-1.13,1.09-1.69,1.64-4,3.87-7.99,7.73-11.99,11.6l19.45,25.62c1.31-.77,2.63-1.54,3.94-2.31l3.08-2.34c4.56-4.41,9.12-8.83,13.68-13.24l-19.46-25.62c-.63.37-1.27.74-1.9,1.11-.68.4-1.36.8-2.04,1.19,5.46,9.32,10.91,18.64,16.37,27.96.68-.4,1.36-.8,2.04-1.19.63-.37,1.26-.74,1.9-1.11l-19.45-25.62c-4.56,4.41-9.12,8.83-13.68,13.24l3.08-2.34c-1.31.77-2.63,1.54-3.94,2.31l19.45,25.63c4-3.87,7.99-7.73,11.99-11.6.57-.55,1.13-1.09,1.7-1.64ZM534.42,363.43l22.54,23.29-3.08,2.34-16.37-27.96-3.08,2.34ZM689.03,268.48c3.43-10.24,6.86-20.49,10.29-30.73-14.8-4.76-28.03-2.04-38.95,1.08-6.52,1.94-12.53,4.33-18.18,6.76-29.25,12.51-50.84,34.7-69.4,55.4-10.19,11.59-17.62,23.2-25.11,30.2-.95.91-1.34,1.16-1,.92.22-.13.66-.46,1.94-.91,1.21-.41,3.75-1.04,7.04-.25l12.39,15.75v-12.73l-12.33-3.04c3.79,1.04,4.94,2.31,5.79,2.98.79.72,1.11,1.15,1.36,1.46.45.62.52.81.63,1.06.1.25.21.48.36,1.27,0,.86.76,2.06-.93,6.6l.93-2.89c3.74-17.12,9.04-34.84,12.71-53.91.33-1.66.94-4.41,1.43-6.79.25-1.24.51-2.49.76-3.87.13-.69.26-1.4.39-2.27.06-.42.13-.92.2-1.56.04-.36.08-.69.11-1.31.02-.28.04-.65.03-1.21-.01-.47.02-1.34-.28-3.05-.23-1.19-.56-2.78-1.66-5.02-1.03-2.2-3.33-4.94-5.34-6.33-4.16-2.73-4.35-2.28-4.07-2.27l-7.68-3.56-7.31,4.27c-2.39,1.53-5.87,3.06-10.29,8.16-4.29,5.37-5.21,9.7-6.13,12.41-4.56,15.91-5.44,29.73-8.27,41.49-4.69,19.9-10.34,39.84-15.89,60.08l-.57,4.84c.18,1.9-.02,4.69,3.03,9.58,1.57,2.43,4.46,4.95,7.44,6.19,2.97,1.27,5.51,1.45,7.33,1.42,6.84-.56,7.83-2.02,9.63-2.78,1.53-.86,2.58-1.59,3.53-2.27.83-.6,2.03-1.54,1.93-1.46,11.42-8.65,19.4-17.73,27.35-24.4,24.85-21.02,50.56-40.93,77.31-59.19,9.91-6.48,22.36-13.63,33.91-21.3,3.37-2.23,6.73-4.52,10.22-7.14,1.73-1.3,3.54-2.71,5.45-4.39,1.97-1.88,3.86-3.07,7.12-8.14l.06-.11c1.19-2.11,1.79-3.42,2.6-5.56.39-1.07.79-2.24,1.17-4.12.18-.96.38-2.1.39-3.9-.08-1.78.08-4.46-2.33-8.9-9.36,5.38-18.73,10.76-28.1,16.14-2.13-3.96-1.9-6.06-1.98-7.28.01-1.24.13-1.82.2-2.23.17-.79.23-.88.23-.9.04-.05-.31.68-.23.5l.06-.11c.7-1.12.66-.91.47-.74-.2.22-.61.61-1.08,1.01-.95.84-2.22,1.84-3.52,2.82-2.65,1.99-5.6,4.01-8.64,6.02-10.82,7.19-21.76,13.37-34.32,21.57-27.81,18.98-54.4,39.58-79.98,61.22-10.14,8.7-18.07,17.44-25.69,23.09-1.27.96-1.26.97-1.64,1.25-.28.21-.49.32-.28.2.13-.06.35-.2.97-.44.67-.22,1.56-.71,4.43-.84,1.44-.02,3.6.11,6.22,1.23,2.63,1.08,5.23,3.36,6.59,5.47,2.64,4.26,2.32,6.27,2.47,7.41l-.56,4.84c5.5-20.07,11.26-40.38,16.17-61.2,3.46-15.06,4.58-28.96,7.75-39.56.29-.95.56-1.73.66-1.97.12-.28-.09.26-.56.82-1.19,1.22-.23.2,1.66-.83l-14.99.72c1.14.41,1.85,1.15-1.53-1.04-1.62-1.12-3.61-3.49-4.44-5.27-.89-1.81-1.09-2.95-1.24-3.67-.28-1.6-.24-2.28-.25-2.62,0-.4.01-.61.02-.76.02-.31.03-.37.03-.41.01-.06,0,.07-.03.22-.05.32-.13.79-.22,1.27-.18.99-.4,2.08-.63,3.18-.47,2.31-.92,4.24-1.53,7.28-3.23,16.92-8.42,34.37-12.53,53.04l.93-2.89c-2.34,6.12-1.5,9.1-1.21,11.62.44,2.47,1.08,4.32,1.85,6.13.8,1.81,1.69,3.49,3.16,5.47.76.99,1.63,2.07,3.07,3.35,1.48,1.22,3.36,3,7.97,4.25l-12.33-15.73v12.79l12.39,3c9.71,1.82,13.92-1.9,16.5-3.29,2.59-1.72,4.19-3.3,5.2-4.23,12.23-11.82,19.3-23.59,27.19-32.32,17.88-20.08,36.26-38.03,58.04-47.25,5.08-2.18,9.94-4.09,14.62-5.47,7.9-2.41,15.25-2.94,19.45-1.42ZM699.32,237.75l-10.29,30.73-8.91-7.3,28.1-16.14-3.07-5.34-5.84-1.96ZM231.34,361.89c0-10.8,0-21.6,0-32.4-2.12,0-4.18.2-6.1.53-12.37,2.58-18.62,7.45-21.63,7.8l-1.38.4c-1.88.7-1.44.58-2,.83l7.08-1.63h-4.32l-3.74,2.13c-2.43,1.39-4.87,2.78-7.3,4.17l13.88,29.18c9.4-3.63,18.8-7.26,28.19-10.89,1.05-.41,2.1-.81,3.15-1.22-3.89-10.08-7.79-20.15-11.68-30.23-1.05.41-2.1.81-3.15,1.22-9.4,3.63-18.8,7.26-28.19,10.89l13.88,29.18c2.43-1.39,4.87-2.78,7.3-4.17l-8.04,2.13h.02l7.08-1.63c-.45.19.1.02-1.66.68l-1.38.4c11.21-3.18,17.21-7.35,19.36-7.33.3-.05.49-.06.62-.06ZM231.34,329.48v32.4s-5.84-31.32-5.84-31.32l11.68,30.23-5.84-31.32ZM154.67,351.01c-2.4-10.53-4.79-21.07-7.19-31.6-1.27.29-2.47.61-3.61.96-6.73,2.06-12.04,4.69-16.75,6.89l-.06.03c-1.04.5-2.54,1.2-4.23,2.17-.87.5-1.81,1.07-3.02,1.95-1.23,1.01-2.69,1.74-5.28,5.52l-25.02,39.09,43.91-15.03c5.88-2.01,11.76-4.02,17.64-6.04l-5.25.87c2.72-.07,3.33-.37,4.07-.52.65-.17,1.04-.3,1.37-.42.69-.25.84-.31,1.58-.65l.66-.33c1.75-.92,3.49-1.84,5.24-2.77.14-.07.27-.14.41-.21,3.01-1.49,6.52-4.93,7.99-9.09,1.52-4.14,1.3-8.24.02-11.74-1.28-3.5-3.82-6.85-7.72-9.02-3.88-2.22-8.7-2.47-11.87-1.7,2.34,10.54,4.69,21.09,7.03,31.63-2.82.7-7.25.47-10.82-1.57-3.59-1.99-5.88-5.04-7.04-8.2-1.15-3.17-1.37-6.88.03-10.68,1.34-3.82,4.58-6.97,7.3-8.32-.16.09-.3.16-.44.23-1.75.92-3.49,1.84-5.24,2.77l.66-.33c.71-.32.82-.37,1.47-.6.31-.11.67-.23,1.31-.4.72-.14,1.31-.44,4.01-.51l-5.25.87c-5.88,2.01-11.76,4.02-17.64,6.04l18.89,24.06c-1.95,2.8-2.49,2.77-2.79,3.09-.27.2-.22.14-.07.06.34-.2.95-.51,2.02-1.01l-.06.03c4.76-2.26,8.94-4.18,12.25-5.17.54-.16,1.04-.3,1.48-.4ZM147.48,319.42l7.19,31.6-.08.02-7.03-31.63-.08.02ZM211.75,330.85c-4.78-9.68-9.57-19.37-14.35-29.05,1.13-.53.9-.42,1.85-.77l-1.69.69c-1.14.54-2.29,1.08-3.43,1.62-1.7.81-3.4,1.61-5.11,2.41l10.93,30.35c11.77-3,23.22-6.82,34.39-11.32l-6.06,1.18h.02l6.06-1.18c-.86.33-.32.12.17-.03.55-.18,1.33-.44,2.42-.89,1.1-.49,2.48-1.02,4.78-2.77,1.14-.9,2.59-2.17,4.08-4.45,1.49-2.22,2.77-5.79,2.76-9.15l.3-22.63-21.52,7.01c-8.03,2.62-16.06,5.23-24.09,7.85-1.23.4-2.47.8-3.7,1.21,3.35,10.27,6.69,20.54,10.04,30.81,1.23-.4,2.47-.8,3.7-1.21,8.03-2.62,16.06-5.23,24.09-7.85l-21.22-15.62c0-2.94,1.14-6.1,2.39-7.97,1.26-1.93,2.42-2.9,3.22-3.55,1.64-1.23,2.26-1.39,2.59-1.56.31-.13.3-.11.06-.03-.31.11-.57.14-2.2.77l6.06-1.18h-.02l-6.06,1.18c-9.89,3.99-20.03,7.36-30.26,9.97l10.93,30.35c1.7-.81,3.4-1.61,5.11-2.41,1.14-.54,2.29-1.08,3.43-1.62l-1.69.69c1.01-.37.85-.29,2.03-.85ZM197.4,301.8l14.35,29.05-2.16.88-10.04-30.81-2.16.88ZM232.35,288.18c7.5-7.77,15-15.55,22.5-23.32-.57-.55-1.13-1.13-1.81-1.86-.72-.75-1.38-1.58-3.22-3.32-1.41-1.24-4.29-4.06-9.9-5.35-5.6-1.16-9.59.22-11.71.96-4.34,1.71-5.92,2.93-7.89,4.12-19.63,13.3-25.5,31.63-33.33,39.53,1-1.17,3.24-2.78,5.52-3.37l-.38.11c-8.17,1.87-15.17,13.56-10.64,22.99.12.27.28.7.8,1.79.55,1.05,1.42,3.11,4.19,5.79,2.76,2.74,7.25,4.47,9.89,4.75,2.76.38,4.41.17,5.72.02,20.33-6.03,23.39-7.05,42.52-17.87,12.53-12.23,10.65-21.5,12.63-25.89.35-1.31.74-2.15.64-1.92l-25.59-19.38s-.01.01-.02.02l25.58,19.4c3.66-6.48,2.81-15.1-3.27-20.78-7.33,7.94-14.65,15.87-21.98,23.81-5.57-5.22-6.32-13.03-3-18.92l25.58,19.4s.01-.01.02-.02l-25.59-19.38c-2.02,3.66-2.87,6.57-3.58,9.02-1.11,4.04-1.7,7.08-2.32,8.99-.54,1.98-1.2,2.02.32.62-2.52,1.18-22.74,9.7-26.08,10.76.42-.04,1.21-.19,3.12.06,1.79.17,5.46,1.55,7.59,3.7,2.15,2.09,2.59,3.39,2.76,3.67.15.32-.02-.05-.26-.61,1.82,3.87,1.69,9.54-.45,13.38-2.06,3.91-5.45,6.46-9.13,7.59l-.38.11c3.92-1.03,7.62-3.63,9.73-6.03,13.27-15.83,18.94-29.63,26.72-33.98,1.15-.77,2.64-1.48,1.73-1.08-.43.12-2.56,1.06-6.36.3-1.78-.38-3.29-1.15-4.08-1.67-.82-.54-1.11-.83-1.19-.9-.15-.16.71.75,1.56,1.67.89.96,1.94,2.05,3.03,3.1ZM254.85,264.86l-22.5,23.32.26.24,21.98-23.81.26.24ZM565.73,264.88c-4.66-9.74-9.33-19.48-13.99-29.23-3.59,1.72-6.87,3.74-9.83,5.84-9.08,6.54-15.39,13.49-21.03,17.94-3.95,3.46-12.43,7.09-20.68,16.71l2.17-2.17c-7.2,5.95-14.39,11.9-21.58,17.85l18.18,26.66c1.59-.88,3.19-1.77,4.78-2.65l2.41-1.63c18.71-15.3,37.42-30.6,56.13-45.9,2.23-1.83,4.47-3.66,6.71-5.49-6.84-8.36-13.67-16.72-20.52-25.08-2.23,1.83-4.47,3.66-6.71,5.49-18.71,15.3-37.42,30.6-56.12,45.9l2.4-1.63c-1.59.88-3.19,1.77-4.78,2.65l18.18,26.66c7.2-5.95,14.39-11.9,21.58-17.85l2.17-2.17c1.78-2.52,7.78-5.78,15.95-12.04,8.25-6.71,14.07-13.01,19.54-16.82,1.76-1.25,3.43-2.25,5.05-3.03ZM551.73,235.66l13.99,29.23-17.26-27.16,20.52,25.08-17.26-27.16ZM641.45,240.72c4.55-9.8,9.09-19.6,13.64-29.4-2.46-1.07-5.29-2.22-10.22-1.99-2.32.16-5.32.73-8.53,2.69-3.22,1.89-6.11,5.48-7.31,8.73-2.35,6.7-.99,10.3-.4,12.8l4.54,15.26,15.34-4.27c-1.13.42-3.68.24-4.46-.16-.84-.35-.31-.19.86.69,2.33,1.3,7.41,7.41,19.24,7.96l60.86.62-52.5-30.8c-2.63-1.48-7.08-5.49-13.85-9.65-1.04-.62-2.2-1.26-3.61-1.91l-6.78,30.92h.02v-32.4h-.02l-6.78,30.92s.31.16.66.36c2.92,1.67,6.91,5.36,13.97,9.72l8.37-30.18c1.83,0,3.02.72,2.72.56-.24-.12-1.38-.95-3.18-2.28-1.84-1.3-4.41-3.28-8.76-4.93-4.27-1.72-10.71-2.11-15.43-.66l19.88,10.99c.17,1.05,1.29,3.03-.51,8.29-.93,2.54-3.31,5.51-5.87,7-2.55,1.55-4.79,1.94-6.35,2.05-3.31.13-4.52-.55-5.52-.95ZM655.08,211.32l-13.64,29.4,6.82-30.9v32.4l6.81-30.9ZM425.41,201.03v32.4h.17l1.48-.07c.91-.08,1.87-.15,2.86-.2,3.95-.22,8.5-.2,13.61-.42l6.3-.27,4.46-4.46s0-.01.01-.02l-10.72,4.73c.51-.02,1.03-.05,1.71-.1.36-.03.73-.06,1.32-.13.3-.04.65-.08,1.28-.2.34-.07.66-.12,1.41-.32.36-.1.75-.21,1.51-.49.64-.27,1.8-.6,3.98-2.15.78-.57,1.69-1.34,2.69-2.49,1.01-1.25,2-2.36,3.13-5.53,1-2.86,1.03-6.71.22-9.41-.67-2.43-1.77-4.25-2.76-5.55-.5-.64-1.02-1.21-1.42-1.61-.31-.31-.61-.58-.88-.82-.56-.48-1.06-.85-1.5-1.15-.97-.64-1.35-.82-1.81-1.06-.9-.45-1.37-.62-1.77-.77-.41-.15-.7-.24-.93-.31-.95-.28-1.3-.35-1.69-.43-.69-.14-1.07-.2-1.44-.26-.71-.11-1.24-.17-1.75-.24l-1.91-.11h-.14c-11.3-.01-22.61-.02-33.92-.04l-1.46,32.34c4.3.38,8.6.77,12.9,1.15,1.21.11,2.42.22,3.63.32.96-10.76,1.92-21.52,2.88-32.28-1.21-.11-2.42-.22-3.63-.32-4.3-.38-8.6-.77-12.9-1.15l-1.46,32.34c11.31.01,22.62.03,33.94.04h.15l-1.91-.11c.28.03.54.07.61.08.02,0,.03,0-.28-.05-.19-.04-.36-.06-1.11-.29-.19-.06-.42-.13-.79-.27-.35-.13-.78-.29-1.64-.71-.43-.23-.79-.4-1.74-1.03-.43-.29-.92-.65-1.47-1.13-.28-.24-.57-.5-.87-.81-.4-.4-.92-.96-1.4-1.6-.98-1.28-2.07-3.1-2.75-5.51-.81-2.68-.78-6.53.22-9.37,1.12-3.15,2.11-4.25,3.11-5.5.99-1.15,1.9-1.9,2.67-2.46,2.14-1.52,3.26-1.83,3.85-2.09.71-.26,1.05-.35,1.37-.44.65-.17.88-.21,1.12-.26.43-.08.58-.09.69-.11.2-.02.19-.02.14-.02-.1,0-.38.02-.66.04l-6.27.29-4.44,4.44s-.01.01-.02.02l10.75-4.73c-4.07.18-8.72.16-13.94.43-1.31.07-2.67.16-4.06.29l1.47-.07h-.17ZM425.41,233.43v-32.4l1.44.06-2.88,32.28,1.44.06ZM787.44,105.41c-7.29-7.97-14.58-15.94-21.87-23.91-5.08,4.64-10.31,9.15-15.69,13.55-34.87,28.57-75.15,52.09-113.74,80.42l-.15.11c-6.77,5.1-13.55,10.2-20.32,15.29l17.9,26.94c18.78-10.99,34.77-23.9,50.67-34.85,19.18-13.25,39.42-25.94,59.3-40.17,22.51-16.42,49.45-33.39,65.62-64.23l11.89-23.51h-34.03l-4.87,5.94c-1.49,1.82-2.98,3.64-4.48,5.47-4.57,5.58-9.14,11.15-13.7,16.73,8.35,6.84,16.71,13.69,25.06,20.53,4.57-5.58,9.14-11.15,13.71-16.73,1.5-1.82,2.99-3.64,4.48-5.46l-12.53,5.94h.02l-14.46-23.51c-10.2,20.24-32.52,36.15-55.56,52.5-18.81,13.47-38.89,26.08-58.86,39.86-17.16,11.88-32.6,24.23-48.57,33.52l17.9,26.94c6.77-5.1,13.54-10.2,20.32-15.29l-.15.11c36.71-27.03,77.51-50.77,115.07-81.45,5.78-4.73,11.48-9.63,17.04-14.72ZM765.57,81.5l21.87,23.91,1.59-1.69-25.06-20.53,1.59-1.69ZM347.92,159.53c-10.74-1.1-21.49-2.2-32.24-3.29-.14,1.36-.21,2.71-.22,4.04-.01,11.98,4.18,23.36,12.61,32.37l26.6-17.66c-2.04-4.65-4.09-9.3-6.13-13.95l-3.33-4.9c3.47,3.69,4.4,6.95,4.65,10.68l-.29-2.45c-.46-2.36-.92-4.72-1.38-7.08-.16-.83-.32-1.66-.49-2.49-10.6,2.07-21.2,4.13-31.81,6.2.16.83.33,1.66.49,2.49.46,2.36.92,4.72,1.38,7.08l-.29-2.45c.25,3.8,1.21,7.12,4.73,10.86l-3.33-4.9c2.04,4.65,4.08,9.3,6.13,13.95l26.59-17.66c-2.2-2.22-3.8-6.35-3.72-9.79,0-.36.02-.71.06-1.03ZM315.68,156.24l32.24,3.29-32.02,1.45,31.81-6.2-32.02,1.45ZM785.71,38.13c-6.35-8.74-12.7-17.48-19.05-26.21-5.61,4.08-10.9,8.4-15.96,12.8-14.13,12.33-26.47,25.21-39.12,36.36-19.15,16.89-39.01,32.92-59.63,47.83l.51-.35c-11.05,7.36-22.1,14.72-33.15,22.08l13.8,28.95c10.54-3.46,17.12-8.66,22.84-12.23,28.79-18.54,53.93-40.63,78.67-61.57l.56-.5c12.7-11.81,25.4-23.62,38.1-35.43,4.65-4.32,9.3-8.64,13.94-12.96-7.36-7.91-14.71-15.82-22.07-23.73-4.65,4.32-9.29,8.64-13.94,12.96-12.7,11.81-25.39,23.62-38.1,35.43l.56-.5c-25.01,21.2-49.14,42.26-75.28,59.06-6.37,4.19-11.65,7.59-14.92,8.53l13.8,28.95c11.05-7.36,22.09-14.72,33.14-22.08l.51-.35c21.55-15.58,42.22-32.27,62.09-49.79,13.99-12.38,26.28-25.2,38.96-36.22,4.52-3.94,9.08-7.64,13.73-11.02ZM766.65,11.92l19.05,26.21-20.56-24.97,22.07,23.73-20.56-24.97ZM816.56,18.27c-8.35,6.86-16.69,13.72-25.04,20.57,1.02,1.24,2.03,2.47,3.05,3.71,7.82,9.52,15.65,19.04,23.47,28.57l25.81-19.56c-3.85-5.51-7.69-11.02-11.53-16.53l-.99-1.28c-6.04-7.04-12.08-14.08-18.12-21.12l-26.3,18.7c.24.41.48.82.72,1.23.81,1.38,1.61,2.77,2.42,4.15,9.33-5.43,18.67-10.87,28-16.3-.81-1.38-1.61-2.77-2.42-4.15-.24-.41-.47-.82-.72-1.23l-26.29,18.7c6.04,7.04,12.08,14.08,18.12,21.12l-.99-1.28c3.84,5.51,7.69,11.02,11.53,16.53l25.8-19.56c-7.82-9.52-15.65-19.04-23.47-28.57-1.02-1.24-2.03-2.47-3.05-3.71ZM791.53,38.84l25.04-20.57,1.48,2.14-28,16.3,1.48,2.14Z"/>
  </g>
</svg>