<svg width="928" height="628" viewBox="0 0 928 628" fill="none" xmlns="http://www.w3.org/2000/svg">
<path d="M316.99 104.755C315.28 101.945 313.03 101.005 310.07 101.275C310.63 105.285 311.18 109.295 311.74 113.315C309.33 113.515 307.68 112.855 306.24 110.545L314.89 102.505C314.89 102.505 314.85 102.475 314.83 102.465L306.23 110.595C305.41 108.955 305.71 108.625 305.64 108.555C305.64 108.515 305.58 108.735 305.49 109.025C305.3 109.595 304.98 110.405 304.62 111.225C303.89 112.885 303 114.705 302.09 116.595C301.19 118.495 300.25 120.465 299.39 122.755C298.96 123.915 298.55 125.145 298.23 126.705C298.02 128.275 297.37 130.175 298.79 133.785L298.39 132.675C298.39 132.675 298.35 132.665 298.28 132.095C298.3 131.725 298.04 131.495 298.59 129.555C298.88 128.585 300.07 126.385 302.5 125.455C304.79 124.635 306.01 125.075 306.67 125.195C307.91 125.565 308.02 125.745 308.19 125.815C308.32 125.885 308.3 125.875 308.19 125.795C308.05 125.705 307.91 125.585 307.19 125.215C306.73 125.055 306.42 124.655 304.29 124.485C303.68 124.465 302.93 124.505 302.03 124.775C301.08 125.045 299.98 125.665 299.22 126.395C297.6 128.005 297.35 129.315 297.15 130.185L297.13 130.295C296.62 132.965 296.75 135.115 296.63 136.245C296.52 137.435 296.39 137.445 296.21 137.705C296.69 136.845 297.27 136.525 297 136.665C296.86 136.745 296.58 136.875 295.87 137.335C295.5 137.585 295.02 137.895 294.28 138.625C293.59 139.325 292.46 140.725 292.05 142.775C291.66 145.245 291.98 145.835 292.03 146.555C292.13 147.195 292.22 147.625 292.29 147.995C292.43 148.725 292.5 149.195 292.52 149.485C292.57 150.175 292.23 149.315 293.08 148.105L305.92 149.335C305.73 148.935 305.54 148.525 305.36 148.125L305.42 148.255C303.6 143.635 296.36 142.005 292.77 145.135L292.72 145.175C292.39 145.415 292.07 145.645 291.74 145.885L291.6 145.995C289.19 147.965 288.41 150.485 288.39 152.685V153.115C284.25 173.095 278.36 199.555 273.3 222.805C270.16 237.205 267.05 251.605 264 266.065C262.48 273.315 260.98 280.545 259.52 287.825C258.81 291.375 258.09 295.075 257.4 298.815C257.25 299.645 257.05 300.715 256.89 301.645C256.72 302.595 256.58 303.425 256.41 304.515C256.25 305.545 256.12 306.345 255.96 307.615C255.88 308.255 255.84 308.465 255.76 309.485C255.73 309.935 255.7 310.395 255.7 310.975C255.7 311.125 255.7 311.275 255.7 311.445C255.7 311.525 255.7 311.615 255.7 311.715C255.7 311.895 255.73 312.265 255.77 312.625C255.9 313.405 255.89 314.345 256.92 316.615C257.49 317.735 258.4 319.395 260.69 321.075C262.9 322.795 266.88 323.705 269.68 323.085L257.47 317.545C265.3 331.315 273.15 345.075 281.01 358.825L280.7 346.375C265.34 374.015 250.14 401.965 236.1 430.655C236.36 430.675 233.03 434.035 231.48 441.405L231.52 441.165C232.39 433.185 243.75 427.335 250.91 431.575C250.89 431.575 250.85 431.545 250.81 431.525C242.12 427.005 230.61 432.505 229.1 442.695V442.615C228.73 444.945 228.56 446.585 228.48 446.745C228.39 446.935 228.67 446.105 228.69 446.105L228.6 446.245C230.73 443.055 232.41 442.325 233.25 441.775C234.13 441.285 234.51 441.165 234.64 441.105C234.75 441.065 234.64 441.095 234.06 441.305C233.75 441.425 233.34 441.565 232.46 441.985C232 442.215 231.46 442.485 230.53 443.115C229.63 443.795 228.28 444.555 226.38 447.395L226.34 447.465C224.55 450.635 224.96 450.455 224.69 451.075C224.58 451.435 224.51 451.685 224.46 451.875C224.37 452.235 224.31 452.455 224.26 452.675C224.17 453.065 224.1 453.365 224.04 453.635C223.92 454.175 223.82 454.635 223.72 455.085C223.52 455.965 223.33 456.765 223.13 457.485C222.94 458.195 222.74 458.835 222.59 459.235C222.49 459.575 222.19 459.925 222.9 458.715L222.86 458.775C223.28 458.135 223.93 457.115 225.54 455.795C227.08 454.465 230.26 453.045 232.87 452.935C235.41 452.775 236.9 453.315 235.98 453.075C235.43 453.045 234.36 452.455 230.45 452.905C228.52 453.165 225.72 454.125 223.57 455.785C221.36 457.475 220.16 459.235 219.38 460.635C216.6 465.675 217.06 470.535 217.13 471.925C217.19 472.705 217.18 472.945 217.16 472.325C217.16 471.755 217.19 469.975 218.23 467.715L218.2 467.775C219.29 465.185 221.8 463.265 222.15 463.105C222.35 462.985 222.13 463.085 221.16 463.685C220.26 464.325 218.1 465.395 215.65 469.085L215.62 469.135C213.08 473.315 213.1 476.575 213.01 478.025C212.98 479.575 213.03 480.085 213.01 480.085C212.96 480.205 213.01 476.985 214.87 474.345C213.22 476.675 211.18 480.245 210.02 483.255C208.89 486.125 208.49 487.225 207.7 488.895C205.67 493.295 203.99 497.125 202.16 501.055C201.26 502.995 200.36 504.905 199.47 506.695C199.03 507.575 198.59 508.445 198.19 509.175C197.87 509.805 197.17 510.845 197.76 509.975L197.72 510.035C199.04 508.085 201.93 506.225 203.53 505.795C204.32 505.535 204.84 505.465 204.58 505.505C204.42 505.535 204.12 505.565 203.06 505.815C202.01 506.365 199.94 505.585 194.6 510.965L194.72 510.825C192.11 513.985 191.83 515.605 191.37 516.775C191 517.935 190.87 518.595 190.76 519.155C190.55 520.225 190.5 520.735 190.44 521.095C190.35 521.755 190.26 521.765 190.57 520.735C190.87 519.865 191.98 516.735 195.85 514.355C199.76 512.075 202.88 512.515 203.96 512.665L204.73 512.815C209.61 513.815 213.7 517.585 215.27 521.805L215.39 522.115C215.15 521.345 215.21 521.415 215.21 521.065C215.21 520.715 215.37 519.475 215.76 517.605C217.63 508.685 221.45 498.245 224.94 487.225C237.5 447.305 253.34 407.975 268.52 367.855C271.21 360.745 273.88 353.605 276.51 346.435C281.07 334.965 270.6 322.405 259.4 323.675C252.1 324.245 247.16 326.455 244.04 327.385C227.1 332.835 210.47 338.785 193.92 345.145C184.42 349.035 174.3 351.995 162.77 360.375C151.62 369.205 146.24 377.455 139.6 384.995C138.71 386.595 132.69 389.885 127.16 399.305L117.82 416.395L136.39 422.375C136.79 422.505 137.18 422.625 137.58 422.755L137.88 422.845C141.06 423.755 145.54 424.305 150.87 421.485L150.24 421.815C176 408.975 199.14 394.335 222.78 386.285C225.22 385.425 226.28 385.015 227.72 384.555C229.06 384.125 230.33 383.785 231.09 383.635C231.45 383.565 231.7 383.555 231.45 383.565C231.15 383.505 230.51 383.845 227.5 382.735C226 382.135 223.66 380.775 221.81 378.295C219.96 375.875 219.25 372.985 219.14 371.345C218.98 367.905 219.57 367.355 219.62 367.005L219.59 367.095C220.31 365.235 220.81 364.625 221.12 364.135C221.41 363.725 221.58 363.525 221.67 363.415C221.86 363.205 221.81 363.265 221.7 363.365C221.47 363.595 220.97 364.035 220.41 364.495C219.29 365.425 217.9 366.485 216.47 367.555C213.41 369.875 211 371.395 206.33 375.165C162.88 413.585 119.26 452.975 91.6097 509.675L91.6397 509.605C91.7097 509.445 91.8097 509.225 92.0397 508.815C92.3297 508.355 92.4597 507.885 93.9197 506.175C94.9197 505.345 95.3497 503.735 101.08 501.705C103.89 500.715 109.34 500.935 112.73 502.955C116.16 504.875 117.48 506.865 118.35 508.125C119.92 510.675 120.03 511.685 120.3 512.515C120.51 513.305 120.58 513.785 120.63 514.175L115.07 473.725L92.2097 507.605C90.7797 509.745 89.3397 511.895 87.9097 514.035L84.7897 518.645L85.3297 524.265C85.5597 526.395 85.9097 527.655 85.8197 527.255C85.7297 526.925 85.5497 524.735 85.9897 523.085C85.0997 527.045 81.9097 533.815 79.2197 542.205C77.6997 547.195 76.7597 551.725 75.8397 555.785L75.8797 555.605C77.4197 547.025 89.0597 541.355 97.0097 545.985C97.0097 545.985 96.9797 545.965 96.9397 545.955C86.3997 540.515 73.6997 547.705 73.1897 559.755V559.535C73.0897 562.005 72.9797 564.105 72.7997 565.995C72.7097 566.895 72.5897 567.765 72.5197 568.145C72.4997 568.305 72.4397 568.395 72.6397 567.795C72.7697 567.465 72.8897 567.005 73.6097 565.785C74.0097 565.135 74.5097 564.325 75.7697 563.055C76.9697 561.895 79.3397 559.965 83.1197 559.185L84.9997 558.925C89.0497 558.485 93.2997 560.695 94.8797 562.375C96.6497 564.115 97.2097 565.335 97.7497 566.785C98.1697 568.195 97.9397 567.545 97.9097 567.115C97.8397 566.595 97.7797 565.855 97.7297 565.075C97.6197 563.495 97.5497 561.685 97.4897 559.815C97.3297 555.915 97.4197 552.475 96.7497 546.655C93.9897 525.645 87.9997 502.985 74.8497 483.685C70.0197 476.725 65.3097 471.575 59.6197 466.205C53.3797 461.155 49.2697 455.115 34.2297 452.205C24.9597 451.575 19.9797 454.455 19.7097 454.165C19.7997 454.175 20.5497 453.955 22.4797 454.355C24.3797 454.685 27.1297 456.365 28.2497 457.795C30.4697 460.735 29.6897 460.685 29.7297 460.075C28.9997 448.875 33.1197 426.505 36.7097 409.545C53.1097 317.315 129.84 254.785 215.57 216.725L215.49 216.765C217.08 216.015 217.72 215.665 218.59 215.235C219.41 214.835 220.16 214.495 220.78 214.245C221.37 213.995 221.93 213.835 221.77 213.875C221.66 213.875 221.4 213.985 220.3 213.975C219.34 213.875 216.51 214.055 212.86 210.755L212.67 210.565C210.26 208.015 209.11 205.525 208.98 201.695L209.02 202.675C209.1 204.005 209.08 204.255 208.7 205.375C208.32 206.475 207.11 208.635 205.6 211.285C187.22 243.805 165.94 275.315 145.42 307.705C141.33 314.285 137.63 320.405 133.71 326.535C131.77 329.575 129.8 332.585 127.84 335.425C126.86 336.845 125.87 338.225 124.95 339.425C124.49 340.025 124.04 340.585 123.69 340.975C123.52 341.165 123.38 341.325 123.36 341.345C123.38 341.355 123.34 341.275 124.38 340.605C124.45 340.575 124.64 340.425 125.41 340.185C126.14 339.975 127.76 339.545 130.11 340.125C132.48 340.665 134.51 342.405 135.25 343.465C136.06 344.565 136.2 345.125 136.29 345.385C136.42 346.195 136.12 344.035 136.31 342.975C136.27 343.115 136.5 341.915 136.73 341.025C136.97 340.055 137.24 338.995 137.53 337.925C138.1 335.775 138.72 333.515 139.33 331.195C139.94 328.865 140.54 326.485 141.08 323.835C141.35 322.495 141.61 321.105 141.81 319.395C141.91 318.515 142 317.585 142 316.285C141.86 314.885 142.41 313.705 140.43 309.185L140.4 309.125C139.09 306.775 138.7 306.655 138.26 306.115C137.85 305.675 137.58 305.425 137.31 305.185C136.81 304.725 136.43 304.415 136.07 304.125C135.36 303.555 134.74 303.115 134.1 302.675C133.46 302.235 132.84 301.825 132.1 301.375C131.72 301.145 131.33 300.915 130.8 300.635C130.54 300.495 130.24 300.335 129.81 300.145C129.32 299.935 129 299.725 127.45 299.285C116.13 296.875 109.38 301.295 103.94 304.275C98.4997 307.605 94.1297 311.305 90.0097 315.135C81.8497 322.875 74.9997 330.805 68.4497 340.055C61.4897 350.255 54.8997 361.855 52.6297 376.025C53.2297 368.305 64.9597 364.185 70.3297 370.295L70.4997 370.475C64.2997 363.685 52.1497 366.995 50.2697 376.005L50.2997 375.865C46.8797 390.775 47.2497 406.815 55.3097 421.745C62.8497 437.455 84.3997 445.465 99.5897 441.845C106.88 440.235 110.3 438.475 115.25 436.285C117.59 435.185 119.91 433.995 122.38 432.475C123.62 431.695 124.89 430.865 126.35 429.665C127.77 428.235 129.61 427.655 131.8 422.185C132.34 419.855 134 416.545 131.43 410.275C130.07 407.285 127.46 405.265 126.54 404.665C126.08 404.365 125.95 404.195 126.71 404.865C127.08 405.215 127.73 405.855 128.38 407.015C129.03 408.155 129.48 409.785 129.51 411.075V411.475C129.48 412.955 129.34 413.625 128.84 414.985L128.86 414.925C129.95 411.575 134.01 407.025 137.19 398.945C137.37 398.445 137.62 397.825 137.99 396.785C138.31 395.705 139.05 394.345 139.04 390.865C139.01 389.155 138.44 386.775 137.29 384.935C136.16 383.075 134.79 381.885 133.71 381.125C131.52 379.635 130.1 379.235 128.84 378.825L128.29 378.675C126.63 378.285 124.94 378.135 122.63 378.765L122.73 378.735C108.45 382.775 94.1597 386.825 79.8797 390.865C84.1597 389.555 88.7997 392.315 90.1497 395.285C89.2097 393.605 88.6197 392.565 89.0397 393.485C89.2197 393.925 89.4297 394.995 89.3397 395.865C89.2597 396.745 89.0297 397.285 88.9297 397.495C88.1997 398.935 88.0497 398.845 88.0597 398.875C88.0797 398.845 88.2497 398.675 88.4797 398.475C88.9397 398.075 89.5997 397.555 90.3097 397.045C91.7297 396.015 93.3597 394.945 95.0297 393.905C98.3697 391.815 101.93 389.765 105.51 387.775C112.67 383.805 120.17 379.875 127.4 376.345C134.96 372.315 148.06 371.085 158.29 359.245L159.39 357.555C159.29 357.755 159.26 357.795 159.23 357.855C159.22 357.885 159.2 357.905 159.19 357.925C159.19 357.935 159.17 357.955 159.16 357.975C159.09 358.085 159.31 357.745 158.88 358.415L159.01 358.215C187.97 311.265 216.9 264.315 245.82 217.345C256.01 200.795 266.2 184.235 276.38 167.685L275.13 169.165C292.54 152.515 296.64 130.655 308.44 116.505C310.31 114.095 311.71 113.275 311.5 113.435C311.07 109.405 310.64 105.375 310.21 101.355C303.82 102.185 300.98 106.465 299.04 108.505C284.53 126.085 279.5 147.365 266.12 158.965L264.87 160.445C254.35 176.795 243.84 193.145 233.33 209.495C203.5 255.895 173.7 302.305 143.91 348.725L144.04 348.525C143.61 349.195 143.82 348.875 143.75 348.985C143.73 349.015 143.72 349.035 143.71 349.055C143.69 349.095 143.67 349.135 143.64 349.175C143.59 349.265 143.55 349.335 143.43 349.575L144.53 347.885C140.71 352.845 130.97 354.785 119.58 359.685C111.67 363.385 104.13 367.175 96.4897 371.235C92.6897 373.265 88.8897 375.365 85.0597 377.665C83.1397 378.825 81.2097 380.035 79.1997 381.435C78.1897 382.145 77.1497 382.905 76.0197 383.855C75.4397 384.345 74.8297 384.885 74.1297 385.605C73.4197 386.395 72.5497 387.165 71.4097 389.455C70.1297 391.715 69.4797 396.995 70.8797 400.145C72.0997 403.205 72.9097 404.025 72.9897 404.325C74.6797 407.965 80.0597 411.115 85.0497 409.595C99.3697 405.795 113.72 401.985 128.07 398.175L128.17 398.145C126.15 398.685 124.78 398.555 123.41 398.235L122.86 398.085C123.03 398.115 123 398.255 122.02 397.615C121.54 397.275 120.72 396.615 119.97 395.385C119.21 394.175 118.83 392.535 118.82 391.565C118.84 389.565 119.1 389.655 118.93 389.955C118.8 390.305 118.49 391.055 118.15 391.955C117.11 395.075 113.01 399.675 109.69 407.445L109.71 407.385C109.13 408.935 108.95 409.825 108.91 411.515V411.915C108.89 415.465 111.49 419.095 112.7 420.035C114.01 421.205 114.5 421.435 114.64 421.565C114.93 421.795 113.47 420.785 112.73 419.145C111.97 417.515 112.05 416.365 112.07 415.995C112.11 415.585 112.12 415.675 112.04 415.875C112.69 414.035 113.14 413.775 113.26 413.575C113.4 413.415 113.32 413.505 113.17 413.625C112.84 413.885 112.2 414.315 111.49 414.745C110.04 415.605 108.26 416.495 106.44 417.315C104.61 418.135 102.69 418.915 100.81 419.595C99.8697 419.935 98.9297 420.255 98.0497 420.515C97.2397 420.765 96.1797 421.025 96.2197 420.995C75.7197 425.645 66.3597 402.375 71.9697 381.285L71.9997 381.145C70.3297 389.045 59.7597 391.935 54.2997 385.985L54.4697 386.165C60.6197 393.165 73.9997 388.475 74.7197 379.555C76.1697 370.915 81.0497 361.815 87.1797 353.215C92.4697 345.935 99.0897 338.455 105.81 332.315C109.18 329.245 112.7 326.455 116 324.525C117.63 323.565 119.2 322.855 120.31 322.545C121.45 322.195 121.88 322.395 121.34 322.305C120.07 321.945 119.99 321.835 119.76 321.745C119.59 321.665 119.54 321.635 119.51 321.625C119.47 321.605 119.55 321.655 119.65 321.715C119.85 321.845 120.15 322.045 120.42 322.235C120.69 322.425 120.96 322.635 121.11 322.765C121.18 322.825 121.22 322.865 121.13 322.785C121.07 322.735 121 322.665 120.78 322.435C120.53 322.095 120.32 322.175 119.14 320.075L119.11 320.015C118.26 318.245 118.23 317.475 118.14 316.985C118.08 316.545 118.09 316.355 118.08 316.285C118.08 316.145 118.08 316.355 118.03 316.625C117.96 317.195 117.79 318.075 117.59 318.995C117.19 320.845 116.64 322.935 116.06 325.045C114.88 329.635 113.59 332.605 112.23 340.035C111.84 344.055 111.48 347.205 113.11 352.985C113.6 354.465 114.27 356.235 115.87 358.365C117.38 360.445 120.51 363.015 124.14 363.865C131.71 365.315 134.86 362.645 137.17 361.485C138.97 360.345 139.65 359.625 140.34 358.975C140.96 358.375 141.47 357.835 141.91 357.335C142.8 356.345 143.51 355.475 144.2 354.595C145.55 352.885 146.74 351.255 147.89 349.635C150.18 346.415 152.31 343.235 154.4 340.065C158.55 333.765 162.62 327.215 166.42 321.285C187.08 289.555 208.92 258.095 228.45 224.455C229.79 222.085 231.63 219.295 233.34 215.005C235.09 210.745 235.86 205.135 235.45 200.695L235.49 201.675C235.36 197.505 234.06 194.675 231.41 191.885L231.22 191.695C226.78 187.635 222.8 187.595 220.76 187.475C218.56 187.445 217.22 187.715 216.05 187.955C213.77 188.465 212.25 189.035 210.83 189.585C208.15 190.635 205.45 192.025 204.27 192.565L204.19 192.605C116.92 229.255 26.2797 300.885 7.97967 403.085C4.13967 423.155 -1.07033 438.325 0.269668 465.075C0.939668 468.045 1.07967 471.645 5.65967 477.405C7.94967 480.215 12.3297 482.885 16.0197 483.585C19.7297 484.375 22.3297 484.045 24.2097 483.795C27.9197 483.185 29.6597 482.525 30.8297 482.275C31.9497 481.985 32.1597 482.155 31.0697 482.075C29.6497 481.775 31.6597 482.295 33.2897 483.515C35.0597 484.705 37.0797 486.385 39.0397 488.245C42.9297 491.915 47.0697 496.675 49.6897 500.555C59.1897 514.715 63.9897 531.985 66.3397 550.675C66.5697 552.555 66.6497 556.885 66.7497 560.715C66.7997 562.705 66.8597 564.775 66.9997 567.045C67.0697 568.195 67.1597 569.395 67.3297 570.795C67.5397 572.275 67.5797 573.575 68.5897 576.745C69.6097 579.585 70.8997 582.045 73.6897 584.765C76.2797 587.415 81.9297 590.255 87.3997 589.695L89.2797 589.435C97.7197 587.155 98.9097 583.135 100.12 581.675C101.15 579.925 101.5 578.915 101.83 578.005C102.43 576.265 102.65 575.175 102.87 574.145C103.27 572.135 103.44 570.605 103.61 569.105C103.91 566.165 104.05 563.425 104.17 561.075V560.855C103.67 571.855 92.2497 578.305 82.6597 573.405C82.6597 573.405 82.6897 573.425 82.7297 573.445C91.5397 578.575 104.33 572.345 106.05 562.835L106.09 562.665C107.07 558.385 107.93 554.555 108.93 551.385C110.53 546.135 113.82 539.995 116.41 530.085C117.15 527.145 116.92 523.635 116.61 522.035C116.29 520.355 116.32 520.355 116.42 521.195L113.84 531.435C115.28 529.295 116.73 527.165 118.17 525.025L89.7497 518.455C89.8197 518.955 89.9097 519.535 90.1497 520.445C90.4397 521.385 90.5897 522.505 92.2197 525.145C93.1197 526.445 94.4797 528.485 97.9597 530.435C101.4 532.485 106.91 532.705 109.77 531.695C115.61 529.635 116.11 527.945 117.2 527.035C118.82 525.155 119.06 524.495 119.46 523.845C119.8 523.225 119.99 522.815 120.16 522.445L120.19 522.375C142.73 475.925 185.35 435.685 227.11 399.445C228.46 398.345 232.47 395.525 235.6 393.195C237.27 391.955 238.97 390.675 240.83 389.145C241.77 388.365 242.74 387.545 243.9 386.445C244.5 385.865 245.12 385.255 245.95 384.305C246.78 383.185 247.76 382.675 249.63 378.235L249.6 378.325C250.3 376.225 251.39 373.895 251.09 368.625C250.91 366.095 249.91 362.275 247.52 359.135C245.12 355.905 242.01 354.035 239.65 353.085C234.94 351.305 232.43 351.555 230.31 351.555C228.23 351.635 226.66 351.885 225.23 352.145C219.82 353.185 215.34 354.925 212.55 355.905C183.72 365.785 159.8 381.215 136.01 392.885L135.38 393.215C140.36 390.595 144.41 391.135 147.21 391.935L147.51 392.025C147.11 391.895 146.72 391.765 146.32 391.645L155.55 414.715C155.14 414.755 158.44 412.205 164.34 405.795C178.94 387.645 184.43 382.815 205.6 375.325C221.6 369.195 237.82 363.405 254.03 358.195C258.47 356.685 261.04 355.935 261.67 355.965C251.54 357.115 242.01 345.715 246.17 335.205C243.57 342.275 240.94 349.315 238.27 356.355C223.25 396.095 207.37 436.155 194.8 477.885C191.74 488.145 187.83 498.705 185.26 511.655C184.25 515.775 183.46 525.925 186.4 532.655L186.52 532.965C188.28 537.685 192.81 541.845 198.2 542.955L198.97 543.095C201.65 543.505 206.49 543.905 211.8 540.765C217.08 537.545 219.04 532.915 219.85 530.525C220.68 527.955 220.83 526.345 220.98 525.405C221.04 524.965 221.08 524.665 221.03 524.945C220.99 525.095 220.95 525.375 220.71 526.145C220.38 526.925 220.25 528.175 217.91 531.025L218.03 530.885C215.65 533.585 213.68 534.385 212.59 534.885C211.46 535.355 210.88 535.485 210.51 535.585C209.8 535.755 209.85 535.715 210.04 535.685C210.48 535.595 211.71 535.385 213.17 534.905C216.13 534.045 220.25 531.355 222.41 528.245L222.37 528.305C224.25 525.655 224.6 524.725 225.32 523.395C225.96 522.165 226.5 521.035 227.02 519.935C228.06 517.725 229.01 515.605 229.94 513.505C231.77 509.345 233.57 505.025 235.18 501.345C236.32 498.845 237.46 495.635 237.97 494.225C238.45 492.965 238.67 492.515 239.62 491.045C242.62 486.785 242.93 481.505 242.84 479.665C242.81 478.675 242.8 478.195 242.79 478.765C242.72 479.235 242.87 481.475 240.86 484.815L240.83 484.865C238.8 487.895 237.29 488.505 237.03 488.735C236.71 488.915 237.18 488.655 238.02 488.125C239.67 487.155 243.38 484.155 245.11 480.145L245.08 480.205C247.89 473.325 246.41 470.145 246.61 469.675C246.58 469.405 246.64 469.725 246.54 470.675C246.45 471.605 246.07 473.245 245.25 474.695C244.54 475.975 243.43 477.625 241.33 479.225C239.3 480.795 236.64 481.715 234.85 481.945C231.22 482.355 230.44 481.825 230.17 481.845C229.81 481.725 231.87 482.405 234.99 482.195C238.17 482.055 241.91 480.395 243.89 478.705C245.95 477.025 246.96 475.555 247.69 474.425L247.65 474.485C250.76 469.045 250.73 467.135 251.49 464.525C251.78 463.305 252.02 462.165 252.24 461.095C252.35 460.565 252.45 460.045 252.53 459.615C252.57 459.415 252.61 459.205 252.63 459.115C252.63 459.075 252.64 459.065 252.61 459.185C252.59 459.255 252.56 459.365 252.48 459.625C252.24 460.115 252.7 459.805 250.96 462.895L250.92 462.965C249.08 465.705 247.81 466.405 247 467.025C246.17 467.585 245.72 467.805 245.35 467.995C244.67 468.325 244.45 468.385 244.34 468.435C244.15 468.495 244.45 468.395 244.96 468.195C245.49 467.985 246.26 467.705 247.51 467.005C248.72 466.245 250.76 465.255 253.12 461.705L253.03 461.845C254.79 459.195 256.27 455.375 256.78 452.455C257.32 449.505 257.36 447.975 257.49 447.185V447.105C256.12 456.325 245.81 461.225 238.01 457.185C238.01 457.185 238.06 457.205 238.1 457.225C246.12 461.955 258.66 455.505 259.67 446.575L259.71 446.335C259.51 447.325 259.2 447.675 259.51 447.085C259.79 446.505 260.67 445.195 261.83 442.755C274.76 414.375 288.83 386.355 303.12 358.245L306.46 351.665L302.81 345.795C294.44 332.345 286.06 318.905 277.66 305.475L273.2 298.355L265.45 299.945C268.21 299.325 272.17 300.235 274.35 301.935C276.61 303.595 277.5 305.235 278.05 306.305C279.04 308.485 279 309.285 279.11 309.895C279.18 310.525 279.16 310.565 279.16 310.655C279.16 310.745 279.16 310.805 279.16 310.865C279.16 311.075 279.15 311.075 279.15 310.985C279.15 310.725 279.17 310.525 279.2 310.155C279.27 309.335 279.35 308.635 279.45 307.755C279.56 306.805 279.66 306.045 279.77 305.165C279.88 304.305 280.03 303.285 280.13 302.495C280.63 298.905 281.18 295.255 281.72 291.745C282.83 284.525 284 277.275 285.18 270.005C287.54 255.505 289.96 240.995 292.37 226.455C296.29 201.805 300.59 180.195 303.85 152.235V152.665C303.84 154.375 303.25 156.385 301.23 158.045L301.09 158.155C301.4 157.905 301.72 157.645 302.03 157.395L301.98 157.435C299.09 159.985 293.05 158.625 291.59 154.855L291.65 154.985C291.86 155.375 292.07 155.765 292.28 156.155L298.11 167.025L305.13 157.375C307.82 153.805 307.68 149.765 307.35 147.595C307.18 146.435 306.94 145.475 306.76 144.765C306.67 144.425 306.6 144.135 306.58 144.055C306.52 144.055 306.72 143.895 306.46 145.655C306.12 147.345 305.21 148.435 304.77 148.875C304.29 149.345 304.1 149.445 304.03 149.485C303.92 149.545 304.27 149.315 304.75 149.005C305.7 148.385 307.47 147.125 308.69 144.965C310.23 142.345 310.77 138.955 310.76 136.795C310.76 134.565 310.67 133.325 310.76 132.685L310.74 132.795C310.55 133.615 310.31 134.885 308.73 136.455C307.99 137.175 306.91 137.775 305.98 138.045C305.1 138.305 304.37 138.345 303.79 138.325C301.75 138.155 301.53 137.795 301.15 137.675C300.59 137.385 300.61 137.365 300.63 137.375C300.67 137.395 300.81 137.495 301.1 137.655C301.43 137.825 301.71 138.095 303.13 138.515C303.88 138.665 305.19 139.115 307.57 138.265C310.08 137.305 311.34 135.025 311.65 133.955C312.25 131.835 311.99 131.415 311.99 130.855C311.89 129.915 311.77 129.565 311.67 129.175L311.27 128.065C311.86 129.785 311.43 129.495 311.56 129.075C311.6 128.615 311.78 127.865 312.02 127.075C312.5 125.485 313.21 123.675 313.96 121.815C314.72 119.945 315.53 118.015 316.32 115.865C316.71 114.775 317.11 113.645 317.46 112.235C317.64 111.495 317.8 110.755 317.89 109.665C317.9 108.595 318.19 107.195 316.88 104.635L308.28 112.765C308.28 112.765 308.32 112.785 308.34 112.805M311.75 113.315L310.08 101.275L310.27 101.255L311.56 113.335L311.75 113.315ZM795.72 25.4952C791.43 25.7352 788.7 30.2052 790.41 34.1452C793.75 41.8152 797.1 49.4952 800.44 57.1652C799.79 57.5252 796.58 58.3952 793.48 57.2952C790.46 56.2052 789.76 54.9152 789.8 55.0452C789.84 55.0852 790.42 55.9152 791.22 57.2352C792.1 58.5952 792.97 60.3552 795.57 63.4052C822.61 93.9952 846.03 127.985 865.61 163.965C877.73 186.415 892.87 214.755 895.49 231.055C895.52 231.635 895.34 231.465 895.81 230.345C896.23 229.225 897.76 227.705 898.51 227.385C900.07 226.795 897.68 227.615 894.88 227.245C885.92 226.435 874.42 222.325 862.75 217.715C837.6 208.135 813.19 192.145 784.32 180.085C781.38 178.855 778.15 177.565 774.62 176.385C772.83 175.795 770.99 175.215 768.58 174.665C767.34 174.395 766.03 174.115 763.93 173.955C762.84 173.895 761.59 173.805 759.44 174.075C757.49 174.565 753.41 174.345 747.97 180.425L754.24 175.675C706.61 195.955 658.98 216.225 611.35 236.505L607.99 238.435C603.8 241.575 599.6 244.765 595.38 248.115C593.27 249.795 591.15 251.505 588.93 253.405C587.82 254.365 586.69 255.345 585.4 256.585C584.75 257.215 584.07 257.875 583.15 258.905C582.7 259.425 582.19 259.985 581.36 261.175C580.96 261.755 580.43 262.515 579.72 264.025C579.44 264.615 578.82 266.035 578.46 267.875C578.17 269.175 577.51 273.865 579.85 278.475L581.46 281.075C584.99 286.055 592.09 290.775 598.8 291.735C605.49 292.835 610.79 291.645 615.08 290.305C623.63 287.435 629.49 283.435 635.13 279.175C646.3 269.865 651.09 261.575 654.19 260.575L647.51 262.485C644.15 262.795 640.1 261.415 638.13 260.005C636.04 258.595 635.23 257.515 634.7 256.885C633.73 255.615 633.82 255.575 633.98 255.885C634.59 256.505 635.01 259.355 641.11 263.415L641.33 263.545C674.11 281.105 708.23 286.495 744.2 283.145C750.71 282.215 754.34 281.225 758.75 280.375C760.85 279.955 762.91 279.565 764.71 279.275C765.6 279.135 766.44 279.025 767.02 278.975C767.3 278.945 767.51 278.945 767.48 278.945C767.38 278.915 767.33 279.045 765.59 278.715H765.53C764.08 278.365 759.96 277.305 756.82 272.415C753.87 267.465 754.68 263.555 755 262.015C756.03 258.725 756.11 258.995 757.69 257.265C758.57 256.535 757.28 257.545 756.22 258.105C755.07 258.765 753.68 259.485 752.23 260.195C749.32 261.625 746.14 263.065 742.92 264.485C736.33 267.425 730.05 269.865 722.09 273.755C650.77 310.715 584.89 358.195 532.14 420.655C526.66 427.575 523.31 432.695 519.19 437.975C517.21 440.535 515.22 442.995 513.39 444.975C512.49 445.955 511.6 446.815 511.04 447.295C510.78 447.525 510.57 447.655 510.71 447.565C510.89 447.485 511.25 447.095 513.29 446.555C514.24 446.255 516.3 446.375 515.67 446.345C518.38 446.765 518.82 447.165 519.27 447.315C519.65 447.485 519.72 447.535 519.72 447.535C519.72 447.535 519.41 447.345 519.06 447.115C518.35 446.635 517.43 445.945 516.48 445.215C514.57 443.735 512.52 442.065 510.44 440.345C506.04 436.795 503.02 433.805 496.21 428.975C496.05 428.865 495.86 428.735 495.69 428.635C486.17 422.895 478.11 420.315 477.32 419.075L477.38 419.125C474.48 416.555 471.82 415.735 470.48 415.325C469.07 414.925 468.51 414.875 468.5 414.855C468.33 414.915 471.4 415.005 475.19 418.395C478.91 421.915 479.54 425.735 479.72 427.125C479.89 428.725 479.78 429.285 479.75 429.635L479.82 428.905C479.42 432.755 478.71 433.475 478.44 434.205C478.12 434.845 477.97 435.075 477.86 435.245C477.67 435.535 477.71 435.465 477.8 435.355C478 435.105 478.43 434.585 478.92 434.055C479.91 432.965 481.12 431.725 482.37 430.465C483.63 429.205 484.95 427.905 486.33 426.545C487.76 425.105 488.78 424.215 491.06 421.685C491.18 421.555 491.31 421.395 491.42 421.255C511.14 395.915 524.76 373.265 537.36 343.405C537.43 343.235 537.5 343.055 537.56 342.885C539.42 337.555 540.26 333.415 541.21 330.415L543.16 324.055C543.89 321.685 543.12 319.105 541.22 317.515L536.12 313.245C533.36 310.735 527.84 308.485 523.38 308.735C518.92 308.885 516.2 310.175 514.34 311.075C510.8 312.935 509.13 314.475 509.2 314.345L509.26 314.305C457.95 350.615 430.73 401.745 405.73 452.575C393.78 478.345 385.21 504.345 374.86 528.425C374.08 530.165 372.87 532.765 371.84 534.915C371.31 536.025 370.77 537.125 370.26 538.135C370.01 538.635 369.76 539.115 369.56 539.475C369.46 539.655 369.38 539.805 369.38 539.785C369.38 539.765 369.42 539.715 369.57 539.475C369.68 539.315 369.78 539.165 370.12 538.725C370.31 538.475 370.57 538.155 371 537.695C371.48 537.285 372.26 535.985 375.81 534.185C376.09 534.085 376.38 533.825 378.31 533.425C379.29 533.275 380.84 532.965 383.68 533.505C386.44 533.915 390.88 536.425 392.87 539.455C394.94 542.405 395.25 544.485 395.47 545.665C395.65 546.865 395.62 547.435 395.62 547.725C395.62 547.995 395.61 548.015 395.64 547.555C395.65 547.295 395.68 546.985 395.68 546.075C395.67 545.585 395.68 545.085 395.51 543.765C395.42 543.145 395.31 542.345 394.89 540.995C394.52 539.895 393.74 537.495 391.35 534.855L388.19 531.395C386.96 530.045 385.19 529.315 383.36 529.395L378.67 529.605C377.99 529.635 377.3 529.665 376.62 529.695L385.26 539.855C388.49 543.655 394.7 542.255 395.91 537.415C403.34 507.635 415.03 478.265 426.95 448.395C436.14 425.055 449.91 400.765 455.93 371.295L457.07 365.615L454.34 360.505C451.34 355.045 447.11 353.175 445.05 352.335C442.78 351.475 441.48 351.295 440.39 351.115C438.29 350.825 437.18 350.825 436.2 350.785C434.35 350.735 433.32 350.695 433.05 350.645C432.78 350.685 433.67 350.405 436.29 352.215C437.54 353.115 438.92 354.715 439.65 356.235C440.4 357.755 440.6 358.995 440.67 359.725C440.82 361.705 440.65 362.375 440.63 362.705C440.58 363.085 440.55 363.225 440.54 363.295C440.51 363.435 440.54 363.325 440.58 363.165C440.66 362.855 440.83 362.295 441 361.755C441.36 360.625 441.82 359.335 442.29 358.035C443.24 355.415 444.28 352.705 445.35 349.995C447.45 344.705 449.94 338.635 451.93 334.275C463.79 309.985 480.96 286.285 497.72 262.125C500.46 258.165 502.92 254.365 505.35 250.555L517.38 231.685C520.24 227.195 516.45 221.425 511.2 222.275L489.11 225.835C469.14 229.025 441.06 234.685 424.16 255.175C408.74 273.175 398.73 289.125 385.61 304.845C378.41 313.745 373.3 322.475 368.11 329.505C358.83 342.235 351.99 355.595 346.09 369.145C344.66 372.805 341.65 377.005 339.56 386.235C338.86 390.125 339.51 392.805 339.78 394.045C340.1 395.305 340.17 395.555 339.98 394.755L339.94 394.545C338.97 390.615 340.4 384.805 342.97 381.815C345.46 378.685 348.02 377.435 350.17 376.665C354.45 375.255 358.22 375.705 361.74 377.345L361.67 377.305C361.4 377.175 361.13 377.055 360.86 376.925L343.26 368.535C338.73 366.375 333.66 370.245 334.53 375.185L337.93 394.385C338.16 395.645 338.38 396.895 338.6 398.155L361.68 380.775C361.43 380.655 361.18 380.535 360.93 380.405L360.58 380.245C356.71 378.525 352.95 378.195 348.75 379.305C346.64 379.925 344.26 380.895 341.64 383.345C339.05 385.645 336.38 390.555 336.47 395.295V395.385C336.45 392.925 337.29 390.805 337.74 389.965C338.22 389.065 338.34 389.025 338.03 389.405C337.61 390.285 334.71 392.475 332.99 399.635C332.83 400.385 332.9 400.005 332.97 399.875C333.03 399.795 332.46 400.825 331.79 401.995C326.22 411.985 320.75 421.015 316.14 434.195C315.59 435.935 314.98 438.075 314.59 440.405C314.35 441.875 314.19 443.425 314.19 445.175C314.19 446.985 314.45 450.225 315.85 453.425C317.42 457.585 322.14 462.165 326.46 463.575C331.11 465.185 333.71 464.845 335.98 464.665C338.46 464.345 339.51 464.015 340.96 463.585C342.38 463.135 343.37 462.735 344.34 462.325C351.87 458.945 356.31 455.655 361.19 452.335C370.61 445.715 379.15 438.965 387.65 432.535C391.87 429.335 396.07 426.205 400.14 423.395C402.17 421.995 404.21 420.665 405.93 419.655C406.86 419.115 407.62 418.705 408.24 418.415C408.77 418.135 409.26 418.105 407.96 418.375C411.28 417.775 414 416.965 416.34 416.245C417.5 415.885 418.56 415.545 419.41 415.285C420.21 415.035 421.04 414.855 420.49 414.965C420.05 414.945 419.72 415.395 416.08 414.765C414.23 414.375 410.67 413.145 407.79 409.685C404.86 406.115 404.41 402.535 404.33 400.865C404.3 397.275 404.82 396.855 404.89 396.395C405.03 396.015 405.02 396.075 404.96 396.195C404.67 396.825 403.66 398.525 402.64 400.065C378.9 428.575 341.09 459.415 308.23 486.475C289.28 501.505 269.93 516.595 250.84 524.385C248.08 525.525 245.27 526.155 244.98 526.105C244.85 526.155 246 525.845 248.53 527.315C251.14 528.825 252.54 531.925 252.59 532.595C252.54 532.835 252.46 530.065 253.17 527.185C253.83 524.215 254.97 520.795 256.33 517.335C259.08 510.375 262.7 503.215 266.66 495.915C294.53 444.975 333.06 398.405 367.91 348.165L368.16 347.795C366.45 350.345 365.05 351.275 364.54 351.715C363.87 352.225 363.39 352.525 363.12 352.685C362.5 353.065 362.24 353.175 362.02 353.295C361.64 353.485 361.57 353.505 361.55 353.515C361.53 353.515 361.79 353.415 362.14 353.255C362.88 352.895 363.87 352.575 366.14 350.985C367.27 350.065 369.01 349.055 371.23 345.175C373.82 341.515 373.58 332.455 371.14 329.155C369.03 325.545 367.34 324.475 366.27 323.595C365.14 322.755 364.37 322.335 363.67 321.955L362.56 321.425C347.57 316.465 341.8 319.955 335 320.535C331.82 321.075 328.89 321.615 326.54 321.905C325.38 322.055 324.36 322.125 323.85 322.125C323.39 322.185 323.3 321.855 325.47 322.645C326.02 322.885 326.71 323.155 327.99 324.025C329.18 324.945 331.61 326.485 333.47 331.195C335.41 336.045 333.91 341.605 332.72 343.585C331.51 345.825 330.65 346.575 330.09 347.165C328.98 348.215 328.71 348.295 328.59 348.395C328.5 348.455 328.59 348.395 328.96 348.185C335.48 344.615 348.59 342.385 362.93 335.725C363.16 335.615 363.4 335.495 363.62 335.375C382.33 324.795 389.34 310.435 397.36 300.255C400.48 295.995 402.36 292.695 404.34 289.585C406.17 286.615 408.34 283.475 408.96 282.875L408.81 283.035C406.54 285.205 406.24 285.095 405.78 285.435C405.41 285.655 405.26 285.725 405.16 285.775C405.05 285.825 404.98 285.865 405.16 285.775C405.42 285.655 405.88 285.465 406.75 285.055C407.25 284.805 407.64 284.685 409.17 283.745C409.62 283.455 410.05 283.205 411.11 282.335C411.67 281.835 412.1 281.535 413.27 280.145C413.8 279.495 414.41 278.665 415.03 277.525C415.84 276.015 416.78 273.725 416.96 270.685C417.21 267.775 416.18 263.555 414.36 260.925C412.31 257.955 411.19 257.325 409.92 256.365C408.74 255.545 407.53 254.985 406.95 254.745C406.36 254.495 405.84 254.325 405.38 254.185C403.38 253.615 403.04 253.655 402.26 253.545C400.11 253.345 399.76 253.445 399.05 253.455C398.49 253.475 398.06 253.515 397.64 253.545L397.1 253.595C403.37 253.305 407.57 254.415 412.18 261.135L412.29 261.325C410.06 257.215 405.85 254.075 402.64 252.815C399.38 251.475 396.88 251.205 394.85 251.075C390.82 250.895 388.21 251.395 385.79 251.855C381.14 252.815 377.2 254.255 374.41 255.195C350.14 262.045 328.36 278.535 309.62 287.235C305.81 289.105 302.07 290.365 299.26 290.725C296.36 291.125 295.21 290.505 295.29 290.505C295.33 290.555 294.53 289.945 294.06 287.345C293.6 284.855 293.74 281.215 294.54 277.425C300.51 241.975 322.8 214.485 344.12 180.035L344.8 178.805C341.89 183.935 340.13 184.175 340.23 184.315L338.99 185.155C339.39 184.845 340.22 184.665 338.29 185.305C337.68 185.465 336.84 185.715 335.06 185.775C333.35 185.805 329.81 185.555 326.18 182.965C322.5 180.335 321.04 176.775 320.56 175.065C320.05 173.195 320.07 172.335 320.04 171.745C320.11 169.815 320.09 171.035 319.84 172.135C319.64 173.495 319.11 174.835 319.07 179.145C318.09 209.015 344.47 233.125 365.59 241.915C397.46 257.565 433.47 256.195 463.71 253.255L462.65 253.315C473.63 253.045 484.61 252.775 495.58 252.505L500.98 252.375C503.05 252.325 504.96 251.235 506.06 249.485L508.92 244.905C544.8 187.705 577.4 125.425 615.83 76.4552C617.85 74.2052 619.09 72.8252 620.48 71.4552C621.12 70.8152 621.77 70.2452 621.96 70.0952C622.03 70.0352 622.05 70.0752 621.28 70.5052C620.84 70.7252 620.27 71.0852 618.61 71.5452C617.26 71.8052 614.1 72.8752 609.18 70.8852C608.06 70.4352 607.15 69.5652 606.5 68.5452L599.18 56.9452C599.24 57.9852 599.31 59.0252 599.37 60.0552L604.35 47.3252C602.82 48.7852 601.3 50.2352 599.77 51.6952C597.41 53.9452 597.21 57.6352 599.31 60.1252L612.67 76.0052C614.77 78.4952 618.44 78.9352 621.06 76.9952C623.06 75.5152 625.07 74.0352 627.07 72.5452L611.47 73.4352C609.95 73.5252 608.42 73.0352 607.23 72.0952C604.97 70.2952 604.17 68.7452 603.69 68.0652C603.18 67.2352 602.91 66.6452 602.7 66.1652C602.33 65.2952 602.25 65.0152 602.14 64.6552C601.98 64.1252 601.94 63.9152 601.9 63.7852C601.84 63.5352 601.86 63.5752 601.87 63.6452C601.89 63.8052 601.95 64.1652 601.99 64.5352C602.08 65.3052 602.17 66.2252 602.25 67.1352C602.33 68.0552 602.4 68.9952 602.45 69.8852C602.48 70.3352 602.5 70.7652 602.51 71.1352C602.52 71.3152 602.53 71.4852 602.53 71.5652C602.55 71.5252 602.48 72.0552 602.59 70.5952C602.77 68.0052 604.07 65.1852 604.91 64.0252C605.77 62.7952 605.99 62.6852 605.58 63.1052C604.82 63.8552 601.66 67.7452 600.77 72.0152C600.22 74.5452 600.32 74.9452 600.24 75.7552C600.2 76.4452 600.2 76.9552 600.19 77.4152C600.18 78.3352 600.19 79.0852 600.21 79.8052C600.25 81.2252 600.3 82.4952 600.36 83.7152C600.42 84.9352 600.47 86.1052 600.51 87.1452C600.53 87.6552 600.54 88.1552 600.54 88.4752C600.54 88.6252 600.54 88.7552 600.54 88.6652C600.54 88.6052 600.54 88.5352 600.57 88.1752C600.59 88.0052 600.61 87.7652 600.69 87.2852C600.77 86.8752 600.83 86.0852 601.56 84.1652L611.7 74.6952C610.92 74.9452 610.13 75.1952 609.35 75.4452L599.38 78.6252C596.04 79.6952 594.26 83.3352 595.47 86.6252L599.07 96.4452C598.43 94.2352 598.9 95.4852 598.71 96.6052C598.61 97.8352 598.3 99.5352 597.91 100.935C583.74 142.895 563.52 184.675 548.52 234.955C548.44 235.225 548.37 235.515 548.32 235.785C547.51 240.395 547.06 244.135 546.49 247.875C545.97 251.475 545.15 255.925 544.79 256.895C545.17 255.845 545.12 256.065 545.13 256.025C545.12 256.055 545.06 256.165 545 256.295C544.87 256.555 544.69 256.885 544.52 257.205C544.34 257.525 544.16 257.845 544.02 258.065C543.96 258.175 543.9 258.265 543.91 258.245C544 258.145 543.76 258.355 544.84 257.065C546.2 255.615 546.07 255.905 546.09 255.855C546.04 255.885 545.82 256.045 545.57 256.205C545.05 256.545 544.33 256.965 543.59 257.375C542.1 258.205 540.44 259.035 538.84 259.765C537.24 260.495 535.61 261.135 534.42 261.515C533.86 261.695 533.34 261.805 533.6 261.755C533.76 261.745 534.07 261.645 535.37 261.705C536.05 261.755 537.04 261.825 538.67 262.355C539.64 262.675 541.01 263.245 542.46 264.265C544.38 265.615 545.38 267.955 545.03 270.275L541.93 290.745C543.09 289.885 544.26 289.365 546.87 286.315C547.9 284.595 551.16 282.255 550.69 273.415C550.27 269.165 547.77 265.245 545.76 263.365C543.69 261.375 542.15 260.605 540.9 259.995C536.27 258.045 534.86 258.335 533.11 258.135C531.49 258.055 530.19 258.115 528.79 258.245L542.02 263.025C543.55 264.595 544.39 266.045 544.93 267.165C545.47 268.325 545.59 268.785 545.79 269.395C546.12 270.585 546.16 271.025 546.22 271.455C546.31 272.265 546.29 272.425 546.3 272.535C546.3 272.705 546.3 272.415 546.34 272.075C546.41 271.355 546.54 270.315 546.72 269.235C547.06 267.055 547.51 264.655 547.98 262.205C548.45 259.755 548.95 257.235 549.45 254.605C549.7 253.275 549.96 251.935 550.21 250.455C550.33 249.735 550.46 248.935 550.58 248.035C550.7 247.015 550.85 246.385 550.89 243.965L550.06 239.125C549.99 238.725 549.89 238.335 549.74 237.955C549.01 236.065 548.02 233.755 545.36 230.815C542.7 227.535 535.83 224.315 530.89 224.765C521.24 225.765 519.45 228.875 516.91 230.505C512.67 234.045 510.13 237.355 508.58 239.025C487.22 266.265 464.65 286.615 459.92 332.635C459.92 332.655 459.92 332.735 459.95 333.395C459.97 333.735 459.99 334.215 460.12 335.215C460.31 336.235 460.33 337.735 461.97 341.025C463.33 344.345 469.04 348.875 472.68 349.425C476.36 350.265 478 349.895 479.26 349.785C481.63 349.425 482.36 349.095 483.17 348.855C486.58 347.615 487.32 346.975 488.56 346.295C489.69 345.625 490.59 345.045 491.5 344.445C493.24 343.285 494.81 342.165 496.33 341.065C499.36 338.855 502.23 336.655 505.07 334.455C510.7 330.075 516.26 325.545 521.54 321.265C530.88 313.725 538.68 306.005 546.36 299.735C555.58 291.545 577.64 282.015 585.81 258.915C593.79 237.105 597.05 216.185 602.73 197.645C604.3 192.405 605.85 187.385 607.49 182.465C608.31 180.025 609.15 177.615 609.99 175.425C610.4 174.345 610.83 173.295 611.18 172.545C611.34 172.185 611.51 171.865 611.5 171.885C611.48 171.915 611.45 171.985 611.15 172.425C611.01 172.625 610.77 172.955 610.31 173.485C609.91 173.905 609.04 174.955 607.03 176.215C606.37 176.595 605.43 177.195 603.29 177.685C601.26 178.215 597.25 178.185 594.09 176.575C590.93 175.015 589.45 173.045 588.71 171.985C587.97 170.865 587.77 170.295 587.63 169.975C587.41 169.375 587.54 169.655 587.68 170.325C587.76 170.685 587.86 171.145 588.06 171.935C588.16 172.335 588.29 172.825 588.51 173.555C588.81 174.385 588.92 175.185 590.38 177.715L590.42 177.785C593.38 182.865 599.14 186.015 602.78 186.835C606.58 187.795 609.24 187.675 611.49 187.535C615.91 187.145 618.92 186.235 621.78 185.335C627.4 183.465 631.97 181.305 636.55 178.915C669.21 161.005 695.23 138.325 721.43 115.935C741.17 98.6252 757.34 79.7552 774.82 66.9152C776.23 65.8652 777.76 65.0152 777.81 65.0352C777.73 64.9952 777.36 65.5052 774.34 65.4552C772.82 65.3852 770.38 64.8552 768.2 63.4252C765.99 62.0152 764.59 60.1052 763.94 58.8852C762.68 56.3352 762.97 55.9152 762.91 55.9152C762.91 55.9552 762.93 56.5152 762.87 57.1952C762.77 58.6052 762.47 60.5652 762.06 62.6152C756.9 91.4552 735.63 114.865 709.8 135.385C690.67 150.735 671.07 165.915 651.19 178.655C648.56 180.435 645.5 181.625 646.92 181.145C647.14 181.105 647.09 181.145 646.29 181.155C645.52 181.175 644.2 181.195 642.84 181.275C640.07 181.435 637.34 181.845 634.87 182.355C614.44 186.955 601.58 201.515 594.34 217.425C593.5 219.435 593.3 220.065 592.87 221.205C592.48 222.255 592.11 223.275 591.74 224.315C591.38 225.355 591.01 226.395 590.64 227.515C590.45 228.075 590.26 228.645 590.06 229.315C589.96 229.645 589.84 230.015 589.72 230.465C589.65 230.725 589.58 230.955 589.48 231.355C589.39 231.815 589.27 231.945 589.02 233.955L589 234.125C588.94 235.205 588.72 236.385 589.23 239.385C589.54 240.895 590.02 243.085 592.03 246.015C593.94 248.955 598.04 251.715 601.05 252.455C607.12 253.875 608.62 252.765 609.85 252.675C610.96 252.415 611.37 252.275 611.6 252.215L611.52 252.235C618.27 249.985 620.35 248.115 623.43 246.245C626.24 244.395 628.76 242.555 631.2 240.735C636.06 237.095 640.6 233.445 644.98 229.965C647.22 228.195 649.55 226.365 651.3 225.125C680.23 204.655 710.58 185.285 740.23 163.895C764.37 145.085 793.67 130.385 809.55 91.3052C809.67 91.0052 809.79 90.6752 809.87 90.3552C814.44 74.0752 812.83 59.1052 810.87 45.9352C810.36 42.5152 807.19 40.1652 803.78 40.7152C797.18 41.7752 790.59 42.8352 783.99 43.9052C780.67 44.4352 778.39 47.5452 778.87 50.8652C780.59 62.7152 781.2 73.3852 778.68 81.5752C772.18 100.575 745.25 120.425 721.24 137.625C692.62 158.295 662.35 177.615 632.59 198.665C629.57 200.825 627.27 202.675 624.87 204.555C620.33 208.145 616 211.625 611.75 214.805C609.64 216.385 607.53 217.905 605.61 219.175C604.66 219.805 603.73 220.375 603 220.775C602.34 221.165 601.54 221.425 602.49 221.115L602.41 221.135C602.17 221.215 602.11 221.205 602.74 221.055C603.5 221.065 604.48 220.045 610.08 221.335C612.86 222.015 616.74 224.625 618.51 227.355C620.38 230.075 620.77 232.035 621.04 233.305C621.46 235.815 621.27 236.505 621.24 237.095L621.22 237.265C621 239.045 620.94 238.895 620.91 239.125C620.87 239.265 620.87 239.275 620.87 239.255C620.88 239.225 620.93 239.085 620.97 238.925C621.07 238.605 621.2 238.195 621.35 237.775C621.63 236.935 621.94 236.035 622.26 235.125C622.58 234.225 622.91 233.315 623.24 232.425C623.52 231.645 624.03 230.325 624 230.405C627.51 222.145 635.23 215.125 641.36 214.105C642.68 213.835 643.7 213.695 644.75 213.635C645.72 213.515 647.58 213.785 652.1 213.145C661.12 211.335 664.6 208.275 668.48 206.055C690.55 191.905 710.37 176.435 730.09 160.635C757.38 139.035 786.63 108.825 793.83 68.8152C794.37 66.0352 794.87 63.1552 795.14 59.6452C795.07 55.9052 796.57 52.7152 792.4 43.4752C790.49 38.6352 781.67 32.7952 776.08 33.1152C770.62 32.9452 767.82 34.1952 765.48 35.0652C760.96 36.9852 758.38 38.8452 755.77 40.6852C733.54 57.2552 717.57 76.3952 700.15 91.4752C674.74 113.325 648.62 135.475 621.4 150.265C618.07 152.025 614.51 153.625 611.66 154.555C610.29 155.025 608.95 155.275 608.91 155.255C608.93 155.275 609.33 155.125 610.97 155.525C612.46 155.805 616.17 157.705 617.97 160.855L618.01 160.925C619.24 163.065 619.19 163.445 619.36 163.835C619.45 164.145 619.46 164.195 619.45 164.155C619.42 164.065 619.33 163.645 619.21 163.115C618.95 162.025 618.65 160.535 617.78 158.245C616.67 156.155 616.1 151.865 608.12 147.415C604.16 145.405 599.18 145.335 596.28 146.055C593.26 146.755 591.5 147.735 590.08 148.585C587.81 149.995 586.61 151.345 586.03 151.985C585.34 152.765 584.88 153.405 584.56 153.855C583.85 154.875 583.51 155.485 583.13 156.155C582.48 157.325 582.03 158.295 581.64 159.135C580.86 160.865 580.27 162.345 579.7 163.815C578.58 166.735 577.64 169.465 576.72 172.195C574.9 177.615 573.23 183.075 571.68 188.235C565.27 209.605 561.91 230.165 555.42 247.565C552.63 257.025 541.55 262.405 525.78 274.685C516.57 282.265 508.82 289.905 501.16 296.055C495.68 300.505 490.43 304.765 485.1 308.915C482.45 310.975 479.79 313.015 477.22 314.885C475.94 315.815 474.67 316.725 473.53 317.475C472.95 317.855 472.43 318.195 472.04 318.415C471.81 318.595 471.01 318.845 472.82 318.155C473.01 318.115 473.16 317.965 474.91 317.695C475.86 317.625 477.19 317.275 480.57 318.035C483.9 318.505 489.35 322.835 490.57 325.875C492.07 328.885 492.03 330.085 492.18 330.805C492.27 331.495 492.26 331.665 492.27 331.695C492.27 331.735 492.25 331.205 492.21 330.585C492.98 313.005 514.37 281.385 532.46 260.915C533.96 259.255 534.74 258.305 535.6 257.385C536.4 256.515 537.13 255.815 537.38 255.615C537.48 255.525 537.47 255.585 536.91 255.895C536.31 256.155 535.21 256.985 531.86 257.175C528.52 257.545 523.25 255.055 521.65 252.955C519.81 250.895 519.61 249.875 519.4 249.415L518.46 243.965C518.49 242.845 518.49 243.435 518.43 243.725C518.38 244.085 518.3 244.605 518.21 245.115C518.03 246.175 517.81 247.355 517.59 248.565C517.13 250.975 516.62 253.515 516.12 256.105C515.62 258.715 515.12 261.355 514.67 264.265C514.44 265.735 514.22 267.225 514.05 269.075C513.97 270.035 513.88 270.965 513.87 272.475C513.87 273.205 513.87 274.015 514.04 275.485C514.14 276.245 514.23 276.975 514.66 278.495C514.9 279.275 515.06 279.835 515.68 281.165C516.3 282.445 517.23 284.025 518.85 285.705L522.23 289.155C523.54 290.495 525.4 291.165 527.27 290.975L532.08 290.485C531.89 290.505 531.79 290.515 531.38 290.495C531.16 290.485 530.87 290.465 530.32 290.365C529.74 290.235 528.98 290.165 527.11 289.335C526.14 288.855 524.85 288.235 523 286.465C521.21 284.805 518.87 281.155 518.48 277.205C518.08 268.975 520.99 267.195 521.64 265.935C523.48 263.825 523.67 264.025 523.83 263.835L514.74 269.945C511.74 271.965 511.11 276.125 513.38 278.935L520.25 287.455C526.48 294.315 531.28 293.655 533.41 294.045C535.8 294.165 537.26 293.955 538.51 293.775C540.96 293.385 542.6 292.895 544.17 292.405C547.25 291.425 549.73 290.385 552.19 289.275C554.63 288.165 556.97 286.995 559.36 285.655C560.57 284.975 561.78 284.265 563.13 283.405C563.79 282.975 564.52 282.495 565.36 281.865C566.29 281.125 567 280.755 569.11 278.485C570.54 276.785 570.6 276.535 570.98 275.995C571.29 275.525 571.52 275.155 571.73 274.805C572.15 274.105 572.5 273.495 572.85 272.865C573.19 272.235 573.52 271.625 573.88 270.915C574.06 270.565 574.24 270.195 574.46 269.725C574.69 269.195 574.87 268.915 575.43 267.355C578.8 255.575 578.86 248.555 580.15 241.655C580.2 241.385 580.27 241.125 580.35 240.865C592.52 201.005 613.04 156.895 629.04 109.715C629.12 109.475 629.19 109.215 629.24 108.975C630.56 102.415 632.9 97.9352 629.46 85.2952L619.17 106.305C619.95 106.055 620.74 105.805 621.52 105.555L626.05 104.105C627.81 103.545 629.23 102.215 629.91 100.495L631.66 96.0752C632.43 94.0452 632.53 93.0652 632.63 92.5352C632.73 91.9052 632.77 91.5152 632.8 91.2052C632.86 90.5252 632.87 90.1852 632.89 89.8052C632.91 89.1352 632.91 88.6352 632.91 88.2052C632.9 87.3352 632.88 86.6252 632.85 85.9452C632.79 84.5952 632.73 83.3752 632.68 82.2052C632.62 81.0452 632.58 79.9152 632.55 78.9452C632.54 78.4652 632.53 78.0152 632.54 77.7452C632.54 77.6152 632.54 77.5252 632.54 77.6052C632.5 77.8052 632.64 77.6252 632.21 79.6152C631.65 82.3952 629.4 85.0752 629.62 84.7552C629.7 84.6352 630.43 83.9852 631.69 82.1552C632.95 80.3952 634.54 76.8752 634.78 73.5752C634.92 71.5852 634.85 71.5752 634.86 71.0152C634.86 70.5552 634.84 70.2052 634.83 69.8552C634.8 69.1652 634.77 68.5452 634.74 67.9352C634.66 66.7152 634.58 65.5452 634.48 64.3452C634.38 63.1452 634.26 61.9552 634.1 60.6252C634.02 59.9552 633.93 59.2652 633.78 58.3752C633.7 57.9052 633.63 57.4452 633.45 56.6652C633.37 56.2952 633.25 55.7952 633.02 55.0352C632.86 54.5352 632.74 54.1452 632.32 53.1552C632.08 52.6152 631.77 51.9552 631.24 51.0852C630.6 50.1752 629.44 47.8552 625.45 45.4552L619.76 42.1752C617.63 40.9552 614.99 41.1052 613.01 42.5552C611.75 53.2252 611.09 58.8552 609.83 69.5252L613.65 74.0752C617.26 74.2752 619.02 74.3652 622.63 74.5652L630.02 67.5052C631.34 66.2452 632.03 64.4752 631.92 62.6552L631.63 57.9952C631.56 56.9552 631.5 55.9152 631.44 54.8852L631.1 49.4052C630.97 47.3052 629.78 45.4152 627.94 44.3952L623.14 41.7252C616.67 38.3852 612.25 39.7552 610.16 40.1952C607.88 40.8252 606.73 41.4552 605.73 41.9852C603.84 43.0352 602.83 43.8252 601.88 44.5452C600.06 45.9852 598.84 47.1552 597.66 48.3152C595.49 50.4552 593.38 52.8152 592 54.3652C591.9 54.4752 591.81 54.5852 591.72 54.7052C546.81 111.975 517.32 170.745 481.39 227.655L494.72 220.055C483.74 220.325 472.77 220.595 461.79 220.865L460.73 220.925C430.82 223.845 403.06 224.195 379.46 212.595C361.86 204.255 351.36 193.685 351.42 178.455C351.36 180.335 351.36 179.225 351.62 178.155C351.81 176.815 352.34 175.595 352.4 171.185C352.36 169.965 352.33 168.495 351.65 166.025C351 163.725 349.23 159.585 345.04 156.595C340.9 153.635 336.72 153.275 334.39 153.315C332 153.385 330.57 153.755 329.33 154.095C325.08 155.435 323.66 156.525 321.97 157.495L320.73 158.335C320.69 158.595 318.77 158.935 315.77 164.235L316.46 163.005C297.58 193.815 269.79 228.745 262.76 270.765C260.5 283.335 258.4 302.375 276.13 316.605C276.43 316.845 276.77 317.085 277.1 317.275C296.38 328.925 312.6 321.195 323.75 316.315C347.41 304.945 363.29 291.905 384.64 285.875C388.1 284.675 390.41 283.915 392.22 283.555C393.03 283.365 393.71 283.395 392.98 283.385C392.59 283.345 391.75 283.345 390.01 282.645C388.32 282.015 385.47 279.945 384.04 277.295L384.15 277.485C389.09 284.725 393.93 286.115 400.8 285.755L400.26 285.805C400.36 285.805 400.41 285.795 400.33 285.805C400.15 285.795 400.26 285.875 398.61 285.725C397.98 285.635 397.72 285.685 395.86 285.155C395.43 285.025 394.94 284.855 394.37 284.615C393.81 284.385 392.64 283.835 391.48 283.035C390.23 282.095 389.13 281.475 387.1 278.535C385.3 275.935 384.27 271.745 384.52 268.865C384.69 265.855 385.63 263.585 386.42 262.115C387.03 260.995 387.62 260.195 388.13 259.565C389.26 258.235 389.65 257.955 390.17 257.505C391.12 256.725 391.46 256.535 391.8 256.315C392.91 255.635 392.85 255.735 392.9 255.695C392.87 255.715 392.43 255.905 391.79 256.195C391.46 256.345 391.07 256.515 390.46 256.825C390.14 256.985 389.77 257.175 389.19 257.525C388.86 257.725 388.57 257.895 388.01 258.285C387.51 258.645 386.76 259.155 385.57 260.355L385.42 260.515C377.37 269.795 374.73 276.455 371.35 280.815C362.78 292.765 354.84 303.665 348.7 306.565C340.75 310.645 328.82 312.115 313.2 319.815C312.12 320.505 310.79 320.855 307.39 323.955C306.5 324.865 305.33 325.965 303.9 328.625C302.49 331.015 300.9 337.075 303 342.365C305.03 347.515 307.82 349.395 309.39 350.575C311.05 351.715 312.15 352.185 313.11 352.595C322.82 355.825 326.3 354.275 330.29 354.045C330.41 354.045 330.54 354.025 330.66 354.015C334.38 353.535 337.49 352.945 340.37 352.455C343.27 351.955 345.94 351.555 347.97 351.425C349.92 351.185 351.53 351.785 349.57 351.125L348.46 350.595C348.1 350.395 347.64 350.155 346.8 349.545C346.02 348.885 344.62 348.085 342.69 344.795C340.44 341.825 340.21 333.175 342.61 329.845C344.65 326.295 346.1 325.535 346.93 324.835C348.59 323.675 348.9 323.685 348.97 323.625C348.97 323.625 348.89 323.655 348.53 323.815C348.34 323.895 348.09 324.005 347.55 324.265C347.25 324.415 346.92 324.575 346.21 325.005C345.9 325.195 345.38 325.515 344.68 326.055C344.13 326.515 342.69 327.495 340.96 330.075L341.21 329.705C307.38 378.605 268.32 425.435 238.07 480.515C230.61 497.145 218.46 508.945 220.95 539.575C220.98 539.975 221.03 540.365 221.13 540.745C222.22 545.155 225.64 551.465 231.35 554.845C237.19 558.375 242.37 558.565 246.07 558.475C253.53 558.065 258.18 556.195 262.62 554.535C289.16 543.455 308.71 527.145 328.28 511.855C363.51 482.315 396.47 457.795 429.41 418.115C429.58 417.905 429.75 417.685 429.89 417.455C431.2 415.425 432.51 413.405 434.06 410.255C434.47 409.395 434.9 408.475 435.41 407.005C435.82 405.545 436.67 404.005 436.6 399.315C436.49 397.125 435.91 392.975 432.62 388.975C429.39 385.085 425.31 383.625 422.91 383.105C418.17 382.245 416.75 382.825 415.22 382.975C410.17 383.945 408.73 384.715 406.64 385.295C404.76 385.885 403.23 386.285 402.21 386.465C394.69 388.175 392.8 389.935 389.48 391.665C386.67 393.315 384.11 395.005 381.67 396.685C376.82 400.035 372.38 403.365 367.99 406.685C359.24 413.305 350.76 419.975 342.51 425.765C338.54 428.565 333.96 431.475 331.56 432.485C331.15 432.695 330.62 432.695 332.19 432.445C333.08 432.405 334.43 432.075 337.73 433.205C340.82 434.165 344.53 437.815 345.53 440.625C346.46 442.815 346.49 444.425 346.5 444.955C346.5 445.515 346.46 445.715 346.46 445.665C346.46 445.595 346.63 444.865 346.89 444.075C349.3 436.925 354.68 427.055 359.8 418.095C360.43 416.965 361.23 415.735 362.38 413.255C363.56 410.735 364.32 407.795 364.67 405.965C364.23 408.105 363.48 409.235 363.28 409.575C363.05 409.915 363.23 409.635 363.79 408.915C364.6 407.585 368.57 403.645 368.77 395.365V395.455C368.86 399.965 366.3 404.655 363.89 406.785C361.44 409.075 359.27 409.935 357.38 410.495C353.64 411.485 350.37 411.195 346.92 409.665L346.57 409.505C346.82 409.625 347.07 409.745 347.32 409.875L365.06 418.555C369.59 420.775 374.73 416.905 373.85 411.935L372.17 402.455C366.24 400.135 364.57 399.485 358.64 397.175L346.81 406.185C347.08 406.315 347.35 406.435 347.62 406.565L347.54 406.525C351.52 408.395 355.83 408.875 360.6 407.305C362.98 406.455 365.76 405.055 368.42 401.735C371.15 398.545 372.64 392.465 371.63 388.295L371.59 388.085C371.25 386.565 371.09 386.105 371.24 386.655C371.33 387.175 371.88 389.105 371.32 392.265C371.27 392.325 371.81 390.635 372.62 388.865C373.44 387.005 374.5 384.895 375.76 382.005C380.95 370.035 386.99 358.485 394.16 348.685C400.57 339.885 405.47 331.645 410.66 325.305C424.12 309.135 436.53 290.285 448.07 276.975C456.65 266.535 469.17 262.525 485.03 259.475C489.35 258.645 491.48 253.715 489.06 250.035L483.13 241.005C480.72 237.335 475.32 237.285 472.87 240.945C472.25 241.865 471.64 242.765 471.03 243.645C454.38 267.745 436.64 291.755 422.6 320.315C419.58 326.945 417.51 332.145 415.13 338.085C413.98 341.005 412.85 343.925 411.73 347.015C411.17 348.565 410.62 350.125 410.06 351.875C409.79 352.725 409.49 353.695 409.19 354.795C409.02 355.425 408.88 355.965 408.69 356.895C408.61 357.315 408.5 357.845 408.4 358.605C408.33 359.255 408.14 360.405 408.31 362.645C408.48 367.065 411.5 374.565 416.87 378.245C422.02 381.925 426.07 382.385 428.87 382.825C431.71 383.175 433.8 383.155 435.07 383.205C435.66 383.215 436.11 383.275 435.56 383.205C435.24 383.145 434.7 383.125 433.17 382.545C431.94 382.025 428.88 380.785 426.35 376.915C425.88 376.205 425.61 375.355 425.48 374.505L424.07 364.985C419.59 387.815 407.18 410.585 396.77 436.435C383.33 470.215 369.28 505.035 361.41 542.605L358.77 555.255C357.95 559.195 361.06 562.865 365.08 562.685L377.99 562.105C378.67 562.075 377.35 554.465 378.04 554.435L367.37 556.765C365.02 554.165 364.27 551.845 363.92 550.795C363.52 549.515 363.42 548.775 363.34 548.225C363.19 547.045 363.21 546.675 363.2 546.325C363.2 545.695 363.22 545.645 363.21 545.655C363.21 545.735 363.16 546.295 363.14 547.105C363.39 548.775 356.18 553.975 360.57 560.985C362.88 564.455 373.77 564.765 377.06 565.275C380.43 565.925 382.54 565.575 384.04 565.335C387.04 564.735 388.33 564.065 389.59 563.505C393.19 561.675 394.07 560.315 394.59 559.845C395.06 559.335 395.37 558.955 395.63 558.625C396.07 558.055 396.24 557.785 396.46 557.475C396.78 556.985 397 556.625 397.17 556.345C397.52 555.765 397.74 555.355 397.96 554.935C398.38 554.145 398.73 553.465 399.07 552.795C399.74 551.465 400.35 550.215 400.95 548.965C402.17 546.415 403.2 544.235 404.51 541.275C415.58 515.415 424.08 489.745 435.01 466.255C457.81 418.745 486.77 369.145 526.68 341.585L526.74 341.545C528.11 340.645 528.67 340.195 529.03 339.945C529.36 339.705 529.41 339.715 528.85 340.015C528.28 340.265 526.96 341.045 523.95 341.155C522.04 341.285 519.7 340.655 517.82 339.765C516.23 339.025 515.06 337.615 514.57 335.935L510.13 320.935C508.66 325.815 507.79 329.735 506.91 332.115C497.7 354.505 481.8 381.185 466.57 400.385C466.67 400.275 465.96 401.035 465.41 401.575C464.82 402.175 464.16 402.815 463.5 403.475C462.16 404.795 460.76 406.175 459.32 407.605C457.88 409.055 456.42 410.535 454.83 412.275C454.03 413.155 453.21 414.075 452.23 415.325C451.74 415.945 451.19 416.675 450.5 417.745C450.12 418.335 449.73 418.955 449.2 420.035C448.74 421.185 447.83 422.375 447.39 426.675L447.46 425.945C447.34 427.165 447.17 428.605 447.46 431.075C447.74 433.315 448.65 438.025 453.02 442.145C457.46 446.135 461.41 446.445 462.09 446.675C462.51 446.745 462.38 446.765 461.39 446.485C460.46 446.195 458.22 445.545 455.65 443.265L455.71 443.315C466.99 452.295 474.72 453.295 478.26 456.025C480.33 457.455 485.55 461.905 489.7 465.335C491.91 467.155 494.15 468.995 496.64 470.925C497.9 471.895 499.19 472.865 500.78 473.945C501.58 474.485 502.46 475.065 503.64 475.745C504.26 476.095 504.95 476.475 505.95 476.925C507.03 477.355 508.16 478.025 511.54 478.525C513.15 478.795 517.53 478.975 520.71 478.115C527.83 476.055 529.57 473.785 531.92 472.045C534.04 470.245 535.63 468.605 537.11 467.005C540.05 463.815 542.46 460.785 544.78 457.785C549.29 451.975 553.79 445.395 557.04 441.335C605.46 383.815 669.16 337.555 736.71 302.665C741.85 300.125 749.18 297.145 755.91 294.165C759.35 292.645 762.84 291.075 766.48 289.285C768.31 288.385 770.16 287.435 772.18 286.285C774.28 285.025 776.17 284.145 779.74 280.965C783.18 277.425 784.76 275.395 786.44 269.555C787.07 266.745 787.91 261.415 784.25 255.335C780.41 249.305 774.99 247.655 772.26 247.055H772.2C769.35 246.495 768.18 246.585 766.95 246.575C765.77 246.595 764.88 246.655 764.03 246.735C762.35 246.885 760.96 247.085 759.63 247.295C756.99 247.715 754.6 248.175 752.28 248.645C747.85 249.535 742.68 250.685 740.28 251.005C712.81 253.915 680.84 248.465 657.39 235.475L657.61 235.605C660.09 237.115 661.09 238.525 661.59 239.175C662.08 239.855 662.14 240.015 661.98 239.725C661.76 239.405 661.49 238.715 660.07 236.855C659.31 235.935 658.24 234.575 655.85 232.965C653.72 231.465 649.75 230.065 646.2 230.145C645.67 230.155 645.16 230.265 644.65 230.405L639.58 231.855C639.01 232.015 638.45 232.265 637.94 232.565C624.12 240.985 619.52 250.985 615.2 253.595C611.67 256.365 607.59 258.725 605.1 259.485C603.9 259.905 603.31 259.725 604.26 259.845C605.22 259.885 607.12 261.225 607.2 261.535L608.81 264.135C611.08 268.625 610.42 273.095 610.16 274.275C609.82 275.985 609.27 277.195 609.05 277.675C608.47 278.905 608.12 279.375 607.9 279.705C607.44 280.355 607.36 280.415 607.32 280.465C607.25 280.535 607.5 280.275 607.77 280.015C608.34 279.465 609.14 278.745 609.98 278.035C611.67 276.585 613.56 275.055 615.46 273.535C619.3 270.495 623.31 267.435 627.33 264.425L623.97 266.355C671.37 246.175 718.77 226.005 766.17 205.825C766.64 205.625 767.07 205.375 767.48 205.065L773.14 200.775C768.2 206.255 764.95 205.825 763.73 206.205C762.34 206.375 761.86 206.305 761.55 206.295C760.99 206.245 761.2 206.245 761.47 206.315C762.08 206.445 763.19 206.765 764.32 207.145C766.64 207.925 769.17 208.915 771.85 210.035C796.91 220.335 821.69 236.605 851.06 247.985C863.01 252.535 875.66 257.855 892.14 259.555C897.92 259.835 904.58 260.545 913.89 255.885C918.45 253.545 923.14 248.725 925.3 243.655C927.43 238.835 927.85 234.515 927.83 230.825C927.83 230.435 927.79 230.045 927.72 229.665C921.27 192.665 906.59 173.745 894.02 148.505C873.31 110.455 848.61 74.5652 819.79 41.9652C820.32 42.6352 819.56 41.6352 818.77 40.2852C817.9 38.8952 816.81 37.0052 814.85 34.5752C812.89 32.2552 809.77 28.6952 803.71 26.5852C801.01 25.6352 798.24 25.3752 795.67 25.5252L795.72 25.4952ZM806.28 66.2452L793.33 36.5352L781.81 41.5552L783.81 53.9652L815.8 48.8152L806.28 66.2452ZM188.42 407.185C184.03 397.315 179.65 387.445 175.26 377.575C173.07 378.545 170.9 379.545 168.75 380.565C159.8 384.805 151.14 389.425 142.66 394.335C136.21 398.255 132.77 401.555 130.55 402.775C128.17 404.615 120.83 405.725 111.54 414.455L69.7497 457.635L127.58 441.315C143.06 436.655 152.09 427.595 159.21 423.795C166.33 419.675 175.32 415.875 184.87 409.955C187.13 408.535 189.42 406.985 191.68 405.255C185.12 396.675 178.55 388.095 171.99 379.515C170.67 380.525 169.23 381.515 167.66 382.495C161.07 386.665 152.49 390.355 143.1 395.685C131.61 402.615 124.32 408.825 118.78 410.135L134.82 436.995C134.48 437.265 135.67 436.305 137.85 435.275C140.05 434.165 143.05 433.005 147.19 430.575C153.3 426.785 157 423.365 158.92 422.355C166.68 417.855 174.6 413.635 182.61 409.845C184.53 408.935 186.47 408.045 188.4 407.185H188.42ZM175.26 377.575L188.42 407.185L172 379.515L191.69 405.255L175.27 377.585L175.26 377.575ZM557.01 412.165C549.5 404.405 541.98 396.645 534.47 388.875C533.91 389.425 533.34 389.965 532.78 390.515C528.78 394.385 524.79 398.245 520.79 402.115L540.24 427.735C541.55 426.965 542.87 426.195 544.18 425.425L547.26 423.085C551.82 418.675 556.38 414.255 560.94 409.845L541.48 384.225C540.85 384.595 540.21 384.965 539.58 385.335C538.9 385.735 538.22 386.135 537.54 386.525C543 395.845 548.45 405.165 553.91 414.485C554.59 414.085 555.27 413.685 555.95 413.295C556.58 412.925 557.21 412.555 557.85 412.185L538.4 386.565C533.84 390.975 529.28 395.395 524.72 399.805L527.8 397.465C526.49 398.235 525.17 399.005 523.86 399.775L543.31 425.405C547.31 421.535 551.3 417.675 555.3 413.805C555.87 413.255 556.43 412.715 557 412.165H557.01ZM534.48 388.885L557.02 412.175L553.94 414.515L537.57 386.555L534.49 388.895L534.48 388.885ZM689.09 293.935C692.52 283.695 695.95 273.445 699.38 263.205C684.58 258.445 671.35 261.165 660.43 264.285C653.91 266.225 647.9 268.615 642.25 271.045C613 283.555 591.41 305.745 572.85 326.445C562.66 338.035 555.23 349.645 547.74 356.645C546.79 357.555 546.4 357.805 546.74 357.565C546.96 357.435 547.4 357.105 548.68 356.655C549.89 356.245 552.43 355.615 555.72 356.405L568.11 372.155V359.425L555.78 356.385C559.57 357.425 560.72 358.695 561.57 359.365C562.36 360.085 562.68 360.515 562.93 360.825C563.38 361.445 563.45 361.635 563.56 361.885C563.66 362.135 563.77 362.365 563.92 363.155C563.92 364.015 564.68 365.215 562.99 369.755L563.92 366.865C567.66 349.745 572.96 332.025 576.63 312.955C576.96 311.295 577.57 308.545 578.06 306.165C578.31 304.925 578.57 303.675 578.82 302.295C578.95 301.605 579.08 300.895 579.21 300.025C579.27 299.605 579.34 299.105 579.41 298.465C579.45 298.105 579.49 297.775 579.52 297.155C579.54 296.875 579.56 296.505 579.55 295.945C579.54 295.475 579.57 294.605 579.27 292.895C579.04 291.705 578.71 290.115 577.61 287.875C576.58 285.675 574.28 282.935 572.27 281.545C568.11 278.815 567.92 279.265 568.2 279.275L560.52 275.715L553.21 279.985C550.82 281.515 547.34 283.045 542.92 288.145C538.63 293.515 537.71 297.845 536.79 300.555C532.23 316.465 531.35 330.285 528.52 342.045C523.83 361.945 518.18 381.885 512.63 402.125L512.06 406.965C512.24 408.865 512.04 411.655 515.09 416.545C516.66 418.975 519.55 421.495 522.53 422.735C525.5 424.005 528.04 424.185 529.86 424.155C536.7 423.595 537.69 422.135 539.49 421.375C541.02 420.515 542.07 419.785 543.02 419.105C543.85 418.505 545.05 417.565 544.95 417.645C556.37 408.995 564.35 399.915 572.3 393.245C597.15 372.225 622.86 352.315 649.61 334.055C659.52 327.575 671.97 320.425 683.52 312.755C686.89 310.525 690.25 308.235 693.74 305.615C695.47 304.315 697.28 302.905 699.19 301.225C701.16 299.345 703.05 298.155 706.31 293.085L706.37 292.975C707.56 290.865 708.16 289.555 708.97 287.415C709.36 286.345 709.76 285.175 710.14 283.295C710.32 282.335 710.52 281.195 710.53 279.395C710.45 277.615 710.61 274.935 708.2 270.495C698.84 275.875 689.47 281.255 680.1 286.635C677.97 282.675 678.2 280.575 678.12 279.355C678.13 278.115 678.25 277.535 678.32 277.125C678.49 276.335 678.55 276.245 678.55 276.225C678.59 276.175 678.24 276.905 678.32 276.725L678.38 276.615C679.08 275.495 679.04 275.705 678.85 275.875C678.65 276.095 678.24 276.485 677.77 276.885C676.82 277.725 675.55 278.725 674.25 279.705C671.6 281.695 668.65 283.715 665.61 285.725C654.79 292.915 643.85 299.095 631.29 307.295C603.48 326.275 576.89 346.875 551.31 368.515C541.17 377.215 533.24 385.955 525.62 391.605C524.35 392.565 524.36 392.575 523.98 392.855C523.7 393.065 523.49 393.175 523.7 393.055C523.83 392.995 524.05 392.855 524.67 392.615C525.34 392.395 526.23 391.905 529.1 391.775C530.54 391.755 532.7 391.885 535.32 393.005C537.95 394.085 540.55 396.365 541.91 398.475C544.55 402.735 544.23 404.745 544.38 405.885L543.82 410.725C549.32 390.655 555.08 370.345 559.99 349.525C563.45 334.465 564.57 320.565 567.74 309.965C568.03 309.015 568.3 308.235 568.4 307.995C568.52 307.715 568.31 308.255 567.84 308.815C566.65 310.035 567.61 309.015 569.5 307.985L554.51 308.705C555.65 309.115 556.36 309.855 552.98 307.665C551.36 306.545 549.37 304.175 548.54 302.395C547.65 300.585 547.45 299.445 547.3 298.725C547.02 297.125 547.06 296.445 547.05 296.105C547.05 295.705 547.06 295.495 547.07 295.345C547.09 295.035 547.1 294.975 547.1 294.935C547.11 294.875 547.1 295.005 547.07 295.155C547.02 295.475 546.94 295.945 546.85 296.425C546.67 297.415 546.45 298.505 546.22 299.605C545.75 301.915 545.3 303.845 544.69 306.885C541.46 323.805 536.27 341.255 532.16 359.925L533.09 357.035C530.75 363.155 531.59 366.135 531.88 368.655C532.32 371.125 532.96 372.975 533.73 374.785C534.53 376.595 535.42 378.275 536.89 380.255C537.65 381.245 538.52 382.325 539.96 383.605C541.44 384.825 543.32 386.605 547.93 387.855L535.6 372.125V384.915L547.99 387.915C557.7 389.735 561.91 386.015 564.49 384.625C567.08 382.905 568.68 381.325 569.69 380.395C581.92 368.575 588.99 356.805 596.88 348.075C614.76 327.995 633.14 310.045 654.92 300.825C660 298.645 664.86 296.735 669.54 295.355C677.44 292.945 684.79 292.415 688.99 293.935H689.09ZM699.38 263.205L689.09 293.935L680.18 286.635L708.28 270.495L705.21 265.155L699.37 263.195L699.38 263.205ZM231.4 387.345C231.4 376.545 231.4 365.745 231.4 354.945C229.28 354.945 227.22 355.145 225.3 355.475C212.93 358.055 206.68 362.925 203.67 363.275L202.29 363.675C200.41 364.375 200.85 364.255 200.29 364.505L207.37 362.875H203.05L199.31 365.005C196.88 366.395 194.44 367.785 192.01 369.175L205.89 398.355C215.29 394.725 224.69 391.095 234.08 387.465C235.13 387.055 236.18 386.655 237.23 386.245C233.34 376.165 229.44 366.095 225.55 356.015C224.5 356.425 223.45 356.825 222.4 357.235C213 360.865 203.6 364.495 194.21 368.125L208.09 397.305C210.52 395.915 212.96 394.525 215.39 393.135L207.35 395.265H207.37L214.45 393.635C214 393.825 214.55 393.655 212.79 394.315L211.41 394.715C222.62 391.535 228.62 387.365 230.77 387.385C231.07 387.335 231.26 387.325 231.39 387.325L231.4 387.345ZM231.4 354.935V387.335L225.56 356.015L237.24 386.245L231.4 354.925V354.935ZM154.73 376.465C152.33 365.935 149.94 355.395 147.54 344.865C146.27 345.155 145.07 345.475 143.93 345.825C137.2 347.885 131.89 350.515 127.18 352.715L127.12 352.745C126.08 353.245 124.58 353.945 122.89 354.915C122.02 355.415 121.08 355.985 119.87 356.865C118.64 357.875 117.18 358.605 114.59 362.385L89.5697 401.475L133.48 386.445C139.36 384.435 145.24 382.425 151.12 380.405L145.87 381.275C148.59 381.205 149.2 380.905 149.94 380.755C150.59 380.585 150.98 380.455 151.31 380.335C152 380.085 152.15 380.025 152.89 379.685L153.55 379.355C155.3 378.435 157.04 377.515 158.79 376.585C158.93 376.515 159.06 376.445 159.2 376.375C162.21 374.885 165.72 371.445 167.19 367.285C168.71 363.145 168.49 359.045 167.21 355.545C165.93 352.045 163.39 348.695 159.49 346.525C155.61 344.305 150.79 344.055 147.62 344.825C149.96 355.365 152.31 365.915 154.65 376.455C151.83 377.155 147.4 376.925 143.83 374.885C140.24 372.895 137.95 369.845 136.79 366.685C135.64 363.515 135.42 359.805 136.82 356.005C138.16 352.185 141.4 349.035 144.12 347.685C143.96 347.775 143.82 347.845 143.68 347.915C141.93 348.835 140.19 349.755 138.44 350.685L139.1 350.355C139.81 350.035 139.92 349.985 140.57 349.755C140.88 349.645 141.24 349.525 141.88 349.355C142.6 349.215 143.19 348.915 145.89 348.845L140.64 349.715C134.76 351.725 128.88 353.735 123 355.755L141.89 379.815C139.94 382.615 139.4 382.585 139.1 382.905C138.83 383.105 138.88 383.045 139.03 382.965C139.37 382.765 139.98 382.455 141.05 381.955L140.99 381.985C145.75 379.725 149.93 377.805 153.24 376.815C153.78 376.655 154.28 376.515 154.72 376.415L154.73 376.465ZM147.54 344.875L154.73 376.475L154.65 376.495L147.62 344.865L147.54 344.885V344.875ZM211.81 356.305C207.03 346.625 202.24 336.935 197.46 327.255C198.59 326.725 198.36 326.835 199.31 326.485L197.62 327.175C196.48 327.715 195.33 328.255 194.19 328.795C192.49 329.605 190.79 330.405 189.08 331.205L200.01 361.555C211.78 358.555 223.23 354.735 234.4 350.235L228.34 351.415H228.36L234.42 350.235C233.56 350.565 234.1 350.355 234.59 350.205C235.14 350.025 235.92 349.765 237.01 349.315C238.11 348.825 239.49 348.295 241.79 346.545C242.93 345.645 244.38 344.375 245.87 342.095C247.36 339.875 248.64 336.305 248.63 332.945L248.93 310.315L227.41 317.325C219.38 319.945 211.35 322.555 203.32 325.175C202.09 325.575 200.85 325.975 199.62 326.385C202.97 336.655 206.31 346.925 209.66 357.195C210.89 356.795 212.13 356.395 213.36 355.985C221.39 353.365 229.42 350.755 237.45 348.135L216.23 332.515C216.23 329.575 217.37 326.415 218.62 324.545C219.88 322.615 221.04 321.645 221.84 320.995C223.48 319.765 224.1 319.605 224.43 319.435C224.74 319.305 224.73 319.325 224.49 319.405C224.18 319.515 223.92 319.545 222.29 320.175L228.35 318.995H228.33L222.27 320.175C212.38 324.165 202.24 327.535 192.01 330.145L202.94 360.495C204.64 359.685 206.34 358.885 208.05 358.085C209.19 357.545 210.34 357.005 211.48 356.465L209.79 357.155C210.8 356.785 210.64 356.865 211.82 356.305H211.81ZM197.46 327.255L211.81 356.305L209.65 357.185L199.61 326.375L197.45 327.255H197.46ZM232.41 313.635C239.91 305.865 247.41 298.085 254.91 290.315C254.34 289.765 253.78 289.185 253.1 288.455C252.38 287.705 251.72 286.875 249.88 285.135C248.47 283.895 245.59 281.075 239.98 279.785C234.38 278.625 230.39 280.005 228.27 280.745C223.93 282.455 222.35 283.675 220.38 284.865C200.75 298.165 194.88 316.495 187.05 324.395C188.05 323.225 190.29 321.615 192.57 321.025L192.19 321.135C184.02 323.005 177.02 334.695 181.55 344.125C181.67 344.395 181.83 344.825 182.35 345.915C182.9 346.965 183.77 349.025 186.54 351.705C189.3 354.445 193.79 356.175 196.43 356.455C199.19 356.835 200.84 356.625 202.15 356.475C222.48 350.445 225.54 349.425 244.67 338.605C257.2 326.375 255.32 317.105 257.3 312.715C257.65 311.405 258.04 310.565 257.94 310.795L232.35 291.415C232.35 291.415 232.34 291.425 232.33 291.435L257.91 310.835C261.57 304.355 260.72 295.735 254.64 290.055C247.31 297.995 239.99 305.925 232.66 313.865C227.09 308.645 226.34 300.835 229.66 294.945L255.24 314.345C255.24 314.345 255.25 314.335 255.26 314.325L229.67 294.945C227.65 298.605 226.8 301.515 226.09 303.965C224.98 308.005 224.39 311.045 223.77 312.955C223.23 314.935 222.57 314.975 224.09 313.575C221.57 314.755 201.35 323.275 198.01 324.335C198.43 324.295 199.22 324.145 201.13 324.395C202.92 324.565 206.59 325.945 208.72 328.095C210.87 330.185 211.31 331.485 211.48 331.765C211.63 332.085 211.46 331.715 211.22 331.155C213.04 335.025 212.91 340.695 210.77 344.535C208.71 348.445 205.32 350.995 201.64 352.125L201.26 352.235C205.18 351.205 208.88 348.605 210.99 346.205C224.26 330.375 229.93 316.575 237.71 312.225C238.86 311.455 240.35 310.745 239.44 311.145C239.01 311.265 236.88 312.205 233.08 311.445C231.3 311.065 229.79 310.295 229 309.775C228.18 309.235 227.89 308.945 227.81 308.875C227.66 308.715 228.52 309.625 229.37 310.545C230.26 311.505 231.31 312.595 232.4 313.645L232.41 313.635ZM254.91 290.315L232.41 313.635L232.67 313.875L254.65 290.065L254.91 290.305V290.315ZM565.79 290.335C561.13 280.595 556.46 270.855 551.8 261.105C548.21 262.825 544.93 264.845 541.97 266.945C532.89 273.485 526.58 280.435 520.94 284.885C516.99 288.345 508.51 291.975 500.26 301.595L502.43 299.425C495.23 305.375 488.04 311.325 480.85 317.275L499.03 343.935C500.62 343.055 502.22 342.165 503.81 341.285L506.22 339.655C524.93 324.355 543.64 309.055 562.35 293.755C564.58 291.925 566.82 290.095 569.06 288.265C562.22 279.905 555.39 271.545 548.54 263.185C546.31 265.015 544.07 266.845 541.83 268.675C523.12 283.975 504.41 299.275 485.71 314.575L488.11 312.945C486.52 313.825 484.92 314.715 483.33 315.595L501.51 342.255C508.71 336.305 515.9 330.355 523.09 324.405L525.26 322.235C527.04 319.715 533.04 316.455 541.21 310.195C549.46 303.485 555.28 297.185 560.75 293.375C562.51 292.125 564.18 291.125 565.8 290.345L565.79 290.335ZM551.79 261.115L565.78 290.345L548.52 263.185L569.04 288.265L551.78 261.105L551.79 261.115ZM641.51 266.175C646.06 256.375 650.6 246.575 655.15 236.775C652.69 235.705 649.86 234.555 644.93 234.785C642.61 234.945 639.61 235.515 636.4 237.475C633.18 239.365 630.29 242.955 629.09 246.205C626.74 252.905 628.1 256.505 628.69 259.005L633.23 274.265L648.57 269.995C647.44 270.415 644.89 270.235 644.11 269.835C643.27 269.485 643.8 269.645 644.97 270.525C647.3 271.825 652.38 277.935 664.21 278.485L725.07 279.105L672.57 248.305C669.94 246.825 665.49 242.815 658.72 238.655C657.68 238.035 656.52 237.395 655.11 236.745L648.33 267.665H648.35V235.265H648.33L641.55 266.185C641.55 266.185 641.86 266.345 642.21 266.545C645.13 268.215 649.12 271.905 656.18 276.265L664.55 246.085C666.38 246.085 667.57 246.805 667.27 246.645C667.03 246.525 665.89 245.695 664.09 244.365C662.25 243.065 659.68 241.085 655.33 239.435C651.06 237.715 644.62 237.325 639.9 238.775L659.78 249.765C659.95 250.815 661.07 252.795 659.27 258.055C658.34 260.595 655.96 263.565 653.4 265.055C650.85 266.605 648.61 266.995 647.05 267.105C643.74 267.235 642.53 266.555 641.53 266.155L641.51 266.175ZM655.14 236.775L641.5 266.175L648.32 235.275V267.675L655.13 236.775H655.14ZM425.47 226.485V258.885H425.64L427.12 258.815C428.03 258.735 428.99 258.665 429.98 258.615C433.93 258.395 438.48 258.415 443.59 258.195L449.89 257.925L454.35 253.465C454.35 253.465 454.35 253.455 454.36 253.445L443.64 258.175C444.15 258.155 444.67 258.125 445.35 258.075C445.71 258.045 446.08 258.015 446.67 257.945C446.97 257.905 447.32 257.865 447.95 257.745C448.29 257.675 448.61 257.625 449.36 257.425C449.72 257.325 450.11 257.215 450.87 256.935C451.51 256.665 452.67 256.335 454.85 254.785C455.63 254.215 456.54 253.445 457.54 252.295C458.55 251.045 459.54 249.935 460.67 246.765C461.67 243.905 461.7 240.055 460.89 237.355C460.22 234.925 459.12 233.105 458.13 231.805C457.63 231.165 457.11 230.595 456.71 230.195C456.4 229.885 456.1 229.615 455.83 229.375C455.27 228.895 454.77 228.525 454.33 228.225C453.36 227.585 452.98 227.405 452.52 227.165C451.62 226.715 451.15 226.545 450.75 226.395C450.34 226.245 450.05 226.155 449.82 226.085C448.87 225.805 448.52 225.735 448.13 225.655C447.44 225.515 447.06 225.455 446.69 225.395C445.98 225.285 445.45 225.225 444.94 225.155L443.03 225.045H442.89C431.59 225.035 420.28 225.025 408.97 225.005L407.51 257.345C411.81 257.725 416.11 258.115 420.41 258.495C421.62 258.605 422.83 258.715 424.04 258.815C425 248.055 425.96 237.295 426.92 226.535C425.71 226.425 424.5 226.315 423.29 226.215C418.99 225.835 414.69 225.445 410.39 225.065L408.93 257.405C420.24 257.415 431.55 257.435 442.87 257.445H443.02L441.11 257.335C441.39 257.365 441.65 257.405 441.72 257.415C441.74 257.415 441.75 257.415 441.44 257.365C441.25 257.325 441.08 257.305 440.33 257.075C440.14 257.015 439.91 256.945 439.54 256.805C439.19 256.675 438.76 256.515 437.9 256.095C437.47 255.865 437.11 255.695 436.16 255.065C435.73 254.775 435.24 254.415 434.69 253.935C434.41 253.695 434.12 253.435 433.82 253.125C433.42 252.725 432.9 252.165 432.42 251.525C431.44 250.245 430.35 248.425 429.67 246.015C428.86 243.335 428.89 239.485 429.89 236.645C431.01 233.495 432 232.395 433 231.145C433.99 229.995 434.9 229.245 435.67 228.685C437.81 227.165 438.93 226.855 439.52 226.595C440.23 226.335 440.57 226.245 440.89 226.155C441.54 225.985 441.77 225.945 442.01 225.895C442.44 225.815 442.59 225.805 442.7 225.785C442.9 225.765 442.89 225.765 442.84 225.765C442.74 225.765 442.46 225.785 442.18 225.805L435.91 226.095L431.47 230.535C431.47 230.535 431.46 230.545 431.45 230.555L442.2 225.825C438.13 226.005 433.48 225.985 428.26 226.255C426.95 226.325 425.59 226.415 424.2 226.545L425.67 226.475H425.5L425.47 226.485ZM425.47 258.885V226.485L426.91 226.545L424.03 258.825L425.47 258.885ZM787.5 130.865C780.21 122.895 772.92 114.925 765.63 106.955C760.55 111.595 755.32 116.105 749.94 120.505C715.07 149.075 674.79 172.595 636.2 200.925L636.05 201.035C629.28 206.135 622.5 211.235 615.73 216.325L633.63 243.265C652.41 232.275 668.4 219.365 684.3 208.415C703.48 195.165 723.72 182.475 743.6 168.245C766.11 151.825 793.05 134.855 809.22 104.015L821.11 80.5052H787.08L782.21 86.4452C780.72 88.2652 779.23 90.0852 777.73 91.9152C773.16 97.4952 768.59 103.065 764.03 108.645C772.38 115.485 780.74 122.335 789.09 129.175C793.66 123.595 798.23 118.025 802.8 112.445C804.3 110.625 805.79 108.805 807.28 106.985L794.75 112.925H794.77L780.31 89.4152C770.11 109.655 747.79 125.565 724.75 141.915C705.94 155.385 685.86 167.995 665.89 181.775C648.73 193.655 633.29 206.005 617.32 215.295L635.22 242.235C641.99 237.135 648.76 232.035 655.54 226.945L655.39 227.055C692.1 200.025 732.9 176.285 770.46 145.605C776.24 140.875 781.94 135.975 787.5 130.885V130.865ZM765.63 106.955L787.5 130.865L789.09 129.175L764.03 108.645L765.62 106.955H765.63ZM347.98 184.985C337.24 183.885 326.49 182.785 315.74 181.695C315.6 183.055 315.53 184.405 315.52 185.735C315.51 197.715 319.7 209.095 328.13 218.105L354.73 200.445C352.69 195.795 350.64 191.145 348.6 186.495L345.27 181.595C348.74 185.285 349.67 188.545 349.92 192.275L349.63 189.825C349.17 187.465 348.71 185.105 348.25 182.745C348.09 181.915 347.93 181.085 347.76 180.255C337.16 182.325 326.56 184.385 315.95 186.455C316.11 187.285 316.28 188.115 316.44 188.945C316.9 191.305 317.36 193.665 317.82 196.025L317.53 193.575C317.78 197.375 318.74 200.695 322.26 204.435L318.93 199.535C320.97 204.185 323.01 208.835 325.06 213.485L351.65 195.825C349.45 193.605 347.85 189.475 347.93 186.035C347.93 185.675 347.95 185.325 347.99 185.005L347.98 184.985ZM315.74 181.695L347.98 184.985L315.96 186.435L347.77 180.235L315.75 181.685L315.74 181.695ZM785.77 63.5852C779.42 54.8452 773.07 46.1052 766.72 37.3752C761.11 41.4552 755.82 45.7752 750.76 50.1752C736.63 62.5052 724.29 75.3852 711.64 86.5352C692.49 103.425 672.63 119.455 652.01 134.365L652.52 134.015C641.47 141.375 630.42 148.735 619.37 156.095L633.17 185.045C643.71 181.585 650.29 176.385 656.01 172.815C684.8 154.275 709.94 132.185 734.68 111.245L735.24 110.745C747.94 98.9352 760.64 87.1252 773.34 75.3152C777.99 70.9952 782.64 66.6752 787.28 62.3552C779.92 54.4452 772.57 46.5352 765.21 38.6252C760.56 42.9452 755.92 47.2652 751.27 51.5852C738.57 63.3952 725.88 75.2052 713.17 87.0152L713.73 86.5152C688.72 107.715 664.59 128.775 638.45 145.575C632.08 149.765 626.8 153.165 623.53 154.105L637.33 183.055C648.38 175.695 659.42 168.335 670.47 160.975L670.98 160.625C692.53 145.045 713.2 128.355 733.07 110.835C747.06 98.4552 759.35 85.6352 772.03 74.6152C776.55 70.6752 781.11 66.9752 785.76 63.5952L785.77 63.5852ZM766.71 37.3752L785.76 63.5852L765.2 38.6152L787.27 62.3452L766.71 37.3752ZM816.62 43.7252C808.27 50.5852 799.93 57.4452 791.58 64.2952C792.6 65.5352 793.61 66.7652 794.63 68.0052C802.45 77.5252 810.28 87.0452 818.1 96.5752L843.91 77.0152C840.06 71.5052 836.22 65.9952 832.38 60.4852L831.39 59.2052C825.35 52.1652 819.31 45.1252 813.27 38.0852L786.97 56.7852C787.21 57.1952 787.45 57.6052 787.69 58.0152C788.5 59.3952 789.3 60.7852 790.11 62.1652C799.44 56.7352 808.78 51.2952 818.11 45.8652C817.3 44.4852 816.5 43.0952 815.69 41.7152C815.45 41.3052 815.22 40.8952 814.97 40.4852L788.68 59.1852C794.72 66.2252 800.76 73.2652 806.8 80.3052L805.81 79.0252C809.65 84.5352 813.5 90.0452 817.34 95.5552L843.14 75.9952C835.32 66.4752 827.49 56.9552 819.67 47.4252C818.65 46.1852 817.64 44.9552 816.62 43.7152V43.7252ZM791.59 64.2952L816.63 43.7252L818.11 45.8652L790.11 62.1652L791.59 64.3052V64.2952Z" fill="#F7C7C8"/>
<path d="M310.911 107.305C311.181 107.265 311.491 107.405 311.621 107.655L311.561 107.615C313.461 111.005 302.921 126.275 305.051 130.925C305.591 132.965 304.051 130.985 303.961 131.485C303.361 134.885 304.401 138.015 302.461 141.345C301.541 142.935 299.461 143.255 299.271 144.215C298.971 145.735 301.231 149.995 299.121 152.745L298.521 151.555C298.311 151.115 297.771 150.995 297.391 151.285L296.431 152.015C296.241 152.165 296.141 152.415 296.141 152.665C296.421 157.705 265.071 311.975 267.591 311.515L291.941 352.315C277.161 380.125 262.811 407.505 248.991 436.715C247.891 439.045 246.111 441.135 245.631 443.865C245.531 444.365 245.011 444.635 244.551 444.405L244.431 444.345C243.971 444.115 243.411 444.405 243.341 444.905C242.801 448.225 242.951 450.805 240.901 453.975C240.481 454.645 238.921 454.815 238.691 455.185C238.361 455.705 237.231 463.605 235.311 466.605C234.081 468.545 232.811 466.835 232.351 467.675C231.221 469.755 232.541 472.155 231.701 473.965C230.891 475.715 228.931 475.945 228.281 476.975C227.421 478.355 228.631 480.725 227.281 482.705C223.841 487.775 224.051 489.475 221.481 495.125C219.191 500.145 212.621 515.785 210.101 519.155C208.831 520.865 206.791 520.415 206.351 520.935C205.251 522.185 206.481 528.715 201.511 527.895C201.241 527.835 201.041 527.645 200.941 527.395C199.271 522.795 199.631 519.395 200.551 514.635C202.411 504.975 206.911 492.285 209.911 482.565C224.671 434.595 244.101 387.915 261.371 340.855C261.561 340.335 261.141 339.795 260.581 339.835C256.601 340.105 252.831 341.585 249.091 342.795C233.081 347.925 215.501 354.215 199.801 360.245C171.211 371.235 171.071 372.795 152.021 395.395C148.641 399.395 143.951 402.335 141.391 407.025L142.581 407.405C142.771 407.465 142.981 407.465 143.161 407.365C167.161 395.505 192.401 379.635 217.721 371.105C221.281 369.895 238.321 362.935 234.641 372.675C233.531 375.675 220.191 384.395 216.771 387.315C178.431 420.005 126.031 470.975 105.941 516.035C105.531 516.935 105.311 516.845 105.241 516.325L100.921 522.745C101.061 524.105 101.571 525.165 101.241 526.585C99.8913 532.405 96.0113 540.655 94.1113 546.805C92.8613 550.835 91.9413 555.105 91.0013 559.235C90.8913 559.715 90.3613 559.965 89.9213 559.735L89.8113 559.675C89.3313 559.425 88.7313 559.775 88.7113 560.315C88.5213 564.155 88.1313 573.935 86.2313 574.315C84.7313 574.425 83.6513 573.085 83.2113 571.795C81.8513 567.775 82.3513 554.455 81.5813 548.675C78.9113 528.405 73.8013 509.265 62.3013 492.125C57.0013 484.205 42.4713 468.185 32.6913 467.145C25.2113 466.335 17.0413 474.445 15.0313 462.565C13.1513 451.535 19.6513 418.495 22.3713 406.315C46.3413 299.275 116.081 248.485 209.951 204.605C212.301 203.525 220.081 199.205 222.111 201.165C222.221 201.275 222.301 201.455 222.301 201.625C222.821 208.255 220.321 212.155 217.091 217.805C198.951 249.575 175.951 283.335 155.981 314.435C151.771 321.005 135.431 348.125 130.841 350.975C124.231 355.045 123.731 346.105 124.321 341.425C124.941 336.465 131.491 317.845 129.821 314.545C129.401 313.715 125.481 311.005 124.461 310.745C109.891 306.885 85.4813 335.705 77.8713 346.585C71.4313 355.785 65.5213 366.515 63.7313 377.755C63.6313 378.375 62.9013 378.625 62.4613 378.185C62.0613 377.765 61.3313 377.955 61.1913 378.525C54.6913 404.775 65.6313 436.505 97.9713 431.375C102.871 430.585 120.511 423.515 121.971 418.985C123.951 412.835 119.341 413.455 119.261 411.455C119.261 411.355 119.281 411.245 119.321 411.145C121.451 405.705 125.741 400.765 127.721 395.405C128.991 391.965 130.411 389.815 125.901 388.415C125.751 388.375 125.591 388.375 125.451 388.415L82.5013 400.195C82.1513 400.295 81.8113 400.115 81.6313 399.795C80.5013 397.625 78.9613 396.185 80.2113 393.455C82.6813 388.105 116.381 371.335 123.521 367.975C133.031 363.515 144.621 361.785 151.441 353.525C151.461 353.485 151.491 353.435 151.491 353.425L270.661 164.015C285.301 151.085 291.381 127.025 303.771 112.455C305.651 110.245 307.811 107.665 310.881 107.345L310.911 107.305ZM793.981 42.3052C801.471 39.0352 804.131 48.5952 807.731 52.6652C835.021 83.4852 859.581 118.885 879.851 156.205C888.611 172.325 911.271 214.125 911.691 230.615C912.311 255.405 869.741 237.745 856.941 232.825C829.691 222.355 804.421 205.885 778.151 195.045C775.511 193.945 762.351 188.415 760.601 190.585L617.711 251.415C608.681 258.165 593.611 269.745 594.371 271.285C602.191 281.605 617.281 272.515 625.211 266.365C633.151 260.215 637.821 251.005 646.511 246.315C647.701 246.245 648.081 248.705 649.411 249.485C674.761 264.035 713.411 270.505 742.291 267.045C748.251 266.335 764.681 261.955 768.941 262.855C772.421 263.605 770.461 267.505 768.751 269.105C763.121 274.375 738.311 283.665 729.451 288.185C663.481 321.685 591.831 373.875 544.631 430.975C538.821 437.985 524.471 460.555 517.031 462.325C515.821 462.615 514.841 462.575 513.631 462.425C509.781 461.945 492.611 445.955 487.131 442.405C480.501 438.125 471.801 435.875 466.551 431.205C465.611 430.355 463.221 431.465 463.651 427.795C463.831 425.215 476.281 414.055 478.961 410.925C492.051 395.665 515.421 356.405 522.241 337.635C523.591 333.925 524.551 329.505 525.721 325.675C523.221 323.585 520.221 326.525 518.031 327.945C477.081 354.295 440.651 415.885 420.431 459.415C409.001 484.035 400.421 509.955 389.761 534.825C388.891 536.825 383.491 548.515 382.771 548.855C378.101 551.065 379.861 546.305 379.421 545.825L377.371 545.915C384.831 510.255 398.471 476.175 411.921 442.435C421.681 417.935 434.861 394.145 440.061 368.165C438.521 365.285 425.341 369.875 424.551 361.225C424.271 358.025 435.121 331.925 437.311 327.325C448.901 303.135 468.901 275.225 484.431 252.895C486.531 249.865 488.971 246.145 491.701 241.865C435.771 250.885 440.921 262.495 398.191 315.095C391.981 322.725 387.041 331.125 381.181 339.115C373.421 349.705 366.651 362.465 360.961 375.605C359.171 379.755 356.291 385.005 355.481 389.275C355.351 389.985 355.671 390.715 355.831 391.445C355.921 391.925 355.251 392.235 354.691 391.965L353.881 391.585L354.551 395.355L353.811 394.985C353.311 394.755 352.681 394.985 352.681 395.405C352.681 398.235 349.431 400.135 348.891 402.825C348.281 405.895 347.591 407.055 345.861 410.065C294.571 499.465 385.791 405.875 405.151 402.455C415.801 400.575 426.851 392.735 416.221 408.975C403.751 428.075 338.141 483.485 318.321 499.205C301.911 512.235 277.921 531.205 256.791 539.505C249.871 542.235 239.011 545.365 236.861 536.425C233.771 523.605 245.891 500.355 252.431 488.255C279.221 438.675 321.361 386.955 354.631 338.975C354.871 338.605 358.821 337.745 356.131 336.325C346.941 332.325 326.881 340.745 319.371 337.675C316.661 336.565 319.561 334.925 321.121 334.055C329.791 329.275 346.081 326.105 356.051 321.105C367.891 315.165 377.311 300.065 384.421 290.565C388.341 285.315 393.121 276.075 397.261 271.735C397.971 271.005 403.641 269.335 399.031 269.715C398.701 269.755 398.381 269.575 398.251 269.345C395.601 264.675 384.141 269.055 379.631 270.575C347.941 281.145 345.001 288.065 316.771 301.825C287.311 316.175 273.511 299.265 278.741 274.145C288.041 229.585 305.801 211.535 330.381 171.565C330.421 171.485 330.501 171.425 330.571 171.375C339.601 165.825 335.251 174.645 335.331 178.875C335.771 200.075 347.801 215.505 372.611 227.305C402.071 241.325 431.391 239.945 462.311 237.145L495.241 236.335C524.561 189.475 579.551 92.1852 603.931 65.5452C605.581 63.7352 613.231 54.7652 615.401 55.9752L615.591 59.0852L606.821 67.4552L617.491 59.5652C618.121 59.9252 618.911 70.6952 618.781 72.1552C618.651 73.6152 617.021 74.1152 616.591 75.8752C616.091 77.9352 617.161 89.0352 616.701 90.1952L614.361 90.9452C615.781 94.8252 614.701 101.265 613.631 105.245C608.981 122.645 567.721 220.465 564.411 238.375C563.221 244.815 562.011 256.925 560.201 262.205C559.841 263.285 557.781 267.025 557.071 267.835C554.361 270.915 535.431 280.395 532.971 277.345C536.831 274.755 533.331 274.135 530.531 274.425C528.661 272.525 534.761 248.605 534.761 244.045C531.871 235.955 523.931 246.405 520.591 250.055C505.411 266.695 474.691 308.875 476.151 331.685C476.271 333.475 476.011 334.265 478.061 333.575C483.231 331.845 505.581 313.435 511.421 308.725C519.911 301.885 527.701 294.195 536.141 287.275C549.881 276.035 564.161 270.725 570.691 253.295C577.631 234.755 581.411 212.265 587.271 192.995C588.721 188.245 595.841 164.155 598.611 162.455C603.241 159.625 603.281 167.755 604.261 169.375C607.901 175.285 624.191 167.195 629.031 164.645C655.611 150.675 687.911 123.635 710.861 103.745C728.291 88.6252 747.331 66.8852 765.361 53.8452C779.971 43.2752 780.521 52.8452 778.011 65.7552C771.071 101.535 747.401 125.975 720.011 148.045C702.291 162.325 678.961 180.315 659.901 192.385C648.081 199.865 649.021 196.035 638.181 198.265C625.061 200.955 614.451 212.065 609.221 223.975C608.511 225.605 605.301 234.505 605.181 235.645C605.031 237.315 605.891 237.045 607.061 236.705C614.821 234.455 633.981 217.585 642.021 211.915C671.331 191.175 701.711 171.785 730.811 150.785C751.321 135.965 786.821 111.195 794.281 86.2352C798.491 72.1052 796.281 56.5352 793.991 42.3352L793.981 42.3052ZM181.841 392.375C171.331 397.045 160.741 402.575 150.801 408.345C146.861 410.635 142.961 414.235 138.891 416.675C134.011 419.595 127.211 421.575 123.191 425.725C133.681 422.765 142.171 414.885 151.171 409.735C161.301 403.935 172.601 399.455 181.841 392.385V392.375ZM545.751 400.525L532.071 413.765L536.011 411.455L549.691 398.215L545.751 400.525ZM694.241 278.575C679.771 273.735 662.211 280.115 648.641 285.935C622.821 297.005 603.291 316.755 584.921 337.265C576.501 346.665 567.621 360.305 558.761 368.535C557.111 370.075 554.281 372.745 551.901 372.165V372.125C549.711 371.585 547.021 365.915 548.101 363.405C552.021 345.555 557.281 327.875 560.731 309.925C561.191 307.505 563.591 297.085 563.361 295.815C563.131 294.545 562.481 294.475 561.441 293.995C555.561 297.435 554.251 298.985 552.351 305.275C548.761 317.175 547.361 333.065 544.341 345.805C539.561 366.095 533.831 386.315 528.321 406.435C528.451 410.415 534.161 405.545 535.411 404.625C544.371 397.975 553.231 388.255 561.911 380.895C587.121 359.565 613.261 339.325 640.561 320.685C650.931 313.595 687.581 293.115 692.451 284.865C693.221 283.535 694.981 279.855 694.251 278.585L694.241 278.575ZM231.401 371.145C222.941 371.145 215.661 377.005 207.551 379.005C207.491 379.025 207.381 379.085 207.381 379.085H207.361L200.061 383.255L231.401 371.145ZM151.131 360.665C145.391 361.975 139.101 365.005 134.091 367.365C132.481 368.135 129.171 369.675 128.251 371.115L145.891 365.075L146.011 365.035L151.661 362.055C152.431 361.655 152.011 360.465 151.141 360.655L151.131 360.665ZM204.631 341.775C204.631 341.775 204.551 341.805 204.541 341.815L196.001 345.855C206.931 343.065 217.851 339.435 228.331 335.205H228.351C229.541 334.725 232.401 334.165 232.421 332.725L204.631 341.775ZM243.661 301.975C237.151 295.695 237.781 293.005 229.061 298.535C215.471 307.145 208.961 324.365 199.041 335.285C198.441 335.935 197.751 336.395 196.921 336.625C196.481 336.755 196.211 337.225 196.401 337.665C197.231 339.545 197.551 340.735 200.071 340.415C204.301 339.875 231.141 328.775 234.391 326.095C240.541 321.045 240.101 309.495 243.811 302.885L243.791 302.905C243.961 302.595 243.911 302.205 243.661 301.975ZM558.791 275.725C547.911 280.935 540.061 290.335 531.061 297.535C524.971 302.415 517.721 305.875 512.751 311.905L491.171 329.755L495.951 327.105L558.791 275.715V275.725ZM648.331 251.475C645.641 250.225 643.261 251.165 644.221 254.395C652.361 252.125 656.851 262.215 664.361 262.295C659.481 259.435 653.231 253.745 648.311 251.475H648.331ZM425.471 242.685H425.641C431.311 242.165 437.161 242.265 442.881 242.015L442.901 241.995C445.841 241.865 446.241 241.635 443.021 241.245H442.881L408.941 241.205L425.471 242.685ZM776.571 118.905C736.751 155.345 689.191 182.075 645.801 213.975L625.481 229.265C642.701 219.235 658.631 206.455 675.101 195.075C694.671 181.565 714.851 168.895 734.181 155.065C756.461 139.135 782.231 121.525 794.771 96.6952H794.751L776.571 118.895V118.905ZM331.861 183.345C331.081 191.045 333.591 200.305 339.891 206.955L333.761 193.005C333.761 193.005 333.721 192.925 333.721 192.915L331.851 183.345H331.861ZM776.241 50.4752C756.761 64.6352 740.421 82.7252 722.361 98.6752C702.851 115.875 682.571 132.245 661.501 147.485L628.351 169.565C634.961 167.505 641.321 162.995 647.221 159.185C674.721 141.485 699.331 119.925 724.201 98.8652L776.241 50.4752ZM804.101 54.0152L830.631 86.2852L819.101 69.7552L800.981 48.6352L804.111 54.0152H804.101Z" fill="url(#paint0_linear_543_2)"/>
<defs>
<linearGradient id="paint0_linear_543_2" x1="472.751" y1="739.475" x2="454.891" y2="2.27524" gradientUnits="userSpaceOnUse">
<stop stop-color="#EE8EA2"/>
<stop offset="0.42" stop-color="#E02D4C"/>
<stop offset="1" stop-color="#EF93A6"/>
</linearGradient>
</defs>
</svg>
