<svg width="498" height="357" viewBox="0 0 498 357" fill="none" xmlns="http://www.w3.org/2000/svg">
<path d="M259.475 352.095C258.319 352.095 257.152 351.839 256.104 351.362C253.319 350.082 251.174 346.909 249.147 341.063C247.931 337.564 246.952 333.588 246.558 331.379C244.743 321.208 244.797 310.953 244.846 301.033C244.846 300.502 244.851 299.965 244.856 299.429C223.495 301.574 201.155 304.478 180.075 311.342C171.921 313.994 163.517 317.611 153.617 322.719C153.051 323.009 152.332 323.457 151.569 323.929C148.843 325.622 145.458 327.733 141.512 327.733C139.647 327.733 137.89 327.255 136.291 326.316C132.748 324.229 130.686 316.09 130.957 312.651C131.247 309.01 133.353 307.445 134.613 306.83C150.935 297.736 166.76 290.838 182.973 285.73C184.489 285.253 186.541 284.765 188.917 284.204C190.098 283.924 191.688 283.55 193.248 283.146C165.844 266.465 134.834 260.876 111.52 259.335C111.54 264.571 111.619 269.895 111.988 275.052C126.538 271.194 141.275 269.073 154 267.499L154.419 267.45L154.842 267.469C157.455 267.597 159.049 269.501 159.575 270.126C160.697 271.465 164.506 277.335 164.034 280.986C163.433 285.661 157.957 287.718 156.864 288.082C153.292 289.278 148.091 290.326 142.068 291.541C133.442 293.283 120.402 295.916 116.977 298.809C116.928 298.863 116.731 299.134 116.583 299.331C116.082 300.01 115.393 300.94 114.31 301.796C112.868 302.933 110.905 304.237 108.514 304.237C106.865 304.237 105.645 303.631 104.828 303.065C104.754 303.09 104.685 303.11 104.621 303.129C103.485 303.484 101.925 303.976 100.158 303.976C98.1112 303.976 96.2611 303.341 94.6619 302.091C91.4979 299.616 90.8779 294.577 90.7942 291.792C90.7056 288.948 91.0304 283.762 94.2042 280.947C95.4442 279.845 96.8614 279.318 98.0916 278.934L97.0189 259.178C83.984 259.66 70.708 261.318 58.3374 264.015C52.1964 265.353 46.8575 266.849 42.4584 268.463C41.7105 268.739 40.19 269.447 38.7236 270.131C33.2912 272.665 30.4815 273.856 28.1835 273.856C28.0851 273.856 27.9965 273.856 27.903 273.851C26.5302 273.792 25.546 273.413 24.8916 273.158L24.7538 273.103C21.3635 271.809 11.3991 261.368 10.4346 260.128C9.58828 259.04 8.20065 256.713 7.26572 254.976C5.23348 251.192 4.64792 249.174 5.03665 247.255C5.50904 244.908 7.24604 242.128 14.1793 236.154C18.6965 232.262 23.4793 228.724 24.0108 228.33C32.3563 222.174 45.337 213.499 61.1127 205.936C60.3155 204.878 59.7595 203.889 59.4052 203.264C57.9585 200.71 55.2718 195.952 57.5157 191.651C59.2182 188.399 63.9421 185.343 75.5795 179.975L76.1454 179.714C80.569 177.667 85.1354 175.881 89.5542 174.158C91.0156 173.588 92.4476 173.032 93.8549 172.471C93.5645 172.279 93.3185 172.121 93.1266 172.003C86.9905 168.18 83.1475 166.477 81.8238 166.172C81.3957 166.305 80.6773 166.605 80.1705 166.817C78.4728 167.525 76.3619 168.406 74.0688 168.406C72.9174 168.406 71.825 168.185 70.8212 167.752C67.9032 166.487 66.7026 163.736 65.8316 161.724C65.4232 160.779 64.8032 159.357 64.3603 159.141C62.4855 158.225 55.9952 156.857 52.5064 156.124C51.0991 155.829 49.8837 155.573 48.9094 155.347C45.9816 154.673 42.9259 154.087 39.9685 153.526C36.6028 152.886 33.119 152.222 29.6794 151.395L28.9265 151.213L28.2672 150.81C24.124 148.286 24.6652 141.761 25.0933 139.074C25.4033 137.111 27.6275 130.896 28.0654 129.671C31.0227 121.463 31.815 120.612 33.0697 119.706C34.4033 118.742 36.0074 118.255 37.828 118.255C38.6892 118.255 39.4469 118.358 40.062 118.442L40.4163 118.491C45.337 119.116 50.0215 120.641 54.5485 122.117C60.286 123.987 65.7037 125.754 71.4313 125.754C71.9825 125.754 72.5336 125.739 73.0749 125.705C73.6407 125.67 75.2793 125.355 76.475 125.124C79.3635 124.568 81.376 124.199 82.9851 124.199C83.7134 124.199 84.358 124.278 84.9484 124.435C86.1589 124.765 87.5318 125.641 88.4028 126.979C111.048 114.845 133.796 99.1476 159.305 78.097C171.203 68.2753 185.03 56.4558 197.361 43.2192L198.06 42.4713L199 42.0628C199.63 41.7873 200.801 41.2804 202.297 41.2804C204.669 41.2952 207.099 42.6435 213.708 46.9638C214.569 47.5248 215.386 48.0611 215.907 48.381C215.986 48.4007 216.065 48.4154 216.139 48.4351C216.965 48.6319 218.353 48.9567 219.465 50.2508C220.523 51.4761 221.699 55.4717 221.645 56.7068C221.561 58.5569 220.725 60.4317 216.193 66.0708C213.777 69.0774 211.233 71.9855 210.381 72.9253C205.412 78.3971 199.91 83.5245 194.591 88.4796C190.502 92.2931 186.305 96.2001 182.388 100.245C184.73 101.564 186.905 103.34 188.381 105.525C188.543 105.259 188.711 105.023 188.873 104.811C191.023 102.016 194.124 101.411 196.033 101.067C196.618 99.8513 197.391 97.6124 197.937 96.023C199.428 91.6928 200.83 87.5988 203.33 85.2221C206.745 81.9695 212.606 80.8132 216.591 80.8132C217.561 80.8132 218.471 80.8821 219.303 81.0149C221.379 81.3495 227.958 85.5272 228.637 86.1521C233.154 90.3002 232.151 95.6441 231.55 98.8425C231.383 99.7283 231.211 100.644 231.201 101.239C231.329 101.623 231.658 102.371 231.885 102.882C232.377 103.985 232.884 105.131 233.189 106.307C234.321 110.677 231.717 112.807 230.891 113.354L229.857 114.043L229.498 114.077C228.184 123.082 227.687 132.141 227.589 140.56C243.345 112.94 261.227 82.6141 280.796 53.7199L281.21 53.1098L281.785 52.6472C282.72 51.8944 284.339 50.9988 286.75 50.9988C289.161 50.9988 291.804 51.8304 295.052 53.5379C301.212 56.7757 304.524 61.9867 303.899 67.4781L303.84 67.985L303.677 68.4672C302.063 73.3387 299.79 77.9149 297.591 82.3386C295.672 86.1964 293.846 89.8672 292.493 93.6069C292.955 93.6807 293.428 93.7496 293.885 93.8185C296.405 94.1876 299.264 94.6058 301.645 96.1411C301.719 96.1903 301.793 96.2395 301.872 96.2887C304.603 86.4818 308.15 75.366 312.446 65.2491L312.584 64.9243C317.254 53.8823 320.019 49.8031 323.532 48.7648C324.33 48.5286 325.23 48.4154 326.283 48.4154C330.485 48.4154 342.782 50.861 343.087 58.3404L343.127 59.3147L342.792 60.23C341.094 64.8653 339.279 69.5301 337.527 74.0374C335.042 80.4244 332.503 86.9591 330.239 93.5528C340.268 83.1554 348.397 73.9537 355.664 64.821C356.201 64.1468 356.742 63.4727 357.283 62.7937C360.014 59.3885 362.839 55.8653 365.151 52.3175C366.446 50.3345 367.538 48.1104 368.699 45.7484C369.762 43.5833 370.864 41.3444 372.149 39.2827C372.842 38.1706 374.949 34.7852 379.234 34.7852C380.489 34.7852 381.803 35.0902 383.25 35.7201C385.149 36.5468 388.854 39.6714 390.36 40.9803C395.522 45.4581 396.57 47.2788 396.777 49.2519C396.905 50.5116 396.757 51.6385 394.808 56.5099C393.962 58.6357 392.884 61.1501 392.417 62.1097C391.167 64.6684 389.661 67.0697 388.003 69.3628L397.239 63.6941L397.869 63.5071C398.642 63.2808 399.414 63.1627 400.167 63.1627C404.345 63.1627 406.269 66.4497 407.085 67.857C407.228 68.0981 407.44 68.4623 407.528 68.5705C408.183 69.3136 408.95 70.032 409.757 70.7947C411.78 72.6941 413.866 74.6623 414.757 77.5704C415.844 81.1281 414.708 84.7792 411.386 88.4205C408.129 91.988 403.695 95.5014 398.996 99.2214C392.191 104.61 384.48 110.716 381.773 116.355C381.473 116.985 381.311 117.423 381.227 117.708C381.468 117.851 381.852 118.053 382.438 118.289L384.76 119.229L385.764 123.274L385.607 124.263C385.548 124.642 385.494 125.07 385.434 125.518C385.08 128.244 384.495 132.795 381.547 135.605C381.616 135.61 381.69 135.615 381.759 135.62C413.34 138.134 467.442 164.273 485.556 191.199C488.631 195.77 494.644 208.495 492.484 216.55C491.874 218.823 486.613 226.839 485.182 228.183C480.428 232.665 471 235.593 457.168 236.882C453.532 237.222 449.718 237.537 445.683 237.866C423.073 239.726 394.936 242.044 376.631 251.078C376.4 251.192 375.844 251.615 375.436 251.92C373.935 253.057 371.908 254.582 369.206 254.764C369.349 259.818 369.728 265.678 370.333 271.583C370.451 272.739 370.771 274.624 371.105 276.617C372.715 286.148 373.679 293.209 371.425 297.303C370.033 299.837 367.543 301.412 364.925 301.412C362.785 301.412 360.807 300.359 359.498 298.524C357.519 295.748 358.159 292.909 358.464 291.546C358.509 291.349 358.568 291.084 358.587 290.951C358.307 285.44 357.48 279.54 356.599 273.295C355.807 267.656 354.985 261.82 354.597 256.216C354.523 255.187 354.538 253.824 354.557 252.245C354.577 250.37 354.626 245.995 354.228 243.56C353.13 243.83 351.797 244.322 350.655 244.824C350.67 244.996 350.68 245.174 350.69 245.361C350.911 252.776 351.088 260.664 350.64 268.424C350.626 268.68 350.655 269.423 350.68 269.969C350.827 273.468 350.995 277.429 348.096 279.707C346.281 281.134 344.032 281.287 343.151 281.287C340.051 281.287 337.581 279.648 336.715 277.01L336.543 276.484L336.489 275.933C336.361 274.575 336.366 272.277 336.39 268.33C336.41 264.704 336.454 257.618 336.115 252.938C335.396 253.593 334.732 254.238 334.294 254.661C333.354 255.566 332.611 256.285 331.942 256.791C329.083 258.947 326.627 259.965 324.221 259.99L327.42 271.416L327.326 272.336C326.731 278.334 322.455 280.435 319.625 281.823L319.094 282.089C316.269 283.496 313.347 284.642 310.522 285.75C308.372 286.591 306.344 287.388 304.381 288.279C304.233 288.348 303.869 288.589 303.604 288.761C302.457 289.519 300.72 290.67 298.358 290.67C297.271 290.67 295.77 290.409 294.205 289.351C293.625 293.076 292.015 297.579 286.868 298.917C285.481 299.276 282.789 299.754 275.472 299.759C271.28 299.759 266.92 299.611 263.736 299.498C262.964 299.473 262.27 299.449 261.679 299.429C260.986 299.409 260.316 299.34 259.687 299.262C259.687 300.812 259.677 302.357 259.667 303.882C259.603 314.388 259.539 325.248 262.403 334.597C262.531 335.015 263.165 336.354 263.584 337.239C265.69 341.688 267.353 345.206 265.788 348.345C264.632 350.658 262.221 352.095 259.49 352.095H259.475ZM194.67 189.275C201.308 212.279 210.475 236.326 222.673 262.74C222.811 263.036 223.313 263.966 223.761 264.783C226.659 270.117 228.539 273.571 228.091 276.39L243.852 274.152L243.876 270.845L243.384 265.752C242.464 265.496 241.46 264.965 240.585 263.907C239.984 263.995 239.354 264.049 238.675 264.049C237.544 264.049 236.422 263.897 235.236 263.587C232.313 262.819 227.161 257.903 226.63 257.274C222.481 252.353 224.848 246.719 226.413 242.989C226.969 241.67 227.54 240.302 227.643 239.466C227.993 236.685 227.968 233.408 227.943 229.944C227.924 226.829 227.899 223.611 228.155 220.521C228.908 211.452 230.246 202.31 231.919 193.398C230.227 196.548 228.514 199.357 226.816 201.532C225.399 203.353 223.456 205.843 219.588 205.843C218.697 205.843 217.772 205.71 216.67 205.429C209.801 203.668 207.601 201.537 206.858 195.928C206.75 195.111 206.642 194.269 206.401 193.241C206.105 191.981 205.662 190.623 205.19 189.186C204.659 187.553 204.103 185.87 203.699 184.108C202.71 179.817 201.923 175.753 201.332 171.856L197.922 180.009L194.675 189.285L194.67 189.275ZM276.358 272.616C278.725 272.616 280.865 272.695 282.897 272.862C284.797 273.015 286.563 273.158 288.148 273.561L283.316 255.684L283.276 255.261C282.922 251.403 285.899 249.253 287.488 248.229C287.242 246.694 286.76 244.47 286.43 242.964C285.924 240.627 285.441 238.418 285.245 236.735C284.585 230.977 284.32 225.127 284.083 219.439C277.982 223.774 269.154 230.731 267.619 232.149C260.794 238.447 258.614 240.843 258.112 249.238C257.659 256.87 258.21 264.832 258.747 272.533C258.766 272.784 258.781 273.035 258.801 273.285C261.025 273.222 263.284 273.103 265.626 272.98C269.124 272.798 272.741 272.611 276.348 272.611L276.358 272.616ZM110.565 228.438C134.081 230.52 157.647 235.795 180.823 244.175C180.1 242.443 179.371 240.666 178.712 238.836C178.353 237.842 177.674 235.657 176.734 232.631C175.592 228.965 173.471 222.155 172.212 218.676L167.621 218.454L168.895 205.311L160.855 178.513C157.479 178.961 151.85 180.309 147.175 181.598C148.597 183.768 149.862 185.993 151.102 188.177C152.554 190.731 153.922 193.147 155.486 195.376C156.028 196.149 157.489 197.837 158.901 199.475C164.983 206.517 167.478 209.696 167.645 212.791C167.68 213.421 167.788 215.344 166.656 217.264L166.277 217.908L165.721 218.41C165.047 219.02 163.65 221.387 162.72 222.957C160.86 226.106 159.251 228.827 157.12 230.328C154.66 232.065 150.295 232.527 148.11 232.527C146.472 232.527 145.143 232.306 144.061 231.848C141.334 230.702 139.273 227.607 135.572 221.781C134.559 220.186 133.107 217.903 132.276 216.831C131.656 216.742 130.445 216.634 128.27 216.634C126.769 216.634 125.431 216.688 124.767 216.717C120.791 216.909 113.434 217.628 111.19 218.287C110.206 219.591 110.433 225.142 110.531 227.538C110.546 227.843 110.556 228.143 110.565 228.438ZM89.5493 227.543C91.055 227.543 92.5607 227.553 94.0665 227.558C94.6323 227.558 95.1982 227.563 95.7641 227.567V224.143C93.9484 224.989 91.5225 226.234 89.1064 227.543C89.254 227.543 89.4017 227.543 89.5493 227.543ZM314.183 205.4C314.163 212.062 315.384 218.695 316.668 225.653C321.254 217.288 327.115 208.775 334.545 199.623C335.027 199.032 336.021 197.915 337.743 195.996C338.821 194.791 340.474 192.95 341.965 191.248C341.724 191.14 341.483 191.027 341.242 190.918C338.378 189.604 335.47 188.271 332.586 186.795C333.605 189.732 334.451 193.802 333.571 196.361L333.157 197.556L330.416 200.041L314.178 205.395L314.183 205.4ZM379.953 169.469C382.088 169.469 388.579 169.469 390.212 174.803C392.24 181.441 385.813 186.795 381.557 190.338C380.794 190.972 380.076 191.573 379.653 191.981C378.575 193.019 377.483 194.072 376.38 195.125C371.745 199.579 367.002 204.13 362.524 208.721C371.957 206.453 381.468 204.903 390.611 203.574C400.083 202.201 409.698 201.242 419.003 200.312C425.991 199.613 433.214 198.895 440.261 198.009C440.768 197.945 441.255 197.881 441.712 197.822C434.105 191.036 423.949 184.772 410.933 178.808C391.31 169.818 371.312 164.366 351.502 162.605L343.653 162.108C353.214 166.822 364.891 168.509 376.425 169.518C376.435 169.518 376.538 169.528 376.818 169.528C377.178 169.528 377.586 169.518 378.024 169.503C378.629 169.489 379.279 169.469 379.943 169.469H379.953ZM314.134 181.544C316.56 180.929 319.192 180.304 321.53 179.985C319.064 178.095 316.786 176.063 314.592 173.996L314.139 181.544H314.134ZM116.416 148.856C117.764 149.737 119.073 150.652 120.313 151.577C122.803 153.433 125.018 155.46 127.158 157.423C128.216 158.393 129.235 159.327 130.263 160.218L168.206 151.144C164.54 150.825 161.037 150.111 157.745 149.004L156.101 148.453L155.167 146.991C153.631 144.59 154.025 141.406 155.039 135.698C153.764 136.087 152.495 136.471 151.24 136.85C139.524 140.388 127.453 144.034 116.416 148.856ZM351.733 122.186C350.02 123.269 348.397 124.317 347.058 125.183L345.488 126.197C342.059 128.406 337.797 131.26 333.433 134.665C338.604 134.183 343.993 133.947 349.651 133.947C349.833 133.947 350.02 133.947 350.202 133.947L351.831 133.145C351.054 131.55 350.266 128.401 351.733 122.186Z" fill="black"/>
<path d="M379.22 39.7017C379.801 39.7017 380.47 39.8789 381.272 40.2283C382.901 40.9368 391.714 48.249 391.866 49.7498C391.97 50.7339 388.678 58.5135 387.979 59.9454C382.63 70.8841 371.682 79.2443 364.921 89.2874L399.237 68.2269C399.572 68.1285 399.872 68.0842 400.143 68.0842C402.116 68.0842 402.593 70.4412 403.804 71.8141C407.829 76.3805 413.547 78.7227 407.726 85.1048C399.793 93.8046 382.433 103.538 377.311 114.23C375.146 118.743 376.051 121.021 380.563 122.851L380.721 123.491C380.249 126.439 380.101 131.743 376.75 132.865C375.908 133.145 368.582 135.064 368.134 135.074C368.119 135.074 368.104 135.074 368.094 135.074C366.279 135.074 357.412 132.658 356.516 131.408C354.125 128.072 358.514 114.904 361.471 111.686C361.52 111.46 361.314 111.386 361.097 111.386C360.964 111.386 360.832 111.411 360.748 111.45C355.906 113.487 347.511 119.048 342.822 122.064C333.974 127.762 325.27 134.159 318.179 141.949C328.66 139.705 339.048 138.873 349.652 138.873C352.107 138.873 354.572 138.917 357.052 139.001L356.073 136.551C356.654 136.265 357.185 136.147 357.682 136.147C359.483 136.147 360.876 137.687 362.829 138.401C369.615 140.881 374.575 140.005 381.351 140.546C411.608 142.957 464.274 168.427 481.457 193.965C484.675 198.748 489.227 209.667 487.716 215.296C487.396 216.492 482.771 223.701 481.792 224.626C476.531 229.581 463.718 231.352 456.696 232.007C431.999 234.31 396.861 235.623 374.442 246.69C372.621 247.591 370.717 249.888 368.655 249.888C367.947 249.888 367.223 249.618 366.476 248.924C366.367 247.886 366.215 246.646 366.51 245.647C367.307 242.96 380.686 239.348 383.629 238.167L409.704 232.021C408.557 231.962 407.411 231.933 406.269 231.933C400.586 231.933 394.947 232.582 389.283 232.991C383.403 233.414 377.503 233.508 371.652 234.551C368.552 235.102 366.977 235.097 365.55 238.29C363.031 243.925 364.699 265.034 365.427 272.11C365.954 277.218 369.261 291.035 367.105 294.957C366.623 295.838 365.762 296.517 364.916 296.517C364.409 296.517 363.912 296.276 363.494 295.69C362.391 294.145 363.582 292.531 363.494 290.814C362.952 279.86 360.29 267.347 359.493 255.897C359.247 252.383 360.29 240.987 357.338 238.861C356.929 238.566 356.324 238.438 355.606 238.438C352.447 238.438 347 240.864 345.292 242.183C345.164 243.339 345.725 244.363 345.759 245.519C345.986 253.057 346.148 260.694 345.715 268.154C345.612 269.98 346.306 274.861 345.046 275.845C344.642 276.165 343.875 276.376 343.137 276.376C342.34 276.376 341.587 276.126 341.375 275.486C340.972 271.244 342.226 247.797 339.343 246.001C339.097 245.849 338.811 245.775 338.506 245.775C335.687 245.775 330.609 251.635 328.965 252.875C326.864 254.46 325.353 255.085 324.113 255.085C321.378 255.085 319.931 252.068 316.216 249.721L322.411 271.864C322.062 275.378 319.601 276.342 316.88 277.7C312.205 280.028 307.088 281.647 302.33 283.817C300.927 284.451 299.727 285.77 298.344 285.77C297.699 285.77 297.01 285.48 296.248 284.697L288.173 254.824C287.976 252.683 292.439 251.891 292.552 250.011C292.715 247.281 290.54 239.708 290.136 236.189C289.191 227.991 289.083 219.572 288.655 211.345C288.601 211.286 288.517 211.261 288.404 211.261C285.693 211.261 266.168 226.82 264.288 228.552C257.025 235.259 253.822 238.699 253.206 248.963C252.626 258.706 253.6 268.572 254.21 278.266C254.648 278.271 255.086 278.276 255.524 278.276C262.398 278.276 269.415 277.553 276.358 277.553C278.415 277.553 280.462 277.617 282.499 277.784C289.241 278.33 290.077 278.63 289.634 285.396C289.423 288.604 289.196 293.245 285.614 294.175C283.597 294.696 279.66 294.854 275.453 294.854C270.306 294.854 264.76 294.617 261.813 294.529C259.903 294.47 257.994 293.919 256.026 293.919C255.588 293.919 255.145 293.948 254.697 294.012C255.007 307.633 253.644 322.882 257.684 336.054C258.368 338.288 262.118 344.661 261.37 346.162C261.011 346.885 260.253 347.19 259.475 347.19C259.018 347.19 258.555 347.087 258.157 346.905C254.904 345.414 252.025 334.022 251.401 330.529C249.25 318.478 249.841 306.211 249.777 294.017C225.872 296.32 201.426 299.228 178.545 306.678C169.112 309.749 160.156 313.823 151.353 318.36C148.603 319.777 144.981 322.828 141.507 322.828C140.582 322.828 139.667 322.611 138.786 322.09C137.526 321.347 134.18 312.273 136.847 311.23C152.101 302.722 167.754 295.695 184.45 290.435C188.421 289.185 198.4 287.428 201.239 285.573C202.159 284.973 202.956 284.333 202.322 283.177C174.672 264.144 139.937 255.611 106.585 254.15C106.6 261.26 106.57 268.459 107.087 275.555C107.166 276.647 107.599 281.017 108.347 281.194C123.424 276.746 139.007 274.325 154.606 272.401C156.038 272.469 159.335 278.975 159.158 280.372C158.985 281.711 156.535 283.019 155.305 283.433C145.891 286.582 120.54 289.367 113.799 295.07C112.82 295.897 112.337 297.097 111.265 297.949C109.946 298.987 109.114 299.336 108.514 299.336C107.372 299.336 107.067 298.077 105.847 297.944C105.749 297.934 105.65 297.929 105.547 297.929C104.012 297.929 102.078 299.076 100.159 299.076C99.3221 299.076 98.4905 298.859 97.6934 298.234C95.297 296.359 94.8787 286.946 97.467 284.648C99.017 283.275 102.791 283.462 103.155 281.455L101.669 254.15C86.922 254.376 71.7122 256.079 57.2897 259.228C51.808 260.424 46.0262 261.934 40.766 263.863C37.9908 264.882 30.3932 268.956 28.1839 268.956C28.1593 268.956 28.1347 268.956 28.115 268.956C27.49 268.932 27.0718 268.745 26.5207 268.533C24.7788 267.869 15.7838 258.997 14.3174 257.122C13.2791 255.788 9.59847 249.534 9.85926 248.25C10.5678 244.746 23.5437 234.812 26.9291 232.317C49.6725 215.552 78.3797 200.854 106.501 196.253C111.934 195.362 116.909 195.087 122.336 194.619C122.966 193.926 117.017 187.258 115.275 187.258C113.518 187.268 107.909 189.477 105.847 190.186C97.6934 192.996 89.0625 196.888 81.1648 200.441C78.8078 201.499 71.476 205.868 69.2814 205.868C69.2076 205.868 69.1436 205.868 69.0845 205.853C66.5848 205.455 64.8921 202.994 63.6915 200.869C62.6483 199.023 60.8867 195.855 61.8807 193.955C63.4848 190.885 74.64 185.861 78.2124 184.202C86.5234 180.354 95.3659 177.471 103.633 173.711C103.642 173.087 96.8421 168.54 95.7251 167.846C93.0138 166.158 84.8701 161.238 81.7208 161.238C81.6027 161.238 81.4896 161.242 81.3862 161.257C79.2605 161.552 76.3967 163.506 74.0692 163.506C73.6165 163.506 73.1785 163.432 72.775 163.255C70.2655 162.168 70.3098 156.592 66.5159 154.737C63.3569 153.197 53.9977 151.49 50.012 150.574C43.6594 149.108 37.169 148.153 30.8263 146.633C29.4386 145.787 29.7093 141.383 29.9504 139.872C30.2456 138.012 34.9744 124.426 35.9438 123.727C36.5047 123.324 37.1543 123.206 37.8235 123.206C38.4927 123.206 39.1668 123.324 39.7917 123.402C50.2088 124.721 60.0502 130.705 71.4268 130.705C72.0714 130.705 72.7209 130.685 73.3754 130.646C75.3879 130.523 80.7367 129.15 82.9805 129.15C83.2561 129.15 83.4824 129.17 83.6547 129.219C83.9548 129.302 84.6142 129.819 84.255 130.198C83.7924 132.545 81.5831 132.914 80.0281 134.346C80.594 134.981 81.3813 135.512 82.2277 135.512C82.4737 135.512 82.7197 135.468 82.9707 135.37C111.619 121.006 137.777 102.263 162.43 81.9261C175.873 70.8349 189.06 59.3746 200.959 46.6104C201.382 46.4283 201.83 46.2364 202.292 46.2364H202.302C204.019 46.2462 211.568 51.5901 213.703 52.835C214.323 53.1942 215.578 53.3123 215.735 53.4993C215.839 53.6174 216.729 56.3582 216.725 56.5157C216.646 58.2625 208.477 67.7299 206.736 69.6441C196.697 80.691 184.519 90.2223 174.574 101.451L174.5 102.603C178.56 103.198 185.055 106.751 185.355 111.199C185.596 114.806 184.199 115.721 183.348 118.585C180.558 127.974 180.179 137.392 175.908 146.328C174.83 146.397 173.747 146.436 172.665 146.436C168.133 146.436 163.586 145.796 159.315 144.36C158.291 142.755 160.732 133.441 160.747 130.877C160.747 129.952 160.58 129.214 159.536 129.199C143.18 134.297 125.672 138.927 110.202 146.313C109.321 146.731 107.978 147.278 107.23 147.76C106.752 148.065 106.344 147.706 106.6 148.852C110.251 150.707 114.099 153.104 117.381 155.549C121.519 158.63 124.998 162.394 129.013 165.607L177.453 154.024L178.466 152.577C181.335 143.385 183.726 134.026 186.679 124.869C187.83 121.296 190.94 110.24 192.781 107.843C194.473 105.639 198.124 106.205 199.148 105.23C201.761 102.75 203.606 91.792 206.726 88.8199C208.812 86.832 213.226 85.7691 216.592 85.7691C217.29 85.7691 217.945 85.8134 218.521 85.9069C219.057 85.9955 224.819 89.3612 225.306 89.809C228.967 93.1747 226.074 98.0364 226.295 101.751C226.413 103.779 229.641 108.306 228.17 109.28L225.237 109.551C222.447 125.755 222.334 142.283 222.974 158.703C242.568 124.003 262.516 89.5039 284.871 56.5059C285.368 56.1073 286.022 55.9449 286.751 55.9449C288.758 55.9449 291.332 57.1652 292.764 57.9181C296.125 59.6846 299.476 62.8634 299.013 66.9475C295.982 76.1049 290.269 84.475 287.302 93.6176C286.952 94.6903 286.549 95.7138 286.667 96.88C291.814 100.187 302.093 96.88 300.927 105.772C300.474 109.201 297.296 116.661 296.189 120.716C289.989 143.469 288.232 160.952 285.161 183.991C284.556 188.547 284.212 193.488 279.188 195.235C278.646 195.422 278.169 195.51 277.751 195.51C274.311 195.51 274.69 189.694 273.755 186.658C273.608 186.176 273.622 185.28 273.037 185.28C273.002 185.28 272.963 185.28 272.924 185.29L265.046 207.915L274.557 201.932L289.078 194.309C289.959 178.883 293.32 163.742 296.066 148.591C296.459 146.51 294.097 145.944 293.684 144.094C293.541 143.454 293.079 138.883 293.162 138.406C293.561 136.142 299.121 131.738 299.854 129.307C300.799 126.173 300.888 120.947 301.685 117.36C305.238 101.338 310.582 82.2607 316.974 67.2034C318.145 64.4429 322.362 54.2719 324.93 53.5141C325.27 53.4108 325.732 53.3665 326.279 53.3665C330.087 53.3665 338.049 55.6841 338.167 58.5725C332.857 73.059 326.623 87.265 322.367 102.13C321.594 104.822 320.595 107.715 320.393 110.491C334.122 96.9784 347.496 83.0037 359.503 67.9169C362.819 63.7491 366.353 59.5026 369.261 55.0444C371.997 50.852 373.842 45.892 376.312 41.921C377.227 40.4546 378.054 39.7411 379.22 39.7411M211.892 283.659L248.729 278.428L248.793 270.629L247.577 258.067L246.834 257.584C247.061 259.198 246.298 260.109 245.087 261.019C245.028 261.034 244.974 261.039 244.92 261.039C243.887 261.039 243.503 258.77 243.38 258.081C241.613 258.623 240.27 259.134 238.666 259.134C237.997 259.134 237.288 259.046 236.481 258.834C235.399 258.549 231.181 255.055 230.379 254.11C227.038 250.149 231.959 244.54 232.515 240.082C233.233 234.319 232.535 227.15 233.051 220.935C234.995 197.454 240.9 173.382 247.316 150.816C244.61 154.545 242.568 159.225 240.501 163.432C235.812 172.964 228.962 190.786 222.93 198.512C221.685 200.111 221.02 200.928 219.579 200.928C219.111 200.928 218.56 200.839 217.881 200.667C210.618 198.807 212.508 197.779 211.179 192.115C210.48 189.133 209.181 186.043 208.482 183.002C206.002 172.24 204.452 161.434 204.994 150.319L193.312 178.243L189.498 189.133C196.879 215.075 206.898 240.342 218.196 264.808C219.008 266.57 223.874 274.723 223.146 275.737C221.114 275.786 220.715 277.725 219.726 278.468C217.276 280.303 213.964 281.248 211.888 283.664M376.829 174.45C377.685 174.45 378.802 174.395 379.953 174.395C382.414 174.395 385.017 174.651 385.509 176.251C386.857 180.655 378.959 185.826 376.238 188.449C368.473 195.933 360.054 203.846 352.865 211.822C351.059 213.825 349.484 216.182 347.703 218.219C361.776 213.18 376.543 210.597 391.32 208.451C407.79 206.06 424.397 204.973 440.881 202.901C442.269 202.729 451.475 201.577 451.52 200.76C441.506 189.153 426.857 180.694 412.991 174.346C393.721 165.519 373.089 159.589 351.881 157.709L328.517 156.233C327.966 156.706 330.082 158.566 330.476 158.945C342.408 170.361 360.325 173.062 376.002 174.435C376.233 174.455 376.514 174.464 376.824 174.464M309.086 187.76C310.783 187.76 319.946 184.689 324.3 184.689C324.861 184.689 325.339 184.739 325.718 184.857C327.592 185.433 329.551 192.956 328.931 194.767L327.897 195.702L309.396 201.804C308.638 212.841 311.482 223.509 313.194 234.285C313.519 236.337 313.504 238.566 313.76 240.618C313.819 241.105 313.923 241.637 314.238 241.637C314.366 241.637 314.523 241.553 314.73 241.351C320.32 227.066 328.759 214.573 338.369 202.739C339.81 200.967 349.716 190.309 349.662 189.438C342.207 185.802 334.422 182.78 327.469 178.189C321.053 173.953 315.92 168.294 310.316 163.117L308.835 187.716C308.874 187.75 308.958 187.77 309.086 187.77M148.111 227.603C147.22 227.603 146.447 227.514 145.965 227.312C143.288 226.191 136.965 213.549 134.771 212.427C133.649 211.857 130.8 211.714 128.266 211.714C126.765 211.714 125.377 211.763 124.526 211.802C121.096 211.965 112.623 212.678 109.616 213.623C103.436 215.567 106.231 228.036 105.601 232.986C134.362 235.018 162.607 241.932 189.252 252.669C187.771 247.325 185.213 242.38 183.343 237.178C182.245 234.123 176.542 214.656 175.484 214.036C175.115 213.82 174.692 213.771 174.264 213.771C173.915 213.771 173.555 213.805 173.221 213.805C173.152 213.805 173.088 213.805 173.019 213.805L173.89 204.84L164.683 174.164C164.186 173.559 163.527 173.416 162.833 173.416C162.395 173.416 161.948 173.475 161.519 173.51C156.638 173.903 146.438 176.615 141.522 178.13C140.735 178.371 139.696 178.622 139.066 179.114C144.272 184.753 147.112 192.016 151.457 198.216C153.553 201.203 162.592 210.508 162.73 213.072C162.764 213.667 162.73 214.248 162.415 214.775C159.851 217.097 156.712 224.606 154.281 226.318C153.213 227.071 150.3 227.618 148.106 227.618M71.1611 233.468C77.2578 232.602 83.3988 232.464 89.5496 232.464C92.5414 232.464 95.5332 232.499 98.525 232.499C99.2483 232.499 99.9667 232.499 100.685 232.494V222.899C100.685 221.841 99.3762 218.357 97.964 218.219C97.9345 218.219 97.9 218.219 97.8607 218.219C95.5873 218.219 84.7618 224.291 82.3261 225.708C78.5667 227.898 74.1282 230.383 71.1561 233.478M379.225 29.8604C376.027 29.8604 371.475 31.0414 367.966 36.6755C366.549 38.9489 365.398 41.301 364.281 43.5743C363.189 45.7935 362.16 47.8898 361.028 49.6218C358.844 52.9679 356.093 56.3976 353.436 59.7141C352.89 60.3932 352.348 61.0722 351.807 61.7513C349.268 64.9399 346.621 68.1383 343.826 71.4008C345.036 68.2712 346.247 65.0974 347.413 61.9235L348.087 60.0881L348.008 58.1346C347.88 54.9657 346.291 49.1298 337.104 45.6459C333.591 44.3124 329.447 43.4857 326.288 43.4857C324.758 43.4857 323.4 43.6678 322.14 44.0418C316.427 45.7345 312.978 51.4868 308.412 62.1646C307.821 59.7978 306.694 57.5343 305.061 55.4578C302.605 52.3331 299.51 50.3206 297.345 49.1839C293.374 47.0975 289.91 46.0789 286.751 46.0789C283.592 46.0789 280.925 47.0237 278.7 48.8148L277.549 49.7399L276.722 50.9603C261.232 73.8266 246.81 97.564 233.662 120.15C233.78 119.107 233.898 118.108 234.026 117.163C236.963 114.998 239.429 110.781 237.947 105.073C237.539 103.503 236.924 102.116 236.383 100.89C236.338 100.787 236.289 100.674 236.235 100.556C236.284 100.29 236.338 99.9997 236.383 99.7537C236.712 97.997 237.165 95.5908 236.958 92.909C236.653 88.8446 234.921 85.2525 231.959 82.5313C231.378 81.9999 230.778 81.4488 226.861 79.1754C223.353 77.1432 221.96 76.4641 220.08 76.159C218.993 75.9819 217.817 75.8933 216.587 75.8933C215.839 75.8933 215.052 75.9278 214.24 75.9917C215.288 74.8255 217.719 72.0208 220.026 69.152C224.406 63.6999 226.389 60.6441 226.556 56.934C226.645 55.0198 226.197 53.6469 225.631 51.9099C225.055 50.1483 224.563 48.6279 223.195 47.0434C221.35 44.9029 219.155 44.1353 217.851 43.7908C217.409 43.5054 216.867 43.1511 216.395 42.8461C209.235 38.1665 206.165 36.3951 202.386 36.3655H202.351H202.292C199.773 36.3655 197.854 37.202 197.037 37.5563L195.157 38.3732L193.76 39.874C181.62 52.899 167.946 64.5905 156.171 74.3089C132.074 94.1933 110.497 109.236 89.1461 120.981C88.2457 120.411 87.2664 119.973 86.2331 119.692C85.2145 119.417 84.1517 119.284 82.9805 119.284C80.9286 119.284 78.6995 119.687 75.5355 120.298C74.6006 120.48 73.2031 120.75 72.7111 120.804C72.2879 120.829 71.8598 120.844 71.4268 120.844C66.4864 120.844 61.428 119.195 56.0693 117.448C51.3209 115.898 46.415 114.299 41.0268 113.62C40.9284 113.605 40.8251 113.596 40.7218 113.581C40.0427 113.487 39.0143 113.345 37.8186 113.345C34.2412 113.345 31.6923 114.639 30.1866 115.726C27.6032 117.586 26.4026 119.771 23.4305 128.008C22.3824 130.911 20.5716 136.113 20.2222 138.312C19.6416 141.978 19.0117 150.944 25.694 155.018L27.0177 155.825L28.5283 156.184C32.081 157.035 35.619 157.709 39.0438 158.359C42.0848 158.94 44.9585 159.486 47.7977 160.14C48.8163 160.376 50.0514 160.637 51.4833 160.937C53.7665 161.42 58.6084 162.438 61.0934 163.186C61.1721 163.363 61.2459 163.536 61.3099 163.683C62.3727 166.134 64.154 170.228 68.8582 172.265C70.482 172.968 72.2289 173.323 74.0593 173.323C77.2479 173.323 79.915 172.25 81.8881 171.423C82.0554 171.497 82.2375 171.581 82.4343 171.669C79.6542 172.786 76.8494 173.958 74.0741 175.247L73.5131 175.508C60.5914 181.466 55.4543 184.965 53.1514 189.374C50.258 194.91 52.3985 200.509 54.1454 203.9C40.2051 211.015 28.7399 218.731 21.0882 224.375C20.1976 225.034 15.523 228.508 10.9664 232.43C3.94461 238.477 1.03157 242.232 0.209813 246.282C-0.518447 249.893 0.711722 253.18 2.93095 257.309C3.96429 259.233 5.4897 261.792 6.55749 263.16C8.2502 265.325 12.9741 269.862 13.5104 270.373C19.4743 276.076 21.3392 277.07 23.0073 277.705L23.1303 277.754C23.9619 278.079 25.5169 278.674 27.6967 278.768C27.8542 278.773 28.0166 278.778 28.1888 278.778C31.6579 278.778 35.0728 277.267 40.8054 274.59C41.9864 274.039 43.6004 273.286 44.1564 273.085C48.3439 271.549 53.4712 270.117 59.3957 268.823C69.9604 266.52 81.2042 264.99 92.379 264.326L93.004 275.781C92.3151 276.18 91.6212 276.667 90.952 277.262C86.5136 281.199 85.7459 287.418 85.8886 291.941C86.0264 296.394 87.1385 302.436 91.6458 305.965C94.0963 307.879 97.0438 308.892 100.173 308.892C101.758 308.892 103.16 308.636 104.317 308.341C105.473 308.809 106.88 309.153 108.529 309.153C112.48 309.153 115.467 307.155 117.371 305.65C118.882 304.459 119.851 303.194 120.451 302.382C121.165 301.974 123.187 301 128.083 299.681C132.63 298.461 137.93 297.388 143.047 296.354C143.515 296.261 143.977 296.167 144.435 296.074C140.439 298.067 136.424 300.183 132.379 302.431C128.748 304.228 126.41 307.829 126.061 312.253C125.79 315.703 126.75 319.309 127.601 321.73C129.638 327.512 131.986 329.48 133.806 330.548C136.168 331.941 138.766 332.644 141.522 332.644C146.876 332.644 151.27 329.909 154.178 328.098C154.822 327.694 155.492 327.281 155.88 327.079C165.54 322.095 173.713 318.576 181.606 316.008C200.472 309.867 220.504 306.949 239.921 304.872C239.901 313.798 240.068 322.965 241.726 332.231C242.169 334.706 243.203 338.894 244.512 342.663C247.72 351.909 251.302 354.546 254.063 355.816C255.75 356.588 257.625 357.002 259.49 357.002C264.101 357.002 268.2 354.522 270.193 350.526C272.825 345.246 270.389 340.099 268.032 335.12C267.713 334.44 267.23 333.427 267.073 333.023C264.509 324.57 264.524 314.354 264.583 304.439C267.678 304.542 271.625 304.665 275.468 304.665C281.55 304.665 285.447 304.36 288.104 303.667C290.653 303.007 295.052 301.083 297.537 295.552C297.822 295.572 298.098 295.582 298.359 295.582C302.207 295.582 304.987 293.737 306.325 292.851C306.419 292.787 306.542 292.708 306.63 292.649C308.412 291.847 310.311 291.104 312.319 290.317C315.241 289.17 318.268 287.984 321.289 286.479C321.461 286.395 321.628 286.311 321.796 286.228C324.473 284.914 329.644 282.37 331.573 276.106C331.583 276.204 331.588 276.298 331.598 276.391L331.701 277.489L332.046 278.537C333.576 283.192 337.936 286.198 343.156 286.198C344.889 286.198 348.225 285.859 351.143 283.566C351.787 283.064 352.338 282.518 352.816 281.952C353.19 284.943 353.49 287.822 353.647 290.573C353.239 292.388 352.309 296.91 355.498 301.378C357.741 304.528 361.181 306.329 364.93 306.329C369.339 306.329 373.483 303.78 375.741 299.671C378.767 294.17 377.793 286.641 375.963 275.791C375.638 273.877 375.333 272.071 375.229 271.072C374.905 267.923 374.516 263.209 374.28 258.421C376.066 257.599 377.449 256.556 378.398 255.838C378.6 255.685 378.861 255.488 379.018 255.38C396.492 246.848 423.979 244.584 446.082 242.763C450.132 242.429 453.955 242.114 457.621 241.774C472.782 240.362 482.904 237.085 488.553 231.756C489.123 231.215 490.191 230.211 493.311 225.324C496.603 220.158 496.967 218.805 497.233 217.815C500.062 207.266 492.504 192.71 489.635 188.444C477.584 170.533 453.886 156.553 440.837 149.812C423.073 140.64 404.389 134.075 389.288 131.595C389.864 129.568 390.114 127.629 390.306 126.143C390.361 125.715 390.415 125.312 390.459 125.036L390.779 123.053L390.297 121.105L390.139 120.465L388.934 115.603L388.299 115.347C391.591 111.352 397.279 106.849 402.052 103.07C406.914 99.2223 411.5 95.5908 415.023 91.7281C420.721 85.4788 420.588 79.7954 419.466 76.1246C418.197 71.9666 415.392 69.3242 413.133 67.2034C412.518 66.6228 411.933 66.0717 411.451 65.5599C411.411 65.4959 411.372 65.427 411.337 65.368C410.826 64.4921 410.053 63.1635 408.769 61.8645C406.461 59.5222 403.405 58.233 400.167 58.233C399.916 58.233 399.661 58.2429 399.405 58.2576C401.309 53.4796 401.939 51.3145 401.673 48.7312C401.245 44.5831 398.612 41.611 393.588 37.2512C389.888 34.043 387.073 32.0058 385.218 31.1988C383.137 30.2934 381.183 29.8555 379.24 29.8555L379.225 29.8604ZM126.381 150.132C133.791 147.342 141.551 144.926 149.218 142.603C149.183 145.196 149.641 147.489 151.024 149.644L151.329 150.127L131.621 154.841C131.247 154.501 130.869 154.152 130.485 153.802C129.166 152.592 127.818 151.357 126.381 150.137V150.132ZM377.778 200.613C378.448 199.968 379.112 199.329 379.776 198.689C380.883 197.626 381.981 196.573 383.063 195.53C383.358 195.244 384.072 194.649 384.702 194.127C386.67 192.489 389.12 190.447 391.187 187.962C394.336 184.173 395.404 180.659 395.498 177.742C399.976 179.405 404.439 181.255 408.887 183.292C416.696 186.869 423.413 190.535 429.111 194.349C425.553 194.728 422 195.082 418.507 195.431C409.153 196.366 399.479 197.326 389.903 198.718C385.917 199.299 381.862 199.919 377.773 200.623L377.778 200.613ZM154.803 184.719C155.703 184.507 156.579 184.311 157.411 184.133L160.191 193.394C159.891 193.03 159.65 192.73 159.527 192.553C158.095 190.511 156.781 188.198 155.388 185.747C155.196 185.408 155.004 185.068 154.808 184.724L154.803 184.719ZM199.832 189.418L199.965 189.039C200.147 189.62 200.329 190.181 200.506 190.717C200.944 192.051 201.352 193.311 201.603 194.368C201.78 195.116 201.864 195.746 201.963 196.46C201.224 194.103 200.516 191.761 199.832 189.428V189.418ZM220.272 245.322C213.984 230.752 208.664 216.876 204.216 203.452C204.664 204.141 205.205 204.825 205.865 205.489C208.354 207.994 211.494 209.185 215.445 210.198C216.936 210.582 218.294 210.769 219.588 210.769C221.424 210.769 222.989 210.425 224.332 209.878C223.899 213.288 223.535 216.708 223.254 220.123C222.979 223.43 223.003 226.761 223.028 229.984C223.053 233.242 223.072 236.322 222.777 238.773C222.664 239.225 222.191 240.347 221.881 241.095C221.365 242.33 220.764 243.752 220.287 245.332L220.272 245.322ZM319.217 208.924L321.978 208.014C321.107 209.244 320.261 210.469 319.444 211.684C319.35 210.759 319.271 209.839 319.212 208.924H319.217ZM115.364 222.52C118.075 222.151 122.026 221.772 125.003 221.629C125.623 221.6 126.873 221.55 128.27 221.55C128.772 221.55 129.21 221.555 129.589 221.565C130.199 222.49 130.883 223.568 131.42 224.414C131.843 225.083 132.251 225.723 132.645 226.333C126.883 225.354 121.116 224.562 115.349 223.957C115.349 223.46 115.349 222.972 115.364 222.515V222.52ZM161.706 232.883C163.768 230.855 165.328 228.218 166.957 225.457C167.296 224.882 167.754 224.104 168.187 223.41L168.645 223.43C169.791 226.894 171.194 231.397 172.03 234.088C172.271 234.861 172.488 235.559 172.684 236.194C169.033 235.013 165.367 233.911 161.702 232.883H161.706ZM270.945 235.786C272.008 234.836 275.655 231.923 279.631 228.877C279.808 231.677 280.039 234.487 280.364 237.296C280.585 239.225 281.092 241.548 281.628 244.013C281.766 244.633 281.928 245.401 282.091 246.178C282.047 246.223 281.997 246.267 281.953 246.311C279.325 248.88 278.056 252.216 278.376 255.71L278.454 256.556L278.676 257.378L281.5 267.834C279.877 267.741 278.179 267.696 276.353 267.696C272.619 267.696 268.938 267.888 265.375 268.075C264.706 268.11 264.042 268.144 263.387 268.179C262.964 261.757 262.669 255.601 263.028 249.539C263.422 242.936 264.622 241.622 270.941 235.786H270.945ZM330.304 263.524C330.707 263.342 331.096 263.15 331.475 262.948C331.48 264.724 331.475 266.378 331.465 267.672L330.304 263.524ZM116.594 268.833C116.544 267.445 116.515 266.053 116.49 264.66C120.825 265.049 125.102 265.561 129.309 266.196C125.116 266.958 120.86 267.829 116.594 268.833ZM232.185 270.836C231.797 269.724 231.354 268.784 231.029 268.105C230.812 267.642 230.581 267.17 230.34 266.698C231.669 267.534 232.791 268.036 233.976 268.346C235.576 268.769 237.111 268.971 238.671 268.971C238.695 268.971 238.72 268.971 238.749 268.971L238.838 269.891L232.185 270.836ZM167.424 285.947C168.162 284.707 168.704 283.27 168.915 281.617C169.127 279.974 168.969 278.32 168.399 276.421C172.404 277.981 176.272 279.683 180.002 281.514C175.789 282.872 171.602 284.348 167.424 285.947Z" fill="white"/>
<path d="M272.614 47.5999C268.839 47.5999 265.311 47.3293 262.123 46.7929C256.808 45.8974 249.914 41.0603 250.8 34.3092C251.273 30.7318 254.333 28.2321 258.245 28.2321C260.725 28.2321 262.915 29.2901 264.101 31.0566C264.283 31.3223 264.426 31.588 264.544 31.8488C263.978 27.189 267.639 23.7592 269.287 22.2142C281.983 10.3307 307.142 4.91797 325.152 4.91797C327.42 4.91797 329.6 5.00162 331.622 5.17384C331.76 5.18369 345.321 6.40893 348.992 13.9425C350.419 16.8703 350.119 20.1327 348.156 23.1294C343.23 30.6433 322.253 37.9406 322.047 38.0095C308.594 42.384 289.098 47.5999 272.609 47.5999H272.614ZM279.626 32.2819C279.557 32.3507 279.448 32.4738 279.325 32.6115C284.846 32.3655 289.044 31.5585 295.47 30.1217C307.324 27.4744 318.824 24.6105 328.911 19.3749C327.528 19.2765 326.057 19.2224 324.522 19.2224C310.316 19.2224 289.777 23.7986 279.626 32.2769V32.2819Z" fill="black"/>
<path d="M325.156 9.84136C327.292 9.84136 329.319 9.92009 331.213 10.0825C335.834 10.4712 348.441 13.7287 344.042 20.4356C340.991 25.0905 326.027 31.5415 320.526 33.3327C306.95 37.7465 288.335 42.682 272.613 42.682C269.228 42.682 265.98 42.4556 262.944 41.9439C259.898 41.4321 255.209 38.5633 255.681 34.9516C255.848 33.6673 257.108 33.1555 258.245 33.1555C259.022 33.1555 259.746 33.3966 260.016 33.8051C260.341 34.2873 259.928 35.2763 260.818 36.1965C262.053 37.4611 265.586 37.7022 268.849 37.7022C270.837 37.7022 272.721 37.6137 273.932 37.6137C274.011 37.6137 274.089 37.6137 274.158 37.6137C274.611 37.6186 275.059 37.6235 275.492 37.6235C283.517 37.6235 288.369 36.7575 296.533 34.9368C311.654 31.5612 327.149 27.6493 339.825 18.4378C341.335 16.3317 330.687 14.5947 329.732 14.516C328.084 14.3831 326.337 14.3143 324.516 14.3143C308.819 14.3143 287.478 19.2595 276.392 28.5744C275.344 29.4552 272.712 33.3179 270.93 33.3179C270.355 33.3179 269.867 32.9144 269.552 31.8761C268.814 29.4453 271.034 27.3245 272.643 25.8188C284.152 15.0425 307.948 9.8512 325.146 9.8512M325.156 0C315.157 0 304.145 1.52541 294.146 4.30067C285.776 6.62323 274.084 10.9928 265.931 18.6248C264.952 19.54 263.313 21.0753 261.975 23.1321C261.842 23.3339 261.719 23.5356 261.596 23.7423C260.528 23.4618 259.401 23.3142 258.245 23.3142C251.892 23.3142 246.711 27.669 245.923 33.6722C245.264 38.6864 247.38 43.6169 251.73 47.2041C254.471 49.4676 257.964 51.0865 261.31 51.6474C264.765 52.2281 268.568 52.5233 272.618 52.5233C286.371 52.5233 303.52 49.2166 323.577 42.6918C326.736 41.6634 332.306 39.4294 337.63 36.7525C347.53 31.7728 350.66 28.3037 352.279 25.8336C355.192 21.3902 355.61 16.2727 353.425 11.7949C351.462 7.76483 347.599 4.65496 341.936 2.55383C338.791 1.38763 335.091 0.536354 332.04 0.280479C329.88 0.0984135 327.562 0.00492068 325.161 0.00492068L325.156 0Z" fill="white"/>
</svg>
