<svg width="614" height="285" viewBox="0 0 614 285" fill="none" xmlns="http://www.w3.org/2000/svg">
<g filter="url(#filter0_n_242_337)">
<path d="M266.651 13.4741C264.7 25.3594 261.116 36.7206 256.399 47.4937L256.397 47.4985C256.241 47.8532 256.079 48.1966 255.916 48.5269L260.785 50.1196L260.313 50.7114L261.559 51.0278L260.451 52.4106L261.226 52.3608C262.711 52.264 264.851 52.4042 267.107 53.5005C268.953 54.398 270.362 55.6894 271.374 57.0864L274.671 57.7563C274.708 57.7588 274.743 57.7621 274.777 57.7642C275.15 57.7025 276.054 57.5475 276.926 57.4497C277.817 57.3499 279.407 57.2141 281.2 57.4497C282.907 57.674 286.219 58.42 288.962 61.3325C289.531 61.9363 290.12 62.6931 290.636 63.6079L298.352 65.6851L289.655 78.1167C291.228 78.1462 293.043 78.37 294.388 78.5522C296.222 78.8008 298.333 79.1411 300.389 79.5093C302.444 79.8774 304.539 80.2904 306.34 80.6929C307.842 81.0287 309.978 81.5338 311.572 82.1714L311.575 82.1724C314.955 83.5253 318.025 86.0138 320.23 88.4985C323.532 86.2261 327.198 84.3858 331.276 83.1997L331.28 83.1987C332.541 82.8325 333.769 82.629 334.66 82.5044C335.599 82.3733 336.53 82.2814 337.267 82.2124C337.783 82.1641 338.175 82.1256 338.517 82.0933C338.774 81.9534 339.042 81.8146 339.294 81.6978C340.916 80.9448 342.909 80.3897 345.244 80.4038C345.92 80.4079 346.574 80.4592 347.201 80.5464C347.72 80.1918 348.278 79.8129 348.795 79.4741C349.62 78.9337 350.933 78.0964 352.319 77.4624L352.322 77.4614C354.837 76.3129 358.105 74.8876 362.026 74.7358C365.745 74.5921 369.112 75.6667 371.409 76.3687C371.441 76.3782 371.471 76.3891 371.502 76.3989L384.101 75.8052L384.248 79.1733C384.514 79.2174 384.79 79.2693 385.07 79.3315C385.457 79.4175 385.964 79.5464 386.541 79.7446C388.29 75.2591 389.902 70.7295 391.356 66.1509L395.427 53.3237L409.214 60.9937L421.357 59.0522L421.387 65.2622C421.581 65.2722 421.774 65.2862 421.964 65.3013H421.976C422.576 65.3496 423.119 65.4355 423.589 65.5317C424.397 65.3273 425.324 65.1764 426.345 65.1479C429.343 65.0646 432.172 66.0628 434.45 67.8579C435.176 68.4275 435.762 69.0327 436.229 69.605L448.726 59.0034L449.045 58.77C454.124 55.0542 461.631 48.7389 473.354 48.7075H473.361C474.765 48.7038 476.005 48.8818 476.853 49.0288C477.693 49.1745 478.541 49.3642 479.015 49.4673C479.248 49.5179 479.431 49.5554 479.577 49.5854C479.627 49.5686 479.684 49.552 479.745 49.5298C479.776 49.5179 482.169 48.5736 483.498 48.1782C485.467 47.5929 488.301 47.0289 491.65 47.5815C495.029 48.1392 497.952 49.6674 500.462 51.686C504.929 55.2782 506.964 60.1409 507.859 64.2896C508.697 68.1777 508.705 72.1678 508.406 75.6987C508.485 75.6736 508.559 75.6479 508.629 75.6265C508.882 75.5492 509.136 75.4811 509.361 75.4224C509.408 75.3851 509.46 75.3461 509.513 75.3032C510.138 74.7986 510.735 74.2819 511.634 73.5239C512.414 72.866 513.45 72.0024 514.514 71.2339C515.367 70.6177 517.221 69.3199 519.561 68.5952C524.335 67.1167 528.83 68.0453 531.21 68.6294C532.518 68.9503 533.817 69.3434 534.668 69.5942C534.888 69.659 535.086 69.7134 535.263 69.7642C535.568 69.7326 535.907 69.7036 536.266 69.6909C537.443 69.6493 538.99 69.7412 540.709 70.2729C541.766 70.5997 542.683 71.031 543.465 71.4907C543.815 70.9828 544.16 70.4794 544.481 70.022C544.809 69.5535 545.141 69.084 545.447 68.6646C545.712 68.3022 546.112 67.7642 546.532 67.269L546.539 67.2612C549.192 64.1427 554.564 58.5396 560.001 53.4438C562.742 50.8755 565.649 48.2946 568.359 46.1489C570.755 44.253 574.017 41.8574 577.249 40.6226L577.252 40.6216C580.816 39.2612 584.301 39.3703 586.858 39.7573C589.506 40.1584 592.001 40.9857 594.121 41.8833C598.242 43.628 602.33 46.2305 605.115 48.8481L605.524 49.2388C613.96 57.4688 614.532 67.7769 612.534 76.0601C610.622 83.9896 606.19 91.241 602.885 96.1216C600.112 100.219 596.542 105.299 592.54 110.78L596.238 108.282L598.365 114.442C598.753 114.426 599.14 114.418 599.527 114.422L603.882 114.469L607.025 117.484C609.562 119.918 610.235 122.788 610.408 124.384C610.581 125.974 610.381 127.261 610.251 127.924C609.989 129.268 609.538 130.357 609.325 130.853C608.845 131.972 608.219 133.115 607.846 133.792C607.828 133.824 607.809 133.856 607.791 133.888C607.817 134.962 607.714 136.396 607.18 137.984C606.463 140.115 605.178 141.915 603.559 143.265C603.194 143.569 602.823 143.841 602.451 144.084C603.345 146.371 601.867 148.724 598.725 156.388C596.96 160.694 594.804 166.244 591.84 171.327C580.561 190.667 563.86 206.627 537.369 207.13L537.37 207.131C528.071 207.308 520.272 204.489 514.126 198.985C513.664 198.571 513.216 198.144 512.781 197.709L511.519 199.842L507.027 208.849C506.961 209.023 506.88 209.241 506.784 209.494C506.517 210.202 506.149 211.183 505.75 212.271C504.918 214.541 504.065 216.962 503.631 218.425L503.63 218.424C503.303 219.528 502.992 220.887 502.502 222.95C502.055 224.834 501.49 227.159 500.753 229.48C499.49 233.46 496.855 240.509 490.432 244.48L490.43 244.481C485.729 247.386 479.96 247.603 476.323 247.359C472.592 247.109 467.228 246.107 463.113 243.074C458.542 239.705 455.053 234.714 452.786 229.992C450.528 225.288 448.767 219.361 449.126 213.543C449.523 207.117 452.67 202.993 454.182 201.001C454.202 200.974 454.222 200.947 454.241 200.92C454.206 200.688 454.17 200.434 454.145 200.162C454.079 199.454 454.004 198.048 454.405 196.36L454.408 196.345L454.412 196.331C454.772 194.836 455.377 193.584 456.073 192.553C456.151 192.191 456.251 191.794 456.381 191.375L456.382 191.371C456.48 191.054 456.581 190.737 456.683 190.419L455.445 190.344C455.43 190.376 455.415 190.408 455.4 190.441C455.074 191.125 454.612 192.093 454.149 192.945C453.922 193.361 453.571 193.985 453.126 194.629C452.903 194.954 452.55 195.439 452.077 195.965C451.685 196.402 450.76 197.383 449.32 198.23L447.428 199.343L439.888 200.389L439.693 202.131L426.816 203.364L426.251 201.773L426.209 202.108L408.981 199.908L410.262 194.846C410.053 194.855 409.684 194.868 409.253 194.856C408.808 194.843 405.417 194.839 402.314 192.312C401.329 191.51 400.579 190.637 400.005 189.76C399.175 191.254 398.238 193.431 396.652 196.888C395.745 198.864 394.616 201.223 393.255 203.431C391.928 205.583 389.991 208.244 387.192 210.349C382.455 213.911 376.524 215.131 372.885 215.785C368.652 216.545 366.518 216.74 364.649 217.18C364.454 217.345 364.184 217.583 363.782 217.942C363.192 218.469 362.109 219.449 360.921 220.323C359.732 221.197 357.807 222.449 355.283 223.16L355.281 223.161C352.974 223.81 350.416 223.958 348.603 224.003C346.537 224.055 344.292 223.986 342.148 223.842C338.295 223.585 333.206 222.99 329.861 221.833C325.717 220.4 322.91 217.602 321.088 215.008C320.991 215.352 320.857 215.79 320.674 216.264C320.529 216.639 320.301 217.18 319.963 217.791C319.644 218.367 319.067 219.299 318.132 220.255L318.12 220.267C315.821 222.614 313.085 223.334 312.582 223.477C311.539 223.773 310.545 223.935 309.821 224.032C308.332 224.231 306.713 224.319 305.353 224.363C302.582 224.452 299.731 224.387 298.521 224.332H298.513C297.151 224.268 294.272 223.966 291.817 223.658C290.522 223.495 289.157 223.307 287.974 223.112C287.397 223.017 285.753 222.761 284.236 222.253C283.758 223.165 283.238 224.088 282.673 224.968C281.353 227.026 278.434 231.103 273.278 232.747C269.26 234.028 264.795 234.372 260.811 234.162C256.836 233.952 252.38 233.14 248.458 231.365L248.454 231.363C239.682 227.388 228.446 219.718 226.005 205.569L225.911 204.965C225.775 203.981 225.728 203.086 225.715 202.37C225.702 201.653 225.343 196.307 226.552 188.784C227.761 181.26 230.101 173.453 232.231 167.32L232.232 167.317C232.864 165.496 233.561 163.703 234.289 161.955C229.634 162.927 224.948 163.343 220.644 163.587C219.77 173.796 218.506 183.962 216.885 194.059C215.436 203.016 213.728 211.929 211.743 220.784C208.297 236.163 204.739 252.357 194.175 267.706C192.721 269.817 190.663 273.084 187.916 275.43C185.801 277.237 183.514 278.38 181.29 279.234C180.262 280.192 178.65 281.351 176.384 281.937C174.088 282.531 171.995 282.344 170.229 281.788C169.65 281.817 169.105 281.818 168.601 281.802C168.05 281.784 167.555 281.747 167.223 281.721C167.111 281.712 167.02 281.706 166.943 281.7C166.715 281.801 166.439 281.931 166.119 282.092C165.613 282.348 165.161 282.594 164.644 282.873C164.434 282.985 164.092 283.169 163.768 283.332C163.611 283.41 163.31 283.558 162.947 283.711C162.765 283.789 162.459 283.913 162.079 284.04C161.785 284.138 160.999 284.391 159.964 284.525L159.924 284.531L159.884 284.536C158.063 284.757 155.156 284.716 152.998 284.588C151.802 284.518 150.386 284.397 149.052 284.177C148.398 284.07 147.525 283.9 146.605 283.621C146.026 283.445 143.956 282.821 142.012 281.156L140.402 279.776L139.419 277.897C136.153 271.649 135.978 265.564 136.321 260.868C136.486 258.617 136.804 256.349 137.019 254.678C137.222 253.097 137.358 251.871 137.411 250.784C136.604 251.999 135.752 253.264 134.889 254.503C133.497 256.503 131.983 258.586 130.503 260.416C129.192 262.036 127.313 264.216 125.197 265.788L125.198 265.789C120.877 268.999 115.632 269.624 112.96 269.878C111.381 270.029 109.788 270.104 108.626 270.165C108.227 270.185 107.876 270.207 107.566 270.226C106.293 270.855 104.349 271.586 101.905 271.677H101.896C95.7121 271.904 89.6471 269.957 85.4845 264.826C81.7755 260.253 80.9658 254.793 80.8898 250.859C80.8785 250.273 80.8837 249.684 80.9025 249.094L71.297 245.18C71.2575 245.169 71.2178 245.158 71.1789 245.147C70.1325 245.403 68.5904 245.681 66.7667 245.592C64.4511 245.48 62.1039 244.804 59.9201 243.458L57.3888 241.898L54.8859 237.209L54.5695 235.596C54.5222 235.355 54.4772 235.113 54.4347 234.871L53.5255 236.804C52.9835 237.967 52.5919 239.096 52.0841 240.617C51.6478 241.923 50.9426 244.13 49.8966 246.219C48.728 248.554 47.0317 251.01 44.3869 253.151C41.815 255.233 38.8533 256.606 35.6867 257.549H35.6847C30.1688 259.191 23.686 258.699 18.4406 257.263C13.6211 255.944 6.824 252.988 2.95815 246.789L2.59292 246.178C0.191074 241.984 0.429998 237.242 0.606588 235.024C0.83717 232.128 1.44854 229.081 2.11049 226.387C3.44375 220.963 5.33677 215.565 6.41909 212.833L7.13393 211.04C21.1109 176.258 41.2395 140.313 59.672 108.141C58.4403 108.405 57.2238 108.65 56.0373 108.871C53.5547 109.332 51.0418 109.731 48.5822 110.064L49.755 112.362L30.5275 111.184C29.8314 111.141 29.0152 111.167 27.4611 111.227C26.1429 111.278 24.1104 111.363 22.0265 111.198H22.0216C20.591 111.084 19.3661 110.777 18.3966 110.452C16.7875 110.546 14.0606 110.405 11.2824 108.698C7.65947 106.471 6.26845 103.062 5.75796 100.859L2.13491 85.229L10.8351 86.4644C11.6447 85.3518 12.5254 84.5274 13.2248 83.9741C14.6257 82.8661 16.1347 82.1956 16.1847 82.1724C19.4086 80.6236 23.3388 79.6635 26.0119 79.022C29.2747 78.2388 31.4441 77.7606 33.0998 77.188C50.5659 71.142 60.2069 64.791 73.5636 51.7866C76.562 48.8673 79.6834 45.2299 83.4132 41.0151C86.909 37.0649 90.9704 32.5761 95.1759 29.0591L95.1789 29.0562C97.4978 27.1183 99.9873 26.088 101.115 25.6147C102.26 25.1344 102.547 25.0062 102.585 24.9937C103.335 24.4898 104.76 23.3002 107.152 21.354C108.182 20.5149 109.358 19.5702 110.462 18.7563C111.223 18.1954 112.832 17.0171 114.659 16.2163L115.027 16.061C116.373 15.5193 117.707 15.2324 118.983 15.1353C119.053 15.1299 119.124 15.1267 119.194 15.1226C119.214 15.1155 119.235 15.1081 119.255 15.1011C120.143 14.7983 121.413 14.485 122.954 14.4849L123.363 14.4917C123.388 14.4925 123.413 14.4937 123.438 14.4946L138.758 17.4595C139.913 17.8017 141.138 18.2501 142.031 18.6021C142.77 18.8929 143.625 19.252 144.443 19.6489C144.86 19.8517 146.588 20.6672 148.1 22.0464L148.102 22.0454C153.333 26.8175 153.733 33.0584 153.523 36.6001C153.327 39.8856 152.343 43.6961 152.134 44.6948L152.133 44.6968C149.831 55.7074 145 64.528 140.221 72.1099C136.219 78.4585 132.734 83.3081 129.685 88.5669C130.494 88.5865 131.359 88.684 132.265 88.8921C135.214 89.5698 137.482 91.1669 139.098 92.9019L139.471 93.3169C141.799 96.0134 142.77 99.1068 143.164 101.706C143.277 101.635 143.393 101.565 143.509 101.496C143.393 99.2876 143.631 93.798 148.895 90.187L148.911 90.1753L148.928 90.1646C150.399 89.1632 151.787 88.7387 152.233 88.605C152.871 88.4136 153.441 88.2952 153.828 88.2231C154.609 88.0778 155.402 87.9838 156.025 87.9185C157.279 87.7869 158.844 87.6751 160.128 87.5776C161.535 87.4708 162.775 87.3694 163.793 87.2485C163.797 87.2481 163.802 87.2471 163.806 87.2466C163.921 87.1263 164.053 86.9888 164.183 86.8569C164.435 86.6013 164.797 86.2436 165.227 85.8657C165.652 85.4918 166.261 84.9938 167.027 84.5044C173.195 80.5664 179.792 76.7822 185.826 73.228C186.619 71.5803 187.357 69.7443 188.126 67.6421C189.15 64.8433 190.499 60.782 191.918 57.3208L192.342 56.3013C193.351 53.9139 194.477 51.4806 195.441 49.3706C196.608 46.8147 197.536 44.7359 198.17 43.0347C202.352 31.8058 205.969 20.2176 209.7 8.38525L212.125 0.692871H268.748L266.651 13.4741Z" fill="url(#paint0_linear_242_337)"/>
</g>
<g filter="url(#filter1_n_242_337)">
<path d="M249.796 7.69287C248.014 18.5555 244.722 29.0339 240.322 39.082C238.96 42.1895 236.199 45.1895 235.459 49.17C235.177 50.6823 234.514 51.0634 236.3 51.6475L235.076 53.1813L236.3 53.4917L235.073 55.0255C236.34 54.9149 236.475 54.9517 236.3 56.255L232.621 56.8821C233.023 58.6771 236.769 56.6976 236.907 56.8759C237.147 59.2919 234.714 60.8349 232.621 61.1853L236.294 61.7847C232.035 63.2693 227.225 65.676 224.911 69.7488C218.873 80.3901 215.686 95.4176 211.255 107.092C210.445 109.222 208.733 110.983 208.031 113.082C207.62 114.312 205.914 122.593 206.303 123.192C209.359 124.154 225.092 129.453 226.829 126.997C228.16 125.113 225.028 121.022 224.693 118.603C223.883 112.787 225.936 107.418 227.697 102.048C229.875 95.3992 233.192 86.0642 237.497 80.9925C242.654 74.9188 248.56 70.0408 253.481 63.5029C254.411 62.2673 256.319 61.8984 255.942 59.338C257.12 59.2611 256.335 61.0962 256.555 61.9998C256.641 62.3533 259.605 63.2724 256.601 64.5203L257.169 66.7088L259.01 63.0173L262.078 63.6412L261.461 65.4762C264.447 64.007 266.309 64.7662 269.168 64.7816C270.534 64.7877 273.829 63.6781 274.955 64.8738C276.081 66.0695 270.708 67.2498 274.35 68.2303C271.347 72.5244 268.26 76.9229 265.618 81.6319C265.039 82.6677 265.345 84.0786 264.796 85.1113C263.535 87.4874 255.408 95.9002 258.396 98.058C261.925 97.6123 263.701 94.1512 266.404 92.2578C270.874 89.1257 277.747 85.2343 283.22 85.1144C286.067 85.0499 298.898 87.349 301.487 88.3849C304.39 89.5468 308.71 93.8469 308.415 97.1635C308.093 100.803 299.193 112.652 296.941 116.706C285.509 137.264 275.657 160.298 265.247 181.47C263.492 185.039 260.378 187.698 260.234 192.118C267.358 188.294 268.211 181.858 271.451 175.39C277.289 163.735 284.395 153.229 290.209 141.93C298.867 125.101 308.44 95.5529 328.348 89.7619C330.444 89.1533 334.273 89.1195 335.844 88.7353C337.58 88.3142 337.909 86.6329 341.102 87.8224C341.317 87.9023 340.992 89.055 342.075 88.7998C344.002 88.3419 348.613 84.5089 350.893 83.4669C355.866 81.1954 356.974 81.2938 362.196 82.889C363.677 83.3409 366.46 85.9382 366.423 83.3685L367.595 83.3132C367.758 87.0232 376.333 85.1667 377.404 86.4054C375.22 105.337 365.064 121.996 358.281 139.434C358.047 140.033 357.284 141.306 358.094 141.705C373.483 117.862 387.222 92.6297 395.84 65.4793L401.194 68.4578L404.422 67.9414L404.434 70.4004L406.262 69.1709C404.9 71.6391 407.078 70.5879 406.904 71.9219L405.661 74.9711L408.425 76.5387C409.128 73.2866 411.923 72.0141 415.092 72.2662C416.16 72.3522 417.446 73.2959 418.225 73.2159C419.004 73.136 420.287 71.4117 421.655 72.5059C422.348 73.0069 422.474 80.6114 422.189 81.6903C422.066 82.1544 421.158 81.9853 421.109 82.3696C420.983 83.3808 421.244 86.3931 421.299 87.6072L449.541 63.6474C455.263 59.4609 459.859 55.7263 467.388 55.7079C469.373 55.7017 471.978 56.753 473.984 56.6577C479.056 56.4179 482.115 51.8688 487.57 56.2581C495.034 62.2611 490.322 79.9198 487.554 87.598C486.302 91.0713 483.354 95.6943 482.36 98.9955C482.102 99.853 482.424 100.09 483.262 99.8991C489.904 93.2937 497.12 87.3029 505.122 82.4525C505.978 81.9331 507.294 81.9669 508.331 81.3644C510.847 79.9075 514.71 75.7549 516.814 75.1032C520.346 74.009 524.837 76.1637 528.344 76.8799C529.341 77.0827 530.375 76.4465 531.458 76.7815C533.134 77.2979 533.382 79.8214 536.739 80.0335C537.53 80.0827 541.933 79.5817 542.491 79.3173C542.988 79.0837 547.75 71.7651 548.919 70.3881C553.533 64.9629 569.165 49.1946 575.175 46.8985C579.805 45.1311 588.163 49.6495 591.584 52.8647C601.702 62.3718 594.087 76.637 587.776 85.9566C577.501 101.138 555.794 130.504 542.491 142.022C537.26 146.549 529.648 148.913 528.212 155.989C527.608 158.967 527.178 164.823 527.835 167.758C529.86 176.838 535.834 171.975 541.669 168.859C560.007 159.066 560.424 153.127 571.672 137.442C574.688 133.237 579.173 126.745 582.456 123.041C583.106 122.31 583.739 121.95 584.521 121.422C585.217 123.438 583.128 127.083 583.1 128.605C583.073 130.225 585.5 131.829 586.079 129.087C586.432 127.421 583.619 127.391 585.444 124.495L586.352 125.719C588.328 122.968 589.712 121.382 593.409 121.422C593.989 121.978 590.629 126.813 590.464 128.009C590.258 129.515 591.995 130.91 589.12 131.264V132.481L590.955 132.17C589.875 132.874 589.721 134.227 589.126 135.094C583.662 143.021 581.309 153.262 576.338 161.786C566.106 179.331 552.334 191.73 531.161 192.133C517.612 192.391 511.043 184.194 506.592 172.443L495.853 190.578L490.944 200.423C490.944 200.423 488.174 207.625 487.085 211.298C485.336 217.2 484.136 227.73 478.648 231.124C475.156 233.281 466.906 232.627 463.642 230.22C458.263 226.258 453.695 216.877 454.106 210.222C454.471 204.317 459.451 202.707 459.684 197.924C459.736 196.848 458.981 195.434 459.107 194.906C459.276 194.205 460.5 194.183 460.776 193.818C460.871 193.691 460.558 191.694 460.886 190.636C467.467 169.467 483.099 144.419 494.507 125.288L498.915 117.109C488.352 124.56 480.798 134.771 472.238 144.167C467.648 149.202 461.623 154.163 457.496 159.521C453.845 164.257 451.127 170.14 448.004 175.237C444.107 175 445.853 175.154 444.273 176.362C443.389 177.038 441.834 177.674 441.269 178.304C440.432 179.239 438.477 184.317 437.741 184.75L428.969 185.967L432.645 187.181L419.768 188.414L421.603 187.197L416.694 186.57L417.314 184.123C415.617 184.387 413.359 182.881 413.11 181.231C412.92 179.949 415.224 179.478 414.853 177.972C412.816 179.297 409.539 176.641 408.502 176.838C407.25 177.075 406.707 179.687 404.133 179.838C403.197 179.893 403.041 179.933 403.225 178.931C405.833 167.749 411.276 157.538 416.593 147.435C424.478 132.45 434.013 118.292 440.619 102.65C440.87 101.882 440.465 101.424 439.717 101.746C438.809 102.137 430.675 110.519 429.583 111.884C414.733 130.492 405.115 153.004 391.18 172.384C389.713 174.425 387.329 176.14 386.108 177.754C381.979 183.198 379.536 193.833 374.581 197.558C369.697 201.231 360.379 201.188 354.703 202.848C351.712 203.724 349.175 207.763 346.303 208.572C342.643 209.601 331.122 208.707 327.456 207.437C321.338 205.323 319.844 192.318 320.982 186.892L319.758 186.579C317.797 189.772 315.343 193.184 312.977 196.086C311.244 198.213 306.712 202.243 305.614 204.078C304.829 205.393 304.687 208.135 304.264 208.568C303.273 209.58 294.965 209.432 293.026 209.343C291.246 209.26 283.021 208.341 281.671 207.803C279.652 206.998 277.004 203.288 276.835 201.078C276.762 200.414 275.805 200.641 275.36 200.807C271.727 202.172 269.162 216.6 263.937 218.266C259.077 219.815 251.653 219.453 246.995 217.344C239.371 213.889 232.348 208.415 230.845 199.698C230.379 196.996 231.437 194.113 229.541 192.41L230.808 191.718C231.311 184.006 233.977 174.545 236.622 166.928C240.196 156.644 246.139 147.272 249.171 136.781C242.295 140.46 236.239 144.521 228.587 146.583C220.558 148.747 212.633 148.541 204.386 149.079C203.054 171.053 199.82 192.911 195.01 214.378C191.512 229.986 188.3 244.122 179.114 257.469C175.214 263.134 174.938 263.924 168.606 265.891C168.118 266.041 167.771 269.008 166.633 265.842C163.988 267.572 161.887 266.395 159.38 266.718C156.873 267.04 152.934 269.567 152.554 269.616C150.964 269.81 144.184 269.671 143.168 268.802C139.33 261.458 142.251 253.882 142.429 246.535C142.509 243.283 141.613 240.597 141.864 237.363C142.969 223.282 150.513 208.516 152.83 194.567C151.241 194.199 151.759 195.035 151.25 195.726C141.941 208.347 134.885 221.226 126.46 234.228C123.606 238.633 116.323 250.224 112.638 252.959C109.312 255.431 102.737 254.908 98.5554 255.449C97.5368 255.581 96.8864 256.633 95.4935 256.685C81.0704 257.214 86.3567 238.205 89.3297 230.229C94.1773 217.224 102.501 201.536 108.944 189.019C117.169 173.036 127.313 157.882 132.574 140.466C127.8 144.711 123.346 150.17 119.44 155.273C106.996 171.533 97.948 188.952 90.4526 207.994C89.0873 211.464 88.5381 216.158 87.0317 219.32C84.9239 223.737 77.6066 227.404 73.977 230.835C73.4432 228.778 71.6913 229.75 69.9885 229.611C71.8048 232.258 66.5554 229.888 65.4846 229.796C63.8064 229.651 61.9164 231.465 59.6921 230.094L59.3638 229.479C57.5935 220.452 60.3456 210.053 62.8031 201.198C68.2796 181.486 78.4104 162.278 87.0624 143.74C91.956 133.262 98.4082 123.149 100.666 111.579L87.2772 137.193C70.6328 167.325 52.1446 196.854 37.5559 228.157C34.2208 235.313 35.2395 240.419 26.5476 243.007C20.6293 244.768 9.39702 242.401 6.13872 236.712C3.75175 232.544 8.76806 217.624 10.6457 212.884C25.4461 175.526 47.7787 136.483 67.7703 101.673C70.1297 94.8182 75.1797 87.9607 77.3427 81.137C77.4409 80.8235 77.5115 80.1349 77.0482 80.2302C74.1918 82.886 70.461 86.1779 67.1168 88.1083C58.2347 93.2414 38.1572 96.1184 27.9129 96.2598C26.9802 96.2721 26.7133 94.0775 24.5779 94.9842L25.2007 96.2045C22.4916 96.0385 19.5738 96.4443 16.8954 96.2322C15.5056 96.1215 14.7907 95.3623 13.7629 95.1656C12.7351 94.9689 10.9433 96.4012 10.4739 94.3756C12.5081 94.6646 11.7932 91.4371 12.3608 90.7117C12.4774 90.5611 15.0484 90.9791 15.9873 90.0539L13.5389 89.4423C13.6095 88.723 14.3612 88.3695 14.9441 88.0898C18.9326 86.1718 26.0659 85.1851 30.6956 83.5837C49.8589 76.9506 60.8579 69.6688 75.238 55.6679C81.9939 49.0901 89.253 39.334 96.2329 33.497C98.0829 31.9509 100.629 31.5021 102.596 30.2081C105.287 28.4345 111.058 23.1016 113.135 22.2655C114.117 21.869 114.773 22.3116 115.608 22.1887C116.083 22.118 116.568 21.4848 116.955 21.4848C118.105 21.4848 120.597 22.788 121.83 23.0923L122.756 21.8321C123.14 24.7737 127.825 23.5903 129.104 23.8639C130.157 24.0913 133.915 25.4622 134.688 26.1722C137.913 29.1138 136.182 34.539 135.366 38.4457C131.556 56.673 119.268 68.4977 111.49 83.9925C109.008 88.9412 107.573 94.9781 105.578 100.2L108.622 101.11C108.392 99.853 111.144 98.6574 112.049 98.6789C113.344 98.7096 113.626 100.36 114.825 100.262C117.887 100.013 117.55 97.2557 117.952 96.9268C118.295 96.644 119.642 96.9145 120.428 96.6656C121.775 96.2383 123.355 94.5785 125.048 96.3982C129.19 100.846 122.582 116.66 123.066 122.645C126.904 120.81 129.448 116.713 132.633 114.401C134.277 113.208 136.142 112.821 137.465 111.865C139.732 110.224 140.923 108.051 143.828 106.56C148.568 104.126 152.05 104.753 157.125 105.429L148.51 97.1143C148.436 96.4227 148.495 95.685 149.117 95.2578C150.084 94.6 159.383 94.5754 162.169 93.5857C164.467 92.7681 165.737 90.5488 166.946 89.7773C173.84 85.3757 181.05 81.3153 188.079 77.1258C191.712 70.969 193.448 63.9517 196.096 57.4937C198.108 52.585 200.891 47.1321 202.477 42.8781C206.779 31.33 210.485 19.4469 214.191 7.69287H249.781H249.796ZM566.192 86.1564C568.785 82.7569 572.193 77.9587 574.277 74.2672C574.58 73.7262 575.617 72.7149 574.712 72.2446C559.406 85.3634 546.274 101.003 539.432 120.192C546.75 111.733 552.95 102.392 559.7 93.475C561.664 90.8808 564.272 88.6738 566.192 86.1564ZM303.801 168.142L338.151 106.668C335.086 110.952 330.646 112.375 327.716 116.802C319.092 129.834 310.529 150.714 304.488 165.456C304.123 166.347 303.601 167.094 303.801 168.142ZM179.228 110.359C176.945 110.7 172.251 109.339 170.971 111.613C170.312 112.787 170.229 114.994 169.692 116.479C164.433 131.079 159.07 147.152 153.13 161.362C151.155 166.086 147.829 170.534 146.712 175.519C151.526 170.595 154.529 163.51 157.665 157.298C164.068 144.607 172.122 129.223 177.5 116.31C177.868 115.422 179.654 110.765 179.228 110.362V110.359ZM170.032 243.757C172.021 243.093 171.453 240.698 172.048 239.327C173.582 235.802 175.129 232.75 176.445 228.978C184.649 205.495 189.877 180.035 192.11 155.233C189.481 157.91 188.177 162.219 186.925 165.708C184.772 171.708 182.688 178.901 181.121 185.097C177.466 199.544 172.472 218.758 170.22 233.192C169.643 236.89 168.87 240.016 170.032 243.757Z" fill="url(#paint1_linear_242_337)"/>
</g>
<defs>
<filter id="filter0_n_242_337" x="0.50293" y="0.692871" width="612.993" height="284" filterUnits="userSpaceOnUse" color-interpolation-filters="sRGB">
<feFlood flood-opacity="0" result="BackgroundImageFix"/>
<feBlend mode="normal" in="SourceGraphic" in2="BackgroundImageFix" result="shape"/>
<feTurbulence type="fractalNoise" baseFrequency="2 2" stitchTiles="stitch" numOctaves="3" result="noise" seed="1809" />
<feComponentTransfer in="noise" result="coloredNoise1">
<feFuncR type="linear" slope="2" intercept="-0.5" />
<feFuncG type="linear" slope="2" intercept="-0.5" />
<feFuncB type="linear" slope="2" intercept="-0.5" />
<feFuncA type="discrete" tableValues="1 1 1 1 1 1 1 1 1 1 1 1 1 1 1 1 1 1 1 1 1 1 1 1 1 1 1 1 1 1 1 1 1 1 1 1 1 1 1 1 1 1 1 1 1 1 1 1 1 1 1 0 0 0 0 0 0 0 0 0 0 0 0 0 0 0 0 0 0 0 0 0 0 0 0 0 0 0 0 0 0 0 0 0 0 0 0 0 0 0 0 0 0 0 0 0 0 0 0 0 "/>
</feComponentTransfer>
<feComposite operator="in" in2="shape" in="coloredNoise1" result="noise1Clipped" />
<feComponentTransfer in="noise1Clipped" result="color1">
<feFuncA type="table" tableValues="0 0.15" />
</feComponentTransfer>
<feMerge result="effect1_noise_242_337">
<feMergeNode in="shape" />
<feMergeNode in="color1" />
</feMerge>
</filter>
<filter id="filter1_n_242_337" x="5.50732" y="7.69287" width="591" height="262" filterUnits="userSpaceOnUse" color-interpolation-filters="sRGB">
<feFlood flood-opacity="0" result="BackgroundImageFix"/>
<feBlend mode="normal" in="SourceGraphic" in2="BackgroundImageFix" result="shape"/>
<feTurbulence type="fractalNoise" baseFrequency="2 2" stitchTiles="stitch" numOctaves="3" result="noise" seed="1809" />
<feComponentTransfer in="noise" result="coloredNoise1">
<feFuncR type="linear" slope="2" intercept="-0.5" />
<feFuncG type="linear" slope="2" intercept="-0.5" />
<feFuncB type="linear" slope="2" intercept="-0.5" />
<feFuncA type="discrete" tableValues="1 1 1 1 1 1 1 1 1 1 1 1 1 1 1 1 1 1 1 1 1 1 1 1 1 1 1 1 1 1 1 1 1 1 1 1 1 1 1 1 1 1 1 1 1 1 1 1 1 1 1 0 0 0 0 0 0 0 0 0 0 0 0 0 0 0 0 0 0 0 0 0 0 0 0 0 0 0 0 0 0 0 0 0 0 0 0 0 0 0 0 0 0 0 0 0 0 0 0 0 "/>
</feComponentTransfer>
<feComposite operator="in" in2="shape" in="coloredNoise1" result="noise1Clipped" />
<feComponentTransfer in="noise1Clipped" result="color1">
<feFuncA type="table" tableValues="0 0.15" />
</feComponentTransfer>
<feMerge result="effect1_noise_242_337">
<feMergeNode in="shape" />
<feMergeNode in="color1" />
</feMerge>
</filter>
<linearGradient id="paint0_linear_242_337" x1="638.003" y1="99.7437" x2="-74.6296" y2="266.591" gradientUnits="userSpaceOnUse">
<stop stop-color="#F8F7F4"/>
<stop offset="1" stop-color="#EEC78D"/>
</linearGradient>
<linearGradient id="paint1_linear_242_337" x1="200.007" y1="93.6929" x2="583.007" y2="138.693" gradientUnits="userSpaceOnUse">
<stop stop-color="#F91F18"/>
<stop offset="1" stop-color="#93120E"/>
</linearGradient>
</defs>
</svg>
