<svg width="638" height="304" viewBox="0 0 638 304" fill="none" xmlns="http://www.w3.org/2000/svg">
<g filter="url(#filter0_n_242_189)">
<path d="M286.761 0.734619C289.022 0.74416 291.179 0.467508 293.44 0.734619L293.438 0.735596H293.44C304.684 2.07147 315.17 13.4968 316.338 24.5881L316.339 24.5872C316.559 26.6574 316.573 28.7229 316.339 30.7883C316.339 30.7873 316.338 30.7864 316.337 30.7854C316.338 30.7867 316.338 30.788 316.338 30.7893C314.516 46.8313 295.995 57.0592 283.424 64.6584L284.853 65.134C284.841 65.135 284.828 65.1379 284.815 65.1399C284.827 65.1384 284.84 65.1385 284.853 65.137C285.64 65.0798 286.446 65.1608 287.238 65.137H287.24L287.238 65.136C289.184 65.0787 291.532 64.9881 293.44 65.136L293.437 65.137H293.44C296.65 65.3851 299.064 66.2729 301.974 67.4846C302.456 66.3349 303.343 65.0987 304.168 64.178C324.119 41.8522 368.857 33.237 388.134 60.8342C390.596 58.1532 392.552 55.1955 395.304 52.7483C411.82 38.0695 434.093 42.2628 443.71 62.0413C448.199 62.6089 452.57 63.4578 456.796 65.0989C464.028 49.4374 471.141 33.1892 485.539 22.761C501.92 10.8969 523.407 10.6966 534.264 29.6926C539.054 38.0696 539.812 47.0334 536.263 56.0735C550.608 51.4461 565.502 50.8067 578.869 58.554C599.663 70.6139 603.517 98.6262 595.307 119.65C594.239 122.393 592.737 124.926 591.606 127.631C601.242 123.238 610.612 119.359 621.173 123.585C635.862 129.467 640.145 148.979 635.623 162.823C625.915 192.533 584.703 223.026 554.095 226.795C531.683 229.553 512.845 221.9 495.943 207.746C495.475 207.684 492.804 210.69 491.874 211.324C479.938 219.463 465.826 212.154 454.697 206.344C452.808 214.974 445.614 222.31 436.302 221.633L424.638 220.183C424.431 220.195 424.23 220.196 424.036 220.188C422.964 220.203 421.883 220.182 420.812 220.178L420.809 220.177C420.81 220.178 420.811 220.178 420.812 220.179C419.009 220.169 416.509 220.585 415.087 219.702C415.094 219.702 415.1 219.701 415.106 219.701L415.087 219.7C410.327 219.681 405.537 219.681 400.777 219.7H400.774C399.354 220.58 396.863 220.169 395.061 220.177L395.052 220.178C393.941 220.183 392.819 220.211 391.712 220.178C391.7 220.178 391.687 220.179 391.674 220.179C391.69 220.18 391.705 220.182 391.721 220.183C389.255 221.332 379.834 220.612 378.331 222.296C365.059 252.541 345.443 294.546 309.673 302.002C306.792 302.603 304.007 302.918 301.083 303.19C301.073 303.189 301.062 303.187 301.052 303.187C295.62 303.69 291.758 303.69 286.313 303.188C286.306 303.188 286.3 303.189 286.293 303.19C259.975 300.766 233.494 283.855 235.254 254.297C235.383 252.141 237.839 242.262 237.634 241.651C237.624 241.65 237.614 241.649 237.604 241.648C235.84 242.127 232.996 241.827 230.989 241.646C230.978 241.647 230.967 241.649 230.956 241.651C207.633 239.566 187.329 224.391 173.471 206.359C170.242 209.994 166.253 212.593 161.306 213.028L161.272 213.023C159.942 213.134 158.369 213.041 157.004 213.022H157.003C156.102 213.012 154.661 213.346 154.141 212.544C152.081 212.516 149.996 212.616 147.94 212.544C147.938 212.544 147.936 212.544 147.934 212.544L147.944 212.55C144.981 213.342 141.876 213.523 138.875 214.215C109.57 220.965 86.3615 246.412 58.7212 257.617C13.9836 275.755 -12.9214 240.644 8.39795 199.66C25.1805 167.398 60.0476 148.035 95.4683 143.851C94.8863 141.819 94.2666 140.301 94.0376 138.131C94.04 138.126 94.041 138.119 94.0435 138.114C94.0396 138.116 94.0366 138.12 94.0327 138.122C93.9803 137.655 94.066 137.164 94.0327 136.692V136.69C93.2427 135.252 93.2288 132.037 94.0337 130.506V130.49C94.0432 130.176 94.0194 129.851 94.0337 129.536C94.0351 129.538 94.0362 129.539 94.0376 129.54C94.8655 113.605 113.956 79.2305 133.971 88.8948C135.159 89.4672 136.042 91.1359 137.573 90.8167C141.089 90.082 145.993 81.0894 147.72 78.0315C160.433 55.5386 171.616 18.4437 197.238 8.28735C211.969 2.44826 228.795 7.73864 236.285 21.8879C237.544 24.2635 237.963 26.563 238.96 28.7668C239.185 29.263 238.87 29.5113 239.777 29.3586C248.216 21.8452 257.256 14.1457 267.069 8.46411C271.596 5.84038 281.694 0.673987 286.775 0.740479L286.761 0.735596C286.763 0.7359 286.765 0.735292 286.766 0.735596C286.764 0.735334 286.763 0.734619 286.761 0.734619Z" fill="url(#paint0_linear_242_189)"/>
<g clip-path="url(#clip0_242_189)">
<path d="M328.658 128.018C326.339 135.245 323.019 142.157 322.036 149.785C319.155 172.116 337.349 160.796 346.533 152.815C368.291 133.9 374.745 108.101 389.334 84.463C395.779 74.0204 408.072 54.1608 422.803 60.3529C434.305 65.1854 429.783 75.981 426.93 85.0832C432.077 82.9889 438.284 78.4474 443.87 77.9369C465.361 75.9858 456.407 111.765 450.868 122.617C443.064 137.912 419.283 171.176 403.073 176.911C397.477 178.89 390.483 178.366 386.944 173.023C385.875 171.405 385.808 169.354 384.482 168.095C380.565 179.472 376.377 190.821 371.826 201.956C361.56 227.082 342.74 272.173 317.39 284.433C293.361 296.054 243.557 285.974 250.565 251.001C254.963 229.033 280.046 213.982 299.095 206.03C312.734 200.338 327.408 195.201 341.905 192.31L356.799 159.98C345.407 172.751 331.706 188.417 312.686 186.685C302.563 185.765 293.933 177.268 293.351 167.136C283.033 178.16 268.211 185.225 252.912 181.104C244.477 178.833 237.555 170.322 238.495 161.416C237.675 161.201 237.541 161.745 237.059 162.122C233.591 164.87 224.918 175.269 221.102 175.747C216.933 176.266 209.543 170.122 208.012 166.377C206.705 163.171 207.978 162.413 210.387 160.739C219.518 154.375 238.433 147.362 243.352 137.411C252.311 119.297 257.009 95.688 275.743 84.4105C293.265 73.8629 309.786 81.1618 306.656 102.92C304.128 120.475 290.289 130.742 275.395 137.969C271.598 139.815 268.497 139.171 267.256 143.665C265.129 151.384 265.186 162.766 275.944 162.394C281.201 162.213 288.953 155.963 292.411 152.123C301.8 141.685 306.599 112.294 309.017 98.1257C309.728 93.9563 309.7 89.5913 310.668 85.4648C317.733 55.4106 377.512 45.5548 380.647 80.5607C382.159 97.4912 372.756 112.685 359.623 122.493C351.857 128.294 337.087 135.865 328.662 128.022L328.658 128.018ZM330.709 110.219C331.157 110.725 332.965 111.65 333.686 111.774C343.107 113.367 351.685 100.573 353.626 92.6492C356.68 80.2029 349.762 78.996 341.309 86.0563C336.558 90.0254 325.323 104.141 330.709 110.224V110.219ZM288.457 100.439C281.554 101.823 271.631 117.666 271.388 124.464C271.283 127.369 272.838 126.691 274.875 126C282.584 123.381 292.741 111.889 291.949 103.421C291.753 101.322 290.832 99.9623 288.457 100.439ZM421.076 110.481C412.585 111.879 397.625 135.097 394.4 142.959C392.415 147.796 387.755 160.199 397.82 156.397C406.398 153.153 420.585 131.82 423.82 123.242C425.308 119.302 428.547 109.255 421.081 110.486L421.076 110.481ZM328.176 219.139C313.936 224.487 298.279 232.081 288.337 243.936C284.292 248.759 278.992 258.906 288.552 260.905C298.041 262.884 308.159 248.697 313.096 241.985C318.496 234.643 323.267 226.81 328.176 219.144V219.139Z" fill="url(#paint1_linear_242_189)"/>
<path d="M235.628 84.1272C242.631 81.8755 252.673 76.3656 258.999 82.9441C264.643 88.8118 258.87 100.938 254.906 106.515C251.524 111.271 245.446 118.828 241.596 123.26C239.054 126.184 234.212 130.582 232.26 124.471C231.23 121.246 231.969 108.59 226.812 108.514C221.942 108.438 208.045 122.673 204.372 126.585C202.182 128.917 186.564 146.893 186.645 148.295C203.647 172.73 228.978 193.811 260.664 191.463C264.103 191.211 269.528 189.159 272.228 189.197C275.195 189.24 273.935 194.006 273.568 195.781C271.717 204.687 264.733 214.41 257.53 219.815C227.476 242.374 192.656 211.819 176.937 186.469L167.887 170.955L163.942 195.394C162.606 199.297 159.639 198.767 156.176 198.638C117.912 197.241 97.2075 221.355 66.5905 238.295C54.1156 245.198 30.1963 255.822 19.3196 241.511C6.61098 224.785 26.6566 195.552 39.5465 184.06C65.1402 161.242 101.701 154.163 134.837 161.786L135.672 161.424C139.803 151.997 142.499 141.922 144.502 131.827C143.562 131.584 143.582 132.214 143.162 132.629C136.526 139.188 127.972 151.324 117.182 146.511C101.792 139.646 112.254 118.165 119.304 108.772C120.197 107.584 123.941 102.937 124.958 102.503C128.44 101.005 130.792 105.356 134.365 105.957C149.149 108.442 157.249 92.2752 163.193 81.5845C172.41 65.0213 184.78 30.5974 202.383 22.9789C213.236 18.28 226.583 24.0809 225.076 37.0853C223.917 47.0938 199.931 79.1325 193.157 89.6037C185.758 101.039 176.598 114.105 170.497 126.098C169.662 127.739 168.193 129.976 168.598 131.832C180.143 119.357 189.55 105.122 200.336 92.0128C219.433 68.8044 246.543 39.9237 271.731 23.6325C280.347 18.0605 293.89 10.0032 300.898 22.4351C307.1 33.4359 293.976 41.8701 286.344 47.3085C269.399 59.3778 250.112 68.9188 235.628 84.1272Z" fill="url(#paint2_linear_242_189)"/>
<path d="M490.372 170.47C477.244 151.512 485.716 130.007 496.373 112.313C506.983 94.7003 525.073 74.4734 545.605 68.9969C562.364 64.5269 578.712 70.2802 583.736 87.8404C593.043 120.361 557.526 153.659 527.754 158.482C526.723 158.649 522.482 158.234 522.812 159.737C536.207 174.549 553.91 168.142 568.928 160.066C579.776 154.227 600.447 137.377 611.777 137.053C625.048 136.676 624.814 152.333 621.313 161.406C612.335 184.662 574.805 210.872 550.18 212.875C526.833 214.774 503.882 200.777 492.991 180.498C491.469 186.924 488.206 200.677 479.658 200.543C472.263 200.424 454.178 189.986 448.382 185.035C434.133 172.851 438.102 163.877 443.607 148.287C446.216 140.893 449.565 133.742 452.213 126.362C460.204 104.07 465.613 79.2058 476.762 58.3634C483.264 46.2034 499.269 23.7678 515.503 31.0905C531.551 38.3273 520.493 58.0677 514.778 68.7154C502.666 91.2799 469.921 132.764 474.677 158.262C476.433 167.656 481.556 169.368 490.363 170.48L490.372 170.47ZM542.733 104.26C537.114 105.048 526.695 117.441 523.374 122.145C520.402 126.348 508.882 143.884 521.504 141.737C530.998 140.12 548.959 117.084 547.027 107.376C546.573 105.095 545.037 103.936 542.733 104.26Z" fill="url(#paint3_linear_242_189)"/>
<path d="M375.403 207.211C374.611 206.4 382.44 189.817 383.136 187.27C393.011 184.88 403.129 182.485 413.338 181.932C416.716 181.75 423.547 181.469 426.662 181.956C431.366 182.69 435.965 190.051 437.982 194.011C439.81 197.603 444.132 205.636 438.097 207.206C417.293 204.73 396.246 205.717 375.408 207.206L375.403 207.211Z" fill="#E7FEFF"/>
<path d="M328.175 219.139C323.266 226.805 318.496 234.638 313.096 241.98C308.158 248.696 298.04 262.884 288.551 260.899C278.991 258.905 284.291 248.758 288.337 243.931C298.278 232.081 313.935 224.481 328.175 219.134V219.139Z" fill="#27C0C8"/>
<path d="M421.077 110.484C428.542 109.253 425.303 119.299 423.815 123.24C420.58 131.817 406.393 153.156 397.816 156.395C387.75 160.197 392.416 147.794 394.395 142.956C397.62 135.095 412.58 111.877 421.072 110.479L421.077 110.484Z" fill="#27C0C8"/>
<path d="M330.709 110.219C325.323 104.137 336.557 90.0161 341.309 86.0518C349.762 78.9915 356.684 80.2032 353.626 92.6446C351.68 100.568 343.107 113.368 333.686 111.769C332.965 111.645 331.157 110.725 330.709 110.214V110.219Z" fill="#27C0C8"/>
<path d="M288.456 100.441C290.832 99.9636 291.752 101.318 291.948 103.422C292.74 111.89 282.584 123.377 274.875 126.001C272.838 126.693 271.282 127.375 271.387 124.465C271.635 117.667 281.553 101.829 288.456 100.441Z" fill="#27C0C8"/>
<path d="M542.733 104.262C545.037 103.937 546.573 105.097 547.026 107.377C548.959 117.085 530.998 140.121 521.504 141.739C508.882 143.885 520.402 126.349 523.374 122.146C526.699 117.447 537.113 105.049 542.733 104.262Z" fill="#27C0C8"/>
</g>
</g>
<defs>
<filter id="filter0_n_242_189" x="0.960938" y="0.61792" width="636.377" height="302.946" filterUnits="userSpaceOnUse" color-interpolation-filters="sRGB">
<feFlood flood-opacity="0" result="BackgroundImageFix"/>
<feBlend mode="normal" in="SourceGraphic" in2="BackgroundImageFix" result="shape"/>
<feTurbulence type="fractalNoise" baseFrequency="2.0752792358398438 2.0752792358398438" stitchTiles="stitch" numOctaves="3" result="noise" seed="2991" />
<feComponentTransfer in="noise" result="coloredNoise1">
<feFuncR type="linear" slope="2" intercept="-0.5" />
<feFuncG type="linear" slope="2" intercept="-0.5" />
<feFuncB type="linear" slope="2" intercept="-0.5" />
<feFuncA type="discrete" tableValues="1 1 1 1 1 1 1 1 1 1 1 1 1 1 1 1 1 1 1 1 1 1 1 1 1 1 1 1 1 1 1 1 1 1 1 1 1 1 1 1 1 1 1 1 1 1 1 1 1 1 1 0 0 0 0 0 0 0 0 0 0 0 0 0 0 0 0 0 0 0 0 0 0 0 0 0 0 0 0 0 0 0 0 0 0 0 0 0 0 0 0 0 0 0 0 0 0 0 0 0 "/>
</feComponentTransfer>
<feComposite operator="in" in2="shape" in="coloredNoise1" result="noise1Clipped" />
<feComponentTransfer in="noise1Clipped" result="color1">
<feFuncA type="table" tableValues="0 0.15" />
</feComponentTransfer>
<feMerge result="effect1_noise_242_189">
<feMergeNode in="shape" />
<feMergeNode in="color1" />
</feMerge>
</filter>
<linearGradient id="paint0_linear_242_189" x1="319.15" y1="0.618408" x2="319.15" y2="303.565" gradientUnits="userSpaceOnUse">
<stop stop-color="#1DABB3"/>
<stop offset="1" stop-color="#27C0C8"/>
</linearGradient>
<linearGradient id="paint1_linear_242_189" x1="332.504" y1="58.3057" x2="332.504" y2="289.041" gradientUnits="userSpaceOnUse">
<stop stop-color="#E7FEFF"/>
<stop offset="1" stop-color="#D2FFF2"/>
</linearGradient>
<linearGradient id="paint2_linear_242_189" x1="158.887" y1="15.876" x2="158.887" y2="248.61" gradientUnits="userSpaceOnUse">
<stop stop-color="#E7FEFF"/>
<stop offset="1" stop-color="#D2FFF2"/>
</linearGradient>
<linearGradient id="paint3_linear_242_189" x1="530.967" y1="29.6533" x2="530.967" y2="213.047" gradientUnits="userSpaceOnUse">
<stop stop-color="#E7FEFF"/>
<stop offset="1" stop-color="#D2FFF2"/>
</linearGradient>
<clipPath id="clip0_242_189">
<rect width="608.081" height="273.164" fill="white" transform="translate(15.269 15.8799)"/>
</clipPath>
</defs>
</svg>
