<svg width="409" height="288" viewBox="0 0 409 288" fill="none" xmlns="http://www.w3.org/2000/svg">
<g filter="url(#filter0_n_526_2)">
<mask id="path-1-outside-1_526_2" maskUnits="userSpaceOnUse" x="0" y="0" width="409" height="288" fill="black">
<rect fill="white" width="409" height="288"/>
<path d="M308.254 119.717H354.745L377.894 136.873L373.157 163.018L365.764 167.851L350.782 143.929L337.153 166.014L311.541 215.065L354.745 232.463L316.64 256.268L298.976 266L282.013 232.463L295.737 196.246L325.169 141.367L292.848 159.877L291.389 121.808L295.737 109.551L308.254 119.717ZM195.447 115.436L218.222 142.961L218.382 143.154L218.264 143.377L180.279 214.949L180.222 215.058L180.111 215.111L89.6924 259.137L89.542 259.21L89.3867 259.147L75.9033 253.735L75.5781 253.604L75.6855 253.271L85.0127 224.274L85.0752 224.08L85.2715 224.026L105.803 218.379L118.014 178.29L118.015 178.287L131.353 135.694L131.423 135.47L131.656 135.435L150.401 132.606L150.657 132.567L150.785 132.794L155.272 140.733L190.624 117.523L190.643 117.512L190.663 117.502L194.988 115.339L195.256 115.205L195.447 115.436ZM254.415 111.365L286.498 123.982L286.727 124.072L286.736 124.317L289.494 193.74L289.498 193.825L289.465 193.903L271.052 237.107L270.985 237.263L270.825 237.316L249.417 244.518L249.358 244.537H207.309L207.195 244.391L187.649 219.009L187.509 218.826L187.608 218.617L223.769 142.444L211.095 127.824L210.738 127.412L211.249 127.224L254.146 111.362L254.281 111.312L254.415 111.365ZM253.525 140.62L237.868 155.987L237.808 156.047L237.778 156.127L221.492 200.394L221.399 200.646L221.607 200.815L236.396 212.897L236.56 213.031L236.759 212.961L258.168 205.422L258.367 205.352L258.411 205.144L262.325 186.441L262.334 186.403V147.625L262.2 147.512L254.033 140.602L253.771 140.379L253.525 140.62ZM183.169 23.9854L180.463 39.9326L180.419 40.1924L180.16 40.2402L165.75 42.9111L152.303 69.9521L152.211 70.1357L152.006 70.1582L122.316 73.4189L116.955 86.8691L149.475 80.3848L150.12 80.2559L149.904 80.8779L143.139 100.401L143.072 100.594L142.875 100.644L107.792 109.485L94.0088 148.673L101.259 145.048L101.451 145.257L110.295 154.874L110.588 155.193L110.231 155.439L38.2725 205.07L37.5254 205.586L37.6885 204.693L45.1787 163.615L45.2178 163.4L45.4238 163.328L60.9443 157.818L80.7617 121.015L30.6152 134.182L30.4902 134.214L30.3701 134.163L26.4561 132.472L26 132.274L26.3125 131.889L57.7256 93.1299L57.8379 92.9912H90.3721L96.6973 75.168L86.0488 76.585L85.8311 76.6133L85.6992 76.4395L68.3984 53.6289L68.0137 53.123L68.6426 53.0283L158.789 39.5449V30.2568L159.064 30.1797L182.696 23.5596L183.269 23.3984L183.169 23.9854ZM183.123 143.15L167.9 150.206L167.771 150.267L167.714 150.397L148.625 194.085L148.395 194.612H150.504L150.617 194.47L188.167 147.352L188.403 147.056L188.106 146.821L183.515 143.196L183.333 143.053L183.123 143.15ZM167.602 51.5215L183.55 113.187L183.62 113.46L183.378 113.604L158.221 128.615L157.724 128.912L157.654 128.338L156.908 122.209L156.895 122.097L156.945 121.995L158.597 118.701V96.5039L149.048 101.48L148.428 120.06L148.421 120.273L148.232 120.377L112.423 140.046L112.118 140.213L111.927 139.923L110.525 137.797L110.412 137.624L110.496 137.436L123.737 107.812L123.812 107.644L123.991 107.6L144.198 102.619L154.176 77.96L138.504 80.8857L137.959 80.9873L138.064 80.4434L139.466 73.2432L139.521 72.958L139.812 72.9395L153.46 72.0547L163.613 51.4502L163.717 51.2393H167.528L167.602 51.5215ZM259.95 37.9512L254.006 57.8135L253.95 58.002L253.764 58.0635L235.318 64.1475C235.167 64.5238 235.02 65.0675 234.886 65.7021C234.734 66.4164 234.602 67.2202 234.494 67.9756C234.386 68.7301 234.302 69.4341 234.245 69.9492C234.23 70.0863 234.216 70.2107 234.205 70.3184L256.447 67.3838L256.602 67.3643L256.725 67.458L266.04 74.5625L266.714 75.0752L265.882 75.2314L254.31 77.4033L241.65 80.4736V82.5918C241.835 82.5646 242.076 82.5302 242.368 82.4873C243.109 82.3786 244.181 82.2214 245.508 82.0293C248.161 81.6451 251.834 81.1197 255.907 80.5537C264.052 79.4221 273.808 78.1286 280.235 77.4834L280.759 77.4307L280.641 77.9424L276.993 93.7695V93.7705L273.053 110.612L272.955 111.029L272.555 110.88L253.652 103.827L206.837 123.231L206.557 123.348L206.384 123.099L202.883 118.052V118.051L199.537 113.37L199.25 112.968L199.714 112.797L210.528 108.832L221.926 104.558L234.418 80.5547H225.12V80.5537L212.072 80.1191L211.302 80.0938L211.795 79.502L232.207 54.9893H224.942L224.83 54.8369L217.581 45.0264L217.216 44.5322L217.821 44.4307L259.527 37.4717L260.124 37.3721L259.95 37.9512ZM320.446 22.7451L325.037 25.7412L325.301 25.9131L325.179 26.2031L316.562 46.6279L339.618 40.6914L340.15 40.5547L340.086 41.1006L339.005 50.2637L338.975 50.5186L338.728 50.584L306.847 59.0293L289.721 116.004L289.599 116.408L289.211 116.242L278.642 111.696L278.355 111.573L278.423 111.27L288.857 63.8926L268.39 69.5273L267.99 69.6367L267.918 69.2295L265.212 53.8613L265.145 53.4766L265.531 53.4229L291.034 49.8818L294.696 34.5225L294.738 34.3447L294.905 34.2676L320.084 22.7178L320.272 22.6309L320.446 22.7451ZM371.007 19.168L389.13 37.1455L389.315 37.3301L389.208 37.5684L354.461 114.553L354.361 114.774H309.999L309.886 114.622L301.198 102.923L301.089 102.776L301.138 102.6L311.592 64.3877L311.644 64.2002L311.826 64.1338L340.997 53.5088L345.809 35.5137L321.778 41.4219L320.879 41.6426L321.368 40.8564L324.512 35.8105L324.581 35.6992L324.704 35.6553L370.614 19.0811L370.838 19L371.007 19.168ZM208.553 34.5293L220.31 57.3711L225.206 58.3486L225.882 58.4834L225.403 58.9795L210.208 74.7363L210.098 74.8516H205.663L205.551 74.7031L198.368 65.2686L187.617 72.3125C187.53 76.308 188.143 81.8529 188.789 86.4443C189.117 88.7733 189.451 90.8508 189.704 92.3457C189.83 93.0929 189.937 93.6958 190.011 94.1104C190.026 94.1977 190.04 94.2773 190.053 94.3477C190.07 94.3427 190.089 94.3383 190.107 94.333C190.395 94.2509 190.81 94.128 191.317 93.9648C192.333 93.6383 193.718 93.1517 195.194 92.5127C196.672 91.8733 198.235 91.0844 199.609 90.1543C200.988 89.2218 202.157 88.1616 202.871 86.9893L202.971 86.8242L203.164 86.8096L227.424 84.9727L228.082 84.9229L227.79 85.5156L220.396 100.497L220.324 100.642L220.171 100.689L206.805 104.858L206.798 104.861L206.791 104.863L188.046 109.909L187.678 110.009L187.583 109.64L172.442 50.5205L172.363 50.2119L172.654 50.083L208.065 34.3584L208.391 34.2139L208.553 34.5293ZM354.499 57.0244L342.107 62.3281L332.037 65.2061L331.847 65.2607L331.783 65.4482L320.897 97.6035L320.717 98.1357L321.278 98.0996L339.353 96.9404L339.555 96.9268L339.655 96.751L344.295 88.6318L344.312 88.6016L344.323 88.5674L355.004 57.4932L355.279 56.6914L354.499 57.0244Z"/>
</mask>
<path d="M308.254 119.717H354.745L377.894 136.873L373.157 163.018L365.764 167.851L350.782 143.929L337.153 166.014L311.541 215.065L354.745 232.463L316.64 256.268L298.976 266L282.013 232.463L295.737 196.246L325.169 141.367L292.848 159.877L291.389 121.808L295.737 109.551L308.254 119.717ZM195.447 115.436L218.222 142.961L218.382 143.154L218.264 143.377L180.279 214.949L180.222 215.058L180.111 215.111L89.6924 259.137L89.542 259.21L89.3867 259.147L75.9033 253.735L75.5781 253.604L75.6855 253.271L85.0127 224.274L85.0752 224.08L85.2715 224.026L105.803 218.379L118.014 178.29L118.015 178.287L131.353 135.694L131.423 135.47L131.656 135.435L150.401 132.606L150.657 132.567L150.785 132.794L155.272 140.733L190.624 117.523L190.643 117.512L190.663 117.502L194.988 115.339L195.256 115.205L195.447 115.436ZM254.415 111.365L286.498 123.982L286.727 124.072L286.736 124.317L289.494 193.74L289.498 193.825L289.465 193.903L271.052 237.107L270.985 237.263L270.825 237.316L249.417 244.518L249.358 244.537H207.309L207.195 244.391L187.649 219.009L187.509 218.826L187.608 218.617L223.769 142.444L211.095 127.824L210.738 127.412L211.249 127.224L254.146 111.362L254.281 111.312L254.415 111.365ZM253.525 140.62L237.868 155.987L237.808 156.047L237.778 156.127L221.492 200.394L221.399 200.646L221.607 200.815L236.396 212.897L236.56 213.031L236.759 212.961L258.168 205.422L258.367 205.352L258.411 205.144L262.325 186.441L262.334 186.403V147.625L262.2 147.512L254.033 140.602L253.771 140.379L253.525 140.62ZM183.169 23.9854L180.463 39.9326L180.419 40.1924L180.16 40.2402L165.75 42.9111L152.303 69.9521L152.211 70.1357L152.006 70.1582L122.316 73.4189L116.955 86.8691L149.475 80.3848L150.12 80.2559L149.904 80.8779L143.139 100.401L143.072 100.594L142.875 100.644L107.792 109.485L94.0088 148.673L101.259 145.048L101.451 145.257L110.295 154.874L110.588 155.193L110.231 155.439L38.2725 205.07L37.5254 205.586L37.6885 204.693L45.1787 163.615L45.2178 163.4L45.4238 163.328L60.9443 157.818L80.7617 121.015L30.6152 134.182L30.4902 134.214L30.3701 134.163L26.4561 132.472L26 132.274L26.3125 131.889L57.7256 93.1299L57.8379 92.9912H90.3721L96.6973 75.168L86.0488 76.585L85.8311 76.6133L85.6992 76.4395L68.3984 53.6289L68.0137 53.123L68.6426 53.0283L158.789 39.5449V30.2568L159.064 30.1797L182.696 23.5596L183.269 23.3984L183.169 23.9854ZM183.123 143.15L167.9 150.206L167.771 150.267L167.714 150.397L148.625 194.085L148.395 194.612H150.504L150.617 194.47L188.167 147.352L188.403 147.056L188.106 146.821L183.515 143.196L183.333 143.053L183.123 143.15ZM167.602 51.5215L183.55 113.187L183.62 113.46L183.378 113.604L158.221 128.615L157.724 128.912L157.654 128.338L156.908 122.209L156.895 122.097L156.945 121.995L158.597 118.701V96.5039L149.048 101.48L148.428 120.06L148.421 120.273L148.232 120.377L112.423 140.046L112.118 140.213L111.927 139.923L110.525 137.797L110.412 137.624L110.496 137.436L123.737 107.812L123.812 107.644L123.991 107.6L144.198 102.619L154.176 77.96L138.504 80.8857L137.959 80.9873L138.064 80.4434L139.466 73.2432L139.521 72.958L139.812 72.9395L153.46 72.0547L163.613 51.4502L163.717 51.2393H167.528L167.602 51.5215ZM259.95 37.9512L254.006 57.8135L253.95 58.002L253.764 58.0635L235.318 64.1475C235.167 64.5238 235.02 65.0675 234.886 65.7021C234.734 66.4164 234.602 67.2202 234.494 67.9756C234.386 68.7301 234.302 69.4341 234.245 69.9492C234.23 70.0863 234.216 70.2107 234.205 70.3184L256.447 67.3838L256.602 67.3643L256.725 67.458L266.04 74.5625L266.714 75.0752L265.882 75.2314L254.31 77.4033L241.65 80.4736V82.5918C241.835 82.5646 242.076 82.5302 242.368 82.4873C243.109 82.3786 244.181 82.2214 245.508 82.0293C248.161 81.6451 251.834 81.1197 255.907 80.5537C264.052 79.4221 273.808 78.1286 280.235 77.4834L280.759 77.4307L280.641 77.9424L276.993 93.7695V93.7705L273.053 110.612L272.955 111.029L272.555 110.88L253.652 103.827L206.837 123.231L206.557 123.348L206.384 123.099L202.883 118.052V118.051L199.537 113.37L199.25 112.968L199.714 112.797L210.528 108.832L221.926 104.558L234.418 80.5547H225.12V80.5537L212.072 80.1191L211.302 80.0938L211.795 79.502L232.207 54.9893H224.942L224.83 54.8369L217.581 45.0264L217.216 44.5322L217.821 44.4307L259.527 37.4717L260.124 37.3721L259.95 37.9512ZM320.446 22.7451L325.037 25.7412L325.301 25.9131L325.179 26.2031L316.562 46.6279L339.618 40.6914L340.15 40.5547L340.086 41.1006L339.005 50.2637L338.975 50.5186L338.728 50.584L306.847 59.0293L289.721 116.004L289.599 116.408L289.211 116.242L278.642 111.696L278.355 111.573L278.423 111.27L288.857 63.8926L268.39 69.5273L267.99 69.6367L267.918 69.2295L265.212 53.8613L265.145 53.4766L265.531 53.4229L291.034 49.8818L294.696 34.5225L294.738 34.3447L294.905 34.2676L320.084 22.7178L320.272 22.6309L320.446 22.7451ZM371.007 19.168L389.13 37.1455L389.315 37.3301L389.208 37.5684L354.461 114.553L354.361 114.774H309.999L309.886 114.622L301.198 102.923L301.089 102.776L301.138 102.6L311.592 64.3877L311.644 64.2002L311.826 64.1338L340.997 53.5088L345.809 35.5137L321.778 41.4219L320.879 41.6426L321.368 40.8564L324.512 35.8105L324.581 35.6992L324.704 35.6553L370.614 19.0811L370.838 19L371.007 19.168ZM208.553 34.5293L220.31 57.3711L225.206 58.3486L225.882 58.4834L225.403 58.9795L210.208 74.7363L210.098 74.8516H205.663L205.551 74.7031L198.368 65.2686L187.617 72.3125C187.53 76.308 188.143 81.8529 188.789 86.4443C189.117 88.7733 189.451 90.8508 189.704 92.3457C189.83 93.0929 189.937 93.6958 190.011 94.1104C190.026 94.1977 190.04 94.2773 190.053 94.3477C190.07 94.3427 190.089 94.3383 190.107 94.333C190.395 94.2509 190.81 94.128 191.317 93.9648C192.333 93.6383 193.718 93.1517 195.194 92.5127C196.672 91.8733 198.235 91.0844 199.609 90.1543C200.988 89.2218 202.157 88.1616 202.871 86.9893L202.971 86.8242L203.164 86.8096L227.424 84.9727L228.082 84.9229L227.79 85.5156L220.396 100.497L220.324 100.642L220.171 100.689L206.805 104.858L206.798 104.861L206.791 104.863L188.046 109.909L187.678 110.009L187.583 109.64L172.442 50.5205L172.363 50.2119L172.654 50.083L208.065 34.3584L208.391 34.2139L208.553 34.5293ZM354.499 57.0244L342.107 62.3281L332.037 65.2061L331.847 65.2607L331.783 65.4482L320.897 97.6035L320.717 98.1357L321.278 98.0996L339.353 96.9404L339.555 96.9268L339.655 96.751L344.295 88.6318L344.312 88.6016L344.323 88.5674L355.004 57.4932L355.279 56.6914L354.499 57.0244Z" fill="#FFF7F0"/>
<path d="M308.254 119.717L298.281 131.996L302.639 135.535H308.254V119.717ZM354.745 119.717L364.164 107.008L359.968 103.898H354.745V119.717ZM377.894 136.873L393.459 139.693L395.211 130.019L387.313 124.164L377.894 136.873ZM373.157 163.018L381.812 176.258L387.509 172.534L388.722 165.837L373.157 163.018ZM365.764 167.851L352.357 176.247L360.918 189.916L374.419 181.091L365.764 167.851ZM350.782 143.929L364.189 135.533L350.683 113.968L337.321 135.621L350.782 143.929ZM337.153 166.014L323.692 157.706L323.394 158.189L323.131 158.692L337.153 166.014ZM311.541 215.065L297.519 207.744L289.439 223.218L305.632 229.739L311.541 215.065ZM354.745 232.463L363.126 245.879L389.498 229.404L360.654 217.789L354.745 232.463ZM316.64 256.268L324.273 270.122L324.653 269.913L325.021 269.684L316.64 256.268ZM298.976 266L284.86 273.14L292.256 287.763L306.609 279.855L298.976 266ZM282.013 232.463L267.221 226.857L264.749 233.379L267.897 239.603L282.013 232.463ZM295.737 196.246L281.797 188.77L281.31 189.677L280.945 190.641L295.737 196.246ZM325.169 141.367L339.109 148.843L365.185 100.222L317.308 127.64L325.169 141.367ZM292.848 159.877L277.041 160.483L278.041 186.585L300.709 173.604L292.848 159.877ZM291.389 121.808L276.481 116.518L275.465 119.38L275.582 122.413L291.389 121.808ZM295.737 109.551L305.71 97.2719L288.32 83.1477L280.829 104.261L295.737 109.551ZM195.447 115.436L207.635 105.351L207.626 105.34L207.616 105.329L195.447 115.436ZM218.222 142.961L206.034 153.045L206.039 153.051L218.222 142.961ZM218.382 143.154L232.355 150.57L237.318 141.218L230.564 133.064L218.382 143.154ZM218.264 143.377L232.236 150.792L232.237 150.792L218.264 143.377ZM180.279 214.949L194.247 222.374L194.252 222.365L180.279 214.949ZM180.222 215.058L187.145 229.281L191.773 227.028L194.19 222.482L180.222 215.058ZM180.111 215.111L173.188 200.888L173.186 200.889L180.111 215.111ZM89.6924 259.137L82.7675 244.914L82.7662 244.915L89.6924 259.137ZM89.542 259.21L83.6353 273.884L90.1523 276.508L96.4681 273.432L89.542 259.21ZM89.3867 259.147L95.2934 244.473L95.2863 244.47L95.2792 244.467L89.3867 259.147ZM75.9033 253.735L69.9981 268.41L70.0108 268.416L75.9033 253.735ZM75.5781 253.604L60.5193 248.761L56.0098 262.781L69.6729 268.28L75.5781 253.604ZM75.6855 253.271L60.6268 248.427L60.6267 248.427L75.6855 253.271ZM85.0127 224.274L100.071 229.118L100.072 229.118L85.0127 224.274ZM85.0752 224.08L80.9002 208.822L72.6386 211.083L70.0162 219.237L85.0752 224.08ZM85.2715 224.026L89.4465 239.284L89.4567 239.281L89.4668 239.279L85.2715 224.026ZM105.803 218.379L109.998 233.631L118.397 231.321L120.935 222.988L105.803 218.379ZM118.014 178.29L103.007 173.288L102.942 173.483L102.881 173.681L118.014 178.29ZM118.015 178.287L133.022 183.289L133.067 183.152L133.11 183.014L118.015 178.287ZM131.353 135.694L146.448 140.422L146.449 140.42L131.353 135.694ZM131.423 135.47L129.067 119.828L119.283 121.301L116.327 130.744L131.423 135.47ZM131.656 135.435L134.012 151.077L134.016 151.076L131.656 135.435ZM150.401 132.606L152.761 148.248L152.775 148.246L152.789 148.244L150.401 132.606ZM150.657 132.567L164.432 124.79L159.063 115.282L148.27 116.93L150.657 132.567ZM150.785 132.794L137.011 140.572L137.014 140.577L150.785 132.794ZM155.272 140.733L141.501 148.517L149.82 163.236L163.954 153.957L155.272 140.733ZM190.624 117.523L182.177 104.149L182.059 104.224L181.942 104.3L190.624 117.523ZM190.643 117.512L183.842 103.23L182.992 103.634L182.196 104.137L190.643 117.512ZM190.663 117.502L197.464 131.784L197.602 131.718L197.739 131.65L190.663 117.502ZM194.988 115.339L187.914 101.19L187.913 101.191L194.988 115.339ZM195.256 115.205L207.425 105.099L199.407 95.4439L188.182 101.056L195.256 115.205ZM254.415 111.365L248.614 126.082L248.626 126.086L254.415 111.365ZM286.498 123.982L280.709 138.704L280.71 138.704L286.498 123.982ZM286.727 124.072L302.533 123.443L302.122 113.128L292.515 109.351L286.727 124.072ZM286.736 124.317L302.542 123.689L302.542 123.688L286.736 124.317ZM289.494 193.74L273.688 194.368L273.69 194.417L273.692 194.467L289.494 193.74ZM289.498 193.825L304.056 200.012L305.465 196.697L305.3 193.099L289.498 193.825ZM289.465 193.903L304.017 200.105L304.02 200.098L304.023 200.091L289.465 193.903ZM271.052 237.107L285.596 243.328L285.6 243.319L285.604 243.309L271.052 237.107ZM270.985 237.263L276.015 252.26L282.74 250.005L285.53 243.483L270.985 237.263ZM270.825 237.316L265.795 222.319L265.789 222.321L265.782 222.323L270.825 237.316ZM249.417 244.518L254.419 259.524L254.44 259.518L254.46 259.511L249.417 244.518ZM249.358 244.537V260.356H251.925L254.361 259.544L249.358 244.537ZM207.309 244.537L194.795 254.214L199.545 260.356H207.309V244.537ZM207.195 244.391L194.662 254.042L194.672 254.055L194.682 254.068L207.195 244.391ZM187.649 219.009L175.116 228.66L175.116 228.66L187.649 219.009ZM187.509 218.826L173.229 212.02L169.052 220.785L174.976 228.477L187.509 218.826ZM187.608 218.617L201.888 225.423L201.893 225.412L201.899 225.401L187.608 218.617ZM223.769 142.444L238.059 149.228L242.491 139.892L235.721 132.083L223.769 142.444ZM211.095 127.824L199.13 138.172L199.136 138.179L199.142 138.186L211.095 127.824ZM210.738 127.412L205.262 112.572L183.829 120.481L198.774 137.76L210.738 127.412ZM211.249 127.224L216.725 142.064L216.735 142.061L211.249 127.224ZM254.146 111.362L248.663 96.5245L248.661 96.5254L254.146 111.362ZM254.281 111.312L260.082 96.5958L254.463 94.381L248.798 96.4747L254.281 111.312ZM253.525 140.62L264.606 151.91L264.613 151.902L264.621 151.895L253.525 140.62ZM237.868 155.987L226.788 144.698L226.781 144.705L226.774 144.711L237.868 155.987ZM237.808 156.047L226.713 144.771L224.175 147.268L222.952 150.612L237.808 156.047ZM237.778 156.127L252.624 161.589L252.629 161.575L252.634 161.562L237.778 156.127ZM221.492 200.394L236.336 205.859L236.338 205.855L221.492 200.394ZM221.399 200.646L206.555 195.18L202.659 205.762L211.392 212.896L221.399 200.646ZM221.607 200.815L231.616 188.565L231.615 188.565L221.607 200.815ZM236.396 212.897L226.387 225.147L226.393 225.152L226.398 225.157L236.396 212.897ZM236.56 213.031L226.563 225.29L233.447 230.905L241.824 227.948L236.56 213.031ZM236.759 212.961L231.505 198.04L231.494 198.044L236.759 212.961ZM258.168 205.422L263.422 220.342L263.433 220.339L258.168 205.422ZM258.367 205.352L263.632 220.268L272.008 217.312L273.844 208.621L258.367 205.352ZM258.411 205.144L273.888 208.413L273.891 208.399L273.894 208.384L258.411 205.144ZM262.325 186.441L246.912 182.884L246.875 183.042L246.842 183.201L262.325 186.441ZM262.334 186.403L277.748 189.96L278.153 188.205V186.403H262.334ZM262.334 147.625H278.153V140.291L272.556 135.553L262.334 147.625ZM262.2 147.512L272.422 135.439L272.418 135.436L262.2 147.512ZM254.033 140.602L243.805 152.669L243.816 152.678L254.033 140.602ZM253.771 140.379L263.998 128.312L252.975 118.968L242.675 129.104L253.771 140.379ZM183.169 23.9854L167.573 21.3385L167.573 21.339L183.169 23.9854ZM180.463 39.9326L164.867 37.2862L164.866 37.294L180.463 39.9326ZM180.419 40.1924L183.295 55.7473L194.171 53.7363L196.016 42.831L180.419 40.1924ZM180.16 40.2402L177.284 24.6853L177.277 24.6865L180.16 40.2402ZM165.75 42.9111L162.867 27.3574L155.102 28.7966L151.586 35.8675L165.75 42.9111ZM152.303 69.9521L166.451 77.0264L166.459 77.0111L166.467 76.9957L152.303 69.9521ZM152.211 70.1357L153.933 85.8603L162.504 84.9216L166.36 77.21L152.211 70.1357ZM152.006 70.1582L150.284 54.4336L150.279 54.4341L152.006 70.1582ZM122.316 73.4189L120.589 57.6949L111.142 58.7325L107.622 67.5617L122.316 73.4189ZM116.955 86.8691L102.261 81.0119L91.471 108.081L120.048 102.382L116.955 86.8691ZM149.475 80.3848L152.568 95.898L152.572 95.8971L149.475 80.3848ZM150.12 80.2559L165.065 85.4408L174.123 59.3316L147.022 64.7435L150.12 80.2559ZM149.904 80.8779L134.96 75.693L134.958 75.6984L149.904 80.8779ZM143.139 100.401L128.192 95.2218L128.189 95.2309L128.186 95.24L143.139 100.401ZM143.072 100.594L146.945 115.931L155.235 113.838L158.025 105.755L143.072 100.594ZM142.875 100.644L146.741 115.983L146.747 115.981L142.875 100.644ZM107.792 109.485L103.926 94.1464L95.6883 96.2225L92.8695 104.237L107.792 109.485ZM94.0088 148.673L79.0863 143.424L66.1141 180.306L101.083 162.821L94.0088 148.673ZM101.259 145.048L112.897 134.334L104.833 125.575L94.1845 130.899L101.259 145.048ZM101.451 145.257L113.095 134.549L113.089 134.543L101.451 145.257ZM110.295 154.874L121.951 144.18L121.945 144.173L121.939 144.167L110.295 154.874ZM110.588 155.193L119.575 168.211L134.527 157.888L122.244 144.499L110.588 155.193ZM110.231 155.439L119.213 168.461L119.219 168.457L110.231 155.439ZM38.2725 205.07L29.2912 192.049L29.2869 192.052L38.2725 205.07ZM37.5254 205.586L21.9644 202.743L15.1057 240.28L46.5109 218.605L37.5254 205.586ZM37.6885 204.693L53.2495 207.537L53.2505 207.531L37.6885 204.693ZM45.1787 163.615L60.7407 166.453L60.7422 166.445L45.1787 163.615ZM45.2178 163.4L39.9826 148.473L31.3002 151.518L29.6543 160.571L45.2178 163.4ZM45.4238 163.328L50.659 178.255L50.6874 178.245L50.7159 178.235L45.4238 163.328ZM60.9443 157.818L66.2364 172.726L71.9817 170.686L74.8722 165.318L60.9443 157.818ZM80.7617 121.015L94.6896 128.514L111.943 96.4726L76.7444 105.715L80.7617 121.015ZM30.6152 134.182L34.5643 149.499L34.5985 149.491L34.6326 149.482L30.6152 134.182ZM30.4902 134.214L24.3305 148.784L29.2585 150.867L34.4393 149.532L30.4902 134.214ZM30.3701 134.163L24.0952 148.684L24.1527 148.709L24.2104 148.733L30.3701 134.163ZM26.4561 132.472L20.1761 146.99L20.1811 146.992L26.4561 132.472ZM26 132.274L13.7087 122.317L0.585131 138.516L19.72 146.793L26 132.274ZM26.3125 131.889L14.0233 121.929L14.0212 121.931L26.3125 131.889ZM57.7256 93.1299L70.0148 103.09L70.0185 103.085L57.7256 93.1299ZM57.8379 92.9912V77.1726H50.2932L45.545 83.0357L57.8379 92.9912ZM90.3721 92.9912V108.81H101.543L105.28 98.2817L90.3721 92.9912ZM96.6973 75.168L111.605 80.4585L120.258 56.0746L94.6107 59.4876L96.6973 75.168ZM86.0488 76.585L88.0888 92.2715L88.1121 92.2685L88.1354 92.2654L86.0488 76.585ZM85.8311 76.6133L73.2273 86.1723L78.772 93.4831L87.871 92.2998L85.8311 76.6133ZM85.6992 76.4395L98.3029 66.8804L98.3028 66.8802L85.6992 76.4395ZM68.3984 53.6289L81.002 44.0697L80.9954 44.061L80.9889 44.0524L68.3984 53.6289ZM68.0137 53.123L65.6576 37.4809L39.2651 41.4561L55.4232 62.6996L68.0137 53.123ZM68.6426 53.0283L66.3026 37.3837L66.2946 37.3849L66.2865 37.3861L68.6426 53.0283ZM158.789 39.5449L161.129 55.1895L174.608 53.1735V39.5449H158.789ZM158.789 30.2568L154.522 15.0246L142.97 18.2607V30.2568H158.789ZM159.064 30.1797L154.797 14.9475L154.797 14.9475L159.064 30.1797ZM182.696 23.5596L186.963 38.7918L186.974 38.789L186.984 38.7861L182.696 23.5596ZM183.269 23.3984L198.864 26.0453L203.048 1.39552L178.981 8.1719L183.269 23.3984ZM183.123 143.15L189.775 157.502L189.785 157.498L189.794 157.493L183.123 143.15ZM167.9 150.206L161.248 135.854L161.233 135.861L161.217 135.869L167.9 150.206ZM167.771 150.267L161.087 135.929L155.64 138.468L153.253 143.983L167.771 150.267ZM167.714 150.397L182.209 156.731L182.22 156.706L182.231 156.681L167.714 150.397ZM148.625 194.085L163.12 200.42L163.12 200.419L148.625 194.085ZM148.395 194.612L133.9 188.278L124.218 210.431H148.395V194.612ZM150.504 194.612V210.431H158.139L162.889 204.453L150.504 194.612ZM150.617 194.47L138.246 184.611L138.239 184.62L138.232 184.629L150.617 194.47ZM188.167 147.352L175.807 137.48L175.801 137.486L175.796 137.493L188.167 147.352ZM188.403 147.056L200.764 156.928L210.691 144.497L198.205 134.64L188.403 147.056ZM188.106 146.821L197.908 134.406L197.908 134.405L188.106 146.821ZM183.515 143.196L173.706 155.607L173.713 155.612L183.515 143.196ZM183.333 143.053L193.141 130.642L185.497 124.6L176.662 128.71L183.333 143.053ZM167.602 51.5215L182.916 47.5607L182.913 47.5479L167.602 51.5215ZM183.55 113.187L198.87 109.247L198.867 109.236L198.865 109.226L183.55 113.187ZM183.62 113.46L191.726 127.044L201.887 120.98L198.94 109.52L183.62 113.46ZM183.378 113.604L191.483 127.189L191.484 127.188L183.378 113.604ZM158.221 128.615L150.115 115.031L150.11 115.034L158.221 128.615ZM157.724 128.912L142.019 130.808L144.937 154.974L165.835 142.493L157.724 128.912ZM157.654 128.338L173.359 126.442L173.358 126.434L173.357 126.426L157.654 128.338ZM156.908 122.209L172.611 120.297L172.611 120.297L156.908 122.209ZM156.895 122.097L142.746 115.022L140.616 119.281L141.192 124.008L156.895 122.097ZM156.945 121.995L142.804 114.906L142.8 114.913L142.797 114.921L156.945 121.995ZM158.597 118.701L172.738 125.791L174.415 122.444V118.701H158.597ZM158.597 96.5039H174.415V70.4217L151.286 82.4761L158.597 96.5039ZM149.048 101.48L141.737 87.4526L133.546 91.7215L133.238 100.953L149.048 101.48ZM148.428 120.06L132.618 119.532L132.618 119.543L132.617 119.554L148.428 120.06ZM148.421 120.273L156.036 134.139L163.943 129.796L164.231 120.779L148.421 120.273ZM148.232 120.377L140.617 106.512L140.617 106.512L148.232 120.377ZM112.423 140.046L120.026 153.918L120.032 153.914L120.038 153.911L112.423 140.046ZM112.118 140.213L98.9154 148.926L106.942 161.089L119.721 154.085L112.118 140.213ZM111.927 139.923L98.7193 148.629L98.724 148.636L111.927 139.923ZM110.525 137.797L97.2949 146.468L97.3064 146.485L97.3179 146.503L110.525 137.797ZM110.412 137.624L95.9631 131.186L92.4485 139.073L97.1816 146.295L110.412 137.624ZM110.496 137.436L96.0545 130.98L96.0507 130.989L96.047 130.997L110.496 137.436ZM123.737 107.812L109.299 101.348L109.296 101.356L123.737 107.812ZM123.812 107.644L120.035 92.2825L112.532 94.1276L109.375 101.18L123.812 107.644ZM123.991 107.6L127.769 122.961L127.777 122.959L123.991 107.6ZM144.198 102.619L147.984 117.978L155.831 116.044L158.862 108.552L144.198 102.619ZM154.176 77.96L168.84 83.8932L179.678 57.1071L151.273 62.41L154.176 77.96ZM138.504 80.8857L141.402 96.4366L141.407 96.4357L138.504 80.8857ZM137.959 80.9873L122.43 77.9762L118.005 100.797L140.857 96.5381L137.959 80.9873ZM138.064 80.4434L122.537 77.4213L122.535 77.4323L138.064 80.4434ZM139.466 73.2432L123.94 70.2125L123.939 70.2211L139.466 73.2432ZM139.521 72.958L138.512 57.1717L126.334 57.9507L123.996 69.9273L139.521 72.958ZM139.812 72.9395L140.821 88.7258L140.835 88.7249L139.812 72.9395ZM153.46 72.0547L154.483 87.8402L163.608 87.2487L167.649 79.0468L153.46 72.0547ZM163.613 51.4502L177.803 58.4423L177.808 58.4307L177.814 58.4191L163.613 51.4502ZM163.717 51.2393V35.4206H153.859L149.516 44.2703L163.717 51.2393ZM167.528 51.2393L182.84 47.2657L179.766 35.4206H167.528V51.2393ZM259.95 37.9512L244.799 33.4034L244.796 33.4158L259.95 37.9512ZM254.006 57.8135L238.851 53.2781L238.843 53.3055L238.835 53.333L254.006 57.8135ZM253.95 58.002L258.905 73.0245L266.774 70.429L269.121 62.4825L253.95 58.002ZM253.764 58.0635L258.719 73.086L258.719 73.086L253.764 58.0635ZM235.318 64.1475L230.363 49.1249L223.39 51.4251L220.646 58.2365L235.318 64.1475ZM234.886 65.7021L219.412 62.4177L219.412 62.4184L234.886 65.7021ZM234.494 67.9756L218.835 65.735L218.835 65.7353L234.494 67.9756ZM234.245 69.9492L218.523 68.2073L218.523 68.2074L234.245 69.9492ZM234.205 70.3184L218.473 68.6682L216.379 88.6259L236.274 86.0011L234.205 70.3184ZM256.447 67.3838L254.461 51.6904L254.419 51.6956L254.378 51.7011L256.447 67.3838ZM256.602 67.3643L266.188 54.7816L261.038 50.8578L254.615 51.6709L256.602 67.3643ZM256.725 67.458L266.317 54.8799L266.311 54.8754L256.725 67.458ZM266.04 74.5625L256.447 87.1406L256.454 87.146L256.462 87.1514L266.04 74.5625ZM266.714 75.0752L269.633 90.622L304.633 84.0495L276.292 62.4863L266.714 75.0752ZM265.882 75.2314L268.8 90.7786L268.801 90.7783L265.882 75.2314ZM254.31 77.4033L251.392 61.8561L250.984 61.9326L250.581 62.0304L254.31 77.4033ZM241.65 80.4736L237.922 65.1007L225.832 68.033V80.4736H241.65ZM241.65 82.5918H225.832V100.914L243.958 98.2412L241.65 82.5918ZM242.368 82.4873L244.665 98.1382L244.665 98.1382L242.368 82.4873ZM245.508 82.0293L243.241 66.3739L243.241 66.3739L245.508 82.0293ZM255.907 80.5537L253.73 64.8856L253.73 64.8856L255.907 80.5537ZM280.235 77.4834L281.815 93.2229L281.821 93.2223L280.235 77.4834ZM280.759 77.4307L296.172 80.9898L301.139 59.4787L279.173 61.6917L280.759 77.4307ZM280.641 77.9424L265.228 74.3833L265.226 74.39L280.641 77.9424ZM276.993 93.7695L261.579 90.2171L261.175 91.9704V93.7695H276.993ZM276.993 93.7705L292.396 97.3742L292.812 95.5964V93.7705H276.993ZM273.053 110.612L288.455 114.219L288.455 114.216L273.053 110.612ZM272.955 111.029L267.425 125.85L284.26 132.132L288.357 114.636L272.955 111.029ZM272.555 110.88L278.085 96.0596L278.084 96.0593L272.555 110.88ZM253.652 103.827L259.182 89.0065L253.348 86.8297L247.595 89.2141L253.652 103.827ZM206.837 123.231L200.78 108.618L200.778 108.619L206.837 123.231ZM206.557 123.348L193.562 132.368L200.834 142.845L212.615 137.96L206.557 123.348ZM206.384 123.099L193.386 132.115L193.389 132.119L206.384 123.099ZM202.883 118.052H187.064V123.001L189.885 127.068L202.883 118.052ZM202.883 118.051H218.701V112.979L215.752 108.852L202.883 118.051ZM199.537 113.37L186.661 122.559L186.668 122.569L199.537 113.37ZM199.25 112.968L193.781 98.1245L174.337 105.288L186.374 122.156L199.25 112.968ZM199.714 112.797L194.269 97.9449L194.257 97.9493L194.245 97.9536L199.714 112.797ZM210.528 108.832L215.973 123.684L216.028 123.664L216.083 123.643L210.528 108.832ZM221.926 104.558L227.48 119.369L233.158 117.24L235.958 111.86L221.926 104.558ZM234.418 80.5547L248.45 87.8576L260.483 64.7361H234.418V80.5547ZM225.12 80.5547H209.301V96.3733H225.12V80.5547ZM225.12 80.5537H240.939V65.2532L225.647 64.7439L225.12 80.5537ZM212.072 80.1191L212.599 64.3093L212.593 64.3091L212.072 80.1191ZM211.302 80.0938L199.15 69.9669L178.424 94.8375L210.781 95.9038L211.302 80.0938ZM211.795 79.502L223.947 89.6288L223.951 89.6244L211.795 79.502ZM232.207 54.9893L244.363 65.1117L265.964 39.1706H232.207V54.9893ZM224.942 54.9893L212.21 64.3756L216.951 70.8079H224.942V54.9893ZM224.83 54.8369L237.563 45.4505L237.558 45.4434L237.552 45.4364L224.83 54.8369ZM217.581 45.0264L230.303 35.6258L230.302 35.6239L217.581 45.0264ZM217.216 44.5322L214.599 28.9316L189.167 33.1975L204.495 53.9347L217.216 44.5322ZM217.821 44.4307L215.218 28.8278L215.204 28.83L217.821 44.4307ZM259.527 37.4717L262.131 53.0746L262.132 53.0744L259.527 37.4717ZM260.124 37.3721L275.275 41.9199L282.579 17.5859L257.519 21.7694L260.124 37.3721ZM320.446 22.7451L311.758 35.9638L311.779 35.9781L311.801 35.9922L320.446 22.7451ZM325.037 25.7412L316.392 38.9883L316.399 38.993L325.037 25.7412ZM325.301 25.9131L339.881 32.0494L345.005 19.8746L333.939 12.6613L325.301 25.9131ZM325.179 26.2031L339.754 32.3515L339.759 32.3395L325.179 26.2031ZM316.562 46.6279L301.988 40.4795L289.571 69.9124L320.507 61.9469L316.562 46.6279ZM339.618 40.6914L335.682 25.3702L335.674 25.3725L339.618 40.6914ZM340.15 40.5547L355.86 42.4095L358.566 19.4919L336.215 25.2335L340.15 40.5547ZM340.086 41.1006L324.376 39.2458L324.376 39.2472L340.086 41.1006ZM339.005 50.2637L354.713 52.1294L354.715 52.1171L339.005 50.2637ZM338.975 50.5186L343.024 65.8101L353.415 63.0583L354.683 52.3843L338.975 50.5186ZM338.728 50.584L334.678 35.2925L334.677 35.2928L338.728 50.584ZM306.847 59.0293L302.796 43.7381L294.244 46.0035L291.698 54.4757L306.847 59.0293ZM289.721 116.004L304.864 120.576L304.867 120.567L304.87 120.558L289.721 116.004ZM289.599 116.408L283.372 130.95L299.63 137.912L304.742 120.98L289.599 116.408ZM289.211 116.242L282.961 130.774L282.972 130.779L282.984 130.784L289.211 116.242ZM278.642 111.696L284.892 97.1648L284.891 97.1644L278.642 111.696ZM278.355 111.573L262.912 108.147L260.076 120.932L272.106 126.105L278.355 111.573ZM278.423 111.27L293.866 114.696L293.869 114.684L293.871 114.672L278.423 111.27ZM288.857 63.8926L304.306 67.295L309.948 41.6794L284.659 48.6413L288.857 63.8926ZM268.39 69.5273L272.568 84.7843L272.578 84.7814L272.588 84.7786L268.39 69.5273ZM267.99 69.6367L252.415 72.4007L255.445 89.4732L272.168 84.8936L267.99 69.6367ZM267.918 69.2295L252.339 71.9727L252.341 71.9831L252.343 71.9934L267.918 69.2295ZM265.212 53.8613L249.63 56.5901L249.632 56.5973L249.633 56.6045L265.212 53.8613ZM265.145 53.4766L262.968 37.8083L246.736 40.0628L249.563 56.2053L265.145 53.4766ZM265.531 53.4229L263.356 37.7545L263.355 37.7546L265.531 53.4229ZM291.034 49.8818L293.21 65.5501L303.915 64.0638L306.421 53.5506L291.034 49.8818ZM294.696 34.5225L310.084 38.1912L310.087 38.1755L310.091 38.1597L294.696 34.5225ZM294.738 34.3447L288.104 19.9845L281.114 23.2138L279.344 30.7075L294.738 34.3447ZM294.905 34.2676L288.31 19.8895L288.29 19.8984L288.271 19.9074L294.905 34.2676ZM320.084 22.7178L326.679 37.0959L326.694 37.0892L326.708 37.0826L320.084 22.7178ZM320.272 22.6309L328.961 9.41213L321.623 4.58862L313.648 8.26602L320.272 22.6309ZM371.007 19.168L359.854 30.3858L359.86 30.3921L359.867 30.3984L371.007 19.168ZM389.13 37.1455L400.286 25.9306L400.278 25.9228L400.27 25.9151L389.13 37.1455ZM389.315 37.3301L403.736 43.8313L408.24 33.8425L400.471 26.1152L389.315 37.3301ZM389.208 37.5684L403.626 44.076L403.629 44.0696L389.208 37.5684ZM354.461 114.553L340.043 108.045L340.037 108.057L340.032 108.069L354.461 114.553ZM354.361 114.774V130.593H364.596L368.79 121.258L354.361 114.774ZM309.999 114.774L297.305 124.213L302.049 130.593H309.999V114.774ZM309.886 114.622L297.186 124.053L297.192 124.061L309.886 114.622ZM301.198 102.923L313.898 93.4922L313.886 93.4754L313.873 93.4587L301.198 102.923ZM301.089 102.776L285.841 98.5643L283.778 106.032L288.414 112.24L301.089 102.776ZM301.138 102.6L316.385 106.812L316.39 106.793L316.396 106.774L301.138 102.6ZM311.592 64.3877L296.343 60.1785L296.339 60.196L296.334 60.2134L311.592 64.3877ZM311.644 64.2002L306.238 49.334L298.567 52.1233L296.395 59.991L311.644 64.2002ZM311.826 64.1338L317.232 79L317.24 78.9972L311.826 64.1338ZM340.997 53.5088L346.411 68.3722L354.151 65.5529L356.279 57.5948L340.997 53.5088ZM345.809 35.5137L361.09 39.5997L367.997 13.7686L342.032 20.1525L345.809 35.5137ZM321.778 41.4219L325.548 56.7847L325.555 56.783L321.778 41.4219ZM320.879 41.6426L307.449 33.2842L286.925 66.2624L324.649 57.0054L320.879 41.6426ZM321.368 40.8564L307.942 32.492L307.938 32.4981L321.368 40.8564ZM324.512 35.8105L337.938 44.175L337.939 44.1732L324.512 35.8105ZM324.581 35.6992L319.261 20.8022L314.068 22.6565L311.154 27.3366L324.581 35.6992ZM324.704 35.6553L330.024 50.5523L330.05 50.5432L330.076 50.534L324.704 35.6553ZM370.614 19.0811L375.986 33.9598L375.995 33.9564L376.005 33.953L370.614 19.0811ZM370.838 19L381.991 7.78217L374.878 0.710179L365.448 4.12809L370.838 19ZM208.553 34.5293L194.483 41.76L194.488 41.7686L208.553 34.5293ZM220.31 57.3711L206.245 64.6104L209.735 71.3907L217.213 72.8836L220.31 57.3711ZM225.206 58.3486L222.109 73.8611L222.112 73.8618L225.206 58.3486ZM225.882 58.4834L237.267 69.4653L257.363 48.6313L228.975 42.9702L225.882 58.4834ZM225.403 58.9795L214.018 47.9976L214.017 47.9988L225.403 58.9795ZM210.208 74.7363L198.822 63.7556L198.802 63.7755L198.783 63.7955L210.208 74.7363ZM210.098 74.8516V90.6702H216.851L221.523 85.7923L210.098 74.8516ZM205.663 74.8516L193.048 84.3958L197.795 90.6702H205.663V74.8516ZM205.551 74.7031L218.166 65.1589L218.151 65.14L218.137 65.1211L205.551 74.7031ZM198.368 65.2686L210.954 55.6865L202.027 43.9599L189.699 52.037L198.368 65.2686ZM187.617 72.3125L178.948 59.081L171.983 63.6443L171.802 71.9689L187.617 72.3125ZM188.789 86.4443L173.125 88.6474L173.125 88.6474L188.789 86.4443ZM189.704 92.3457L174.107 94.9828L174.107 94.9829L189.704 92.3457ZM190.011 94.1104L205.582 91.3227L205.582 91.3223L190.011 94.1104ZM190.053 94.3477L174.487 97.1637L177.592 114.329L194.373 109.565L190.053 94.3477ZM190.107 94.333L194.452 109.543L194.456 109.542L190.107 94.333ZM191.317 93.9648L196.159 109.024L196.16 109.024L191.317 93.9648ZM195.194 92.5127L201.477 107.03L201.477 107.03L195.194 92.5127ZM199.609 90.1543L208.473 103.256L208.474 103.256L199.609 90.1543ZM202.871 86.9893L216.379 95.2218L216.396 95.1925L216.414 95.1632L202.871 86.9893ZM202.971 86.8242L201.776 71.0508L193.642 71.667L189.428 78.6503L202.971 86.8242ZM203.164 86.8096L201.97 71.0361L201.969 71.0362L203.164 86.8096ZM227.424 84.9727L226.23 69.1991L226.229 69.1992L227.424 84.9727ZM228.082 84.9229L242.272 91.9129L254.515 67.0589L226.888 69.1493L228.082 84.9229ZM227.79 85.5156L241.975 92.5162L241.98 92.5056L227.79 85.5156ZM220.396 100.497L234.545 107.571L234.563 107.535L234.582 107.498L220.396 100.497ZM220.324 100.642L225.037 115.742L231.463 113.736L234.473 107.716L220.324 100.642ZM220.171 100.689L224.881 115.791L224.884 115.79L220.171 100.689ZM206.805 104.858L202.095 89.7573L201.32 89.999L200.573 90.3188L206.805 104.858ZM206.798 104.861L211.144 120.071L212.108 119.796L213.029 119.401L206.798 104.861ZM206.791 104.863L210.903 120.138L211.02 120.107L211.137 120.073L206.791 104.863ZM188.046 109.909L183.934 94.6343L183.924 94.6369L183.915 94.6396L188.046 109.909ZM187.678 110.009L172.356 113.941L176.339 129.464L191.809 125.278L187.678 110.009ZM187.583 109.64L172.259 113.564L172.261 113.572L187.583 109.64ZM172.442 50.5205L187.766 46.596L187.766 46.5927L172.442 50.5205ZM172.363 50.2119L165.957 35.7487L153.716 41.1709L157.04 54.1397L172.363 50.2119ZM172.654 50.083L179.061 64.5462L179.068 64.5433L179.074 64.5403L172.654 50.083ZM208.065 34.3584L214.485 48.8157L214.49 48.8136L208.065 34.3584ZM208.391 34.2139L222.46 26.9832L215.627 13.6872L201.966 19.7586L208.391 34.2139ZM354.499 57.0244L348.29 42.4754L348.282 42.4786L348.275 42.4818L354.499 57.0244ZM342.107 62.3281L346.454 77.5378L347.414 77.2635L348.332 76.8707L342.107 62.3281ZM332.037 65.2061L327.69 49.9964L327.681 49.9992L327.671 50.002L332.037 65.2061ZM331.847 65.2607L327.48 50.0567L319.519 52.3429L316.863 60.1883L331.847 65.2607ZM331.783 65.4482L316.8 60.3758L316.8 60.3758L331.783 65.4482ZM320.897 97.6035L335.877 102.688L335.881 102.676L320.897 97.6035ZM320.717 98.1357L305.738 93.0511L298.138 115.44L321.733 113.922L320.717 98.1357ZM321.278 98.0996L320.266 82.3134L320.263 82.3136L321.278 98.0996ZM339.353 96.9404L340.365 112.727L340.392 112.725L340.42 112.723L339.353 96.9404ZM339.555 96.9268L340.622 112.709L349.076 112.138L353.284 104.783L339.555 96.9268ZM339.655 96.751L353.385 104.607L353.39 104.599L339.655 96.751ZM344.295 88.6318L330.615 80.6887L330.588 80.736L330.561 80.7834L344.295 88.6318ZM344.312 88.6016L357.992 96.5447L358.876 95.023L359.403 93.3444L344.312 88.6016ZM344.323 88.5674L329.364 83.4255L329.295 83.6242L329.232 83.8245L344.323 88.5674ZM355.004 57.4932L369.964 62.635L369.965 62.6319L355.004 57.4932ZM355.279 56.6914L370.24 61.8302L381.8 28.1736L349.07 42.1424L355.279 56.6914ZM308.254 119.717V135.535H354.745V119.717V103.898H308.254V119.717ZM354.745 119.717L345.326 132.426L368.475 149.582L377.894 136.873L387.313 124.164L364.164 107.008L354.745 119.717ZM377.894 136.873L362.328 134.053L357.592 160.198L373.157 163.018L388.722 165.837L393.459 139.693L377.894 136.873ZM373.157 163.018L364.502 149.777L357.108 154.61L365.764 167.851L374.419 181.091L381.812 176.258L373.157 163.018ZM365.764 167.851L379.17 159.455L364.189 135.533L350.782 143.929L337.376 152.325L352.357 176.247L365.764 167.851ZM350.782 143.929L337.321 135.621L323.692 157.706L337.153 166.014L350.615 174.321L364.244 152.236L350.782 143.929ZM337.153 166.014L323.131 158.692L297.519 207.744L311.541 215.065L325.563 222.387L351.176 173.335L337.153 166.014ZM311.541 215.065L305.632 229.739L348.836 247.137L354.745 232.463L360.654 217.789L317.45 200.392L311.541 215.065ZM354.745 232.463L346.364 219.047L308.259 242.852L316.64 256.268L325.021 269.684L363.126 245.879L354.745 232.463ZM316.64 256.268L309.006 242.413L291.342 252.145L298.976 266L306.609 279.855L324.273 270.122L316.64 256.268ZM298.976 266L313.091 258.86L296.128 225.323L282.013 232.463L267.897 239.603L284.86 273.14L298.976 266ZM282.013 232.463L296.805 238.068L310.529 201.852L295.737 196.246L280.945 190.641L267.221 226.857L282.013 232.463ZM295.737 196.246L309.678 203.722L339.109 148.843L325.169 141.367L311.229 133.891L281.797 188.77L295.737 196.246ZM325.169 141.367L317.308 127.64L284.986 146.15L292.848 159.877L300.709 173.604L333.03 155.094L325.169 141.367ZM292.848 159.877L308.655 159.271L307.196 121.202L291.389 121.808L275.582 122.413L277.041 160.483L292.848 159.877ZM291.389 121.808L306.297 127.097L310.645 114.84L295.737 109.551L280.829 104.261L276.481 116.518L291.389 121.808ZM295.737 109.551L285.764 121.83L298.281 131.996L308.254 119.717L318.227 107.438L305.71 97.2719L295.737 109.551ZM195.447 115.436L183.26 125.52L206.034 153.045L218.222 142.961L230.409 132.877L207.635 105.351L195.447 115.436ZM218.222 142.961L206.039 153.051L206.199 153.245L218.382 143.154L230.564 133.064L230.404 132.87L218.222 142.961ZM218.382 143.154L204.409 135.739L204.291 135.962L218.264 143.377L232.237 150.792L232.355 150.57L218.382 143.154ZM218.264 143.377L204.291 135.961L166.307 207.534L180.279 214.949L194.252 222.365L232.236 150.792L218.264 143.377ZM180.279 214.949L166.311 207.525L166.254 207.633L180.222 215.058L194.19 222.482L194.247 222.374L180.279 214.949ZM180.222 215.058L173.299 200.834L173.188 200.888L180.111 215.111L187.034 229.335L187.145 229.281L180.222 215.058ZM180.111 215.111L173.186 200.889L82.7675 244.914L89.6924 259.137L96.6173 273.359L187.036 229.334L180.111 215.111ZM89.6924 259.137L82.7662 244.915L82.6158 244.988L89.542 259.21L96.4681 273.432L96.6185 273.358L89.6924 259.137ZM89.542 259.21L95.4487 244.536L95.2934 244.473L89.3867 259.147L83.48 273.822L83.6353 273.884L89.542 259.21ZM89.3867 259.147L95.2792 244.467L81.7958 239.055L75.9033 253.735L70.0108 268.416L83.4942 273.828L89.3867 259.147ZM75.9033 253.735L81.8086 239.06L81.4834 238.929L75.5781 253.604L69.6729 268.28L69.9981 268.41L75.9033 253.735ZM75.5781 253.604L90.637 258.448L90.7444 258.114L75.6855 253.271L60.6267 248.427L60.5193 248.761L75.5781 253.604ZM75.6855 253.271L90.7443 258.114L100.071 229.118L85.0127 224.274L69.954 219.43L60.6268 248.427L75.6855 253.271ZM85.0127 224.274L100.072 229.118L100.134 228.923L85.0752 224.08L70.0162 219.237L69.9537 219.431L85.0127 224.274ZM85.0752 224.08L89.2502 239.338L89.4465 239.284L85.2715 224.026L81.0965 208.769L80.9002 208.822L85.0752 224.08ZM85.2715 224.026L89.4668 239.279L109.998 233.631L105.803 218.379L101.607 203.127L81.0761 208.774L85.2715 224.026ZM105.803 218.379L120.935 222.988L133.146 182.899L118.014 178.29L102.881 173.681L90.6705 213.77L105.803 218.379ZM118.014 178.29L133.021 183.292L133.022 183.289L118.015 178.287L103.008 173.285L103.007 173.288L118.014 178.29ZM118.015 178.287L133.11 183.014L146.448 140.422L131.353 135.694L116.257 130.967L102.919 173.56L118.015 178.287ZM131.353 135.694L146.449 140.42L146.519 140.195L131.423 135.47L116.327 130.744L116.256 130.969L131.353 135.694ZM131.423 135.47L133.779 151.112L134.012 151.077L131.656 135.435L129.3 119.792L129.067 119.828L131.423 135.47ZM131.656 135.435L134.016 151.076L152.761 148.248L150.401 132.606L148.041 116.965L129.296 119.793L131.656 135.435ZM150.401 132.606L152.789 148.244L153.045 148.205L150.657 132.567L148.27 116.93L148.014 116.969L150.401 132.606ZM150.657 132.567L136.883 140.345L137.011 140.572L150.785 132.794L164.56 125.016L164.432 124.79L150.657 132.567ZM150.785 132.794L137.014 140.577L141.501 148.517L155.272 140.733L169.044 132.95L164.556 125.011L150.785 132.794ZM155.272 140.733L163.954 153.957L199.306 130.747L190.624 117.523L181.942 104.3L146.591 127.51L155.272 140.733ZM190.624 117.523L199.071 130.898L199.09 130.886L190.643 117.512L182.196 104.137L182.177 104.149L190.624 117.523ZM190.643 117.512L197.444 131.794L197.464 131.784L190.663 117.502L183.862 103.22L183.842 103.23L190.643 117.512ZM190.663 117.502L197.739 131.65L202.064 129.487L194.988 115.339L187.913 101.191L183.588 103.354L190.663 117.502ZM194.988 115.339L202.063 129.487L202.33 129.354L195.256 115.205L188.182 101.056L187.914 101.19L194.988 115.339ZM195.256 115.205L183.087 125.312L183.278 125.542L195.447 115.436L207.616 105.329L207.425 105.099L195.256 115.205ZM254.415 111.365L248.626 126.086L280.709 138.704L286.498 123.982L292.287 109.261L260.204 96.6441L254.415 111.365ZM286.498 123.982L280.71 138.704L280.939 138.794L286.727 124.072L292.515 109.351L292.286 109.261L286.498 123.982ZM286.727 124.072L270.92 124.702L270.93 124.947L286.736 124.317L302.542 123.688L302.533 123.443L286.727 124.072ZM286.736 124.317L270.93 124.945L273.688 194.368L289.494 193.74L305.3 193.112L302.542 123.689L286.736 124.317ZM289.494 193.74L273.692 194.467L273.696 194.552L289.498 193.825L305.3 193.099L305.296 193.014L289.494 193.74ZM289.498 193.825L274.94 187.638L274.906 187.716L289.465 193.903L304.023 200.091L304.056 200.012L289.498 193.825ZM289.465 193.903L274.913 187.701L256.5 230.905L271.052 237.107L285.604 243.309L304.017 200.105L289.465 193.903ZM271.052 237.107L256.507 230.887L256.441 231.042L270.985 237.263L285.53 243.483L285.596 243.328L271.052 237.107ZM270.985 237.263L265.956 222.265L265.795 222.319L270.825 237.316L275.855 252.314L276.015 252.26L270.985 237.263ZM270.825 237.316L265.782 222.323L244.374 229.524L249.417 244.518L254.46 259.511L275.868 252.31L270.825 237.316ZM249.417 244.518L244.415 229.511L244.356 229.53L249.358 244.537L254.361 259.544L254.419 259.524L249.417 244.518ZM249.358 244.537V228.718H207.309V244.537V260.356H249.358V244.537ZM207.309 244.537L219.822 234.86L219.709 234.714L207.195 244.391L194.682 254.068L194.795 254.214L207.309 244.537ZM207.195 244.391L219.728 234.739L200.183 209.357L187.649 219.009L175.116 228.66L194.662 254.042L207.195 244.391ZM187.649 219.009L200.183 209.358L200.042 209.175L187.509 218.826L174.976 228.477L175.116 228.66L187.649 219.009ZM187.509 218.826L201.788 225.632L201.888 225.423L187.608 218.617L173.329 211.811L173.229 212.02L187.509 218.826ZM187.608 218.617L201.899 225.401L238.059 149.228L223.769 142.444L209.478 135.661L173.318 211.833L187.608 218.617ZM223.769 142.444L235.721 132.083L223.047 117.463L211.095 127.824L199.142 138.186L211.816 152.806L223.769 142.444ZM211.095 127.824L223.059 117.476L222.703 117.064L210.738 127.412L198.774 137.76L199.13 138.172L211.095 127.824ZM210.738 127.412L216.215 142.252L216.725 142.064L211.249 127.224L205.773 112.383L205.262 112.572L210.738 127.412ZM211.249 127.224L216.735 142.061L259.632 126.199L254.146 111.362L248.661 96.5254L205.763 112.387L211.249 127.224ZM254.146 111.362L259.63 126.2L259.765 126.15L254.281 111.312L248.798 96.4747L248.663 96.5245L254.146 111.362ZM254.281 111.312L248.481 126.029L248.614 126.082L254.415 111.365L260.216 96.6486L260.082 96.5958L254.281 111.312ZM253.525 140.62L242.445 129.331L226.788 144.698L237.868 155.987L248.949 167.277L264.606 151.91L253.525 140.62ZM237.868 155.987L226.774 144.711L226.713 144.771L237.808 156.047L248.902 167.323L248.962 167.263L237.868 155.987ZM237.808 156.047L222.952 150.612L222.923 150.692L237.778 156.127L252.634 161.562L252.663 161.482L237.808 156.047ZM237.778 156.127L222.933 150.665L206.646 194.932L221.492 200.394L236.338 205.855L252.624 161.589L237.778 156.127ZM221.492 200.394L206.648 194.928L206.555 195.18L221.399 200.646L236.244 206.111L236.336 205.859L221.492 200.394ZM221.399 200.646L211.392 212.896L211.6 213.066L221.607 200.815L231.615 188.565L231.407 188.395L221.399 200.646ZM221.607 200.815L211.599 213.065L226.387 225.147L236.396 212.897L246.404 200.648L231.616 188.565L221.607 200.815ZM236.396 212.897L226.398 225.157L226.563 225.29L236.56 213.031L246.557 200.772L246.393 200.638L236.396 212.897ZM236.56 213.031L241.824 227.948L242.024 227.878L236.759 212.961L231.494 198.044L231.295 198.114L236.56 213.031ZM236.759 212.961L242.013 227.881L263.422 220.342L258.168 205.422L252.914 190.501L231.505 198.04L236.759 212.961ZM258.168 205.422L263.433 220.339L263.632 220.268L258.367 205.352L253.102 190.435L252.903 190.505L258.168 205.422ZM258.367 205.352L273.844 208.621L273.888 208.413L258.411 205.144L242.934 201.874L242.89 202.082L258.367 205.352ZM258.411 205.144L273.894 208.384L277.808 189.682L262.325 186.441L246.842 183.201L242.928 201.903L258.411 205.144ZM262.325 186.441L277.739 189.998L277.748 189.96L262.334 186.403L246.92 182.846L246.912 182.884L262.325 186.441ZM262.334 186.403H278.153V147.625H262.334H246.515V186.403H262.334ZM262.334 147.625L272.556 135.553L272.422 135.439L262.2 147.512L251.978 159.584L252.112 159.697L262.334 147.625ZM262.2 147.512L272.418 135.436L264.251 128.526L254.033 140.602L243.816 152.678L251.983 159.588L262.2 147.512ZM254.033 140.602L264.261 128.534L263.998 128.312L253.771 140.379L243.543 152.446L243.805 152.669L254.033 140.602ZM253.771 140.379L242.675 129.104L242.43 129.345L253.525 140.62L264.621 151.895L264.866 151.654L253.771 140.379ZM183.169 23.9854L167.573 21.339L164.867 37.2862L180.463 39.9326L196.059 42.579L198.765 26.6317L183.169 23.9854ZM180.463 39.9326L164.866 37.294L164.822 37.5538L180.419 40.1924L196.016 42.831L196.06 42.5712L180.463 39.9326ZM180.419 40.1924L177.543 24.6374L177.284 24.6853L180.16 40.2402L183.036 55.7952L183.295 55.7473L180.419 40.1924ZM180.16 40.2402L177.277 24.6865L162.867 27.3574L165.75 42.9111L168.633 58.4648L183.043 55.7939L180.16 40.2402ZM165.75 42.9111L151.586 35.8675L138.139 62.9086L152.303 69.9521L166.467 76.9957L179.914 49.9547L165.75 42.9111ZM152.303 69.9521L138.154 62.8778L138.062 63.0614L152.211 70.1357L166.36 77.21L166.451 77.0264L152.303 69.9521ZM152.211 70.1357L150.489 54.4112L150.284 54.4336L152.006 70.1582L153.728 85.8828L153.933 85.8603L152.211 70.1357ZM152.006 70.1582L150.279 54.4341L120.589 57.6949L122.316 73.4189L124.043 89.143L153.733 85.8823L152.006 70.1582ZM122.316 73.4189L107.622 67.5617L102.261 81.0119L116.955 86.8691L131.649 92.7264L137.011 79.2762L122.316 73.4189ZM116.955 86.8691L120.048 102.382L152.568 95.898L149.475 80.3848L146.381 64.8715L113.862 71.3559L116.955 86.8691ZM149.475 80.3848L152.572 95.8971L153.218 95.7682L150.12 80.2559L147.022 64.7435L146.377 64.8724L149.475 80.3848ZM150.12 80.2559L135.175 75.0709L134.96 75.693L149.904 80.8779L164.849 86.0628L165.065 85.4408L150.12 80.2559ZM149.904 80.8779L134.958 75.6984L128.192 95.2218L143.139 100.401L158.085 105.581L164.851 86.0575L149.904 80.8779ZM143.139 100.401L128.186 95.24L128.119 95.4323L143.072 100.594L158.025 105.755L158.092 105.563L143.139 100.401ZM143.072 100.594L139.2 85.2564L139.003 85.3062L142.875 100.644L146.747 115.981L146.945 115.931L143.072 100.594ZM142.875 100.644L139.009 85.3046L103.926 94.1464L107.792 109.485L111.658 124.824L146.741 115.983L142.875 100.644ZM107.792 109.485L92.8695 104.237L79.0863 143.424L94.0088 148.673L108.931 153.921L122.714 114.734L107.792 109.485ZM94.0088 148.673L101.083 162.821L108.333 159.196L101.259 145.048L94.1845 130.899L86.9345 134.524L94.0088 148.673ZM101.259 145.048L89.6206 155.761L89.813 155.97L101.451 145.257L113.089 134.543L112.897 134.334L101.259 145.048ZM101.451 145.257L89.8073 155.964L98.6511 165.581L110.295 154.874L121.939 144.167L113.095 134.549L101.451 145.257ZM110.295 154.874L98.6386 165.568L98.9316 165.887L110.588 155.193L122.244 144.499L121.951 144.18L110.295 154.874ZM110.588 155.193L101.6 142.176L101.244 142.422L110.231 155.439L119.219 168.457L119.575 168.211L110.588 155.193ZM110.231 155.439L101.25 142.418L29.2912 192.049L38.2725 205.07L47.2537 218.092L119.213 168.461L110.231 155.439ZM38.2725 205.07L29.2869 192.052L28.5399 192.567L37.5254 205.586L46.5109 218.605L47.258 218.089L38.2725 205.07ZM37.5254 205.586L53.0864 208.429L53.2495 207.537L37.6885 204.693L22.1275 201.85L21.9644 202.743L37.5254 205.586ZM37.6885 204.693L53.2505 207.531L60.7407 166.453L45.1787 163.615L29.6167 160.778L22.1264 201.856L37.6885 204.693ZM45.1787 163.615L60.7422 166.445L60.7812 166.23L45.2178 163.4L29.6543 160.571L29.6152 160.786L45.1787 163.615ZM45.2178 163.4L50.4529 178.328L50.659 178.255L45.4238 163.328L40.1887 148.401L39.9826 148.473L45.2178 163.4ZM45.4238 163.328L50.7159 178.235L66.2364 172.726L60.9443 157.818L55.6523 142.911L40.1318 148.421L45.4238 163.328ZM60.9443 157.818L74.8722 165.318L94.6896 128.514L80.7617 121.015L66.8339 113.515L47.0165 150.319L60.9443 157.818ZM80.7617 121.015L76.7444 105.715L26.5979 118.882L30.6152 134.182L34.6326 149.482L84.779 136.315L80.7617 121.015ZM30.6152 134.182L26.6661 118.864L26.5411 118.896L30.4902 134.214L34.4393 149.532L34.5643 149.499L30.6152 134.182ZM30.4902 134.214L36.6499 119.644L36.5298 119.593L30.3701 134.163L24.2104 148.733L24.3305 148.784L30.4902 134.214ZM30.3701 134.163L36.6451 119.642L32.731 117.951L26.4561 132.472L20.1811 146.992L24.0952 148.684L30.3701 134.163ZM26.4561 132.472L32.7361 117.953L32.28 117.756L26 132.274L19.72 146.793L20.1761 146.99L26.4561 132.472ZM26 132.274L38.2913 142.232L38.6038 141.846L26.3125 131.889L14.0212 121.931L13.7087 122.317L26 132.274ZM26.3125 131.889L38.6017 141.849L70.0148 103.09L57.7256 93.1299L45.4364 83.1698L14.0233 121.929L26.3125 131.889ZM57.7256 93.1299L70.0185 103.085L70.1308 102.947L57.8379 92.9912L45.545 83.0357L45.4327 83.1743L57.7256 93.1299ZM57.8379 92.9912V108.81H90.3721V92.9912V77.1726H57.8379V92.9912ZM90.3721 92.9912L105.28 98.2817L111.605 80.4585L96.6973 75.168L81.7896 69.8775L75.4644 87.7007L90.3721 92.9912ZM96.6973 75.168L94.6107 59.4876L83.9622 60.9046L86.0488 76.585L88.1354 92.2654L98.7839 90.8484L96.6973 75.168ZM86.0488 76.585L84.0089 60.8984L83.7911 60.9267L85.8311 76.6133L87.871 92.2998L88.0888 92.2715L86.0488 76.585ZM85.8311 76.6133L98.4348 67.0543L98.3029 66.8804L85.6992 76.4395L73.0955 85.9985L73.2273 86.1723L85.8311 76.6133ZM85.6992 76.4395L98.3028 66.8802L81.002 44.0697L68.3984 53.6289L55.7949 63.1881L73.0957 85.9987L85.6992 76.4395ZM68.3984 53.6289L80.9889 44.0524L80.6041 43.5465L68.0137 53.123L55.4232 62.6996L55.808 63.2054L68.3984 53.6289ZM68.0137 53.123L70.3697 68.7652L70.9986 68.6705L68.6426 53.0283L66.2865 37.3861L65.6576 37.4809L68.0137 53.123ZM68.6426 53.0283L70.9826 68.6729L161.129 55.1895L158.789 39.5449L156.449 23.9003L66.3026 37.3837L68.6426 53.0283ZM158.789 39.5449H174.608V30.2568H158.789H142.97V39.5449H158.789ZM158.789 30.2568L163.056 45.489L163.332 45.4119L159.064 30.1797L154.797 14.9475L154.522 15.0246L158.789 30.2568ZM159.064 30.1797L163.332 45.4119L186.963 38.7918L182.696 23.5596L178.429 8.32735L154.797 14.9475L159.064 30.1797ZM182.696 23.5596L186.984 38.7861L187.556 38.625L183.269 23.3984L178.981 8.1719L178.409 8.33303L182.696 23.5596ZM183.269 23.3984L167.673 20.7516L167.573 21.3385L183.169 23.9854L198.765 26.6322L198.864 26.0453L183.269 23.3984ZM183.123 143.15L176.471 128.798L161.248 135.854L167.9 150.206L174.552 164.558L189.775 157.502L183.123 143.15ZM167.9 150.206L161.217 135.869L161.087 135.929L167.771 150.267L174.454 164.604L174.584 164.543L167.9 150.206ZM167.771 150.267L153.253 143.983L153.197 144.114L167.714 150.397L182.231 156.681L182.288 156.55L167.771 150.267ZM167.714 150.397L153.219 144.064L134.13 187.751L148.625 194.085L163.12 200.419L182.209 156.731L167.714 150.397ZM148.625 194.085L134.13 187.75L133.9 188.278L148.395 194.612L162.889 200.947L163.12 200.42L148.625 194.085ZM148.395 194.612V210.431H150.504V194.612V178.794H148.395V194.612ZM150.504 194.612L162.889 204.453L163.002 204.31L150.617 194.47L138.232 184.629L138.119 184.772L150.504 194.612ZM150.617 194.47L162.988 204.328L200.538 157.21L188.167 147.352L175.796 137.493L138.246 184.611L150.617 194.47ZM188.167 147.352L200.527 157.223L200.764 156.928L188.403 147.056L176.043 137.184L175.807 137.48L188.167 147.352ZM188.403 147.056L198.205 134.64L197.908 134.406L188.106 146.821L178.305 159.237L178.601 159.471L188.403 147.056ZM188.106 146.821L197.908 134.405L193.316 130.78L183.515 143.196L173.713 155.612L178.305 159.237L188.106 146.821ZM183.515 143.196L193.323 130.786L193.141 130.642L183.333 143.053L173.525 155.463L173.706 155.607L183.515 143.196ZM183.333 143.053L176.662 128.71L176.452 128.807L183.123 143.15L189.794 157.493L190.004 157.396L183.333 143.053ZM167.602 51.5215L152.287 55.4823L168.235 117.147L183.55 113.187L198.865 109.226L182.916 47.5607L167.602 51.5215ZM183.55 113.187L168.23 117.126L168.3 117.399L183.62 113.46L198.94 109.52L198.87 109.247L183.55 113.187ZM183.62 113.46L175.514 99.8763L175.272 100.021L183.378 113.604L191.484 127.188L191.726 127.044L183.62 113.46ZM183.378 113.604L175.273 100.02L150.115 115.031L158.221 128.615L166.326 142.199L191.483 127.189L183.378 113.604ZM158.221 128.615L150.11 115.034L149.613 115.331L157.724 128.912L165.835 142.493L166.332 142.196L158.221 128.615ZM157.724 128.912L173.428 127.016L173.359 126.442L157.654 128.338L141.95 130.234L142.019 130.808L157.724 128.912ZM157.654 128.338L173.357 126.426L172.611 120.297L156.908 122.209L141.206 124.121L141.952 130.249L157.654 128.338ZM156.908 122.209L172.611 120.297L172.597 120.185L156.895 122.097L141.192 124.008L141.206 124.121L156.908 122.209ZM156.895 122.097L171.043 129.171L171.094 129.069L156.945 121.995L142.797 114.921L142.746 115.022L156.895 122.097ZM156.945 121.995L171.086 129.085L172.738 125.791L158.597 118.701L144.456 111.612L142.804 114.906L156.945 121.995ZM158.597 118.701H174.415V96.5039H158.597H142.778V118.701H158.597ZM158.597 96.5039L151.286 82.4761L141.737 87.4526L149.048 101.48L156.359 115.508L165.908 110.532L158.597 96.5039ZM149.048 101.48L133.238 100.953L132.618 119.532L148.428 120.06L164.238 120.587L164.858 102.008L149.048 101.48ZM148.428 120.06L132.617 119.554L132.61 119.768L148.421 120.273L164.231 120.779L164.238 120.565L148.428 120.06ZM148.421 120.273L140.806 106.408L140.617 106.512L148.232 120.377L155.847 134.242L156.036 134.139L148.421 120.273ZM148.232 120.377L140.617 106.512L104.807 126.181L112.423 140.046L120.038 153.911L155.848 134.242L148.232 120.377ZM112.423 140.046L104.82 126.174L104.515 126.341L112.118 140.213L119.721 154.085L120.026 153.918L112.423 140.046ZM112.118 140.213L125.321 131.5L125.13 131.21L111.927 139.923L98.724 148.636L98.9154 148.926L112.118 140.213ZM111.927 139.923L125.134 131.217L123.733 129.091L110.525 137.797L97.3179 146.503L98.7193 148.629L111.927 139.923ZM110.525 137.797L123.756 129.126L123.643 128.953L110.412 137.624L97.1816 146.295L97.2949 146.468L110.525 137.797ZM110.412 137.624L124.861 144.062L124.945 143.874L110.496 137.436L96.047 130.997L95.9631 131.186L110.412 137.624ZM110.496 137.436L124.938 143.891L138.179 114.267L123.737 107.812L109.296 101.356L96.0545 130.98L110.496 137.436ZM123.737 107.812L138.175 114.275L138.25 114.107L123.812 107.644L109.375 101.18L109.299 101.348L123.737 107.812ZM123.812 107.644L127.59 123.005L127.769 122.961L123.991 107.6L120.214 92.2386L120.035 92.2825L123.812 107.644ZM123.991 107.6L127.777 122.959L147.984 117.978L144.198 102.619L140.413 87.2602L120.206 92.2406L123.991 107.6ZM144.198 102.619L158.862 108.552L168.84 83.8932L154.176 77.96L139.512 72.0267L129.534 96.6859L144.198 102.619ZM154.176 77.96L151.273 62.41L135.601 65.3358L138.504 80.8857L141.407 96.4357L157.079 93.5099L154.176 77.96ZM138.504 80.8857L135.606 65.3349L135.061 65.4365L137.959 80.9873L140.857 96.5381L141.402 96.4366L138.504 80.8857ZM137.959 80.9873L153.488 83.9984L153.594 83.4544L138.064 80.4434L122.535 77.4323L122.43 77.9762L137.959 80.9873ZM138.064 80.4434L153.592 83.4654L154.993 76.2652L139.466 73.2432L123.939 70.2211L122.537 77.4213L138.064 80.4434ZM139.466 73.2432L154.991 76.2738L155.047 75.9887L139.521 72.958L123.996 69.9273L123.94 70.2125L139.466 73.2432ZM139.521 72.958L140.531 88.7444L140.821 88.7258L139.812 72.9395L138.802 57.1531L138.512 57.1717L139.521 72.958ZM139.812 72.9395L140.835 88.7249L154.483 87.8402L153.46 72.0547L152.437 56.2692L138.788 57.154L139.812 72.9395ZM153.46 72.0547L167.649 79.0468L177.803 58.4423L163.613 51.4502L149.424 44.4581L139.271 65.0626L153.46 72.0547ZM163.613 51.4502L177.814 58.4191L177.918 58.2082L163.717 51.2393L149.516 44.2703L149.412 44.4813L163.613 51.4502ZM163.717 51.2393V67.0579H167.528V51.2393V35.4206H163.717V51.2393ZM167.528 51.2393L152.217 55.2128L152.29 55.495L167.602 51.5215L182.913 47.5479L182.84 47.2657L167.528 51.2393ZM259.95 37.9512L244.796 33.4158L238.851 53.2781L254.006 57.8135L269.16 62.3489L275.105 42.4866L259.95 37.9512ZM254.006 57.8135L238.835 53.333L238.779 53.5215L253.95 58.002L269.121 62.4825L269.177 62.294L254.006 57.8135ZM253.95 58.002L248.995 42.9794L248.809 43.041L253.764 58.0635L258.719 73.086L258.905 73.0245L253.95 58.002ZM253.764 58.0635L248.809 43.0409L230.363 49.1249L235.318 64.1475L240.273 79.17L258.719 73.086L253.764 58.0635ZM235.318 64.1475L220.646 58.2365C219.972 59.9096 219.601 61.5281 219.412 62.4177L234.886 65.7021L250.36 68.9866C250.379 68.8942 250.377 68.9186 250.345 69.0349C250.327 69.0973 250.295 69.2117 250.244 69.3674C250.195 69.5182 250.112 69.7573 249.991 70.0585L235.318 64.1475ZM234.886 65.7021L219.412 62.4184C219.159 63.6091 218.97 64.7937 218.835 65.735L234.494 67.9756L250.153 70.2162C250.235 69.6466 250.309 69.2237 250.36 68.9859L234.886 65.7021ZM234.494 67.9756L218.835 65.7353C218.696 66.7033 218.592 67.5818 218.523 68.2073L234.245 69.9492L249.968 71.6911C250.012 71.2863 250.076 70.7568 250.153 70.2159L234.494 67.9756ZM234.245 69.9492L218.523 68.2074C218.506 68.3572 218.489 68.5162 218.473 68.6682L234.205 70.3184L249.937 71.9685C249.944 71.9052 249.954 71.8155 249.968 71.691L234.245 69.9492ZM234.205 70.3184L236.274 86.0011L258.516 83.0665L256.447 67.3838L254.378 51.7011L232.136 54.6357L234.205 70.3184ZM256.447 67.3838L258.434 83.0772L258.588 83.0576L256.602 67.3643L254.615 51.6709L254.461 51.6904L256.447 67.3838ZM256.602 67.3643L247.015 79.9469L247.138 80.0406L256.725 67.458L266.311 54.8754L266.188 54.7816L256.602 67.3643ZM256.725 67.458L247.132 80.0361L256.447 87.1406L266.04 74.5625L275.633 61.9844L266.317 54.8799L256.725 67.458ZM266.04 74.5625L256.462 87.1514L257.135 87.6641L266.714 75.0752L276.292 62.4863L275.619 61.9736L266.04 74.5625ZM266.714 75.0752L263.794 59.5283L262.962 59.6846L265.882 75.2314L268.801 90.7783L269.633 90.622L266.714 75.0752ZM265.882 75.2314L262.964 59.6843L251.392 61.8561L254.31 77.4033L257.227 92.9505L268.8 90.7786L265.882 75.2314ZM254.31 77.4033L250.581 62.0304L237.922 65.1007L241.65 80.4736L245.379 95.8466L258.038 92.7763L254.31 77.4033ZM241.65 80.4736H225.832V82.5918H241.65H257.469V80.4736H241.65ZM241.65 82.5918L243.958 98.2412C244.246 98.1988 244.177 98.2099 244.665 98.1382L242.368 82.4873L240.071 66.8364C239.974 66.8506 239.424 66.9305 239.343 66.9424L241.65 82.5918ZM242.368 82.4873L244.665 98.1382C245.403 98.03 246.463 97.8745 247.774 97.6847L245.508 82.0293L243.241 66.3739C241.899 66.5682 240.815 66.7272 240.071 66.8364L242.368 82.4873ZM245.508 82.0293L247.774 97.6847C250.406 97.3038 254.047 96.7827 258.084 96.2218L255.907 80.5537L253.73 64.8856C249.62 65.4566 245.917 65.9865 243.241 66.3739L245.508 82.0293ZM255.907 80.5537L258.084 96.2218C266.241 95.0885 275.723 93.8344 281.815 93.2229L280.235 77.4834L278.655 61.7439C271.893 62.4227 261.862 63.7558 253.73 64.8856L255.907 80.5537ZM280.235 77.4834L281.821 93.2223L282.344 93.1696L280.759 77.4307L279.173 61.6917L278.65 61.7445L280.235 77.4834ZM280.759 77.4307L265.346 73.8715L265.228 74.3833L280.641 77.9424L296.054 81.5015L296.172 80.9898L280.759 77.4307ZM280.641 77.9424L265.226 74.39L261.579 90.2171L276.993 93.7695L292.408 97.3219L296.055 81.4948L280.641 77.9424ZM276.993 93.7695H261.175V93.7705H276.993H292.812V93.7695H276.993ZM276.993 93.7705L261.591 90.1668L257.65 107.009L273.053 110.612L288.455 114.216L292.396 97.3742L276.993 93.7705ZM273.053 110.612L257.651 107.005L257.553 107.422L272.955 111.029L288.357 114.636L288.455 114.219L273.053 110.612ZM272.955 111.029L278.486 96.209L278.085 96.0596L272.555 110.88L267.024 125.7L267.425 125.85L272.955 111.029ZM272.555 110.88L278.084 96.0593L259.182 89.0065L253.652 103.827L248.123 118.648L267.025 125.7L272.555 110.88ZM253.652 103.827L247.595 89.2141L200.78 108.618L206.837 123.231L212.894 137.845L259.709 118.44L253.652 103.827ZM206.837 123.231L200.778 108.619L200.498 108.735L206.557 123.348L212.615 137.96L212.896 137.844L206.837 123.231ZM206.557 123.348L219.552 114.328L219.379 114.079L206.384 123.099L193.389 132.119L193.562 132.368L206.557 123.348ZM206.384 123.099L219.381 114.082L215.88 109.035L202.883 118.052L189.885 127.068L193.386 132.115L206.384 123.099ZM202.883 118.052H218.701V118.051H202.883H187.064V118.052H202.883ZM202.883 118.051L215.752 108.852L212.406 104.171L199.537 113.37L186.668 122.569L190.014 127.249L202.883 118.051ZM199.537 113.37L212.413 104.182L212.126 103.779L199.25 112.968L186.374 122.156L186.661 122.559L199.537 113.37ZM199.25 112.968L204.719 127.811L205.182 127.64L199.714 112.797L194.245 97.9536L193.781 98.1245L199.25 112.968ZM199.714 112.797L205.159 127.649L215.973 123.684L210.528 108.832L205.083 93.9801L194.269 97.9449L199.714 112.797ZM210.528 108.832L216.083 123.643L227.48 119.369L221.926 104.558L216.371 89.7463L204.974 94.0208L210.528 108.832ZM221.926 104.558L235.958 111.86L248.45 87.8576L234.418 80.5547L220.386 73.2518L207.894 97.2547L221.926 104.558ZM234.418 80.5547V64.7361H225.12V80.5547V96.3733H234.418V80.5547ZM225.12 80.5547H240.939V80.5537H225.12H209.301V80.5547H225.12ZM225.12 80.5537L225.647 64.7439L212.599 64.3093L212.072 80.1191L211.546 95.929L224.594 96.3636L225.12 80.5537ZM212.072 80.1191L212.593 64.3091L211.823 64.2837L211.302 80.0938L210.781 95.9038L211.551 95.9292L212.072 80.1191ZM211.302 80.0938L223.454 90.2206L223.947 89.6288L211.795 79.502L199.643 69.3751L199.15 69.9669L211.302 80.0938ZM211.795 79.502L223.951 89.6244L244.363 65.1117L232.207 54.9893L220.051 44.8669L199.639 69.3796L211.795 79.502ZM232.207 54.9893V39.1706H224.942V54.9893V70.8079H232.207V54.9893ZM224.942 54.9893L237.675 45.6029L237.563 45.4505L224.83 54.8369L212.097 64.2233L212.21 64.3756L224.942 54.9893ZM224.83 54.8369L237.552 45.4364L230.303 35.6258L217.581 45.0264L204.859 54.4269L212.108 64.2375L224.83 54.8369ZM217.581 45.0264L230.302 35.6239L229.937 35.1298L217.216 44.5322L204.495 53.9347L204.86 54.4288L217.581 45.0264ZM217.216 44.5322L219.833 60.1329L220.438 60.0313L217.821 44.4307L215.204 28.83L214.599 28.9316L217.216 44.5322ZM217.821 44.4307L220.425 60.0336L262.131 53.0746L259.527 37.4717L256.924 21.8688L215.218 28.8278L217.821 44.4307ZM259.527 37.4717L262.132 53.0744L262.729 52.9748L260.124 37.3721L257.519 21.7694L256.923 21.869L259.527 37.4717ZM260.124 37.3721L244.973 32.8243L244.799 33.4034L259.95 37.9512L275.101 42.499L275.275 41.9199L260.124 37.3721ZM320.446 22.7451L311.801 35.9922L316.392 38.9883L325.037 25.7412L333.683 12.4941L329.092 9.49802L320.446 22.7451ZM325.037 25.7412L316.399 38.993L316.663 39.1649L325.301 25.9131L333.939 12.6613L333.675 12.4894L325.037 25.7412ZM325.301 25.9131L310.721 19.7768L310.599 20.0668L325.179 26.2031L339.759 32.3395L339.881 32.0494L325.301 25.9131ZM325.179 26.2031L310.604 20.0547L301.988 40.4795L316.562 46.6279L331.137 52.7763L339.754 32.3515L325.179 26.2031ZM316.562 46.6279L320.507 61.9469L343.563 56.0104L339.618 40.6914L335.674 25.3725L312.618 31.309L316.562 46.6279ZM339.618 40.6914L343.554 56.0126L344.086 55.8759L340.15 40.5547L336.215 25.2335L335.682 25.3702L339.618 40.6914ZM340.15 40.5547L324.441 38.6999L324.376 39.2458L340.086 41.1006L355.795 42.9554L355.86 42.4095L340.15 40.5547ZM340.086 41.1006L324.376 39.2472L323.295 48.4103L339.005 50.2637L354.715 52.1171L355.796 42.954L340.086 41.1006ZM339.005 50.2637L323.297 48.3979L323.266 48.6528L338.975 50.5186L354.683 52.3843L354.713 52.1294L339.005 50.2637ZM338.975 50.5186L334.925 35.2271L334.678 35.2925L338.728 50.584L342.777 65.8755L343.024 65.8101L338.975 50.5186ZM338.728 50.584L334.677 35.2928L302.796 43.7381L306.847 59.0293L310.897 74.3205L342.778 65.8752L338.728 50.584ZM306.847 59.0293L291.698 54.4757L274.572 111.45L289.721 116.004L304.87 120.558L321.996 63.5829L306.847 59.0293ZM289.721 116.004L274.577 111.432L274.455 111.836L289.599 116.408L304.742 120.98L304.864 120.576L289.721 116.004ZM289.599 116.408L295.825 101.867L295.438 101.701L289.211 116.242L282.984 130.784L283.372 130.95L289.599 116.408ZM289.211 116.242L295.461 101.711L284.892 97.1648L278.642 111.696L272.392 126.228L282.961 130.774L289.211 116.242ZM278.642 111.696L284.891 97.1644L284.605 97.0413L278.355 111.573L272.106 126.105L272.392 126.228L278.642 111.696ZM278.355 111.573L293.799 115L293.866 114.696L278.423 111.27L262.98 107.843L262.912 108.147L278.355 111.573ZM278.423 111.27L293.871 114.672L304.306 67.295L288.857 63.8926L273.409 60.4901L262.974 107.867L278.423 111.27ZM288.857 63.8926L284.659 48.6413L264.191 54.2761L268.39 69.5273L272.588 84.7786L293.056 79.1438L288.857 63.8926ZM268.39 69.5273L264.212 54.2704L263.812 54.3798L267.99 69.6367L272.168 84.8936L272.568 84.7843L268.39 69.5273ZM267.99 69.6367L283.566 66.8728L283.493 66.4655L267.918 69.2295L252.343 71.9934L252.415 72.4007L267.99 69.6367ZM267.918 69.2295L283.497 66.4863L280.791 51.1182L265.212 53.8613L249.633 56.6045L252.339 71.9727L267.918 69.2295ZM265.212 53.8613L280.793 51.1326L280.726 50.7478L265.145 53.4766L249.563 56.2053L249.63 56.5901L265.212 53.8613ZM265.145 53.4766L267.321 69.1448L267.707 69.0911L265.531 53.4229L263.355 37.7546L262.968 37.8083L265.145 53.4766ZM265.531 53.4229L267.707 69.0912L293.21 65.5501L291.034 49.8818L288.859 34.2135L263.356 37.7545L265.531 53.4229ZM291.034 49.8818L306.421 53.5506L310.084 38.1912L294.696 34.5225L279.309 30.8537L275.647 46.2131L291.034 49.8818ZM294.696 34.5225L310.091 38.1597L310.133 37.982L294.738 34.3447L279.344 30.7075L279.302 30.8852L294.696 34.5225ZM294.738 34.3447L301.373 48.7049L301.54 48.6278L294.905 34.2676L288.271 19.9074L288.104 19.9845L294.738 34.3447ZM294.905 34.2676L301.501 48.6457L326.679 37.0959L320.084 22.7178L313.489 8.33969L288.31 19.8895L294.905 34.2676ZM320.084 22.7178L326.708 37.0826L326.897 36.9957L320.272 22.6309L313.648 8.26602L313.46 8.35293L320.084 22.7178ZM320.272 22.6309L311.584 35.8496L311.758 35.9638L320.446 22.7451L329.135 9.52639L328.961 9.41213L320.272 22.6309ZM371.007 19.168L359.867 30.3984L377.99 48.376L389.13 37.1455L400.27 25.9151L382.147 7.93752L371.007 19.168ZM389.13 37.1455L377.974 48.3604L378.16 48.545L389.315 37.3301L400.471 26.1152L400.286 25.9306L389.13 37.1455ZM389.315 37.3301L374.895 30.8288L374.787 31.0671L389.208 37.5684L403.629 44.0696L403.736 43.8313L389.315 37.3301ZM389.208 37.5684L374.79 31.0607L340.043 108.045L354.461 114.553L368.879 121.06L403.626 44.076L389.208 37.5684ZM354.461 114.553L340.032 108.069L339.932 108.291L354.361 114.774L368.79 121.258L368.89 121.036L354.461 114.553ZM354.361 114.774V98.9558H309.999V114.774V130.593H354.361V114.774ZM309.999 114.774L322.693 105.335L322.58 105.183L309.886 114.622L297.192 124.061L297.305 124.213L309.999 114.774ZM309.886 114.622L322.586 105.191L313.898 93.4922L301.198 102.923L288.498 112.354L297.186 124.053L309.886 114.622ZM301.198 102.923L313.873 93.4587L313.764 93.3123L301.089 102.776L288.414 112.24L288.523 112.387L301.198 102.923ZM301.089 102.776L316.336 106.988L316.385 106.812L301.138 102.6L285.89 98.3876L285.841 98.5643L301.089 102.776ZM301.138 102.6L316.396 106.774L326.85 68.562L311.592 64.3877L296.334 60.2134L285.88 98.4253L301.138 102.6ZM311.592 64.3877L326.84 68.5969L326.892 68.4094L311.644 64.2002L296.395 59.991L296.343 60.1785L311.592 64.3877ZM311.644 64.2002L317.049 79.0664L317.232 79L311.826 64.1338L306.42 49.2676L306.238 49.334L311.644 64.2002ZM311.826 64.1338L317.24 78.9972L346.411 68.3722L340.997 53.5088L335.583 38.6454L306.412 49.2704L311.826 64.1338ZM340.997 53.5088L356.279 57.5948L361.09 39.5997L345.809 35.5137L330.527 31.4276L325.715 49.4228L340.997 53.5088ZM345.809 35.5137L342.032 20.1525L318.002 26.0607L321.778 41.4219L325.555 56.783L349.585 50.8748L345.809 35.5137ZM321.778 41.4219L318.009 26.059L317.109 26.2797L320.879 41.6426L324.649 57.0054L325.548 56.7847L321.778 41.4219ZM320.879 41.6426L334.309 50.0009L334.798 49.2148L321.368 40.8564L307.938 32.4981L307.449 33.2842L320.879 41.6426ZM321.368 40.8564L334.794 49.2209L337.938 44.175L324.512 35.8105L311.085 27.4461L307.942 32.492L321.368 40.8564ZM324.512 35.8105L337.939 44.1732L338.008 44.0619L324.581 35.6992L311.154 27.3366L311.084 27.4479L324.512 35.8105ZM324.581 35.6992L329.901 50.5963L330.024 50.5523L324.704 35.6553L319.384 20.7582L319.261 20.8022L324.581 35.6992ZM324.704 35.6553L330.076 50.534L375.986 33.9598L370.614 19.0811L365.243 4.20233L319.333 20.7766L324.704 35.6553ZM370.614 19.0811L376.005 33.953L376.228 33.8719L370.838 19L365.448 4.12809L365.224 4.20914L370.614 19.0811ZM370.838 19L359.685 30.2178L359.854 30.3858L371.007 19.168L382.16 7.95014L381.991 7.78217L370.838 19ZM208.553 34.5293L194.488 41.7686L206.245 64.6104L220.31 57.3711L234.374 50.1318L222.618 27.29L208.553 34.5293ZM220.31 57.3711L217.213 72.8836L222.109 73.8611L225.206 58.3486L228.303 42.8361L223.407 41.8586L220.31 57.3711ZM225.206 58.3486L222.112 73.8618L222.788 73.9966L225.882 58.4834L228.975 42.9702L228.3 42.8355L225.206 58.3486ZM225.882 58.4834L214.496 47.5015L214.018 47.9976L225.403 58.9795L236.789 69.9614L237.267 69.4653L225.882 58.4834ZM225.403 58.9795L214.017 47.9988L198.822 63.7556L210.208 74.7363L221.595 85.7171L236.79 69.9602L225.403 58.9795ZM210.208 74.7363L198.783 63.7955L198.673 63.9108L210.098 74.8516L221.523 85.7923L221.633 85.6771L210.208 74.7363ZM210.098 74.8516V59.0329H205.663V74.8516V90.6702H210.098V74.8516ZM205.663 74.8516L218.278 65.3074L218.166 65.1589L205.551 74.7031L192.936 84.2473L193.048 84.3958L205.663 74.8516ZM205.551 74.7031L218.137 65.1211L210.954 55.6865L198.368 65.2686L185.782 74.8506L192.965 84.2851L205.551 74.7031ZM198.368 65.2686L189.699 52.037L178.948 59.081L187.617 72.3125L196.286 85.544L207.037 78.5001L198.368 65.2686ZM187.617 72.3125L171.802 71.9689C171.685 77.352 172.471 83.9997 173.125 88.6474L188.789 86.4443L204.454 84.2413C203.816 79.7061 203.375 75.2641 203.432 72.6561L187.617 72.3125ZM188.789 86.4443L173.125 88.6474C173.477 91.1559 173.836 93.3826 174.107 94.9828L189.704 92.3457L205.301 89.7086C205.066 88.319 204.756 86.3907 204.454 84.2412L188.789 86.4443ZM189.704 92.3457L174.107 94.9829C174.243 95.7856 174.357 96.439 174.44 96.8984L190.011 94.1104L205.582 91.3223C205.516 90.9526 205.418 90.4003 205.301 89.7085L189.704 92.3457ZM190.011 94.1104L174.44 96.898C174.442 96.91 174.444 96.9237 174.452 96.9698C174.458 97.0039 174.472 97.0814 174.487 97.1637L190.053 94.3477L205.619 91.5316C205.621 91.5436 205.621 91.5461 205.613 91.5009C205.607 91.4678 205.595 91.398 205.582 91.3227L190.011 94.1104ZM190.053 94.3477L194.373 109.565C194.314 109.582 194.263 109.596 194.221 109.607C194.18 109.618 194.145 109.628 194.119 109.635C194.093 109.641 194.073 109.647 194.063 109.649C194.055 109.651 194.046 109.654 194.053 109.652C194.056 109.651 194.07 109.647 194.088 109.643C194.106 109.638 194.134 109.631 194.166 109.622C194.231 109.605 194.331 109.578 194.452 109.543L190.107 94.333L185.763 79.1226C185.82 79.1064 185.87 79.0924 185.913 79.0807C185.956 79.069 185.992 79.0591 186.021 79.0516C186.049 79.044 186.071 79.0381 186.085 79.0345C186.092 79.0327 186.098 79.0312 186.101 79.0303C186.104 79.0295 186.107 79.0289 186.106 79.029C186.106 79.029 186.106 79.0291 186.106 79.0291C186.105 79.0292 186.105 79.0293 186.105 79.0295C186.104 79.0297 186.102 79.0301 186.1 79.0306C186.096 79.0316 186.09 79.0332 186.083 79.0351C186.068 79.039 186.043 79.0454 186.013 79.0533C185.983 79.0614 185.943 79.072 185.897 79.0846C185.851 79.0972 185.795 79.1125 185.733 79.1303L190.053 94.3477ZM190.107 94.333L194.456 109.542C194.88 109.421 195.462 109.248 196.159 109.024L191.317 93.9648L186.475 78.9055C186.158 79.0076 185.91 79.0807 185.759 79.1238L190.107 94.333ZM191.317 93.9648L196.16 109.024C197.519 108.587 199.408 107.926 201.477 107.03L195.194 92.5127L188.912 77.9951C188.028 78.3778 187.147 78.6896 186.475 78.9055L191.317 93.9648ZM195.194 92.5127L201.477 107.03C203.497 106.156 206.013 104.921 208.473 103.256L199.609 90.1543L190.746 77.0523C190.456 77.2482 189.847 77.5905 188.912 77.9951L195.194 92.5127ZM199.609 90.1543L208.474 103.256C210.79 101.689 214.009 99.1105 216.379 95.2218L202.871 86.9893L189.364 78.7567C189.881 77.9072 190.368 77.4087 190.572 77.214C190.786 77.0105 190.871 76.9673 190.745 77.0527L199.609 90.1543ZM202.871 86.9893L216.414 95.1632L216.514 94.9982L202.971 86.8242L189.428 78.6503L189.328 78.8153L202.871 86.9893ZM202.971 86.8242L204.166 102.598L204.359 102.583L203.164 86.8096L201.969 71.0362L201.776 71.0508L202.971 86.8242ZM203.164 86.8096L204.358 102.583L228.618 100.746L227.424 84.9727L226.229 69.1992L201.97 71.0361L203.164 86.8096ZM227.424 84.9727L228.617 100.746L229.276 100.696L228.082 84.9229L226.888 69.1493L226.23 69.1991L227.424 84.9727ZM228.082 84.9229L213.892 77.9328L213.6 78.5256L227.79 85.5156L241.98 92.5056L242.272 91.9129L228.082 84.9229ZM227.79 85.5156L213.605 78.515L206.211 93.4965L220.396 100.497L234.582 107.498L241.975 92.5162L227.79 85.5156ZM220.396 100.497L206.248 93.4228L206.176 93.5673L220.324 100.642L234.473 107.716L234.545 107.571L220.396 100.497ZM220.324 100.642L215.611 85.5413L215.458 85.5892L220.171 100.689L224.884 115.79L225.037 115.742L220.324 100.642ZM220.171 100.689L215.461 85.5883L202.095 89.7573L206.805 104.858L211.515 119.96L224.881 115.791L220.171 100.689ZM206.805 104.858L200.573 90.3188L200.567 90.3217L206.798 104.861L213.029 119.401L213.036 119.398L206.805 104.858ZM206.798 104.861L202.452 89.6513L202.445 89.6533L206.791 104.863L211.137 120.073L211.144 120.071L206.798 104.861ZM206.791 104.863L202.679 89.5884L183.934 94.6343L188.046 109.909L192.158 125.184L210.903 120.138L206.791 104.863ZM188.046 109.909L183.915 94.6396L183.546 94.7392L187.678 110.009L191.809 125.278L192.177 125.179L188.046 109.909ZM187.678 110.009L203 106.077L202.905 105.708L187.583 109.64L172.261 113.572L172.356 113.941L187.678 110.009ZM187.583 109.64L202.907 105.715L187.766 46.596L172.442 50.5205L157.118 54.4451L172.259 113.564L187.583 109.64ZM172.442 50.5205L187.766 46.5927L187.687 46.2841L172.363 50.2119L157.04 54.1397L157.119 54.4483L172.442 50.5205ZM172.363 50.2119L178.77 64.6751L179.061 64.5462L172.654 50.083L166.248 35.6198L165.957 35.7487L172.363 50.2119ZM172.654 50.083L179.074 64.5403L214.485 48.8157L208.065 34.3584L201.646 19.9011L166.234 35.6257L172.654 50.083ZM208.065 34.3584L214.49 48.8136L214.815 48.6691L208.391 34.2139L201.966 19.7586L201.641 19.9032L208.065 34.3584ZM208.391 34.2139L194.321 41.4445L194.483 41.76L208.553 34.5293L222.622 27.2986L222.46 26.9832L208.391 34.2139ZM354.499 57.0244L348.275 42.4818L335.883 47.7856L342.107 62.3281L348.332 76.8707L360.723 71.567L354.499 57.0244ZM342.107 62.3281L337.761 47.1184L327.69 49.9964L332.037 65.2061L336.384 80.4158L346.454 77.5378L342.107 62.3281ZM332.037 65.2061L327.671 50.002L327.48 50.0567L331.847 65.2607L336.213 80.4648L336.403 80.4101L332.037 65.2061ZM331.847 65.2607L316.863 60.1883L316.8 60.3758L331.783 65.4482L346.766 70.5207L346.83 70.3332L331.847 65.2607ZM331.783 65.4482L316.8 60.3758L305.914 92.5311L320.897 97.6035L335.881 102.676L346.767 70.5206L331.783 65.4482ZM320.897 97.6035L305.918 92.5189L305.738 93.0511L320.717 98.1357L335.696 103.22L335.877 102.688L320.897 97.6035ZM320.717 98.1357L321.733 113.922L322.294 113.886L321.278 98.0996L320.263 82.3136L319.701 82.3498L320.717 98.1357ZM321.278 98.0996L322.291 113.886L340.365 112.727L339.353 96.9404L338.34 81.1542L320.266 82.3134L321.278 98.0996ZM339.353 96.9404L340.42 112.723L340.622 112.709L339.555 96.9268L338.487 81.1442L338.285 81.1579L339.353 96.9404ZM339.555 96.9268L353.284 104.783L353.385 104.607L339.655 96.751L325.926 88.8945L325.825 89.0703L339.555 96.9268ZM339.655 96.751L353.39 104.599L358.029 96.4802L344.295 88.6318L330.561 80.7834L325.921 88.9026L339.655 96.751ZM344.295 88.6318L357.975 96.5749L357.992 96.5447L344.312 88.6016L330.633 80.6585L330.615 80.6887L344.295 88.6318ZM344.312 88.6016L359.403 93.3444L359.414 93.3102L344.323 88.5674L329.232 83.8245L329.222 83.8587L344.312 88.6016ZM344.323 88.5674L359.283 93.7092L369.964 62.635L355.004 57.4932L340.044 52.3513L329.364 83.4255L344.323 88.5674ZM355.004 57.4932L369.965 62.6319L370.24 61.8302L355.279 56.6914L340.319 51.5527L340.043 52.3544L355.004 57.4932ZM355.279 56.6914L349.07 42.1424L348.29 42.4754L354.499 57.0244L360.708 71.5734L361.489 71.2404L355.279 56.6914Z" fill="url(#paint0_linear_526_2)" mask="url(#path-1-outside-1_526_2)"/>
<path d="M233.368 201.109L250.311 159.653V188.131L247.788 201.109H233.368Z" fill="url(#paint1_linear_526_2)"/>
</g>
<defs>
<filter id="filter0_n_526_2" x="0.585083" y="0.710205" width="407.654" height="287.053" filterUnits="userSpaceOnUse" color-interpolation-filters="sRGB">
<feFlood flood-opacity="0" result="BackgroundImageFix"/>
<feBlend mode="normal" in="SourceGraphic" in2="BackgroundImageFix" result="shape"/>
<feTurbulence type="fractalNoise" baseFrequency="2.3571009635925293 2.3571009635925293" stitchTiles="stitch" numOctaves="3" result="noise" seed="8921" />
<feComponentTransfer in="noise" result="coloredNoise1">
<feFuncR type="linear" slope="2" intercept="-0.5" />
<feFuncG type="linear" slope="2" intercept="-0.5" />
<feFuncB type="linear" slope="2" intercept="-0.5" />
<feFuncA type="discrete" tableValues="1 1 1 1 1 1 1 1 1 1 1 1 1 1 1 1 1 1 1 1 1 1 1 1 1 1 1 1 1 1 1 1 1 1 1 1 1 1 1 1 1 1 1 1 1 1 1 1 1 1 1 0 0 0 0 0 0 0 0 0 0 0 0 0 0 0 0 0 0 0 0 0 0 0 0 0 0 0 0 0 0 0 0 0 0 0 0 0 0 0 0 0 0 0 0 0 0 0 0 0 "/>
</feComponentTransfer>
<feComposite operator="in" in2="shape" in="coloredNoise1" result="noise1Clipped" />
<feComponentTransfer in="noise1Clipped" result="color1">
<feFuncA type="table" tableValues="0 0.15" />
</feComponentTransfer>
<feMerge result="effect1_noise_526_2">
<feMergeNode in="shape" />
<feMergeNode in="color1" />
</feMerge>
</filter>
<linearGradient id="paint0_linear_526_2" x1="207.658" y1="19" x2="207.658" y2="266" gradientUnits="userSpaceOnUse">
<stop stop-color="#FAA301"/>
<stop offset="1" stop-color="#DD4002"/>
</linearGradient>
<linearGradient id="paint1_linear_526_2" x1="241.84" y1="159.653" x2="241.84" y2="201.109" gradientUnits="userSpaceOnUse">
<stop stop-color="#EE6408"/>
<stop offset="1" stop-color="#E55702"/>
</linearGradient>
</defs>
</svg>
