<svg width="1071" height="106" viewBox="0 0 1071 106" fill="none" xmlns="http://www.w3.org/2000/svg">
<path d="M1022.67 0.963893L999.542 87.1129H1048.3L1043.56 104.761H976.5L1004.37 0.963893H1022.67Z" fill="#C0DF17" stroke="black" stroke-width="2"/>
<path d="M949.415 0.963893L926.284 87.1129H975.045L970.306 104.761H903.242L931.111 0.963893H949.415Z" fill="#C0DF17" stroke="black" stroke-width="2"/>
<path d="M136.778 0.963893L115.757 79.2545H123.91L121.8 87.1129H144.104L146.214 79.2545H154.215L175.236 0.963893H193.54L169.89 89.0445H161.739L159.629 96.9029H151.628L149.518 104.761H106.758L108.868 96.9029H100.867L102.977 89.0445H94.825L118.474 0.963893H136.778Z" fill="#C0DF17" stroke="black" stroke-width="2"/>
<path d="M47.4302 0.963893L45.3203 8.82229H53.3212L49.1016 24.5381H57.254L55.183 32.2513H63.3354L59.1155 47.9681H67.2669L65.1572 55.8255H73.3095L69.0896 71.5423H75.241L76.8323 65.6155H76.6819L94.0406 0.963893H112.344L84.4752 104.761H66.1715L68.2814 96.9029H60.2805L62.3904 89.0445H54.238L56.3087 81.3323H48.1574L52.3772 65.6155H44.2249L46.3348 57.7571H38.1825L42.4021 42.0413H36.4011L19.5611 104.761H1.25743L29.1265 0.963893H47.4302Z" fill="#C0DF17" stroke="black" stroke-width="2"/>
</svg>
