<svg width="1178" height="122" viewBox="0 0 1178 122" fill="none" xmlns="http://www.w3.org/2000/svg">
<path d="M1154.54 0.963893L1152.43 8.82229H1160.58L1158.51 16.5345H1166.36L1162.14 32.2513H1170.45L1155.2 89.0445H1146.89L1142.71 104.615H1134.86L1132.75 112.473H1124.6L1122.49 120.332H1103.89L1106.51 110.542H1114.97L1117.08 102.684H1125.08L1129.26 87.1129H1137.11L1151.32 34.1829H1143.47L1147.69 18.4661H1139.69L1141.76 10.7539H1133.31L1135.94 0.963893H1154.54Z" fill="#C0DF17" stroke="black" stroke-width="2"/>
<path d="M73.7017 0.963893L71.0731 10.7539H62.619L60.5483 18.4661H52.5474L48.3275 34.1829H40.4769L26.2655 87.1129H34.116L29.9354 102.684H37.9364L35.8265 110.542H44.2806L41.652 120.332H23.0456L25.1555 112.473H17.0041L19.1141 104.615H11.2635L15.4441 89.0445H7.14137L22.3901 32.2513H30.6928L34.9127 16.5345H42.7633L44.8339 8.82229H52.9853L55.0952 0.963893H73.7017Z" fill="#C0DF17" stroke="black" stroke-width="2"/>
</svg>
