<svg width="631" height="75" viewBox="0 0 631 75" fill="none" xmlns="http://www.w3.org/2000/svg">
<path d="M105.69 15.212C105.466 14.8107 105.275 14.386 105.116 13.938C104.967 13.49 104.855 13.028 104.78 12.552C104.705 12.0667 104.668 11.5767 104.668 11.082C104.668 10.27 104.743 9.50467 104.892 8.786C105.041 8.058 105.261 7.36267 105.55 6.7C105.839 6.03733 106.199 5.40267 106.628 4.796C107.057 4.18 107.552 3.58267 108.112 3.004H109.904C109.409 3.54533 108.952 4.11933 108.532 4.726C108.121 5.33267 107.762 5.972 107.454 6.644C107.146 7.316 106.908 8.03 106.74 8.786C106.572 9.53267 106.488 10.3213 106.488 11.152C106.488 11.628 106.521 12.0993 106.586 12.566C106.651 13.0327 106.74 13.4853 106.852 13.924C106.973 14.372 107.118 14.8013 107.286 15.212H105.69ZM117.686 7.134C117.686 5.734 116.972 5.048 115.992 5.048C114.62 5.048 113.346 6.798 113.346 8.87C113.346 10.27 114.06 10.956 115.04 10.956C116.412 10.956 117.686 9.206 117.686 7.134ZM110.504 8.786C110.504 5.496 112.828 2.836 116.048 2.836C118.624 2.836 120.528 4.39 120.528 7.218C120.528 10.508 118.204 13.168 114.984 13.168C112.408 13.168 110.504 11.614 110.504 8.786ZM121.979 5.552H124.583L124.163 7.232C124.723 6.168 125.633 5.384 126.697 5.384C127.929 5.384 128.825 6.448 128.825 8.352C128.825 11.124 126.991 13.168 125.227 13.168C124.191 13.168 123.337 12.398 123.197 11.236L122.119 15.52H119.487L121.979 5.552ZM124.373 11.166C125.199 11.166 126.025 10.004 126.025 8.478C126.025 7.694 125.633 7.386 125.171 7.386C124.639 7.386 124.009 7.848 123.715 9.024L123.589 9.528C123.323 10.578 123.757 11.166 124.373 11.166ZM136.545 9.654H131.883C131.883 9.724 131.883 9.794 131.883 9.878C131.883 10.984 132.303 11.334 132.905 11.334C133.507 11.334 133.927 11.068 134.193 10.564H136.321C135.817 12.23 134.361 13.168 132.751 13.168C130.791 13.168 129.349 11.894 129.349 9.836C129.349 7.47 131.295 5.384 133.717 5.384C136.363 5.384 137.413 7.232 136.545 9.654ZM133.661 6.994C133.143 6.994 132.569 7.47 132.219 8.254H134.515C134.599 7.344 134.235 6.994 133.661 6.994ZM138.385 5.552H140.989L140.583 7.148C141.227 6.056 142.221 5.384 143.313 5.384C144.741 5.384 145.469 6.49 144.993 8.38L143.845 13H141.213L142.249 8.87C142.529 7.778 142.179 7.386 141.549 7.386C140.919 7.386 140.457 7.82 140.191 8.87L139.155 13H136.523L138.385 5.552ZM150.706 3.004H153.45L152.54 6.672H156.796L157.706 3.004H160.45L157.958 13H155.214L156.208 8.996H151.952L150.958 13H148.214L150.706 3.004ZM162.429 10.032C162.429 10.83 162.821 11.194 163.283 11.194C164.137 11.194 164.921 10.032 164.921 8.52C164.921 7.722 164.543 7.358 164.081 7.358C163.227 7.358 162.429 8.52 162.429 10.032ZM159.727 9.836C159.727 7.498 161.575 5.384 164.235 5.384C166.111 5.384 167.637 6.644 167.637 8.716C167.637 11.054 165.789 13.168 163.129 13.168C161.253 13.168 159.727 11.908 159.727 9.836ZM174.645 13H172.041L172.433 11.446C171.803 12.51 170.879 13.168 169.801 13.168C168.373 13.168 167.631 12.062 168.107 10.172L169.269 5.552H171.901L170.865 9.682C170.599 10.774 170.935 11.166 171.551 11.166C172.181 11.166 172.573 10.732 172.839 9.682L173.875 5.552H176.507L174.645 13ZM177.487 5.552H180.091L179.489 7.988C180.175 6.098 180.959 5.398 181.855 5.398C181.981 5.398 182.079 5.412 182.177 5.44L181.491 8.17H180.665C179.881 8.17 179.349 8.604 179.013 9.99L178.257 13H175.625L177.487 5.552ZM181.086 10.564H183.2C183.2 11.166 183.578 11.446 184.264 11.446C184.908 11.446 185.216 11.278 185.216 10.928C185.216 10.522 184.782 10.396 183.9 10.046C183.046 9.71 182.066 9.122 182.066 7.96C182.066 6.49 183.284 5.384 185.37 5.384C187.316 5.384 188.436 6.392 188.296 7.806H186.182C186.182 7.316 185.79 7.106 185.272 7.106C184.796 7.106 184.502 7.274 184.502 7.568C184.502 7.988 184.894 8.114 185.818 8.492C187.05 8.996 187.708 9.556 187.708 10.634C187.708 12.034 186.476 13.168 184.278 13.168C182.248 13.168 181.114 12.272 181.086 10.564ZM186.349 15.212C186.844 14.6707 187.297 14.0967 187.707 13.49C188.127 12.8833 188.491 12.244 188.799 11.572C189.107 10.9 189.345 10.1907 189.513 9.444C189.681 8.688 189.765 7.89467 189.765 7.064C189.765 6.588 189.733 6.11667 189.667 5.65C189.611 5.18333 189.523 4.73067 189.401 4.292C189.28 3.844 189.135 3.41467 188.967 3.004H190.563C190.797 3.40533 190.988 3.83 191.137 4.278C191.287 4.726 191.399 5.188 191.473 5.664C191.548 6.14 191.585 6.63 191.585 7.134C191.585 7.946 191.511 8.716 191.361 9.444C191.212 10.1627 190.993 10.8533 190.703 11.516C190.414 12.1787 190.055 12.8133 189.625 13.42C189.196 14.036 188.701 14.6333 188.141 15.212H186.349Z" fill="#E3E3E3"/>
<path d="M7.12 36.44H11.28V65H6.32V44.4H0.44V40.68L3 40.52C5.72 40.36 6.44 39.56 7.12 36.44ZM22.8028 36.44H26.9628V65H22.0028V44.4H16.1228V40.68L18.6828 40.52C21.4028 40.36 22.1228 39.56 22.8028 36.44ZM33.0456 44.04H38.3256V49.2H33.0456V44.04ZM33.0456 59.84H38.3256V65H33.0456V59.84ZM59.4784 50.72C59.4784 43.04 56.6784 40.04 53.3184 40.04C49.9584 40.04 47.1584 43.04 47.1584 50.72C47.1584 58.4 49.9584 61.4 53.3184 61.4C56.6784 61.4 59.4784 58.4 59.4784 50.72ZM42.0384 50.72C42.0384 40.8 46.8784 35.96 53.3184 35.96C59.7184 35.96 64.5984 40.8 64.5984 50.72C64.5984 60.64 59.7184 65.48 53.3184 65.48C46.8784 65.48 42.0384 60.64 42.0384 50.72ZM85.3175 50.72C85.3175 43.04 82.5175 40.04 79.1575 40.04C75.7975 40.04 72.9975 43.04 72.9975 50.72C72.9975 58.4 75.7975 61.4 79.1575 61.4C82.5175 61.4 85.3175 58.4 85.3175 50.72ZM67.8775 50.72C67.8775 40.8 72.7175 35.96 79.1575 35.96C85.5575 35.96 90.4375 40.8 90.4375 50.72C90.4375 60.64 85.5575 65.48 79.1575 65.48C72.7175 65.48 67.8775 60.64 67.8775 50.72Z" fill="#E3E3E3"/>
<path d="M98.824 30.004H102.296L103.052 40H100.056L99.972 38.236H96.99L96.052 40H93.084L98.824 30.004ZM97.998 36.248H99.944L99.776 32.916L97.998 36.248ZM107.947 40L108.157 32.342C107.807 34.022 107.401 35.688 106.981 37.354L106.323 40H103.691L106.183 30.004H110.663L110.187 36.682L113.323 30.004H117.831L115.339 40H112.623L113.281 37.368C113.673 35.786 114.121 34.12 114.583 32.482L110.803 40H107.947Z" fill="#E3E3E3"/>
<path d="M140.262 51L176.262 51" stroke="#E3E3E3" stroke-width="5"/>
<path d="M199.342 65.48C192.782 65.48 188.582 62.2 188.582 57.28C188.582 54.08 190.742 51.04 194.702 50.04C191.022 48.88 189.302 46.2 189.302 43.48C189.302 39.28 193.062 35.96 199.342 35.96C205.622 35.96 209.382 39.28 209.382 43.48C209.382 46.2 207.662 48.88 203.982 50.04C207.942 51.04 210.102 54.08 210.102 57.28C210.102 62.2 205.902 65.48 199.342 65.48ZM194.462 44.08C194.462 46.52 196.422 48.2 199.342 48.2C202.262 48.2 204.222 46.52 204.222 44.08C204.222 41.6 202.262 40 199.342 40C196.422 40 194.462 41.6 194.462 44.08ZM204.942 56.84C204.942 54 202.782 52.28 199.342 52.28C195.902 52.28 193.742 54 193.742 56.84C193.742 59.76 195.902 61.44 199.342 61.44C202.782 61.44 204.942 59.76 204.942 56.84ZM213.882 44.04H219.162V49.2H213.882V44.04ZM213.882 59.84H219.162V65H213.882V59.84ZM240.315 50.72C240.315 43.04 237.515 40.04 234.155 40.04C230.795 40.04 227.995 43.04 227.995 50.72C227.995 58.4 230.795 61.4 234.155 61.4C237.515 61.4 240.315 58.4 240.315 50.72ZM222.875 50.72C222.875 40.8 227.715 35.96 234.155 35.96C240.555 35.96 245.435 40.8 245.435 50.72C245.435 60.64 240.555 65.48 234.155 65.48C227.715 65.48 222.875 60.64 222.875 50.72ZM266.154 50.72C266.154 43.04 263.354 40.04 259.994 40.04C256.634 40.04 253.834 43.04 253.834 50.72C253.834 58.4 256.634 61.4 259.994 61.4C263.354 61.4 266.154 58.4 266.154 50.72ZM248.714 50.72C248.714 40.8 253.554 35.96 259.994 35.96C266.394 35.96 271.274 40.8 271.274 50.72C271.274 60.64 266.394 65.48 259.994 65.48C253.554 65.48 248.714 60.64 248.714 50.72Z" fill="#E3E3E3"/>
<path d="M273.822 40L276.314 30.004H280.206C283.006 30.004 284.21 31.488 284.21 33.252C284.21 35.394 282.18 37.032 279.156 37.032H277.308L276.566 40H273.822ZM277.854 34.848H279.198C280.57 34.848 281.354 34.176 281.354 33.308C281.354 32.622 280.794 32.188 279.856 32.188H278.512L277.854 34.848ZM287.771 40L287.981 32.342C287.631 34.022 287.225 35.688 286.805 37.354L286.147 40H283.515L286.007 30.004H290.487L290.011 36.682L293.147 30.004H297.655L295.163 40H292.447L293.105 37.368C293.497 35.786 293.945 34.12 294.407 32.482L290.627 40H287.771Z" fill="#E3E3E3"/>
<path d="M450.755 15.212C450.531 14.8107 450.34 14.386 450.181 13.938C450.032 13.49 449.92 13.028 449.845 12.552C449.771 12.0667 449.733 11.5767 449.733 11.082C449.733 10.27 449.808 9.50467 449.957 8.786C450.107 8.058 450.326 7.36267 450.615 6.7C450.905 6.03733 451.264 5.40267 451.693 4.796C452.123 4.18 452.617 3.58267 453.177 3.004H454.969C454.475 3.54533 454.017 4.11933 453.597 4.726C453.187 5.33267 452.827 5.972 452.519 6.644C452.211 7.316 451.973 8.03 451.805 8.786C451.637 9.53267 451.553 10.3213 451.553 11.152C451.553 11.628 451.586 12.0993 451.651 12.566C451.717 13.0327 451.805 13.4853 451.917 13.924C452.039 14.372 452.183 14.8013 452.351 15.212H450.755ZM457.026 3.004H459.77L457.852 10.676H462.402L461.828 13H454.534L457.026 3.004ZM469.196 13H466.592C466.592 12.636 466.606 12.286 466.704 11.796C466.228 12.594 465.514 13.168 464.492 13.168C463.512 13.168 462.77 12.51 462.77 11.404C462.77 9.99 463.806 8.968 466.354 8.548L467.53 8.352L467.586 8.128C467.712 7.47 467.586 7.19 466.998 7.19C466.41 7.19 466.13 7.442 465.906 8.212H463.624C464.156 6.294 465.36 5.384 467.516 5.384C469.742 5.384 470.624 6.448 470.134 8.366L469.49 10.914C469.266 11.838 469.196 12.468 469.196 13ZM465.402 10.886C465.402 11.222 465.612 11.39 465.906 11.39C466.424 11.39 466.9 11.026 467.124 10.088L467.236 9.626L466.564 9.724C465.85 9.822 465.402 10.284 465.402 10.886ZM470.22 10.564H472.334C472.334 11.166 472.712 11.446 473.398 11.446C474.042 11.446 474.35 11.278 474.35 10.928C474.35 10.522 473.916 10.396 473.034 10.046C472.18 9.71 471.2 9.122 471.2 7.96C471.2 6.49 472.418 5.384 474.504 5.384C476.45 5.384 477.57 6.392 477.43 7.806H475.316C475.316 7.316 474.924 7.106 474.406 7.106C473.93 7.106 473.636 7.274 473.636 7.568C473.636 7.988 474.028 8.114 474.952 8.492C476.184 8.996 476.842 9.556 476.842 10.634C476.842 12.034 475.61 13.168 473.412 13.168C471.382 13.168 470.248 12.272 470.22 10.564ZM480.957 13C480.537 13.098 480.075 13.168 479.417 13.168C478.129 13.168 477.247 12.342 477.583 10.97L478.465 7.442H477.877L478.353 5.552H478.941L479.277 4.18H481.909L481.573 5.552H482.819L482.343 7.442H481.097L480.341 10.452C480.215 10.984 480.411 11.18 480.943 11.18H481.405L480.957 13ZM487.432 3.004H490.568C493.746 3.004 495.776 4.67 495.776 7.302C495.776 10.914 492.374 13 489.168 13H484.94L487.432 3.004ZM488.23 10.816H489.238C491.408 10.816 492.878 9.234 492.878 7.288C492.878 5.86 491.828 5.188 490.484 5.188H489.63L488.23 10.816ZM502.077 13H499.473C499.473 12.636 499.487 12.286 499.585 11.796C499.109 12.594 498.395 13.168 497.373 13.168C496.393 13.168 495.651 12.51 495.651 11.404C495.651 9.99 496.687 8.968 499.235 8.548L500.411 8.352L500.467 8.128C500.593 7.47 500.467 7.19 499.879 7.19C499.291 7.19 499.011 7.442 498.787 8.212H496.505C497.037 6.294 498.241 5.384 500.397 5.384C502.623 5.384 503.505 6.448 503.015 8.366L502.371 10.914C502.147 11.838 502.077 12.468 502.077 13ZM498.283 10.886C498.283 11.222 498.493 11.39 498.787 11.39C499.305 11.39 499.781 11.026 500.005 10.088L500.117 9.626L499.445 9.724C498.731 9.822 498.283 10.284 498.283 10.886ZM507.272 12.748C506.096 14.792 504.808 15.702 503.128 15.702C502.498 15.702 501.882 15.66 501.504 15.604L501.98 13.7H502.974C503.814 13.7 504.192 13.56 504.612 12.748L504.64 12.692L503.66 5.552H506.278L506.376 7.176C506.418 7.974 506.488 9.01 506.516 9.99L508.812 5.552H511.416L507.272 12.748ZM508.542 15.212C509.036 14.6707 509.489 14.0967 509.9 13.49C510.32 12.8833 510.684 12.244 510.992 11.572C511.3 10.9 511.538 10.1907 511.706 9.444C511.874 8.688 511.958 7.89467 511.958 7.064C511.958 6.588 511.925 6.11667 511.86 5.65C511.804 5.18333 511.715 4.73067 511.594 4.292C511.472 3.844 511.328 3.41467 511.16 3.004H512.756C512.989 3.40533 513.18 3.83 513.33 4.278C513.479 4.726 513.591 5.188 513.666 5.664C513.74 6.14 513.778 6.63 513.778 7.134C513.778 7.946 513.703 8.716 513.554 9.444C513.404 10.1627 513.185 10.8533 512.896 11.516C512.606 12.1787 512.247 12.8133 511.818 13.42C511.388 14.036 510.894 14.6333 510.334 15.212H508.542Z" fill="#E3E3E3"/>
<path d="M341.382 36.44H345.542V65H340.582V44.4H334.702V40.68L337.262 40.52C339.982 40.36 340.702 39.56 341.382 36.44ZM357.065 36.44H361.225V65H356.265V44.4H350.385V40.68L352.945 40.52C355.665 40.36 356.385 39.56 357.065 36.44ZM367.307 44.04H372.587V49.2H367.307V44.04ZM367.307 59.84H372.587V65H367.307V59.84ZM393.74 50.72C393.74 43.04 390.94 40.04 387.58 40.04C384.22 40.04 381.42 43.04 381.42 50.72C381.42 58.4 384.22 61.4 387.58 61.4C390.94 61.4 393.74 58.4 393.74 50.72ZM376.3 50.72C376.3 40.8 381.14 35.96 387.58 35.96C393.98 35.96 398.86 40.8 398.86 50.72C398.86 60.64 393.98 65.48 387.58 65.48C381.14 65.48 376.3 60.64 376.3 50.72ZM419.579 50.72C419.579 43.04 416.779 40.04 413.419 40.04C410.059 40.04 407.259 43.04 407.259 50.72C407.259 58.4 410.059 61.4 413.419 61.4C416.779 61.4 419.579 58.4 419.579 50.72ZM402.139 50.72C402.139 40.8 406.979 35.96 413.419 35.96C419.819 35.96 424.699 40.8 424.699 50.72C424.699 60.64 419.819 65.48 413.419 65.48C406.979 65.48 402.139 60.64 402.139 50.72Z" fill="#E3E3E3"/>
<path d="M433.086 30.004H436.558L437.314 40H434.318L434.234 38.236H431.252L430.314 40H427.346L433.086 30.004ZM432.26 36.248H434.206L434.038 32.916L432.26 36.248ZM442.209 40L442.419 32.342C442.069 34.022 441.663 35.688 441.243 37.354L440.585 40H437.953L440.445 30.004H444.925L444.449 36.682L447.585 30.004H452.093L449.601 40H446.885L447.543 37.368C447.935 35.786 448.383 34.12 448.845 32.482L445.065 40H442.209Z" fill="#E3E3E3"/>
<path d="M466.262 51L502.262 51" stroke="#E3E3E3" stroke-width="5"/>
<path d="M523.862 45.56H519.502C519.782 40.16 523.622 35.96 529.782 35.96C536.062 35.96 539.822 39.48 539.822 44.68C539.822 49.48 536.782 53.64 529.102 58.8L525.982 60.88H540.342V65H519.422V61.2L526.382 56.04C532.622 51.4 534.702 48.36 534.702 45.04C534.702 42.04 532.782 40 529.462 40C526.422 40 524.142 41.92 523.862 45.56ZM545.028 44.04H550.308V49.2H545.028V44.04ZM545.028 59.84H550.308V65H545.028V59.84ZM572.66 50.72C572.66 43.04 569.86 40.04 566.5 40.04C563.14 40.04 560.34 43.04 560.34 50.72C560.34 58.4 563.14 61.4 566.5 61.4C569.86 61.4 572.66 58.4 572.66 50.72ZM555.22 50.72C555.22 40.8 560.06 35.96 566.5 35.96C572.9 35.96 577.78 40.8 577.78 50.72C577.78 60.64 572.9 65.48 566.5 65.48C560.06 65.48 555.22 60.64 555.22 50.72ZM598.5 50.72C598.5 43.04 595.7 40.04 592.34 40.04C588.98 40.04 586.18 43.04 586.18 50.72C586.18 58.4 588.98 61.4 592.34 61.4C595.7 61.4 598.5 58.4 598.5 50.72ZM581.06 50.72C581.06 40.8 585.9 35.96 592.34 35.96C598.74 35.96 603.62 40.8 603.62 50.72C603.62 60.64 598.74 65.48 592.34 65.48C585.9 65.48 581.06 60.64 581.06 50.72Z" fill="#E3E3E3"/>
<path d="M606.822 40L609.314 30.004H613.206C616.006 30.004 617.21 31.488 617.21 33.252C617.21 35.394 615.18 37.032 612.156 37.032H610.308L609.566 40H606.822ZM610.854 34.848H612.198C613.57 34.848 614.354 34.176 614.354 33.308C614.354 32.622 613.794 32.188 612.856 32.188H611.512L610.854 34.848ZM620.771 40L620.981 32.342C620.631 34.022 620.225 35.688 619.805 37.354L619.147 40H616.515L619.007 30.004H623.487L623.011 36.682L626.147 30.004H630.655L628.163 40H625.447L626.105 37.368C626.497 35.786 626.945 34.12 627.407 32.482L623.627 40H620.771Z" fill="#E3E3E3"/>
</svg>
