<svg width="568" height="341" viewBox="0 0 568 341" fill="none" xmlns="http://www.w3.org/2000/svg">
<mask id="path-1-outside-1_242_360" maskUnits="userSpaceOnUse" x="0.530762" y="0.0834961" width="567" height="341" fill="black">
<rect fill="white" x="0.530762" y="0.0834961" width="567" height="341"/>
<path d="M377.393 26.9201C381.916 18.1728 384.481 3.40106 393.225 7.92556C401.968 12.4501 413.578 34.5575 409.056 43.3048L366.88 124.881C368.956 124.568 371.379 124.349 373.931 124.454C377.045 124.583 382.083 125.253 386.902 128.485C386.906 128.488 386.911 128.491 386.915 128.494C388.795 129.757 390.324 131.239 391.552 132.714C392.571 131.825 393.602 130.951 394.645 130.095C407.337 119.685 423.54 110.389 440.799 108.54C448.15 107.752 457.021 108.802 464.772 113.107C473.13 117.75 480.396 126.555 480.653 139.091L480.66 139.691V139.695C480.663 140.688 480.626 141.669 480.554 142.637C487.796 142.226 494.571 146.247 497.675 152.816L500.37 158.52C501.838 161.626 502.348 165.02 501.946 168.307L539.11 159.141C548.19 156.901 556.737 150.239 559.616 159.141C562.494 168.043 558.725 189.482 550.054 192.987C522.205 204.246 493.449 213.73 466.373 223.555C459.036 226.22 452.909 229.38 444.428 233.245C436.407 236.901 427.129 240.739 416.132 242.91L416.129 242.911C405.806 244.946 391.308 247.394 377.125 241.559C375.963 244.408 373.793 248.37 371.842 251.642C369.654 255.311 366.585 260.061 363.394 263.749L363.393 263.748C360.842 266.698 357.338 270.04 353.958 272.914C350.716 275.671 346.452 278.973 342.342 281.155L342.341 281.154C335.843 284.605 321.911 290.266 308.125 280.815C292.613 270.18 291.779 253.042 292.504 242.998C276.236 256.016 255.245 265.413 230.473 261.929C229.108 261.737 227.754 261.494 226.417 261.186L212.812 309.851C210.588 317.807 192.697 328.78 184.446 328.452C176.195 328.125 179.744 316.583 178.156 308.476C177.262 303.909 176.927 299.316 176.782 295.264C162.562 302.388 144.807 311.058 126.606 318.436C106.863 326.44 85.0358 332.699 65.8309 334.083H65.8283C9.72879 332.583 5.229 303.083 8.22882 285.187C11.2286 267.291 19.6424 251.802 32.5119 237.552C46.0759 222.532 62.7743 209.953 75.1073 202.263L75.109 202.263C81.5634 198.239 88.6362 194.32 96.0934 190.802C92.4795 184.587 91.1219 177.611 92.0727 170.391C93.3135 160.968 98.3165 152.939 101.937 147.698C102.076 147.495 102.219 147.295 102.36 147.095C101.679 146.924 100.968 146.726 100.242 146.494C92.4396 143.999 81.8487 128.313 82.391 120.135C82.9333 111.958 94.4691 113.396 102.533 111.954L151.891 103.131C151.891 88.9177 144.18 16.7142 153.685 14.1674C165.206 11.0807 188.918 66.9917 196.304 79.7963C198.938 77.9849 201.586 76.1517 204.261 74.2979C212.167 68.8177 220.322 63.1577 228.662 57.7147L231.439 55.9211C238.666 51.2876 250.533 43.8763 250.597 43.8359C257.05 39.8053 261.505 30.3204 267.415 35.1125C273.325 39.9048 279.387 57.9179 276.782 65.0686C276.768 65.1064 275.661 68.145 273.875 73.065C272.203 77.6696 269.937 83.9203 267.415 90.9003C275.577 87.8396 284.85 85.8054 294.205 86.9874L327.51 70.985C334.606 67.5752 334.594 68.5543 348.111 74.7341C362.194 52.9018 373.526 34.3998 377.393 26.9201ZM393.225 35.1125C380.895 58.9612 305.232 175.247 287.766 188.799L286.241 189.976C278.118 196.213 262.784 207.429 254.287 208.859C249.796 209.616 243.952 208.312 241.781 203.969C240.312 201.035 238.378 191.541 238.417 188.285C238.428 187.318 239.03 184.975 239.538 184.179C240.444 182.753 252.812 178.222 255.452 176.912C273.818 167.8 299.377 147.115 305.756 127.309C309.187 116.643 306.417 108.173 294.736 105.199C275.558 100.325 248.255 121.33 233.723 132.272C242.253 107.774 260.005 59.0493 260.037 58.9616C260.008 58.9793 244.592 68.6082 238.4 72.6497C222.211 83.2157 206.617 94.7051 190.4 105.238L169.715 69.3724V118.219C151.271 129.918 129.381 139.323 116.599 157.835L115.971 158.757C109.56 168.287 105.651 178.306 115.909 186.92C122.349 192.324 128.508 192.646 136.048 194.944C136.572 195.105 137.301 195.044 137.141 195.762C119.007 199.028 100.155 207.661 84.5342 217.398C61.915 231.501 23.3217 263.657 25.6523 293.178C26.9464 309.606 49.7624 317.938 63.884 317.23L64.5498 317.189C97.1945 314.835 143.378 292.128 173.034 277.196C178.928 274.228 184.601 270.636 190.434 267.542L192.748 271.255C195.645 282.1 193.465 293.901 195.647 305.048L209.998 253.72C209.872 253.772 163.508 272.936 145.288 278.705C128.797 283.925 91.4101 294.944 75.9471 285.416L75.5859 285.187C55.3858 271.959 81.4571 243.385 92.406 234.092C109.557 219.536 130.734 206.991 151.895 198.658C157.948 196.276 164.378 194.718 170.399 192.325C171.907 191.723 173.575 191.292 174.669 189.971C168.737 189.673 162.804 189.076 156.988 187.783C153.16 186.932 146.249 185.103 143.184 182.765C142.681 182.384 143.146 181.764 142.997 181.549C142.803 181.273 142.13 181.427 141.798 180.35C137.507 166.474 145.83 154.145 155.894 145.253C164.373 137.765 174.166 132.123 184.6 140.014C183.838 128.536 188.904 110.748 202.552 109.665C212.876 108.847 215.908 117.014 217.477 125.364C218.699 131.874 216.93 139.459 218.548 145.567C209.048 150.613 198.42 156.404 187.368 152.707C186.777 156.857 185.606 160.953 184.446 164.97C182.485 171.767 180.203 179.576 178.364 185.406C175.364 194.911 172.741 204.565 170.178 214.181L169.96 215.016C168.893 219.204 168.158 223.552 167.195 227.759C160.809 232.529 101.329 276.287 101.249 276.345C119.146 267.222 135.977 256.676 153.177 246.311C156.148 244.52 167.288 237.281 169.427 236.617C170.796 236.192 169.621 237.573 170.09 238.634C173.387 246.05 183.623 251.157 191.201 247.051C191.251 244.459 188.694 243.586 188.031 241.176C185.264 231.124 193.869 202.615 197.835 192.17C206.899 168.286 220.195 149.834 240.947 134.825C249.575 128.586 268.908 116.307 279.38 122.242C287.185 126.663 283.606 138.041 280.187 144.253C274.272 154.99 262.313 163.749 252.227 170.386C250.907 171.253 240.351 178.116 239.798 177.548C243.405 166.054 248.277 155.117 253.955 144.518C255.282 142.045 260.501 133.458 260.534 133.405C239.621 155.687 231.605 190.084 217.45 216.751C213.942 223.36 210.02 229.4 205.015 234.948C208.885 233.178 213.546 231.709 217.46 234.368C223.884 238.756 222.819 242.845 232.954 244.271C270.559 249.559 298.807 215.899 315.88 187.13C319.913 180.327 323.343 171.546 327.436 165.02C327.85 164.356 328.558 163.323 329.171 162.892C332.767 160.367 342.488 160.848 346.874 161.555C348.552 163.28 337.396 177.824 335.937 180.145C323.772 199.525 312.795 219.326 310.445 242.414C309.545 251.195 310.269 260.667 318.201 266.105C323.343 269.631 328.911 268.1 333.987 265.403C338.765 262.867 346.377 256.174 349.917 252.079C354.234 247.089 359.663 237.335 360.678 234.689C362.037 231.124 366.875 222.763 369.057 219.332C369.907 217.994 370.736 216.668 371.984 215.646C372.419 216.46 374.608 218.901 375.249 219.487C385.79 229.122 398.125 228.2 411.395 225.666L412.682 225.416C430.6 221.879 443.847 212.767 460.296 206.793C488.068 196.715 515.902 187.561 543.377 176.453L466.488 191.43C470.052 187.418 470.498 186.526 473.617 182.514C477.182 178.502 484.207 166.208 484.257 166.142L481.562 160.439C481.552 160.47 480.194 164.662 479.038 166.474C472.31 177.023 459.219 190.159 448.619 196.774C435.186 205.157 410.81 216.126 403.69 195.071C403.044 193.186 402.79 191.202 403.21 188.346C403.939 183.478 407.838 183.008 411.87 181.549C420.382 178.465 429.96 176.967 437.765 172.668C448.829 166.572 462.87 153.381 462.837 139.737C462.809 129.216 451.668 125.309 442.698 126.27C417.836 128.934 390.736 154.228 379.148 175.327C371.559 189.142 369.134 209.903 357.065 220.027C353.324 223.166 343.963 227.837 339.857 223.855L339.665 223.659C339.201 223.156 337.213 219.603 337.169 219.221C337.108 218.679 338.55 212.258 338.853 211.197C342.709 197.696 355.507 178.775 364.804 168.148C368.946 163.412 378.629 155.553 379.767 149.408C380.098 147.618 378.474 144.302 376.977 143.297C373.039 140.655 363.843 143.705 359.584 145.264L358.726 145.587C349.889 149.026 341.809 155.271 332.252 157.123C331.529 152.973 334.733 149.232 336.13 145.546L393.225 35.1125ZM444.863 137.754C447.404 137.815 448.636 138.158 450.331 139.771V139.765C454.463 143.705 450.331 149.403 447.564 153.183C441.062 162.063 430.12 168.573 420.404 173.491C418.216 174.602 405.005 180.941 403.74 179.731C404.154 174.956 406.159 170.64 408.501 166.562C414.284 156.487 432.49 137.461 444.863 137.754ZM105.667 129.508C112.633 131.735 125.282 129.79 124.984 139.45L126.343 139.433L158.098 120.135L105.667 129.508ZM300.18 103.899C300.76 103.631 302.398 103.498 304.57 105.019C306.78 106.566 308.996 111.419 309.641 112.524C309.088 110.958 310.775 106.268 313.206 104.5C315.636 102.731 328.045 91.756 335.226 87.0588L300.18 103.899Z"/>
</mask>
<path d="M377.393 26.9201C381.916 18.1728 384.481 3.40106 393.225 7.92556C401.968 12.4501 413.578 34.5575 409.056 43.3048L366.88 124.881C368.956 124.568 371.379 124.349 373.931 124.454C377.045 124.583 382.083 125.253 386.902 128.485C386.906 128.488 386.911 128.491 386.915 128.494C388.795 129.757 390.324 131.239 391.552 132.714C392.571 131.825 393.602 130.951 394.645 130.095C407.337 119.685 423.54 110.389 440.799 108.54C448.15 107.752 457.021 108.802 464.772 113.107C473.13 117.75 480.396 126.555 480.653 139.091L480.66 139.691V139.695C480.663 140.688 480.626 141.669 480.554 142.637C487.796 142.226 494.571 146.247 497.675 152.816L500.37 158.52C501.838 161.626 502.348 165.02 501.946 168.307L539.11 159.141C548.19 156.901 556.737 150.239 559.616 159.141C562.494 168.043 558.725 189.482 550.054 192.987C522.205 204.246 493.449 213.73 466.373 223.555C459.036 226.22 452.909 229.38 444.428 233.245C436.407 236.901 427.129 240.739 416.132 242.91L416.129 242.911C405.806 244.946 391.308 247.394 377.125 241.559C375.963 244.408 373.793 248.37 371.842 251.642C369.654 255.311 366.585 260.061 363.394 263.749L363.393 263.748C360.842 266.698 357.338 270.04 353.958 272.914C350.716 275.671 346.452 278.973 342.342 281.155L342.341 281.154C335.843 284.605 321.911 290.266 308.125 280.815C292.613 270.18 291.779 253.042 292.504 242.998C276.236 256.016 255.245 265.413 230.473 261.929C229.108 261.737 227.754 261.494 226.417 261.186L212.812 309.851C210.588 317.807 192.697 328.78 184.446 328.452C176.195 328.125 179.744 316.583 178.156 308.476C177.262 303.909 176.927 299.316 176.782 295.264C162.562 302.388 144.807 311.058 126.606 318.436C106.863 326.44 85.0358 332.699 65.8309 334.083H65.8283C9.72879 332.583 5.229 303.083 8.22882 285.187C11.2286 267.291 19.6424 251.802 32.5119 237.552C46.0759 222.532 62.7743 209.953 75.1073 202.263L75.109 202.263C81.5634 198.239 88.6362 194.32 96.0934 190.802C92.4795 184.587 91.1219 177.611 92.0727 170.391C93.3135 160.968 98.3165 152.939 101.937 147.698C102.076 147.495 102.219 147.295 102.36 147.095C101.679 146.924 100.968 146.726 100.242 146.494C92.4396 143.999 81.8487 128.313 82.391 120.135C82.9333 111.958 94.4691 113.396 102.533 111.954L151.891 103.131C151.891 88.9177 144.18 16.7142 153.685 14.1674C165.206 11.0807 188.918 66.9917 196.304 79.7963C198.938 77.9849 201.586 76.1517 204.261 74.2979C212.167 68.8177 220.322 63.1577 228.662 57.7147L231.439 55.9211C238.666 51.2876 250.533 43.8763 250.597 43.8359C257.05 39.8053 261.505 30.3204 267.415 35.1125C273.325 39.9048 279.387 57.9179 276.782 65.0686C276.768 65.1064 275.661 68.145 273.875 73.065C272.203 77.6696 269.937 83.9203 267.415 90.9003C275.577 87.8396 284.85 85.8054 294.205 86.9874L327.51 70.985C334.606 67.5752 334.594 68.5543 348.111 74.7341C362.194 52.9018 373.526 34.3998 377.393 26.9201ZM393.225 35.1125C380.895 58.9612 305.232 175.247 287.766 188.799L286.241 189.976C278.118 196.213 262.784 207.429 254.287 208.859C249.796 209.616 243.952 208.312 241.781 203.969C240.312 201.035 238.378 191.541 238.417 188.285C238.428 187.318 239.03 184.975 239.538 184.179C240.444 182.753 252.812 178.222 255.452 176.912C273.818 167.8 299.377 147.115 305.756 127.309C309.187 116.643 306.417 108.173 294.736 105.199C275.558 100.325 248.255 121.33 233.723 132.272C242.253 107.774 260.005 59.0493 260.037 58.9616C260.008 58.9793 244.592 68.6082 238.4 72.6497C222.211 83.2157 206.617 94.7051 190.4 105.238L169.715 69.3724V118.219C151.271 129.918 129.381 139.323 116.599 157.835L115.971 158.757C109.56 168.287 105.651 178.306 115.909 186.92C122.349 192.324 128.508 192.646 136.048 194.944C136.572 195.105 137.301 195.044 137.141 195.762C119.007 199.028 100.155 207.661 84.5342 217.398C61.915 231.501 23.3217 263.657 25.6523 293.178C26.9464 309.606 49.7624 317.938 63.884 317.23L64.5498 317.189C97.1945 314.835 143.378 292.128 173.034 277.196C178.928 274.228 184.601 270.636 190.434 267.542L192.748 271.255C195.645 282.1 193.465 293.901 195.647 305.048L209.998 253.72C209.872 253.772 163.508 272.936 145.288 278.705C128.797 283.925 91.4101 294.944 75.9471 285.416L75.5859 285.187C55.3858 271.959 81.4571 243.385 92.406 234.092C109.557 219.536 130.734 206.991 151.895 198.658C157.948 196.276 164.378 194.718 170.399 192.325C171.907 191.723 173.575 191.292 174.669 189.971C168.737 189.673 162.804 189.076 156.988 187.783C153.16 186.932 146.249 185.103 143.184 182.765C142.681 182.384 143.146 181.764 142.997 181.549C142.803 181.273 142.13 181.427 141.798 180.35C137.507 166.474 145.83 154.145 155.894 145.253C164.373 137.765 174.166 132.123 184.6 140.014C183.838 128.536 188.904 110.748 202.552 109.665C212.876 108.847 215.908 117.014 217.477 125.364C218.699 131.874 216.93 139.459 218.548 145.567C209.048 150.613 198.42 156.404 187.368 152.707C186.777 156.857 185.606 160.953 184.446 164.97C182.485 171.767 180.203 179.576 178.364 185.406C175.364 194.911 172.741 204.565 170.178 214.181L169.96 215.016C168.893 219.204 168.158 223.552 167.195 227.759C160.809 232.529 101.329 276.287 101.249 276.345C119.146 267.222 135.977 256.676 153.177 246.311C156.148 244.52 167.288 237.281 169.427 236.617C170.796 236.192 169.621 237.573 170.09 238.634C173.387 246.05 183.623 251.157 191.201 247.051C191.251 244.459 188.694 243.586 188.031 241.176C185.264 231.124 193.869 202.615 197.835 192.17C206.899 168.286 220.195 149.834 240.947 134.825C249.575 128.586 268.908 116.307 279.38 122.242C287.185 126.663 283.606 138.041 280.187 144.253C274.272 154.99 262.313 163.749 252.227 170.386C250.907 171.253 240.351 178.116 239.798 177.548C243.405 166.054 248.277 155.117 253.955 144.518C255.282 142.045 260.501 133.458 260.534 133.405C239.621 155.687 231.605 190.084 217.45 216.751C213.942 223.36 210.02 229.4 205.015 234.948C208.885 233.178 213.546 231.709 217.46 234.368C223.884 238.756 222.819 242.845 232.954 244.271C270.559 249.559 298.807 215.899 315.88 187.13C319.913 180.327 323.343 171.546 327.436 165.02C327.85 164.356 328.558 163.323 329.171 162.892C332.767 160.367 342.488 160.848 346.874 161.555C348.552 163.28 337.396 177.824 335.937 180.145C323.772 199.525 312.795 219.326 310.445 242.414C309.545 251.195 310.269 260.667 318.201 266.105C323.343 269.631 328.911 268.1 333.987 265.403C338.765 262.867 346.377 256.174 349.917 252.079C354.234 247.089 359.663 237.335 360.678 234.689C362.037 231.124 366.875 222.763 369.057 219.332C369.907 217.994 370.736 216.668 371.984 215.646C372.419 216.46 374.608 218.901 375.249 219.487C385.79 229.122 398.125 228.2 411.395 225.666L412.682 225.416C430.6 221.879 443.847 212.767 460.296 206.793C488.068 196.715 515.902 187.561 543.377 176.453L466.488 191.43C470.052 187.418 470.498 186.526 473.617 182.514C477.182 178.502 484.207 166.208 484.257 166.142L481.562 160.439C481.552 160.47 480.194 164.662 479.038 166.474C472.31 177.023 459.219 190.159 448.619 196.774C435.186 205.157 410.81 216.126 403.69 195.071C403.044 193.186 402.79 191.202 403.21 188.346C403.939 183.478 407.838 183.008 411.87 181.549C420.382 178.465 429.96 176.967 437.765 172.668C448.829 166.572 462.87 153.381 462.837 139.737C462.809 129.216 451.668 125.309 442.698 126.27C417.836 128.934 390.736 154.228 379.148 175.327C371.559 189.142 369.134 209.903 357.065 220.027C353.324 223.166 343.963 227.837 339.857 223.855L339.665 223.659C339.201 223.156 337.213 219.603 337.169 219.221C337.108 218.679 338.55 212.258 338.853 211.197C342.709 197.696 355.507 178.775 364.804 168.148C368.946 163.412 378.629 155.553 379.767 149.408C380.098 147.618 378.474 144.302 376.977 143.297C373.039 140.655 363.843 143.705 359.584 145.264L358.726 145.587C349.889 149.026 341.809 155.271 332.252 157.123C331.529 152.973 334.733 149.232 336.13 145.546L393.225 35.1125ZM444.863 137.754C447.404 137.815 448.636 138.158 450.331 139.771V139.765C454.463 143.705 450.331 149.403 447.564 153.183C441.062 162.063 430.12 168.573 420.404 173.491C418.216 174.602 405.005 180.941 403.74 179.731C404.154 174.956 406.159 170.64 408.501 166.562C414.284 156.487 432.49 137.461 444.863 137.754ZM105.667 129.508C112.633 131.735 125.282 129.79 124.984 139.45L126.343 139.433L158.098 120.135L105.667 129.508ZM300.18 103.899C300.76 103.631 302.398 103.498 304.57 105.019C306.78 106.566 308.996 111.419 309.641 112.524C309.088 110.958 310.775 106.268 313.206 104.5C315.636 102.731 328.045 91.756 335.226 87.0588L300.18 103.899Z" fill="#302929"/>
<path d="M377.393 26.9201C381.916 18.1728 384.481 3.40106 393.225 7.92556C401.968 12.4501 413.578 34.5575 409.056 43.3048L366.88 124.881C368.956 124.568 371.379 124.349 373.931 124.454C377.045 124.583 382.083 125.253 386.902 128.485C386.906 128.488 386.911 128.491 386.915 128.494C388.795 129.757 390.324 131.239 391.552 132.714C392.571 131.825 393.602 130.951 394.645 130.095C407.337 119.685 423.54 110.389 440.799 108.54C448.15 107.752 457.021 108.802 464.772 113.107C473.13 117.75 480.396 126.555 480.653 139.091L480.66 139.691V139.695C480.663 140.688 480.626 141.669 480.554 142.637C487.796 142.226 494.571 146.247 497.675 152.816L500.37 158.52C501.838 161.626 502.348 165.02 501.946 168.307L539.11 159.141C548.19 156.901 556.737 150.239 559.616 159.141C562.494 168.043 558.725 189.482 550.054 192.987C522.205 204.246 493.449 213.73 466.373 223.555C459.036 226.22 452.909 229.38 444.428 233.245C436.407 236.901 427.129 240.739 416.132 242.91L416.129 242.911C405.806 244.946 391.308 247.394 377.125 241.559C375.963 244.408 373.793 248.37 371.842 251.642C369.654 255.311 366.585 260.061 363.394 263.749L363.393 263.748C360.842 266.698 357.338 270.04 353.958 272.914C350.716 275.671 346.452 278.973 342.342 281.155L342.341 281.154C335.843 284.605 321.911 290.266 308.125 280.815C292.613 270.18 291.779 253.042 292.504 242.998C276.236 256.016 255.245 265.413 230.473 261.929C229.108 261.737 227.754 261.494 226.417 261.186L212.812 309.851C210.588 317.807 192.697 328.78 184.446 328.452C176.195 328.125 179.744 316.583 178.156 308.476C177.262 303.909 176.927 299.316 176.782 295.264C162.562 302.388 144.807 311.058 126.606 318.436C106.863 326.44 85.0358 332.699 65.8309 334.083H65.8283C9.72879 332.583 5.229 303.083 8.22882 285.187C11.2286 267.291 19.6424 251.802 32.5119 237.552C46.0759 222.532 62.7743 209.953 75.1073 202.263L75.109 202.263C81.5634 198.239 88.6362 194.32 96.0934 190.802C92.4795 184.587 91.1219 177.611 92.0727 170.391C93.3135 160.968 98.3165 152.939 101.937 147.698C102.076 147.495 102.219 147.295 102.36 147.095C101.679 146.924 100.968 146.726 100.242 146.494C92.4396 143.999 81.8487 128.313 82.391 120.135C82.9333 111.958 94.4691 113.396 102.533 111.954L151.891 103.131C151.891 88.9177 144.18 16.7142 153.685 14.1674C165.206 11.0807 188.918 66.9917 196.304 79.7963C198.938 77.9849 201.586 76.1517 204.261 74.2979C212.167 68.8177 220.322 63.1577 228.662 57.7147L231.439 55.9211C238.666 51.2876 250.533 43.8763 250.597 43.8359C257.05 39.8053 261.505 30.3204 267.415 35.1125C273.325 39.9048 279.387 57.9179 276.782 65.0686C276.768 65.1064 275.661 68.145 273.875 73.065C272.203 77.6696 269.937 83.9203 267.415 90.9003C275.577 87.8396 284.85 85.8054 294.205 86.9874L327.51 70.985C334.606 67.5752 334.594 68.5543 348.111 74.7341C362.194 52.9018 373.526 34.3998 377.393 26.9201ZM393.225 35.1125C380.895 58.9612 305.232 175.247 287.766 188.799L286.241 189.976C278.118 196.213 262.784 207.429 254.287 208.859C249.796 209.616 243.952 208.312 241.781 203.969C240.312 201.035 238.378 191.541 238.417 188.285C238.428 187.318 239.03 184.975 239.538 184.179C240.444 182.753 252.812 178.222 255.452 176.912C273.818 167.8 299.377 147.115 305.756 127.309C309.187 116.643 306.417 108.173 294.736 105.199C275.558 100.325 248.255 121.33 233.723 132.272C242.253 107.774 260.005 59.0493 260.037 58.9616C260.008 58.9793 244.592 68.6082 238.4 72.6497C222.211 83.2157 206.617 94.7051 190.4 105.238L169.715 69.3724V118.219C151.271 129.918 129.381 139.323 116.599 157.835L115.971 158.757C109.56 168.287 105.651 178.306 115.909 186.92C122.349 192.324 128.508 192.646 136.048 194.944C136.572 195.105 137.301 195.044 137.141 195.762C119.007 199.028 100.155 207.661 84.5342 217.398C61.915 231.501 23.3217 263.657 25.6523 293.178C26.9464 309.606 49.7624 317.938 63.884 317.23L64.5498 317.189C97.1945 314.835 143.378 292.128 173.034 277.196C178.928 274.228 184.601 270.636 190.434 267.542L192.748 271.255C195.645 282.1 193.465 293.901 195.647 305.048L209.998 253.72C209.872 253.772 163.508 272.936 145.288 278.705C128.797 283.925 91.4101 294.944 75.9471 285.416L75.5859 285.187C55.3858 271.959 81.4571 243.385 92.406 234.092C109.557 219.536 130.734 206.991 151.895 198.658C157.948 196.276 164.378 194.718 170.399 192.325C171.907 191.723 173.575 191.292 174.669 189.971C168.737 189.673 162.804 189.076 156.988 187.783C153.16 186.932 146.249 185.103 143.184 182.765C142.681 182.384 143.146 181.764 142.997 181.549C142.803 181.273 142.13 181.427 141.798 180.35C137.507 166.474 145.83 154.145 155.894 145.253C164.373 137.765 174.166 132.123 184.6 140.014C183.838 128.536 188.904 110.748 202.552 109.665C212.876 108.847 215.908 117.014 217.477 125.364C218.699 131.874 216.93 139.459 218.548 145.567C209.048 150.613 198.42 156.404 187.368 152.707C186.777 156.857 185.606 160.953 184.446 164.97C182.485 171.767 180.203 179.576 178.364 185.406C175.364 194.911 172.741 204.565 170.178 214.181L169.96 215.016C168.893 219.204 168.158 223.552 167.195 227.759C160.809 232.529 101.329 276.287 101.249 276.345C119.146 267.222 135.977 256.676 153.177 246.311C156.148 244.52 167.288 237.281 169.427 236.617C170.796 236.192 169.621 237.573 170.09 238.634C173.387 246.05 183.623 251.157 191.201 247.051C191.251 244.459 188.694 243.586 188.031 241.176C185.264 231.124 193.869 202.615 197.835 192.17C206.899 168.286 220.195 149.834 240.947 134.825C249.575 128.586 268.908 116.307 279.38 122.242C287.185 126.663 283.606 138.041 280.187 144.253C274.272 154.99 262.313 163.749 252.227 170.386C250.907 171.253 240.351 178.116 239.798 177.548C243.405 166.054 248.277 155.117 253.955 144.518C255.282 142.045 260.501 133.458 260.534 133.405C239.621 155.687 231.605 190.084 217.45 216.751C213.942 223.36 210.02 229.4 205.015 234.948C208.885 233.178 213.546 231.709 217.46 234.368C223.884 238.756 222.819 242.845 232.954 244.271C270.559 249.559 298.807 215.899 315.88 187.13C319.913 180.327 323.343 171.546 327.436 165.02C327.85 164.356 328.558 163.323 329.171 162.892C332.767 160.367 342.488 160.848 346.874 161.555C348.552 163.28 337.396 177.824 335.937 180.145C323.772 199.525 312.795 219.326 310.445 242.414C309.545 251.195 310.269 260.667 318.201 266.105C323.343 269.631 328.911 268.1 333.987 265.403C338.765 262.867 346.377 256.174 349.917 252.079C354.234 247.089 359.663 237.335 360.678 234.689C362.037 231.124 366.875 222.763 369.057 219.332C369.907 217.994 370.736 216.668 371.984 215.646C372.419 216.46 374.608 218.901 375.249 219.487C385.79 229.122 398.125 228.2 411.395 225.666L412.682 225.416C430.6 221.879 443.847 212.767 460.296 206.793C488.068 196.715 515.902 187.561 543.377 176.453L466.488 191.43C470.052 187.418 470.498 186.526 473.617 182.514C477.182 178.502 484.207 166.208 484.257 166.142L481.562 160.439C481.552 160.47 480.194 164.662 479.038 166.474C472.31 177.023 459.219 190.159 448.619 196.774C435.186 205.157 410.81 216.126 403.69 195.071C403.044 193.186 402.79 191.202 403.21 188.346C403.939 183.478 407.838 183.008 411.87 181.549C420.382 178.465 429.96 176.967 437.765 172.668C448.829 166.572 462.87 153.381 462.837 139.737C462.809 129.216 451.668 125.309 442.698 126.27C417.836 128.934 390.736 154.228 379.148 175.327C371.559 189.142 369.134 209.903 357.065 220.027C353.324 223.166 343.963 227.837 339.857 223.855L339.665 223.659C339.201 223.156 337.213 219.603 337.169 219.221C337.108 218.679 338.55 212.258 338.853 211.197C342.709 197.696 355.507 178.775 364.804 168.148C368.946 163.412 378.629 155.553 379.767 149.408C380.098 147.618 378.474 144.302 376.977 143.297C373.039 140.655 363.843 143.705 359.584 145.264L358.726 145.587C349.889 149.026 341.809 155.271 332.252 157.123C331.529 152.973 334.733 149.232 336.13 145.546L393.225 35.1125ZM444.863 137.754C447.404 137.815 448.636 138.158 450.331 139.771V139.765C454.463 143.705 450.331 149.403 447.564 153.183C441.062 162.063 430.12 168.573 420.404 173.491C418.216 174.602 405.005 180.941 403.74 179.731C404.154 174.956 406.159 170.64 408.501 166.562C414.284 156.487 432.49 137.461 444.863 137.754ZM105.667 129.508C112.633 131.735 125.282 129.79 124.984 139.45L126.343 139.433L158.098 120.135L105.667 129.508ZM300.18 103.899C300.76 103.631 302.398 103.498 304.57 105.019C306.78 106.566 308.996 111.419 309.641 112.524C309.088 110.958 310.775 106.268 313.206 104.5C315.636 102.731 328.045 91.756 335.226 87.0588L300.18 103.899Z" stroke="#FF00D5" stroke-width="13.1931" stroke-linejoin="round" mask="url(#path-1-outside-1_242_360)"/>
<path d="M335.527 144.363C334.131 148.044 330.93 151.78 331.653 155.924C341.509 154.015 349.793 147.431 358.959 144.082C363.214 142.525 372.403 139.479 376.337 142.117C377.833 143.122 379.455 146.433 379.124 148.221C377.987 154.357 368.313 162.204 364.174 166.934C354.886 177.546 342.1 196.442 338.248 209.923C337.944 210.983 336.504 217.395 336.564 217.936C336.609 218.317 338.596 221.865 339.059 222.367C343.055 226.688 352.646 221.926 356.443 218.741C368.501 208.632 370.924 187.899 378.506 174.103C390.084 153.033 417.159 127.774 441.998 125.115C450.961 124.154 462.092 128.056 462.119 138.563C462.152 152.188 448.124 165.361 437.07 171.448C429.272 175.741 419.703 177.237 411.199 180.316C407.17 181.773 403.274 182.242 402.546 187.104C402.126 189.955 402.381 191.937 403.026 193.82C410.139 214.845 434.493 203.891 447.914 195.52C458.505 188.914 471.584 175.796 478.306 165.262C479.464 163.446 480.827 159.235 480.827 159.235L483.52 164.931C483.483 164.979 475.144 176.001 470.535 181.221C465.78 186.606 460.623 191.712 455.453 196.712L542.586 175.228C515.137 186.32 487.328 195.46 459.58 205.525C443.146 211.49 429.912 220.59 412.01 224.122C398.263 226.832 385.482 228.134 374.61 218.201C373.97 217.616 371.784 215.179 371.349 214.365C370.101 215.386 369.274 216.711 368.424 218.046C366.244 221.473 361.41 229.823 360.052 233.382C359.038 236.025 353.614 245.766 349.301 250.749C345.764 254.838 338.159 261.521 333.386 264.054C328.314 266.747 322.751 268.275 317.613 264.755C309.689 259.324 308.966 249.866 309.865 241.097C312.213 218.041 323.179 198.268 335.334 178.915C336.791 176.597 347.938 162.073 346.261 160.35C341.879 159.644 332.166 159.164 328.574 161.686C327.961 162.116 327.255 163.148 326.841 163.81C322.752 170.328 319.324 179.096 315.296 185.89C298.237 214.619 270.015 248.232 232.444 242.951C222.318 241.527 223.383 237.444 216.965 233.062C213.054 230.407 208.397 231.874 204.531 233.641C209.531 228.101 213.449 222.069 216.954 215.469C231.096 188.84 239.106 154.491 259.999 132.239C259.999 132.239 254.756 140.859 253.426 143.337C247.753 153.921 242.886 164.842 239.282 176.321C239.835 176.889 250.38 170.035 251.699 169.169C261.776 162.541 273.724 153.794 279.635 143.072C283.051 136.869 286.626 125.506 278.829 121.092C268.366 115.165 249.05 127.427 240.43 133.657C219.697 148.646 206.413 167.072 197.357 190.923C193.394 201.353 184.796 229.823 187.561 239.861C188.223 242.267 190.779 243.139 190.729 245.727C183.157 249.827 172.931 244.728 169.637 237.322C169.168 236.263 170.343 234.883 168.975 235.308C166.838 235.971 155.708 243.2 152.739 244.988C135.555 255.339 118.739 265.87 100.858 274.981C100.927 274.93 160.365 231.225 166.745 226.462C167.771 221.981 168.539 217.34 169.725 212.903C172.286 203.301 174.907 193.66 177.903 184.168C179.741 178.346 182.021 170.548 183.98 163.761C185.139 159.749 186.309 155.659 186.899 151.515C197.942 155.207 208.56 149.423 218.052 144.385C216.435 138.285 218.203 130.711 216.981 124.21C215.414 115.871 212.384 107.715 202.07 108.532C188.433 109.613 183.373 127.377 184.134 138.839C173.709 130.959 163.925 136.593 155.454 144.071C145.399 152.95 137.083 165.262 141.371 179.119C141.702 180.195 142.375 180.04 142.568 180.316C142.717 180.532 142.253 181.15 142.756 181.53C145.819 183.865 152.722 185.691 156.547 186.541C162.358 187.833 168.285 188.429 174.212 188.727C173.119 190.045 171.452 190.476 169.946 191.077C163.93 193.467 157.507 195.023 151.458 197.401C130.316 205.723 109.158 218.251 92.0229 232.786C81.0839 242.066 55.0366 270.601 75.2186 283.81C90.439 293.727 128.252 282.59 144.858 277.337C163.086 271.568 209.509 252.388 209.509 252.388L195.171 303.643C192.991 292.512 195.169 280.728 192.274 269.898L189.962 266.19C184.134 269.28 178.467 272.867 172.578 275.83C142.949 290.741 96.8072 313.417 64.1921 315.768C50.1471 316.778 26.6433 308.456 25.3298 291.79C23.001 262.31 61.56 230.198 84.1589 216.115C99.7655 206.391 118.6 197.771 136.718 194.51C136.878 193.792 136.15 193.853 135.626 193.693C128.093 191.398 121.939 191.077 115.505 185.68C104.925 176.801 109.429 166.426 116.194 156.636C128.965 138.149 150.835 128.757 169.262 117.074V68.296L189.929 104.111C206.131 93.5931 221.711 82.1197 237.886 71.5683C244.075 67.5308 259.487 57.9091 259.502 57.8993C259.495 57.918 241.74 106.627 233.212 131.108C247.731 120.181 275.01 99.2052 294.171 104.073C305.841 107.043 308.608 115.501 305.18 126.152C298.806 145.93 273.271 166.586 254.922 175.686C252.284 176.994 239.927 181.519 239.022 182.943C238.515 183.738 237.914 186.077 237.903 187.043C237.864 190.293 239.795 199.775 241.263 202.705C243.432 207.042 249.271 208.345 253.757 207.589C262.813 206.066 279.64 193.423 287.206 187.557C304.656 174.025 380.251 57.8993 392.57 34.0835L335.527 144.363ZM444.162 136.582C431.8 136.29 413.61 155.29 407.832 165.35C405.493 169.423 403.489 173.733 403.075 178.501C404.339 179.709 417.54 173.379 419.725 172.27C429.432 167.359 440.365 160.858 446.86 151.99C449.625 148.215 453.753 142.525 449.625 138.591V138.597C447.931 136.985 446.7 136.643 444.162 136.582ZM125.929 138.259L124.572 138.276C124.87 128.63 112.232 130.572 105.273 128.348L157.656 118.989L125.929 138.259ZM334.624 85.9574C327.45 90.6481 312.494 100.471 310.066 102.237C307.638 104.003 308.135 107.572 308.687 109.135C308.043 108.031 306.203 105.437 303.996 103.892C301.825 102.373 300.188 102.507 299.609 102.774L334.624 85.9574Z" fill="white"/>
<path d="M335.527 144.363C334.131 148.044 330.93 151.78 331.653 155.924C341.509 154.015 349.793 147.431 358.959 144.082C363.214 142.525 372.403 139.479 376.337 142.117C377.833 143.122 379.455 146.433 379.124 148.221C377.987 154.357 368.313 162.204 364.174 166.934C354.886 177.546 342.1 196.442 338.248 209.923C337.944 210.983 336.504 217.395 336.564 217.936C336.609 218.317 338.596 221.865 339.059 222.367C343.055 226.688 352.646 221.926 356.443 218.741C368.501 208.632 370.924 187.899 378.506 174.103C390.084 153.033 417.159 127.774 441.998 125.115C450.961 124.154 462.092 128.056 462.119 138.563C462.152 152.188 448.124 165.361 437.07 171.448C429.272 175.741 419.703 177.237 411.199 180.316C407.17 181.773 403.274 182.242 402.546 187.104C402.126 189.955 402.381 191.937 403.026 193.82C410.139 214.845 434.493 203.891 447.914 195.52C458.505 188.914 471.584 175.796 478.306 165.262C479.464 163.446 480.827 159.235 480.827 159.235L483.52 164.931C483.483 164.979 475.144 176.001 470.535 181.221C465.78 186.606 460.623 191.712 455.453 196.712L542.586 175.228C515.137 186.32 487.328 195.46 459.58 205.525C443.146 211.49 429.912 220.59 412.01 224.122C398.263 226.832 385.482 228.134 374.61 218.201C373.97 217.616 371.784 215.179 371.349 214.365C370.101 215.386 369.274 216.711 368.424 218.046C366.244 221.473 361.41 229.823 360.052 233.382C359.038 236.025 353.614 245.766 349.301 250.749C345.764 254.838 338.159 261.521 333.386 264.054C328.314 266.747 322.751 268.275 317.613 264.755C309.689 259.324 308.966 249.866 309.865 241.097C312.213 218.041 323.179 198.268 335.334 178.915C336.791 176.597 347.938 162.073 346.261 160.35C341.879 159.644 332.166 159.164 328.574 161.686C327.961 162.116 327.255 163.148 326.841 163.81C322.752 170.328 319.324 179.096 315.296 185.89C298.237 214.619 270.015 248.232 232.444 242.951C222.318 241.527 223.383 237.444 216.965 233.062C213.054 230.407 208.397 231.874 204.531 233.641C209.531 228.101 213.449 222.069 216.954 215.469C231.096 188.84 239.106 154.491 259.999 132.239C259.999 132.239 254.756 140.859 253.426 143.337C247.753 153.921 242.886 164.842 239.282 176.321C239.835 176.889 250.38 170.035 251.699 169.169C261.776 162.541 273.724 153.794 279.635 143.072C283.051 136.869 286.626 125.506 278.829 121.092C268.366 115.165 249.05 127.427 240.43 133.657C219.697 148.646 206.413 167.072 197.357 190.923C193.394 201.353 184.796 229.823 187.561 239.861C188.223 242.267 190.779 243.139 190.729 245.727C183.157 249.827 172.931 244.728 169.637 237.322C169.168 236.263 170.343 234.883 168.975 235.308C166.838 235.971 155.708 243.2 152.739 244.988C135.555 255.339 118.739 265.87 100.858 274.981C100.927 274.93 160.365 231.225 166.745 226.462C167.771 221.981 168.539 217.34 169.725 212.903C172.286 203.301 174.907 193.66 177.903 184.168C179.741 178.346 182.021 170.548 183.98 163.761C185.139 159.749 186.309 155.659 186.899 151.515C197.942 155.207 208.56 149.423 218.052 144.385C216.435 138.285 218.203 130.711 216.981 124.21C215.414 115.871 212.384 107.715 202.07 108.532C188.433 109.613 183.373 127.377 184.134 138.839C173.709 130.959 163.925 136.593 155.454 144.071C145.399 152.95 137.083 165.262 141.371 179.119C141.702 180.195 142.375 180.04 142.568 180.316C142.717 180.532 142.253 181.15 142.756 181.53C145.819 183.865 152.722 185.691 156.547 186.541C162.358 187.833 168.285 188.429 174.212 188.727C173.119 190.045 171.452 190.476 169.946 191.077C163.93 193.467 157.507 195.023 151.458 197.401C130.316 205.723 109.158 218.251 92.0229 232.786C81.0839 242.066 55.0366 270.601 75.2186 283.81C90.439 293.727 128.252 282.59 144.858 277.337C163.086 271.568 209.509 252.388 209.509 252.388L195.171 303.643C192.991 292.512 195.169 280.728 192.274 269.898L189.962 266.19C184.134 269.28 178.467 272.867 172.578 275.83C142.949 290.741 96.8072 313.417 64.1921 315.768C50.1471 316.778 26.6433 308.456 25.3298 291.79C23.001 262.31 61.56 230.198 84.1589 216.115C99.7655 206.391 118.6 197.771 136.718 194.51C136.878 193.792 136.15 193.853 135.626 193.693C128.093 191.398 121.939 191.077 115.505 185.68C104.925 176.801 109.429 166.426 116.194 156.636C128.965 138.149 150.835 128.757 169.262 117.074V68.296L189.929 104.111C206.131 93.5931 221.711 82.1197 237.886 71.5683C244.075 67.5308 259.487 57.9091 259.502 57.8993C259.495 57.918 241.74 106.627 233.212 131.108C247.731 120.181 275.01 99.2052 294.171 104.073C305.841 107.043 308.608 115.501 305.18 126.152C298.806 145.93 273.271 166.586 254.922 175.686C252.284 176.994 239.927 181.519 239.022 182.943C238.515 183.738 237.914 186.077 237.903 187.043C237.864 190.293 239.795 199.775 241.263 202.705C243.432 207.042 249.271 208.345 253.757 207.589C262.813 206.066 279.64 193.423 287.206 187.557C304.656 174.025 380.251 57.8993 392.57 34.0835L335.527 144.363ZM444.162 136.582C431.8 136.29 413.61 155.29 407.832 165.35C405.493 169.423 403.489 173.733 403.075 178.501C404.339 179.709 417.54 173.379 419.725 172.27C429.432 167.359 440.365 160.858 446.86 151.99C449.625 148.215 453.753 142.525 449.625 138.591V138.597C447.931 136.985 446.7 136.643 444.162 136.582ZM125.929 138.259L124.572 138.276C124.87 128.63 112.232 130.572 105.273 128.348L157.656 118.989L125.929 138.259ZM334.624 85.9574C327.45 90.6481 312.494 100.471 310.066 102.237C307.638 104.003 308.135 107.572 308.687 109.135C308.043 108.031 306.203 105.437 303.996 103.892C301.825 102.373 300.188 102.507 299.609 102.774L334.624 85.9574Z" fill="url(#paint0_linear_242_360)"/>
<defs>
<linearGradient id="paint0_linear_242_360" x1="283.908" y1="34.0835" x2="283.908" y2="315.85" gradientUnits="userSpaceOnUse">
<stop stop-color="#FF68EC"/>
<stop offset="1" stop-color="#FF25C8"/>
</linearGradient>
</defs>
</svg>
